%TF.GenerationSoftware,KiCad,Pcbnew,9.0.4*%
%TF.CreationDate,2025-10-06T17:00:54-04:00*%
%TF.ProjectId,8051_breakout,38303531-5f62-4726-9561-6b6f75742e6b,rev?*%
%TF.SameCoordinates,Original*%
%TF.FileFunction,Copper,L1,Top*%
%TF.FilePolarity,Positive*%
%FSLAX46Y46*%
G04 Gerber Fmt 4.6, Leading zero omitted, Abs format (unit mm)*
G04 Created by KiCad (PCBNEW 9.0.4) date 2025-10-06 17:00:54*
%MOMM*%
%LPD*%
G01*
G04 APERTURE LIST*
G04 Aperture macros list*
%AMRoundRect*
0 Rectangle with rounded corners*
0 $1 Rounding radius*
0 $2 $3 $4 $5 $6 $7 $8 $9 X,Y pos of 4 corners*
0 Add a 4 corners polygon primitive as box body*
4,1,4,$2,$3,$4,$5,$6,$7,$8,$9,$2,$3,0*
0 Add four circle primitives for the rounded corners*
1,1,$1+$1,$2,$3*
1,1,$1+$1,$4,$5*
1,1,$1+$1,$6,$7*
1,1,$1+$1,$8,$9*
0 Add four rect primitives between the rounded corners*
20,1,$1+$1,$2,$3,$4,$5,0*
20,1,$1+$1,$4,$5,$6,$7,0*
20,1,$1+$1,$6,$7,$8,$9,0*
20,1,$1+$1,$8,$9,$2,$3,0*%
G04 Aperture macros list end*
%TA.AperFunction,ComponentPad*%
%ADD10C,1.700000*%
%TD*%
%TA.AperFunction,SMDPad,CuDef*%
%ADD11RoundRect,0.250000X0.450000X-0.350000X0.450000X0.350000X-0.450000X0.350000X-0.450000X-0.350000X0*%
%TD*%
%TA.AperFunction,ComponentPad*%
%ADD12C,1.500000*%
%TD*%
%TA.AperFunction,ComponentPad*%
%ADD13C,3.800000*%
%TD*%
%TA.AperFunction,ComponentPad*%
%ADD14R,1.600000X1.600000*%
%TD*%
%TA.AperFunction,ComponentPad*%
%ADD15C,1.600000*%
%TD*%
%TA.AperFunction,SMDPad,CuDef*%
%ADD16RoundRect,0.250000X-0.475000X0.337500X-0.475000X-0.337500X0.475000X-0.337500X0.475000X0.337500X0*%
%TD*%
%TA.AperFunction,SMDPad,CuDef*%
%ADD17RoundRect,0.250000X0.475000X-0.337500X0.475000X0.337500X-0.475000X0.337500X-0.475000X-0.337500X0*%
%TD*%
%TA.AperFunction,SMDPad,CuDef*%
%ADD18RoundRect,0.250000X0.450000X-0.325000X0.450000X0.325000X-0.450000X0.325000X-0.450000X-0.325000X0*%
%TD*%
%TA.AperFunction,ComponentPad*%
%ADD19C,2.000000*%
%TD*%
%TA.AperFunction,ComponentPad*%
%ADD20R,1.524000X1.524000*%
%TD*%
%TA.AperFunction,ComponentPad*%
%ADD21C,1.524000*%
%TD*%
%TA.AperFunction,ViaPad*%
%ADD22C,0.600000*%
%TD*%
%TA.AperFunction,Conductor*%
%ADD23C,0.800000*%
%TD*%
%TA.AperFunction,Conductor*%
%ADD24C,0.300000*%
%TD*%
G04 APERTURE END LIST*
D10*
%TO.P,J3,1,Pin_1*%
%TO.N,/RST*%
X109220000Y-59690000D03*
%TO.P,J3,2,Pin_2*%
%TO.N,/(SCK)P1.7*%
X111760000Y-59690000D03*
%TO.P,J3,3,Pin_3*%
%TO.N,/(MISO)P1.6*%
X114300000Y-59690000D03*
%TO.P,J3,4,Pin_4*%
%TO.N,+5V*%
X114300000Y-57150000D03*
%TO.P,J3,5,Pin_5*%
%TO.N,/(MOSI)P1.5*%
X111760000Y-57150000D03*
%TO.P,J3,6,Pin_6*%
%TO.N,GND*%
X109220000Y-57150000D03*
%TD*%
D11*
%TO.P,R1,1*%
%TO.N,GND*%
X124460000Y-59420000D03*
%TO.P,R1,2*%
%TO.N,/RST*%
X124460000Y-57420000D03*
%TD*%
D12*
%TO.P,Y1,1,1*%
%TO.N,/XTAL2*%
X96520000Y-106680000D03*
%TO.P,Y1,2,2*%
%TO.N,/XTAL1*%
X96520000Y-111560000D03*
%TD*%
D13*
%TO.P,H2,1*%
%TO.N,N/C*%
X137160000Y-53340000D03*
%TD*%
D14*
%TO.P,RN1,1,common*%
%TO.N,+5V*%
X127000000Y-72390000D03*
D15*
%TO.P,RN1,2,R1*%
%TO.N,/P0.0(AD0)*%
X127000000Y-74930000D03*
%TO.P,RN1,3,R2*%
%TO.N,/P0.1(AD1)*%
X127000000Y-77470000D03*
%TO.P,RN1,4,R3*%
%TO.N,/P0.2(AD2)*%
X127000000Y-80010000D03*
%TO.P,RN1,5,R4*%
%TO.N,/P0.3(AD3)*%
X127000000Y-82550000D03*
%TO.P,RN1,6,R5*%
%TO.N,/P0.4(AD4)*%
X127000000Y-85090000D03*
%TO.P,RN1,7,R6*%
%TO.N,/P0.5(AD5)*%
X127000000Y-87630000D03*
%TO.P,RN1,8,R7*%
%TO.N,/P0.6(AD6)*%
X127000000Y-90170000D03*
%TO.P,RN1,9,R8*%
%TO.N,/P0.7(AD7)*%
X127000000Y-92710000D03*
%TD*%
D10*
%TO.P,J2,1,Pin_1*%
%TO.N,+5V*%
X132080000Y-72390000D03*
%TO.P,J2,2,Pin_2*%
%TO.N,/P0.0(AD0)*%
X132080000Y-74930000D03*
%TO.P,J2,3,Pin_3*%
%TO.N,/P0.1(AD1)*%
X132080000Y-77470000D03*
%TO.P,J2,4,Pin_4*%
%TO.N,/P0.2(AD2)*%
X132080000Y-80010000D03*
%TO.P,J2,5,Pin_5*%
%TO.N,/P0.3(AD3)*%
X132080000Y-82550000D03*
%TO.P,J2,6,Pin_6*%
%TO.N,/P0.4(AD4)*%
X132080000Y-85090000D03*
%TO.P,J2,7,Pin_7*%
%TO.N,/P0.5(AD5)*%
X132080000Y-87630000D03*
%TO.P,J2,8,Pin_8*%
%TO.N,/P0.6(AD6)*%
X132080000Y-90170000D03*
%TO.P,J2,9,Pin_9*%
%TO.N,/P0.7(AD7)*%
X132080000Y-92710000D03*
%TO.P,J2,10,Pin_10*%
%TO.N,+5V*%
X132080000Y-95250000D03*
%TO.P,J2,11,Pin_11*%
%TO.N,/ALE{slash}PROG*%
X132080000Y-97790000D03*
%TO.P,J2,12,Pin_12*%
%TO.N,/PSEN*%
X132080000Y-100330000D03*
%TO.P,J2,13,Pin_13*%
%TO.N,/P2.7(A15)*%
X132080000Y-102870000D03*
%TO.P,J2,14,Pin_14*%
%TO.N,/P2.6(A14)*%
X132080000Y-105410000D03*
%TO.P,J2,15,Pin_15*%
%TO.N,/P2.5(A13)*%
X132080000Y-107950000D03*
%TO.P,J2,16,Pin_16*%
%TO.N,/P2.4(A12)*%
X132080000Y-110490000D03*
%TO.P,J2,17,Pin_17*%
%TO.N,/P2.3(A11)*%
X132080000Y-113030000D03*
%TO.P,J2,18,Pin_18*%
%TO.N,/P2.2(A10)*%
X132080000Y-115570000D03*
%TO.P,J2,19,Pin_19*%
%TO.N,/P2.1(A9)*%
X132080000Y-118110000D03*
%TO.P,J2,20,Pin_20*%
%TO.N,/P2.0(A8)*%
X132080000Y-120650000D03*
%TD*%
D13*
%TO.P,H3,1*%
%TO.N,N/C*%
X86360000Y-132080000D03*
%TD*%
%TO.P,H4,1*%
%TO.N,N/C*%
X137160000Y-132080000D03*
%TD*%
D16*
%TO.P,C4,1*%
%TO.N,/RST*%
X121920000Y-57382500D03*
%TO.P,C4,2*%
%TO.N,GND*%
X121920000Y-59457500D03*
%TD*%
D17*
%TO.P,C1,1*%
%TO.N,+5V*%
X132080000Y-59457500D03*
%TO.P,C1,2*%
%TO.N,GND*%
X132080000Y-57382500D03*
%TD*%
D18*
%TO.P,D2,1,K*%
%TO.N,GND*%
X127000000Y-59445000D03*
%TO.P,D2,2,A*%
%TO.N,/LED*%
X127000000Y-57395000D03*
%TD*%
D13*
%TO.P,H1,1*%
%TO.N,N/C*%
X86360000Y-53340000D03*
%TD*%
D10*
%TO.P,J1,1,Pin_1*%
%TO.N,/P1.0*%
X91440000Y-72390000D03*
%TO.P,J1,2,Pin_2*%
%TO.N,/P1.1*%
X91440000Y-74930000D03*
%TO.P,J1,3,Pin_3*%
%TO.N,/P1.2*%
X91440000Y-77470000D03*
%TO.P,J1,4,Pin_4*%
%TO.N,/P1.3*%
X91440000Y-80010000D03*
%TO.P,J1,5,Pin_5*%
%TO.N,/P1.4*%
X91440000Y-82550000D03*
%TO.P,J1,6,Pin_6*%
%TO.N,/(MOSI)P1.5*%
X91440000Y-85090000D03*
%TO.P,J1,7,Pin_7*%
%TO.N,/(MISO)P1.6*%
X91440000Y-87630000D03*
%TO.P,J1,8,Pin_8*%
%TO.N,/(SCK)P1.7*%
X91440000Y-90170000D03*
%TO.P,J1,9,Pin_9*%
%TO.N,/RST*%
X91440000Y-92710000D03*
%TO.P,J1,10,Pin_10*%
%TO.N,/(RXD)P3.0*%
X91440000Y-95250000D03*
%TO.P,J1,11,Pin_11*%
%TO.N,/(TXD)P3.1*%
X91440000Y-97790000D03*
%TO.P,J1,12,Pin_12*%
%TO.N,/(INT0)P3.2*%
X91440000Y-100330000D03*
%TO.P,J1,13,Pin_13*%
%TO.N,/(INT1)P3.3*%
X91440000Y-102870000D03*
%TO.P,J1,14,Pin_14*%
%TO.N,/(T0)P3.4*%
X91440000Y-105410000D03*
%TO.P,J1,15,Pin_15*%
%TO.N,/(T1)P3.5*%
X91440000Y-107950000D03*
%TO.P,J1,16,Pin_16*%
%TO.N,/(WR)P3.6*%
X91440000Y-110490000D03*
%TO.P,J1,17,Pin_17*%
%TO.N,/(RD)P3.7*%
X91440000Y-113030000D03*
%TO.P,J1,18,Pin_18*%
%TO.N,/XTAL2*%
X91440000Y-115570000D03*
%TO.P,J1,19,Pin_19*%
%TO.N,/XTAL1*%
X91440000Y-118110000D03*
%TO.P,J1,20,Pin_20*%
%TO.N,GND*%
X91440000Y-120650000D03*
%TD*%
D16*
%TO.P,C3,1*%
%TO.N,/XTAL1*%
X96520000Y-118142500D03*
%TO.P,C3,2*%
%TO.N,GND*%
X96520000Y-120217500D03*
%TD*%
D19*
%TO.P,SW1,1,1*%
%TO.N,+5V*%
X93270000Y-56170000D03*
X99770000Y-56170000D03*
%TO.P,SW1,2,2*%
%TO.N,/RST*%
X93270000Y-60670000D03*
X99770000Y-60670000D03*
%TD*%
D11*
%TO.P,R4,1*%
%TO.N,+5V*%
X129540000Y-59420000D03*
%TO.P,R4,2*%
%TO.N,/LED*%
X129540000Y-57420000D03*
%TD*%
D20*
%TO.P,U1,1,P1.0*%
%TO.N,/P1.0*%
X104140000Y-72390000D03*
D21*
%TO.P,U1,2,P1.1*%
%TO.N,/P1.1*%
X104140000Y-74930000D03*
%TO.P,U1,3,P1.2*%
%TO.N,/P1.2*%
X104140000Y-77470000D03*
%TO.P,U1,4,P1.3*%
%TO.N,/P1.3*%
X104140000Y-80010000D03*
%TO.P,U1,5,P1.4*%
%TO.N,/P1.4*%
X104140000Y-82550000D03*
%TO.P,U1,6,(MOSI)_P1.5*%
%TO.N,/(MOSI)P1.5*%
X104140000Y-85090000D03*
%TO.P,U1,7,(MISO)_P1.6*%
%TO.N,/(MISO)P1.6*%
X104140000Y-87630000D03*
%TO.P,U1,8,(SCK)_P1.7*%
%TO.N,/(SCK)P1.7*%
X104140000Y-90170000D03*
%TO.P,U1,9,RST*%
%TO.N,/RST*%
X104140000Y-92710000D03*
%TO.P,U1,10,(RXD)_P3.0*%
%TO.N,/(RXD)P3.0*%
X104140000Y-95250000D03*
%TO.P,U1,11,(TXD)_P3.1*%
%TO.N,/(TXD)P3.1*%
X104140000Y-97790000D03*
%TO.P,U1,12,(INT0)_P3.2*%
%TO.N,/(INT0)P3.2*%
X104140000Y-100330000D03*
%TO.P,U1,13,(INT1)_P3.3*%
%TO.N,/(INT1)P3.3*%
X104140000Y-102870000D03*
%TO.P,U1,14,(T0)_P3.4*%
%TO.N,/(T0)P3.4*%
X104140000Y-105410000D03*
%TO.P,U1,15,(T1)_P3.5*%
%TO.N,/(T1)P3.5*%
X104140000Y-107950000D03*
%TO.P,U1,16,WR\u002A_P3.6*%
%TO.N,/(WR)P3.6*%
X104140000Y-110490000D03*
%TO.P,U1,17,RD\u002A_P3.7*%
%TO.N,/(RD)P3.7*%
X104140000Y-113030000D03*
%TO.P,U1,18,XTAL2*%
%TO.N,/XTAL2*%
X104140000Y-115570000D03*
%TO.P,U1,19,XTAL1*%
%TO.N,/XTAL1*%
X104140000Y-118110000D03*
%TO.P,U1,20,GND*%
%TO.N,GND*%
X104140000Y-120650000D03*
%TO.P,U1,21,P2.0_(A8)*%
%TO.N,/P2.0(A8)*%
X119380000Y-120650000D03*
%TO.P,U1,22,P2.1_(A9)*%
%TO.N,/P2.1(A9)*%
X119380000Y-118110000D03*
%TO.P,U1,23,P2.2_(A10)*%
%TO.N,/P2.2(A10)*%
X119380000Y-115570000D03*
%TO.P,U1,24,P2.3_(A11)*%
%TO.N,/P2.3(A11)*%
X119380000Y-113030000D03*
%TO.P,U1,25,P2.4_(A12)*%
%TO.N,/P2.4(A12)*%
X119380000Y-110490000D03*
%TO.P,U1,26,P2.5_(A13)*%
%TO.N,/P2.5(A13)*%
X119380000Y-107950000D03*
%TO.P,U1,27,P2.6_(A14)*%
%TO.N,/P2.6(A14)*%
X119380000Y-105410000D03*
%TO.P,U1,28,P2.7_(A15)*%
%TO.N,/P2.7(A15)*%
X119380000Y-102870000D03*
%TO.P,U1,29,PSEN\u002A*%
%TO.N,/PSEN*%
X119380000Y-100330000D03*
%TO.P,U1,30,ALE/PROG\u002A*%
%TO.N,/ALE{slash}PROG*%
X119380000Y-97790000D03*
%TO.P,U1,31,EA\u002A/VPP*%
%TO.N,+5V*%
X119380000Y-95250000D03*
%TO.P,U1,32,P0.7_(AD7)*%
%TO.N,/P0.7(AD7)*%
X119380000Y-92710000D03*
%TO.P,U1,33,P0.6_(AD6)*%
%TO.N,/P0.6(AD6)*%
X119380000Y-90170000D03*
%TO.P,U1,34,P0.5_(AD5)*%
%TO.N,/P0.5(AD5)*%
X119380000Y-87630000D03*
%TO.P,U1,35,P0.4_(AD4)*%
%TO.N,/P0.4(AD4)*%
X119380000Y-85090000D03*
%TO.P,U1,36,P0.3_(AD3)*%
%TO.N,/P0.3(AD3)*%
X119380000Y-82550000D03*
%TO.P,U1,37,P0.2_(AD2)*%
%TO.N,/P0.2(AD2)*%
X119380000Y-80010000D03*
%TO.P,U1,38,P0.1_(AD1)*%
%TO.N,/P0.1(AD1)*%
X119380000Y-77470000D03*
%TO.P,U1,39,P0.0_(AD0)*%
%TO.N,/P0.0(AD0)*%
X119380000Y-74930000D03*
%TO.P,U1,40,VCC*%
%TO.N,+5V*%
X119380000Y-72390000D03*
%TD*%
D17*
%TO.P,C2,1*%
%TO.N,/XTAL2*%
X96520000Y-99897500D03*
%TO.P,C2,2*%
%TO.N,GND*%
X96520000Y-97822500D03*
%TD*%
D22*
%TO.N,GND*%
X125730000Y-59436000D03*
X94996000Y-120192800D03*
X123190000Y-59436000D03*
X121920000Y-59457500D03*
X133731000Y-57404000D03*
X94996000Y-97790000D03*
X132080000Y-55880000D03*
X98044000Y-97790000D03*
X127000000Y-59445000D03*
X98044000Y-120192800D03*
X124460000Y-59420000D03*
%TO.N,/RST*%
X121920000Y-57382500D03*
%TO.N,/(MOSI)P1.5*%
X109220000Y-62230000D03*
%TD*%
D23*
%TO.N,GND*%
X121920000Y-59457500D02*
X126978661Y-59457500D01*
X132080000Y-57382500D02*
X133709500Y-57382500D01*
X98044000Y-97790000D02*
X94996000Y-97790000D01*
X133709500Y-57382500D02*
X133731000Y-57404000D01*
X132080000Y-55880000D02*
X132080000Y-57382500D01*
X94996000Y-120192800D02*
X98044000Y-120192800D01*
X127000000Y-59445000D02*
X126993750Y-59451250D01*
X126993750Y-59451250D02*
G75*
G02*
X126978661Y-59457484I-15050J15050D01*
G01*
D24*
%TO.N,/XTAL2*%
X96856759Y-107651758D02*
X103915495Y-114710490D01*
X96520000Y-106362499D02*
X96520000Y-106838749D01*
X96520000Y-105410000D02*
X96520000Y-106362499D01*
X104140001Y-115252499D02*
X104140000Y-115570000D01*
X96520000Y-105410000D02*
X96520000Y-99897500D01*
X104140001Y-115252499D02*
G75*
G03*
X103915491Y-114710494I-766501J-1D01*
G01*
X96856759Y-107651758D02*
G75*
G02*
X96520045Y-106838749I813041J812958D01*
G01*
%TO.N,/XTAL1*%
X103886000Y-118110000D02*
X91440000Y-118110000D01*
X103758999Y-118110001D02*
X103886000Y-118110000D01*
X103542196Y-118020200D02*
X97280695Y-111758698D01*
X103886000Y-118110000D02*
X103886000Y-118110000D01*
X96800999Y-111560001D02*
X96520000Y-111560000D01*
X103886000Y-118110000D02*
X103886000Y-118110000D01*
X103542196Y-118020200D02*
G75*
G03*
X103758999Y-118110004I216804J216800D01*
G01*
X96800999Y-111560001D02*
G75*
G02*
X97280697Y-111758696I1J-678399D01*
G01*
X103886000Y-118110000D02*
X103886000Y-118110000D01*
%TO.N,/P1.1*%
X91440000Y-74930000D02*
X104140000Y-74930000D01*
%TO.N,/(SCK)P1.7*%
X104140000Y-90170000D02*
X91440000Y-90170000D01*
X110166194Y-84143788D02*
X104140000Y-90170000D01*
X111759986Y-80296029D02*
X111760000Y-59690000D01*
X110166194Y-84143788D02*
G75*
G03*
X111759998Y-80296029I-3847794J3847788D01*
G01*
%TO.N,/P1.4*%
X91440000Y-82550000D02*
X104140000Y-82550000D01*
%TO.N,/(MISO)P1.6*%
X104140000Y-87630000D02*
X91440000Y-87630000D01*
X113630497Y-59020498D02*
X114300000Y-59690000D01*
X110489986Y-79026029D02*
X110489999Y-59856578D01*
X111926582Y-58420005D02*
X112180766Y-58420004D01*
X108896194Y-82873788D02*
X104140000Y-87630000D01*
X110489999Y-59856578D02*
G75*
G02*
X110910768Y-58840771I1436601J-22D01*
G01*
X113630497Y-59020498D02*
G75*
G03*
X112180766Y-58420015I-1449697J-1449702D01*
G01*
X110489986Y-79026029D02*
G75*
G02*
X108896185Y-82873779I-5441586J29D01*
G01*
X111926582Y-58420005D02*
G75*
G03*
X110910772Y-58840775I18J-1436595D01*
G01*
%TO.N,/P1.3*%
X91440000Y-80010000D02*
X104140000Y-80010000D01*
%TO.N,/P1.2*%
X91440000Y-77470000D02*
X104140000Y-77470000D01*
%TO.N,/RST*%
X121929375Y-57391874D02*
X121901250Y-57363750D01*
X107547035Y-60670000D02*
X99770000Y-60670000D01*
X104140000Y-92710000D02*
X91440000Y-92710000D01*
X113030000Y-81566036D02*
X113030000Y-68526463D01*
X99770000Y-60670000D02*
X93270000Y-60670000D01*
X121997274Y-57419999D02*
X124460000Y-57420000D01*
X121920000Y-57382500D02*
X114623792Y-64678707D01*
X108730000Y-60180000D02*
X109220000Y-59690000D01*
X111436207Y-85413792D02*
X104140000Y-92710000D01*
X107547035Y-60670000D02*
G75*
G03*
X108729990Y-60179990I-35J1673000D01*
G01*
X114623792Y-64678707D02*
G75*
G03*
X113029959Y-68526463I3847708J-3847793D01*
G01*
X121997274Y-57419999D02*
G75*
G02*
X121929393Y-57391856I26J95999D01*
G01*
X113030000Y-81566036D02*
G75*
G02*
X111436200Y-85413785I-5441600J36D01*
G01*
%TO.N,/(RXD)P3.0*%
X91440000Y-95250000D02*
X104140000Y-95250000D01*
%TO.N,/(TXD)P3.1*%
X103504999Y-97155000D02*
X104140000Y-97790000D01*
X92074998Y-97154995D02*
X91440000Y-97790000D01*
X93608023Y-96519990D02*
X101971973Y-96519999D01*
X103504999Y-97155000D02*
G75*
G03*
X101971973Y-96520011I-1532999J-1533000D01*
G01*
X93608023Y-96519990D02*
G75*
G03*
X92074987Y-97154984I-23J-2168010D01*
G01*
%TO.N,/P1.0*%
X91440000Y-72390000D02*
X104140000Y-72390000D01*
%TO.N,/(MOSI)P1.5*%
X109220000Y-62230000D02*
X109219986Y-77756028D01*
X107626195Y-81603789D02*
X104140000Y-85090000D01*
X104140000Y-85090000D02*
X91440000Y-85090000D01*
X107626195Y-81603789D02*
G75*
G03*
X109220000Y-77756028I-3847795J3847789D01*
G01*
%TO.N,/P2.3(A11)*%
X119380000Y-113030000D02*
X132080000Y-113030000D01*
%TO.N,/P0.2(AD2)*%
X119380000Y-80010000D02*
X132080000Y-80010000D01*
%TO.N,/P0.7(AD7)*%
X119380000Y-92710000D02*
X132080000Y-92710000D01*
%TO.N,/P0.3(AD3)*%
X119380000Y-82550000D02*
X132080000Y-82550000D01*
%TO.N,/P0.4(AD4)*%
X119380000Y-85090000D02*
X132080000Y-85090000D01*
%TO.N,/P2.5(A13)*%
X119380000Y-107950000D02*
X132080000Y-107950000D01*
%TO.N,/P2.7(A15)*%
X119380000Y-102870000D02*
X132080000Y-102870000D01*
%TO.N,/P0.6(AD6)*%
X119380000Y-90170000D02*
X132080000Y-90170000D01*
%TO.N,/P2.1(A9)*%
X119380000Y-118110000D02*
X132080000Y-118110000D01*
%TO.N,/P2.0(A8)*%
X119380000Y-120650000D02*
X132080000Y-120650000D01*
%TO.N,/P0.5(AD5)*%
X119380000Y-87630000D02*
X132080000Y-87630000D01*
%TO.N,/P0.1(AD1)*%
X119380000Y-77470000D02*
X132080000Y-77470000D01*
%TO.N,/P2.6(A14)*%
X119380000Y-105410000D02*
X132080000Y-105410000D01*
%TO.N,/PSEN*%
X119380000Y-100330000D02*
X132080000Y-100330000D01*
%TO.N,/P2.4(A12)*%
X119380000Y-110490000D02*
X132080000Y-110490000D01*
%TO.N,/P2.2(A10)*%
X119380000Y-115570000D02*
X132080000Y-115570000D01*
%TO.N,/ALE{slash}PROG*%
X119380000Y-97790000D02*
X132080000Y-97790000D01*
%TO.N,/P0.0(AD0)*%
X119380000Y-74930000D02*
X132080000Y-74930000D01*
D23*
%TO.N,/LED*%
X129527499Y-57407500D02*
X129540000Y-57420000D01*
X129497320Y-57395000D02*
X127000000Y-57395000D01*
X129527499Y-57407500D02*
G75*
G03*
X129497320Y-57394991I-30199J-30200D01*
G01*
%TD*%
%TA.AperFunction,Conductor*%
%TO.N,+5V*%
G36*
X125868968Y-93380185D02*
G01*
X125902245Y-93411613D01*
X125906753Y-93417816D01*
X126008034Y-93557219D01*
X126152786Y-93701971D01*
X126307749Y-93814556D01*
X126318390Y-93822287D01*
X126402319Y-93865051D01*
X126500776Y-93915218D01*
X126500778Y-93915218D01*
X126500781Y-93915220D01*
X126581395Y-93941413D01*
X126695465Y-93978477D01*
X126752434Y-93987500D01*
X126897648Y-94010500D01*
X126897649Y-94010500D01*
X127102351Y-94010500D01*
X127102352Y-94010500D01*
X127304534Y-93978477D01*
X127499219Y-93915220D01*
X127681610Y-93822287D01*
X127794726Y-93740104D01*
X127847213Y-93701971D01*
X127847215Y-93701968D01*
X127847219Y-93701966D01*
X127991966Y-93557219D01*
X128097753Y-93411613D01*
X128153082Y-93368949D01*
X128198071Y-93360500D01*
X130820382Y-93360500D01*
X130887421Y-93380185D01*
X130921099Y-93414591D01*
X130922085Y-93413875D01*
X131049890Y-93589786D01*
X131200213Y-93740109D01*
X131372179Y-93865048D01*
X131372181Y-93865049D01*
X131372184Y-93865051D01*
X131381493Y-93869794D01*
X131432290Y-93917766D01*
X131449087Y-93985587D01*
X131426552Y-94051722D01*
X131381505Y-94090760D01*
X131372446Y-94095376D01*
X131372440Y-94095380D01*
X131318282Y-94134727D01*
X131318282Y-94134728D01*
X131950591Y-94767037D01*
X131887007Y-94784075D01*
X131772993Y-94849901D01*
X131679901Y-94942993D01*
X131614075Y-95057007D01*
X131597037Y-95120591D01*
X130964728Y-94488282D01*
X130964727Y-94488282D01*
X130925380Y-94542439D01*
X130828904Y-94731782D01*
X130763242Y-94933869D01*
X130763242Y-94933872D01*
X130730000Y-95143753D01*
X130730000Y-95356246D01*
X130763242Y-95566127D01*
X130763242Y-95566130D01*
X130828904Y-95768217D01*
X130925375Y-95957550D01*
X130964728Y-96011716D01*
X131597037Y-95379408D01*
X131614075Y-95442993D01*
X131679901Y-95557007D01*
X131772993Y-95650099D01*
X131887007Y-95715925D01*
X131950590Y-95732962D01*
X131318282Y-96365269D01*
X131318282Y-96365270D01*
X131372452Y-96404626D01*
X131372451Y-96404626D01*
X131381495Y-96409234D01*
X131432292Y-96457208D01*
X131449087Y-96525029D01*
X131426550Y-96591164D01*
X131381499Y-96630202D01*
X131372182Y-96634949D01*
X131200213Y-96759890D01*
X131049890Y-96910213D01*
X130922085Y-97086125D01*
X130920740Y-97085148D01*
X130874295Y-97127166D01*
X130820382Y-97139500D01*
X120531101Y-97139500D01*
X120464062Y-97119815D01*
X120430783Y-97088385D01*
X120342983Y-96967539D01*
X120342978Y-96967533D01*
X120202466Y-96827021D01*
X120202464Y-96827019D01*
X120041694Y-96710213D01*
X119884667Y-96630203D01*
X119833872Y-96582229D01*
X119817077Y-96514408D01*
X119839614Y-96448273D01*
X119884669Y-96409234D01*
X120041422Y-96329364D01*
X120078716Y-96302268D01*
X119432848Y-95656400D01*
X119433504Y-95656400D01*
X119536865Y-95628705D01*
X119629536Y-95575201D01*
X119705201Y-95499536D01*
X119758705Y-95406865D01*
X119786400Y-95303504D01*
X119786400Y-95302847D01*
X120432268Y-95948715D01*
X120459362Y-95911425D01*
X120549542Y-95734437D01*
X120610924Y-95545523D01*
X120610924Y-95545520D01*
X120642000Y-95349321D01*
X120642000Y-95150681D01*
X120641999Y-95150676D01*
X120610924Y-94954479D01*
X120610924Y-94954476D01*
X120549542Y-94765562D01*
X120459358Y-94588567D01*
X120432268Y-94551283D01*
X119786400Y-95197151D01*
X119786400Y-95196496D01*
X119758705Y-95093135D01*
X119705201Y-95000464D01*
X119629536Y-94924799D01*
X119536865Y-94871295D01*
X119433504Y-94843600D01*
X119432847Y-94843600D01*
X120078716Y-94197731D01*
X120078715Y-94197730D01*
X120041432Y-94170641D01*
X119884668Y-94090765D01*
X119833872Y-94042790D01*
X119817077Y-93974969D01*
X119839615Y-93908834D01*
X119884667Y-93869796D01*
X120041694Y-93789787D01*
X120202464Y-93672981D01*
X120342981Y-93532464D01*
X120426275Y-93417820D01*
X120430783Y-93411615D01*
X120486113Y-93368949D01*
X120531101Y-93360500D01*
X125801929Y-93360500D01*
X125868968Y-93380185D01*
G37*
%TD.AperFunction*%
%TA.AperFunction,Conductor*%
G36*
X135580017Y-51320185D02*
G01*
X135625772Y-51372989D01*
X135635716Y-51442147D01*
X135606691Y-51505703D01*
X135590291Y-51521447D01*
X135557915Y-51547265D01*
X135367265Y-51737915D01*
X135199161Y-51948712D01*
X135055714Y-52177005D01*
X134938734Y-52419917D01*
X134849687Y-52674397D01*
X134849684Y-52674405D01*
X134789688Y-52937268D01*
X134789686Y-52937280D01*
X134759500Y-53205186D01*
X134759500Y-53474813D01*
X134789686Y-53742719D01*
X134789688Y-53742731D01*
X134849684Y-54005594D01*
X134849687Y-54005602D01*
X134938734Y-54260082D01*
X135055714Y-54502994D01*
X135055716Y-54502997D01*
X135199162Y-54731289D01*
X135367266Y-54942085D01*
X135557915Y-55132734D01*
X135768711Y-55300838D01*
X135997003Y-55444284D01*
X136239921Y-55561267D01*
X136400146Y-55617332D01*
X136494397Y-55650312D01*
X136494405Y-55650315D01*
X136494408Y-55650315D01*
X136494409Y-55650316D01*
X136757268Y-55710312D01*
X137025187Y-55740499D01*
X137025188Y-55740500D01*
X137025191Y-55740500D01*
X137294812Y-55740500D01*
X137294812Y-55740499D01*
X137562732Y-55710312D01*
X137825591Y-55650316D01*
X138080079Y-55561267D01*
X138322997Y-55444284D01*
X138551289Y-55300838D01*
X138762085Y-55132734D01*
X138952734Y-54942085D01*
X138978553Y-54909709D01*
X139035741Y-54869569D01*
X139105553Y-54866719D01*
X139165823Y-54902064D01*
X139197416Y-54964383D01*
X139199500Y-54987022D01*
X139199500Y-130432977D01*
X139179815Y-130500016D01*
X139127011Y-130545771D01*
X139057853Y-130555715D01*
X138994297Y-130526690D01*
X138978554Y-130510291D01*
X138952735Y-130477916D01*
X138762084Y-130287265D01*
X138708549Y-130244573D01*
X138551289Y-130119162D01*
X138322997Y-129975716D01*
X138322994Y-129975714D01*
X138080082Y-129858734D01*
X137825602Y-129769687D01*
X137825594Y-129769684D01*
X137628446Y-129724687D01*
X137562732Y-129709688D01*
X137562728Y-129709687D01*
X137562719Y-129709686D01*
X137294813Y-129679500D01*
X137294809Y-129679500D01*
X137025191Y-129679500D01*
X137025186Y-129679500D01*
X136757280Y-129709686D01*
X136757268Y-129709688D01*
X136494405Y-129769684D01*
X136494397Y-129769687D01*
X136239917Y-129858734D01*
X135997005Y-129975714D01*
X135768712Y-130119161D01*
X135557915Y-130287265D01*
X135367265Y-130477915D01*
X135199161Y-130688712D01*
X135055714Y-130917005D01*
X134938734Y-131159917D01*
X134849687Y-131414397D01*
X134849684Y-131414405D01*
X134789688Y-131677268D01*
X134789686Y-131677280D01*
X134759500Y-131945186D01*
X134759500Y-132214813D01*
X134789686Y-132482719D01*
X134789688Y-132482731D01*
X134849684Y-132745594D01*
X134849687Y-132745602D01*
X134938734Y-133000082D01*
X135055714Y-133242994D01*
X135055716Y-133242997D01*
X135199162Y-133471289D01*
X135324573Y-133628549D01*
X135367265Y-133682084D01*
X135557915Y-133872734D01*
X135590291Y-133898553D01*
X135630431Y-133955741D01*
X135633281Y-134025553D01*
X135597936Y-134085823D01*
X135535617Y-134117416D01*
X135512978Y-134119500D01*
X88007022Y-134119500D01*
X87939983Y-134099815D01*
X87894228Y-134047011D01*
X87884284Y-133977853D01*
X87913309Y-133914297D01*
X87929709Y-133898553D01*
X87930971Y-133897546D01*
X87962085Y-133872734D01*
X88152734Y-133682085D01*
X88320838Y-133471289D01*
X88464284Y-133242997D01*
X88581267Y-133000079D01*
X88670316Y-132745591D01*
X88730312Y-132482732D01*
X88760500Y-132214809D01*
X88760500Y-131945191D01*
X88730312Y-131677268D01*
X88670316Y-131414409D01*
X88581267Y-131159921D01*
X88464284Y-130917003D01*
X88320838Y-130688711D01*
X88152734Y-130477915D01*
X87962085Y-130287266D01*
X87751289Y-130119162D01*
X87522997Y-129975716D01*
X87522994Y-129975714D01*
X87280082Y-129858734D01*
X87025602Y-129769687D01*
X87025594Y-129769684D01*
X86828446Y-129724687D01*
X86762732Y-129709688D01*
X86762728Y-129709687D01*
X86762719Y-129709686D01*
X86494813Y-129679500D01*
X86494809Y-129679500D01*
X86225191Y-129679500D01*
X86225186Y-129679500D01*
X85957280Y-129709686D01*
X85957268Y-129709688D01*
X85694405Y-129769684D01*
X85694397Y-129769687D01*
X85439917Y-129858734D01*
X85197005Y-129975714D01*
X84968712Y-130119161D01*
X84757915Y-130287265D01*
X84567264Y-130477916D01*
X84541446Y-130510291D01*
X84484257Y-130550431D01*
X84414446Y-130553280D01*
X84354176Y-130517934D01*
X84322584Y-130455614D01*
X84320500Y-130432977D01*
X84320500Y-72283713D01*
X90089500Y-72283713D01*
X90089500Y-72496286D01*
X90122735Y-72706127D01*
X90122754Y-72706243D01*
X90149968Y-72790000D01*
X90188444Y-72908414D01*
X90284951Y-73097820D01*
X90409890Y-73269786D01*
X90560213Y-73420109D01*
X90732182Y-73545050D01*
X90740946Y-73549516D01*
X90791742Y-73597491D01*
X90808536Y-73665312D01*
X90785998Y-73731447D01*
X90740946Y-73770484D01*
X90732182Y-73774949D01*
X90560213Y-73899890D01*
X90409890Y-74050213D01*
X90284951Y-74222179D01*
X90188444Y-74411585D01*
X90188443Y-74411587D01*
X90188443Y-74411588D01*
X90177467Y-74445368D01*
X90122753Y-74613760D01*
X90119490Y-74634362D01*
X90089500Y-74823713D01*
X90089500Y-75036287D01*
X90122754Y-75246243D01*
X90177467Y-75414632D01*
X90188444Y-75448414D01*
X90284951Y-75637820D01*
X90409890Y-75809786D01*
X90560213Y-75960109D01*
X90732182Y-76085050D01*
X90740946Y-76089516D01*
X90791742Y-76137491D01*
X90808536Y-76205312D01*
X90785998Y-76271447D01*
X90740946Y-76310484D01*
X90732182Y-76314949D01*
X90560213Y-76439890D01*
X90409890Y-76590213D01*
X90284951Y-76762179D01*
X90188444Y-76951585D01*
X90188443Y-76951587D01*
X90188443Y-76951588D01*
X90177467Y-76985368D01*
X90122753Y-77153760D01*
X90089500Y-77363713D01*
X90089500Y-77576286D01*
X90117583Y-77753599D01*
X90122754Y-77786243D01*
X90177467Y-77954632D01*
X90188444Y-77988414D01*
X90284951Y-78177820D01*
X90409890Y-78349786D01*
X90560213Y-78500109D01*
X90732182Y-78625050D01*
X90740946Y-78629516D01*
X90791742Y-78677491D01*
X90808536Y-78745312D01*
X90785998Y-78811447D01*
X90740946Y-78850484D01*
X90732182Y-78854949D01*
X90560213Y-78979890D01*
X90409890Y-79130213D01*
X90284951Y-79302179D01*
X90188444Y-79491585D01*
X90188443Y-79491587D01*
X90188443Y-79491588D01*
X90177467Y-79525368D01*
X90122753Y-79693760D01*
X90089500Y-79903713D01*
X90089500Y-80116286D01*
X90112157Y-80259340D01*
X90122754Y-80326243D01*
X90182818Y-80511101D01*
X90188444Y-80528414D01*
X90284951Y-80717820D01*
X90409890Y-80889786D01*
X90560213Y-81040109D01*
X90732182Y-81165050D01*
X90740946Y-81169516D01*
X90791742Y-81217491D01*
X90808536Y-81285312D01*
X90785998Y-81351447D01*
X90740946Y-81390484D01*
X90732182Y-81394949D01*
X90560213Y-81519890D01*
X90409890Y-81670213D01*
X90284951Y-81842179D01*
X90188444Y-82031585D01*
X90188443Y-82031587D01*
X90188443Y-82031588D01*
X90177467Y-82065368D01*
X90122753Y-82233760D01*
X90089500Y-82443713D01*
X90089500Y-82656286D01*
X90120344Y-82851032D01*
X90122754Y-82866243D01*
X90182820Y-83051107D01*
X90188444Y-83068414D01*
X90284951Y-83257820D01*
X90409890Y-83429786D01*
X90560213Y-83580109D01*
X90732182Y-83705050D01*
X90740946Y-83709516D01*
X90791742Y-83757491D01*
X90808536Y-83825312D01*
X90785998Y-83891447D01*
X90740946Y-83930484D01*
X90732182Y-83934949D01*
X90560213Y-84059890D01*
X90409890Y-84210213D01*
X90284951Y-84382179D01*
X90188444Y-84571585D01*
X90188443Y-84571587D01*
X90188443Y-84571588D01*
X90177467Y-84605368D01*
X90122753Y-84773760D01*
X90089500Y-84983713D01*
X90089500Y-85196286D01*
X90120345Y-85391037D01*
X90122754Y-85406243D01*
X90177467Y-85574632D01*
X90188444Y-85608414D01*
X90284951Y-85797820D01*
X90409890Y-85969786D01*
X90560213Y-86120109D01*
X90732182Y-86245050D01*
X90740946Y-86249516D01*
X90791742Y-86297491D01*
X90808536Y-86365312D01*
X90785998Y-86431447D01*
X90740946Y-86470484D01*
X90732182Y-86474949D01*
X90560213Y-86599890D01*
X90409890Y-86750213D01*
X90284951Y-86922179D01*
X90188444Y-87111585D01*
X90188443Y-87111587D01*
X90188443Y-87111588D01*
X90177467Y-87145368D01*
X90122753Y-87313760D01*
X90089500Y-87523713D01*
X90089500Y-87736287D01*
X90122754Y-87946243D01*
X90177467Y-88114632D01*
X90188444Y-88148414D01*
X90284951Y-88337820D01*
X90409890Y-88509786D01*
X90560213Y-88660109D01*
X90732182Y-88785050D01*
X90740946Y-88789516D01*
X90791742Y-88837491D01*
X90808536Y-88905312D01*
X90785998Y-88971447D01*
X90740946Y-89010484D01*
X90732182Y-89014949D01*
X90560213Y-89139890D01*
X90409890Y-89290213D01*
X90284951Y-89462179D01*
X90188444Y-89651585D01*
X90188443Y-89651587D01*
X90188443Y-89651588D01*
X90177467Y-89685368D01*
X90122753Y-89853760D01*
X90122746Y-89853805D01*
X90089500Y-90063713D01*
X90089500Y-90276287D01*
X90122754Y-90486243D01*
X90177467Y-90654632D01*
X90188444Y-90688414D01*
X90284951Y-90877820D01*
X90409890Y-91049786D01*
X90560213Y-91200109D01*
X90732182Y-91325050D01*
X90740946Y-91329516D01*
X90791742Y-91377491D01*
X90808536Y-91445312D01*
X90785998Y-91511447D01*
X90740946Y-91550484D01*
X90732182Y-91554949D01*
X90560213Y-91679890D01*
X90409890Y-91830213D01*
X90284951Y-92002179D01*
X90188444Y-92191585D01*
X90188443Y-92191587D01*
X90188443Y-92191588D01*
X90177467Y-92225368D01*
X90122753Y-92393760D01*
X90119490Y-92414362D01*
X90089500Y-92603713D01*
X90089500Y-92816287D01*
X90122754Y-93026243D01*
X90177467Y-93194632D01*
X90188444Y-93228414D01*
X90284951Y-93417820D01*
X90409890Y-93589786D01*
X90560213Y-93740109D01*
X90732182Y-93865050D01*
X90740946Y-93869516D01*
X90791742Y-93917491D01*
X90808536Y-93985312D01*
X90785998Y-94051447D01*
X90740946Y-94090484D01*
X90732182Y-94094949D01*
X90560213Y-94219890D01*
X90409890Y-94370213D01*
X90284951Y-94542179D01*
X90188444Y-94731585D01*
X90188443Y-94731587D01*
X90188443Y-94731588D01*
X90177467Y-94765368D01*
X90122753Y-94933760D01*
X90089500Y-95143713D01*
X90089500Y-95356286D01*
X90122735Y-95566127D01*
X90122754Y-95566243D01*
X90177467Y-95734632D01*
X90188444Y-95768414D01*
X90284951Y-95957820D01*
X90409890Y-96129786D01*
X90560213Y-96280109D01*
X90732182Y-96405050D01*
X90740946Y-96409516D01*
X90791742Y-96457491D01*
X90808536Y-96525312D01*
X90785998Y-96591447D01*
X90740946Y-96630484D01*
X90732182Y-96634949D01*
X90560213Y-96759890D01*
X90409890Y-96910213D01*
X90284951Y-97082179D01*
X90188444Y-97271585D01*
X90188443Y-97271587D01*
X90188443Y-97271588D01*
X90177467Y-97305368D01*
X90122753Y-97473760D01*
X90115846Y-97517370D01*
X90089500Y-97683713D01*
X90089500Y-97896287D01*
X90122754Y-98106243D01*
X90177467Y-98274632D01*
X90188444Y-98308414D01*
X90284951Y-98497820D01*
X90409890Y-98669786D01*
X90560213Y-98820109D01*
X90732182Y-98945050D01*
X90740946Y-98949516D01*
X90791742Y-98997491D01*
X90808536Y-99065312D01*
X90785998Y-99131447D01*
X90740946Y-99170484D01*
X90732182Y-99174949D01*
X90560213Y-99299890D01*
X90409890Y-99450213D01*
X90284951Y-99622179D01*
X90188444Y-99811585D01*
X90188443Y-99811587D01*
X90188443Y-99811588D01*
X90177467Y-99845368D01*
X90122753Y-100013760D01*
X90119490Y-100034362D01*
X90089500Y-100223713D01*
X90089500Y-100436287D01*
X90122754Y-100646243D01*
X90181716Y-100827710D01*
X90188444Y-100848414D01*
X90284951Y-101037820D01*
X90409890Y-101209786D01*
X90560213Y-101360109D01*
X90732182Y-101485050D01*
X90740946Y-101489516D01*
X90791742Y-101537491D01*
X90808536Y-101605312D01*
X90785998Y-101671447D01*
X90740946Y-101710484D01*
X90732182Y-101714949D01*
X90560213Y-101839890D01*
X90409890Y-101990213D01*
X90284951Y-102162179D01*
X90188444Y-102351585D01*
X90188443Y-102351587D01*
X90188443Y-102351588D01*
X90177467Y-102385368D01*
X90122753Y-102553760D01*
X90119490Y-102574362D01*
X90089500Y-102763713D01*
X90089500Y-102976287D01*
X90122754Y-103186243D01*
X90177467Y-103354632D01*
X90188444Y-103388414D01*
X90284951Y-103577820D01*
X90409890Y-103749786D01*
X90560213Y-103900109D01*
X90732182Y-104025050D01*
X90740946Y-104029516D01*
X90791742Y-104077491D01*
X90808536Y-104145312D01*
X90785998Y-104211447D01*
X90740946Y-104250484D01*
X90732182Y-104254949D01*
X90560213Y-104379890D01*
X90409890Y-104530213D01*
X90284951Y-104702179D01*
X90188444Y-104891585D01*
X90188443Y-104891587D01*
X90188443Y-104891588D01*
X90177467Y-104925368D01*
X90122753Y-105093760D01*
X90089500Y-105303713D01*
X90089500Y-105516286D01*
X90122742Y-105726172D01*
X90122754Y-105726243D01*
X90177467Y-105894632D01*
X90188444Y-105928414D01*
X90284951Y-106117820D01*
X90409890Y-106289786D01*
X90560213Y-106440109D01*
X90732182Y-106565050D01*
X90740946Y-106569516D01*
X90791742Y-106617491D01*
X90808536Y-106685312D01*
X90785998Y-106751447D01*
X90740946Y-106790484D01*
X90732182Y-106794949D01*
X90560213Y-106919890D01*
X90409890Y-107070213D01*
X90284951Y-107242179D01*
X90188444Y-107431585D01*
X90188443Y-107431587D01*
X90188443Y-107431588D01*
X90177467Y-107465368D01*
X90122753Y-107633760D01*
X90089500Y-107843713D01*
X90089500Y-108056286D01*
X90106488Y-108163548D01*
X90122754Y-108266243D01*
X90177467Y-108434632D01*
X90188444Y-108468414D01*
X90284951Y-108657820D01*
X90409890Y-108829786D01*
X90560213Y-108980109D01*
X90732182Y-109105050D01*
X90740946Y-109109516D01*
X90791742Y-109157491D01*
X90808536Y-109225312D01*
X90785998Y-109291447D01*
X90740946Y-109330484D01*
X90732182Y-109334949D01*
X90560213Y-109459890D01*
X90409890Y-109610213D01*
X90284951Y-109782179D01*
X90188444Y-109971585D01*
X90188443Y-109971587D01*
X90188443Y-109971588D01*
X90177467Y-110005368D01*
X90122753Y-110173760D01*
X90089500Y-110383713D01*
X90089500Y-110596286D01*
X90113109Y-110745351D01*
X90122754Y-110806243D01*
X90177467Y-110974632D01*
X90188444Y-111008414D01*
X90284951Y-111197820D01*
X90409890Y-111369786D01*
X90560213Y-111520109D01*
X90732182Y-111645050D01*
X90740946Y-111649516D01*
X90791742Y-111697491D01*
X90808536Y-111765312D01*
X90785998Y-111831447D01*
X90740946Y-111870484D01*
X90732182Y-111874949D01*
X90560213Y-111999890D01*
X90409890Y-112150213D01*
X90284951Y-112322179D01*
X90188444Y-112511585D01*
X90188443Y-112511587D01*
X90188443Y-112511588D01*
X90177467Y-112545368D01*
X90122753Y-112713760D01*
X90119490Y-112734362D01*
X90089500Y-112923713D01*
X90089500Y-113136287D01*
X90122754Y-113346243D01*
X90177467Y-113514632D01*
X90188444Y-113548414D01*
X90284951Y-113737820D01*
X90409890Y-113909786D01*
X90560213Y-114060109D01*
X90732182Y-114185050D01*
X90740946Y-114189516D01*
X90791742Y-114237491D01*
X90808536Y-114305312D01*
X90785998Y-114371447D01*
X90740946Y-114410484D01*
X90732182Y-114414949D01*
X90560213Y-114539890D01*
X90409890Y-114690213D01*
X90284951Y-114862179D01*
X90188444Y-115051585D01*
X90188443Y-115051587D01*
X90188443Y-115051588D01*
X90177467Y-115085368D01*
X90122753Y-115253760D01*
X90119490Y-115274362D01*
X90089500Y-115463713D01*
X90089500Y-115676287D01*
X90122754Y-115886243D01*
X90177467Y-116054632D01*
X90188444Y-116088414D01*
X90284951Y-116277820D01*
X90409890Y-116449786D01*
X90560213Y-116600109D01*
X90732182Y-116725050D01*
X90740946Y-116729516D01*
X90791742Y-116777491D01*
X90808536Y-116845312D01*
X90785998Y-116911447D01*
X90740946Y-116950484D01*
X90732182Y-116954949D01*
X90560213Y-117079890D01*
X90409890Y-117230213D01*
X90284951Y-117402179D01*
X90188444Y-117591585D01*
X90188443Y-117591587D01*
X90188443Y-117591588D01*
X90177467Y-117625368D01*
X90122753Y-117793760D01*
X90119490Y-117814362D01*
X90089500Y-118003713D01*
X90089500Y-118216287D01*
X90122754Y-118426243D01*
X90177467Y-118594632D01*
X90188444Y-118628414D01*
X90284951Y-118817820D01*
X90409890Y-118989786D01*
X90560213Y-119140109D01*
X90732182Y-119265050D01*
X90740946Y-119269516D01*
X90791742Y-119317491D01*
X90808536Y-119385312D01*
X90785998Y-119451447D01*
X90740946Y-119490484D01*
X90732182Y-119494949D01*
X90560213Y-119619890D01*
X90409890Y-119770213D01*
X90284951Y-119942179D01*
X90188444Y-120131585D01*
X90188443Y-120131587D01*
X90188443Y-120131588D01*
X90177467Y-120165368D01*
X90122753Y-120333760D01*
X90119490Y-120354362D01*
X90089500Y-120543713D01*
X90089500Y-120756287D01*
X90122754Y-120966243D01*
X90181716Y-121147710D01*
X90188444Y-121168414D01*
X90284951Y-121357820D01*
X90409890Y-121529786D01*
X90560213Y-121680109D01*
X90732179Y-121805048D01*
X90732181Y-121805049D01*
X90732184Y-121805051D01*
X90921588Y-121901557D01*
X91123757Y-121967246D01*
X91333713Y-122000500D01*
X91333714Y-122000500D01*
X91546286Y-122000500D01*
X91546287Y-122000500D01*
X91756243Y-121967246D01*
X91958412Y-121901557D01*
X92147816Y-121805051D01*
X92251409Y-121729787D01*
X92319786Y-121680109D01*
X92319788Y-121680106D01*
X92319792Y-121680104D01*
X92470104Y-121529792D01*
X92470106Y-121529788D01*
X92470109Y-121529786D01*
X92595048Y-121357820D01*
X92595047Y-121357820D01*
X92595051Y-121357816D01*
X92691557Y-121168412D01*
X92757246Y-120966243D01*
X92790500Y-120756287D01*
X92790500Y-120543713D01*
X92757246Y-120333757D01*
X92691557Y-120131588D01*
X92595051Y-119942184D01*
X92595049Y-119942181D01*
X92595048Y-119942179D01*
X92470109Y-119770213D01*
X92319786Y-119619890D01*
X92147820Y-119494951D01*
X92144648Y-119493335D01*
X92139054Y-119490485D01*
X92088259Y-119442512D01*
X92071463Y-119374692D01*
X92093999Y-119308556D01*
X92139054Y-119269515D01*
X92147816Y-119265051D01*
X92251409Y-119189787D01*
X92319786Y-119140109D01*
X92319788Y-119140106D01*
X92319792Y-119140104D01*
X92470104Y-118989792D01*
X92470106Y-118989788D01*
X92470109Y-118989786D01*
X92597915Y-118813875D01*
X92599259Y-118814851D01*
X92645705Y-118772834D01*
X92699618Y-118760500D01*
X95267026Y-118760500D01*
X95334065Y-118780185D01*
X95372563Y-118819401D01*
X95442301Y-118932464D01*
X95452289Y-118948657D01*
X95581451Y-119077819D01*
X95580032Y-119079237D01*
X95614599Y-119128056D01*
X95617737Y-119197856D01*
X95582641Y-119258271D01*
X95520453Y-119290121D01*
X95497311Y-119292300D01*
X94907306Y-119292300D01*
X94733341Y-119326903D01*
X94733332Y-119326906D01*
X94569459Y-119394783D01*
X94569446Y-119394790D01*
X94421965Y-119493335D01*
X94421961Y-119493338D01*
X94296538Y-119618761D01*
X94296535Y-119618765D01*
X94197990Y-119766246D01*
X94197983Y-119766259D01*
X94130106Y-119930132D01*
X94130103Y-119930141D01*
X94095500Y-120104104D01*
X94095500Y-120281495D01*
X94130103Y-120455458D01*
X94130106Y-120455467D01*
X94197983Y-120619340D01*
X94197990Y-120619353D01*
X94296535Y-120766834D01*
X94296538Y-120766838D01*
X94421961Y-120892261D01*
X94421965Y-120892264D01*
X94569446Y-120990809D01*
X94569459Y-120990816D01*
X94692363Y-121041723D01*
X94733334Y-121058694D01*
X94733336Y-121058694D01*
X94733341Y-121058696D01*
X94907304Y-121093299D01*
X94907307Y-121093300D01*
X94907309Y-121093300D01*
X95470570Y-121093300D01*
X95537609Y-121112985D01*
X95558251Y-121129619D01*
X95576344Y-121147712D01*
X95725666Y-121239814D01*
X95892203Y-121294999D01*
X95994991Y-121305500D01*
X97045008Y-121305499D01*
X97045016Y-121305498D01*
X97045019Y-121305498D01*
X97101302Y-121299748D01*
X97147797Y-121294999D01*
X97314334Y-121239814D01*
X97463656Y-121147712D01*
X97481749Y-121129619D01*
X97543072Y-121096134D01*
X97569430Y-121093300D01*
X98132693Y-121093300D01*
X98132694Y-121093299D01*
X98190682Y-121081764D01*
X98306658Y-121058696D01*
X98306661Y-121058694D01*
X98306666Y-121058694D01*
X98470547Y-120990813D01*
X98618035Y-120892264D01*
X98743464Y-120766835D01*
X98842013Y-120619347D01*
X98909894Y-120455466D01*
X98944500Y-120281491D01*
X98944500Y-120104109D01*
X98944500Y-120104106D01*
X98944499Y-120104104D01*
X98909896Y-119930141D01*
X98909893Y-119930132D01*
X98842016Y-119766259D01*
X98842009Y-119766246D01*
X98743464Y-119618765D01*
X98743461Y-119618761D01*
X98618038Y-119493338D01*
X98618034Y-119493335D01*
X98470553Y-119394790D01*
X98470540Y-119394783D01*
X98306667Y-119326906D01*
X98306658Y-119326903D01*
X98132694Y-119292300D01*
X98132691Y-119292300D01*
X97542689Y-119292300D01*
X97475650Y-119272615D01*
X97429895Y-119219811D01*
X97419951Y-119150653D01*
X97448976Y-119087097D01*
X97458613Y-119077883D01*
X97458549Y-119077819D01*
X97463656Y-119072712D01*
X97587712Y-118948656D01*
X97667435Y-118819402D01*
X97719383Y-118772679D01*
X97772974Y-118760500D01*
X102988899Y-118760500D01*
X103055938Y-118780185D01*
X103089217Y-118811615D01*
X103177016Y-118932460D01*
X103177019Y-118932464D01*
X103317536Y-119072981D01*
X103478306Y-119189787D01*
X103596832Y-119250179D01*
X103634780Y-119269515D01*
X103685576Y-119317490D01*
X103702371Y-119385311D01*
X103679833Y-119451446D01*
X103634780Y-119490485D01*
X103478305Y-119570213D01*
X103317533Y-119687021D01*
X103177021Y-119827533D01*
X103060213Y-119988305D01*
X102969994Y-120165367D01*
X102969993Y-120165370D01*
X102908587Y-120354362D01*
X102908587Y-120354364D01*
X102877500Y-120550639D01*
X102877500Y-120749361D01*
X102880268Y-120766835D01*
X102908587Y-120945637D01*
X102969993Y-121134629D01*
X102969994Y-121134632D01*
X103023587Y-121239812D01*
X103060213Y-121311694D01*
X103177019Y-121472464D01*
X103317536Y-121612981D01*
X103478306Y-121729787D01*
X103565149Y-121774035D01*
X103655367Y-121820005D01*
X103655370Y-121820006D01*
X103749866Y-121850709D01*
X103844364Y-121881413D01*
X104040639Y-121912500D01*
X104040640Y-121912500D01*
X104239360Y-121912500D01*
X104239361Y-121912500D01*
X104435636Y-121881413D01*
X104624632Y-121820005D01*
X104801694Y-121729787D01*
X104962464Y-121612981D01*
X105102981Y-121472464D01*
X105219787Y-121311694D01*
X105310005Y-121134632D01*
X105371413Y-120945636D01*
X105402500Y-120749361D01*
X105402500Y-120550639D01*
X105371413Y-120354364D01*
X105310005Y-120165368D01*
X105310005Y-120165367D01*
X105264035Y-120075149D01*
X105219787Y-119988306D01*
X105102981Y-119827536D01*
X104962464Y-119687019D01*
X104801694Y-119570213D01*
X104645218Y-119490484D01*
X104594423Y-119442510D01*
X104577628Y-119374689D01*
X104600165Y-119308554D01*
X104645218Y-119269515D01*
X104801694Y-119189787D01*
X104962464Y-119072981D01*
X105102981Y-118932464D01*
X105219787Y-118771694D01*
X105310005Y-118594632D01*
X105371413Y-118405636D01*
X105402500Y-118209361D01*
X105402500Y-118010639D01*
X105371413Y-117814364D01*
X105310005Y-117625368D01*
X105310005Y-117625367D01*
X105264035Y-117535149D01*
X105219787Y-117448306D01*
X105102981Y-117287536D01*
X104962464Y-117147019D01*
X104801694Y-117030213D01*
X104645218Y-116950484D01*
X104594423Y-116902510D01*
X104577628Y-116834689D01*
X104600165Y-116768554D01*
X104645218Y-116729515D01*
X104801694Y-116649787D01*
X104962464Y-116532981D01*
X105102981Y-116392464D01*
X105219787Y-116231694D01*
X105310005Y-116054632D01*
X105371413Y-115865636D01*
X105402500Y-115669361D01*
X105402500Y-115470639D01*
X105371413Y-115274364D01*
X105310005Y-115085368D01*
X105310005Y-115085367D01*
X105264035Y-114995149D01*
X105219787Y-114908306D01*
X105102981Y-114747536D01*
X104962464Y-114607019D01*
X104801694Y-114490213D01*
X104645218Y-114410484D01*
X104594423Y-114362510D01*
X104577628Y-114294689D01*
X104600165Y-114228554D01*
X104645218Y-114189515D01*
X104801694Y-114109787D01*
X104962464Y-113992981D01*
X105102981Y-113852464D01*
X105219787Y-113691694D01*
X105310005Y-113514632D01*
X105371413Y-113325636D01*
X105402500Y-113129361D01*
X105402500Y-112930639D01*
X105371413Y-112734364D01*
X105310005Y-112545368D01*
X105310005Y-112545367D01*
X105264035Y-112455149D01*
X105219787Y-112368306D01*
X105102981Y-112207536D01*
X104962464Y-112067019D01*
X104801694Y-111950213D01*
X104645218Y-111870484D01*
X104594423Y-111822510D01*
X104577628Y-111754689D01*
X104600165Y-111688554D01*
X104645218Y-111649515D01*
X104801694Y-111569787D01*
X104962464Y-111452981D01*
X105102981Y-111312464D01*
X105219787Y-111151694D01*
X105310005Y-110974632D01*
X105371413Y-110785636D01*
X105402500Y-110589361D01*
X105402500Y-110390639D01*
X105371413Y-110194364D01*
X105310005Y-110005368D01*
X105310005Y-110005367D01*
X105264035Y-109915149D01*
X105219787Y-109828306D01*
X105102981Y-109667536D01*
X104962464Y-109527019D01*
X104801694Y-109410213D01*
X104645218Y-109330484D01*
X104594423Y-109282510D01*
X104577628Y-109214689D01*
X104600165Y-109148554D01*
X104645218Y-109109515D01*
X104801694Y-109029787D01*
X104962464Y-108912981D01*
X105102981Y-108772464D01*
X105219787Y-108611694D01*
X105310005Y-108434632D01*
X105371413Y-108245636D01*
X105402500Y-108049361D01*
X105402500Y-107850639D01*
X105371413Y-107654364D01*
X105310005Y-107465368D01*
X105310005Y-107465367D01*
X105253058Y-107353604D01*
X105219787Y-107288306D01*
X105102981Y-107127536D01*
X104962464Y-106987019D01*
X104801694Y-106870213D01*
X104645218Y-106790484D01*
X104594423Y-106742510D01*
X104577628Y-106674689D01*
X104600165Y-106608554D01*
X104645218Y-106569515D01*
X104801694Y-106489787D01*
X104962464Y-106372981D01*
X105102981Y-106232464D01*
X105219787Y-106071694D01*
X105310005Y-105894632D01*
X105371413Y-105705636D01*
X105402500Y-105509361D01*
X105402500Y-105310639D01*
X105371413Y-105114364D01*
X105310005Y-104925368D01*
X105310005Y-104925367D01*
X105264035Y-104835149D01*
X105219787Y-104748306D01*
X105102981Y-104587536D01*
X104962464Y-104447019D01*
X104801694Y-104330213D01*
X104645218Y-104250484D01*
X104594423Y-104202510D01*
X104577628Y-104134689D01*
X104600165Y-104068554D01*
X104645218Y-104029515D01*
X104801694Y-103949787D01*
X104962464Y-103832981D01*
X105102981Y-103692464D01*
X105219787Y-103531694D01*
X105310005Y-103354632D01*
X105371413Y-103165636D01*
X105402500Y-102969361D01*
X105402500Y-102770639D01*
X105371413Y-102574364D01*
X105310005Y-102385368D01*
X105310005Y-102385367D01*
X105264035Y-102295149D01*
X105219787Y-102208306D01*
X105102981Y-102047536D01*
X104962464Y-101907019D01*
X104801694Y-101790213D01*
X104645218Y-101710484D01*
X104594423Y-101662510D01*
X104577628Y-101594689D01*
X104600165Y-101528554D01*
X104645218Y-101489515D01*
X104801694Y-101409787D01*
X104962464Y-101292981D01*
X105102981Y-101152464D01*
X105219787Y-100991694D01*
X105310005Y-100814632D01*
X105371413Y-100625636D01*
X105402500Y-100429361D01*
X105402500Y-100230639D01*
X105371413Y-100034364D01*
X105310005Y-99845368D01*
X105310005Y-99845367D01*
X105264035Y-99755149D01*
X105219787Y-99668306D01*
X105102981Y-99507536D01*
X104962464Y-99367019D01*
X104801694Y-99250213D01*
X104645218Y-99170484D01*
X104594423Y-99122510D01*
X104577628Y-99054689D01*
X104600165Y-98988554D01*
X104645218Y-98949515D01*
X104801694Y-98869787D01*
X104962464Y-98752981D01*
X105102981Y-98612464D01*
X105219787Y-98451694D01*
X105310005Y-98274632D01*
X105371413Y-98085636D01*
X105402500Y-97889361D01*
X105402500Y-97690639D01*
X105371413Y-97494364D01*
X105328875Y-97363443D01*
X105310006Y-97305370D01*
X105310005Y-97305367D01*
X105247470Y-97182637D01*
X105219787Y-97128306D01*
X105102981Y-96967536D01*
X104962464Y-96827019D01*
X104801694Y-96710213D01*
X104645218Y-96630484D01*
X104594423Y-96582510D01*
X104577628Y-96514689D01*
X104600165Y-96448554D01*
X104645218Y-96409515D01*
X104801694Y-96329787D01*
X104962464Y-96212981D01*
X105102981Y-96072464D01*
X105219787Y-95911694D01*
X105310005Y-95734632D01*
X105371413Y-95545636D01*
X105402500Y-95349361D01*
X105402500Y-95150639D01*
X105371413Y-94954364D01*
X105335424Y-94843600D01*
X105310006Y-94765370D01*
X105310005Y-94765367D01*
X105264035Y-94675149D01*
X105219787Y-94588306D01*
X105102981Y-94427536D01*
X104962464Y-94287019D01*
X104801694Y-94170213D01*
X104645218Y-94090484D01*
X104594423Y-94042510D01*
X104577628Y-93974689D01*
X104600165Y-93908554D01*
X104645218Y-93869515D01*
X104801694Y-93789787D01*
X104962464Y-93672981D01*
X105102981Y-93532464D01*
X105219787Y-93371694D01*
X105310005Y-93194632D01*
X105371413Y-93005636D01*
X105402500Y-92809361D01*
X105402500Y-92610639D01*
X105379132Y-92463099D01*
X105388087Y-92393805D01*
X105413921Y-92356023D01*
X111941484Y-85828461D01*
X111941485Y-85828458D01*
X111946205Y-85823739D01*
X111946333Y-85823595D01*
X112050024Y-85719906D01*
X112334989Y-85391037D01*
X112334988Y-85391037D01*
X112334996Y-85391029D01*
X112595765Y-85042682D01*
X112595764Y-85042682D01*
X112595768Y-85042678D01*
X112831031Y-84676602D01*
X113039579Y-84294676D01*
X113039582Y-84294668D01*
X113039585Y-84294664D01*
X113220343Y-83898858D01*
X113220342Y-83898858D01*
X113220349Y-83898845D01*
X113372422Y-83491127D01*
X113495020Y-83073599D01*
X113496149Y-83068412D01*
X113587520Y-82648394D01*
X113593302Y-82608182D01*
X113649452Y-82217664D01*
X113680498Y-81783618D01*
X113680498Y-81644542D01*
X113680500Y-81644538D01*
X113680500Y-74830639D01*
X118117500Y-74830639D01*
X118117500Y-75029360D01*
X118148587Y-75225637D01*
X118209993Y-75414629D01*
X118209994Y-75414632D01*
X118295359Y-75582168D01*
X118300213Y-75591694D01*
X118417019Y-75752464D01*
X118557536Y-75892981D01*
X118718306Y-76009787D01*
X118782085Y-76042284D01*
X118874780Y-76089515D01*
X118925576Y-76137490D01*
X118942371Y-76205311D01*
X118919833Y-76271446D01*
X118874780Y-76310485D01*
X118718305Y-76390213D01*
X118557533Y-76507021D01*
X118417021Y-76647533D01*
X118300213Y-76808305D01*
X118209994Y-76985367D01*
X118209993Y-76985370D01*
X118148587Y-77174362D01*
X118117500Y-77370639D01*
X118117500Y-77569360D01*
X118148587Y-77765637D01*
X118209993Y-77954629D01*
X118209994Y-77954632D01*
X118294509Y-78120500D01*
X118300213Y-78131694D01*
X118417019Y-78292464D01*
X118557536Y-78432981D01*
X118718306Y-78549787D01*
X118782085Y-78582284D01*
X118874780Y-78629515D01*
X118925576Y-78677490D01*
X118942371Y-78745311D01*
X118919833Y-78811446D01*
X118874780Y-78850485D01*
X118718305Y-78930213D01*
X118557533Y-79047021D01*
X118417021Y-79187533D01*
X118300213Y-79348305D01*
X118209994Y-79525367D01*
X118209993Y-79525370D01*
X118148587Y-79714362D01*
X118117500Y-79910639D01*
X118117500Y-80109360D01*
X118148587Y-80305637D01*
X118209993Y-80494629D01*
X118209994Y-80494632D01*
X118295359Y-80662168D01*
X118300213Y-80671694D01*
X118417019Y-80832464D01*
X118557536Y-80972981D01*
X118718306Y-81089787D01*
X118828218Y-81145790D01*
X118874780Y-81169515D01*
X118925576Y-81217490D01*
X118942371Y-81285311D01*
X118919833Y-81351446D01*
X118874780Y-81390485D01*
X118718305Y-81470213D01*
X118557533Y-81587021D01*
X118417021Y-81727533D01*
X118300213Y-81888305D01*
X118209994Y-82065367D01*
X118209993Y-82065370D01*
X118148587Y-82254362D01*
X118117500Y-82450639D01*
X118117500Y-82649360D01*
X118148587Y-82845637D01*
X118209993Y-83034629D01*
X118209994Y-83034632D01*
X118294509Y-83200500D01*
X118300213Y-83211694D01*
X118417019Y-83372464D01*
X118557536Y-83512981D01*
X118718306Y-83629787D01*
X118828153Y-83685757D01*
X118874780Y-83709515D01*
X118925576Y-83757490D01*
X118942371Y-83825311D01*
X118919833Y-83891446D01*
X118874780Y-83930485D01*
X118718305Y-84010213D01*
X118557533Y-84127021D01*
X118417021Y-84267533D01*
X118300213Y-84428305D01*
X118209994Y-84605367D01*
X118209993Y-84605370D01*
X118148587Y-84794362D01*
X118117500Y-84990639D01*
X118117500Y-85189360D01*
X118148587Y-85385637D01*
X118209993Y-85574629D01*
X118209994Y-85574632D01*
X118284016Y-85719906D01*
X118300213Y-85751694D01*
X118417019Y-85912464D01*
X118557536Y-86052981D01*
X118718306Y-86169787D01*
X118782085Y-86202284D01*
X118874780Y-86249515D01*
X118925576Y-86297490D01*
X118942371Y-86365311D01*
X118919833Y-86431446D01*
X118874780Y-86470485D01*
X118718305Y-86550213D01*
X118557533Y-86667021D01*
X118417021Y-86807533D01*
X118300213Y-86968305D01*
X118209994Y-87145367D01*
X118209993Y-87145370D01*
X118148587Y-87334362D01*
X118117500Y-87530639D01*
X118117500Y-87729360D01*
X118148587Y-87925637D01*
X118209993Y-88114629D01*
X118209994Y-88114632D01*
X118294509Y-88280500D01*
X118300213Y-88291694D01*
X118417019Y-88452464D01*
X118557536Y-88592981D01*
X118718306Y-88709787D01*
X118782085Y-88742284D01*
X118874780Y-88789515D01*
X118925576Y-88837490D01*
X118942371Y-88905311D01*
X118919833Y-88971446D01*
X118874780Y-89010485D01*
X118718305Y-89090213D01*
X118557533Y-89207021D01*
X118417021Y-89347533D01*
X118300213Y-89508305D01*
X118209994Y-89685367D01*
X118209993Y-89685370D01*
X118148587Y-89874362D01*
X118148587Y-89874364D01*
X118117500Y-90070639D01*
X118117500Y-90269361D01*
X118129381Y-90344372D01*
X118148587Y-90465637D01*
X118209993Y-90654629D01*
X118209994Y-90654632D01*
X118298814Y-90828949D01*
X118300213Y-90831694D01*
X118417019Y-90992464D01*
X118557536Y-91132981D01*
X118718306Y-91249787D01*
X118782085Y-91282284D01*
X118874780Y-91329515D01*
X118925576Y-91377490D01*
X118942371Y-91445311D01*
X118919833Y-91511446D01*
X118874780Y-91550485D01*
X118718305Y-91630213D01*
X118557533Y-91747021D01*
X118417021Y-91887533D01*
X118300213Y-92048305D01*
X118209994Y-92225367D01*
X118209993Y-92225370D01*
X118148587Y-92414362D01*
X118117500Y-92610639D01*
X118117500Y-92809360D01*
X118148587Y-93005637D01*
X118209993Y-93194629D01*
X118209994Y-93194632D01*
X118298814Y-93368949D01*
X118300213Y-93371694D01*
X118417019Y-93532464D01*
X118557536Y-93672981D01*
X118718306Y-93789787D01*
X118875332Y-93869796D01*
X118926127Y-93917769D01*
X118942922Y-93985590D01*
X118920385Y-94051725D01*
X118875332Y-94090764D01*
X118718566Y-94170641D01*
X118681283Y-94197729D01*
X118681282Y-94197730D01*
X119327154Y-94843600D01*
X119326496Y-94843600D01*
X119223135Y-94871295D01*
X119130464Y-94924799D01*
X119054799Y-95000464D01*
X119001295Y-95093135D01*
X118973600Y-95196496D01*
X118973600Y-95197152D01*
X118327730Y-94551282D01*
X118327729Y-94551283D01*
X118300643Y-94588564D01*
X118210457Y-94765562D01*
X118149075Y-94954476D01*
X118149075Y-94954479D01*
X118118000Y-95150678D01*
X118118000Y-95349321D01*
X118149075Y-95545520D01*
X118149075Y-95545523D01*
X118210457Y-95734437D01*
X118300641Y-95911432D01*
X118327730Y-95948715D01*
X118327731Y-95948716D01*
X118973600Y-95302847D01*
X118973600Y-95303504D01*
X119001295Y-95406865D01*
X119054799Y-95499536D01*
X119130464Y-95575201D01*
X119223135Y-95628705D01*
X119326496Y-95656400D01*
X119327153Y-95656400D01*
X118681283Y-96302268D01*
X118681283Y-96302269D01*
X118718567Y-96329358D01*
X118875331Y-96409234D01*
X118926127Y-96457209D01*
X118942922Y-96525030D01*
X118920384Y-96591165D01*
X118875331Y-96630204D01*
X118718305Y-96710213D01*
X118557533Y-96827021D01*
X118417021Y-96967533D01*
X118300213Y-97128305D01*
X118209994Y-97305367D01*
X118209993Y-97305370D01*
X118148587Y-97494362D01*
X118117500Y-97690639D01*
X118117500Y-97889360D01*
X118148587Y-98085637D01*
X118209993Y-98274629D01*
X118209994Y-98274632D01*
X118294509Y-98440500D01*
X118300213Y-98451694D01*
X118417019Y-98612464D01*
X118557536Y-98752981D01*
X118718306Y-98869787D01*
X118770325Y-98896292D01*
X118874780Y-98949515D01*
X118925576Y-98997490D01*
X118942371Y-99065311D01*
X118919833Y-99131446D01*
X118874780Y-99170485D01*
X118718305Y-99250213D01*
X118557533Y-99367021D01*
X118417021Y-99507533D01*
X118300213Y-99668305D01*
X118209994Y-99845367D01*
X118209993Y-99845370D01*
X118148587Y-100034362D01*
X118117500Y-100230639D01*
X118117500Y-100429360D01*
X118148587Y-100625637D01*
X118209993Y-100814629D01*
X118209994Y-100814632D01*
X118287873Y-100967475D01*
X118300213Y-100991694D01*
X118417019Y-101152464D01*
X118557536Y-101292981D01*
X118718306Y-101409787D01*
X118836832Y-101470179D01*
X118874780Y-101489515D01*
X118925576Y-101537490D01*
X118942371Y-101605311D01*
X118919833Y-101671446D01*
X118874780Y-101710485D01*
X118718305Y-101790213D01*
X118557533Y-101907021D01*
X118417021Y-102047533D01*
X118300213Y-102208305D01*
X118209994Y-102385367D01*
X118209993Y-102385370D01*
X118148587Y-102574362D01*
X118117500Y-102770639D01*
X118117500Y-102969360D01*
X118148587Y-103165637D01*
X118209993Y-103354629D01*
X118209994Y-103354632D01*
X118294509Y-103520500D01*
X118300213Y-103531694D01*
X118417019Y-103692464D01*
X118557536Y-103832981D01*
X118718306Y-103949787D01*
X118836832Y-104010179D01*
X118874780Y-104029515D01*
X118925576Y-104077490D01*
X118942371Y-104145311D01*
X118919833Y-104211446D01*
X118874780Y-104250485D01*
X118718305Y-104330213D01*
X118557533Y-104447021D01*
X118417021Y-104587533D01*
X118300213Y-104748305D01*
X118209994Y-104925367D01*
X118209993Y-104925370D01*
X118148587Y-105114362D01*
X118117500Y-105310639D01*
X118117500Y-105509360D01*
X118148587Y-105705637D01*
X118209993Y-105894629D01*
X118209994Y-105894632D01*
X118294509Y-106060500D01*
X118300213Y-106071694D01*
X118417019Y-106232464D01*
X118557536Y-106372981D01*
X118718306Y-106489787D01*
X118836832Y-106550179D01*
X118874780Y-106569515D01*
X118925576Y-106617490D01*
X118942371Y-106685311D01*
X118919833Y-106751446D01*
X118874780Y-106790485D01*
X118718305Y-106870213D01*
X118557533Y-106987021D01*
X118417021Y-107127533D01*
X118300213Y-107288305D01*
X118209994Y-107465367D01*
X118209993Y-107465370D01*
X118148587Y-107654362D01*
X118117500Y-107850639D01*
X118117500Y-108049360D01*
X118148587Y-108245637D01*
X118209993Y-108434629D01*
X118209994Y-108434632D01*
X118294509Y-108600500D01*
X118300213Y-108611694D01*
X118417019Y-108772464D01*
X118557536Y-108912981D01*
X118718306Y-109029787D01*
X118836832Y-109090179D01*
X118874780Y-109109515D01*
X118925576Y-109157490D01*
X118942371Y-109225311D01*
X118919833Y-109291446D01*
X118874780Y-109330485D01*
X118718305Y-109410213D01*
X118557533Y-109527021D01*
X118417021Y-109667533D01*
X118300213Y-109828305D01*
X118209994Y-110005367D01*
X118209993Y-110005370D01*
X118148587Y-110194362D01*
X118117500Y-110390639D01*
X118117500Y-110589360D01*
X118148587Y-110785637D01*
X118209993Y-110974629D01*
X118209994Y-110974632D01*
X118263670Y-111079975D01*
X118300213Y-111151694D01*
X118417019Y-111312464D01*
X118557536Y-111452981D01*
X118718306Y-111569787D01*
X118836832Y-111630179D01*
X118874780Y-111649515D01*
X118925576Y-111697490D01*
X118942371Y-111765311D01*
X118919833Y-111831446D01*
X118874780Y-111870485D01*
X118718305Y-111950213D01*
X118557533Y-112067021D01*
X118417021Y-112207533D01*
X118300213Y-112368305D01*
X118209994Y-112545367D01*
X118209993Y-112545370D01*
X118148587Y-112734362D01*
X118117500Y-112930639D01*
X118117500Y-113129360D01*
X118148587Y-113325637D01*
X118209993Y-113514629D01*
X118209994Y-113514632D01*
X118294509Y-113680500D01*
X118300213Y-113691694D01*
X118417019Y-113852464D01*
X118557536Y-113992981D01*
X118718306Y-114109787D01*
X118836832Y-114170179D01*
X118874780Y-114189515D01*
X118925576Y-114237490D01*
X118942371Y-114305311D01*
X118919833Y-114371446D01*
X118874780Y-114410485D01*
X118718305Y-114490213D01*
X118557533Y-114607021D01*
X118417021Y-114747533D01*
X118300213Y-114908305D01*
X118209994Y-115085367D01*
X118209993Y-115085370D01*
X118148587Y-115274362D01*
X118117500Y-115470639D01*
X118117500Y-115669360D01*
X118148587Y-115865637D01*
X118209993Y-116054629D01*
X118209994Y-116054632D01*
X118294509Y-116220500D01*
X118300213Y-116231694D01*
X118417019Y-116392464D01*
X118557536Y-116532981D01*
X118718306Y-116649787D01*
X118836832Y-116710179D01*
X118874780Y-116729515D01*
X118925576Y-116777490D01*
X118942371Y-116845311D01*
X118919833Y-116911446D01*
X118874780Y-116950485D01*
X118718305Y-117030213D01*
X118557533Y-117147021D01*
X118417021Y-117287533D01*
X118300213Y-117448305D01*
X118209994Y-117625367D01*
X118209993Y-117625370D01*
X118148587Y-117814362D01*
X118117500Y-118010639D01*
X118117500Y-118209360D01*
X118148587Y-118405637D01*
X118209993Y-118594629D01*
X118209994Y-118594632D01*
X118294509Y-118760500D01*
X118300213Y-118771694D01*
X118417019Y-118932464D01*
X118557536Y-119072981D01*
X118718306Y-119189787D01*
X118836832Y-119250179D01*
X118874780Y-119269515D01*
X118925576Y-119317490D01*
X118942371Y-119385311D01*
X118919833Y-119451446D01*
X118874780Y-119490485D01*
X118718305Y-119570213D01*
X118557533Y-119687021D01*
X118417021Y-119827533D01*
X118300213Y-119988305D01*
X118209994Y-120165367D01*
X118209993Y-120165370D01*
X118148587Y-120354362D01*
X118148587Y-120354364D01*
X118117500Y-120550639D01*
X118117500Y-120749361D01*
X118120268Y-120766835D01*
X118148587Y-120945637D01*
X118209993Y-121134629D01*
X118209994Y-121134632D01*
X118263587Y-121239812D01*
X118300213Y-121311694D01*
X118417019Y-121472464D01*
X118557536Y-121612981D01*
X118718306Y-121729787D01*
X118805149Y-121774035D01*
X118895367Y-121820005D01*
X118895370Y-121820006D01*
X118989866Y-121850709D01*
X119084364Y-121881413D01*
X119280639Y-121912500D01*
X119280640Y-121912500D01*
X119479360Y-121912500D01*
X119479361Y-121912500D01*
X119675636Y-121881413D01*
X119864632Y-121820005D01*
X120041694Y-121729787D01*
X120202464Y-121612981D01*
X120342981Y-121472464D01*
X120426275Y-121357820D01*
X120430783Y-121351615D01*
X120486113Y-121308949D01*
X120531101Y-121300500D01*
X130820382Y-121300500D01*
X130887421Y-121320185D01*
X130921099Y-121354591D01*
X130922085Y-121353875D01*
X131049890Y-121529786D01*
X131200213Y-121680109D01*
X131372179Y-121805048D01*
X131372181Y-121805049D01*
X131372184Y-121805051D01*
X131561588Y-121901557D01*
X131763757Y-121967246D01*
X131973713Y-122000500D01*
X131973714Y-122000500D01*
X132186286Y-122000500D01*
X132186287Y-122000500D01*
X132396243Y-121967246D01*
X132598412Y-121901557D01*
X132787816Y-121805051D01*
X132891409Y-121729787D01*
X132959786Y-121680109D01*
X132959788Y-121680106D01*
X132959792Y-121680104D01*
X133110104Y-121529792D01*
X133110106Y-121529788D01*
X133110109Y-121529786D01*
X133235048Y-121357820D01*
X133235047Y-121357820D01*
X133235051Y-121357816D01*
X133331557Y-121168412D01*
X133397246Y-120966243D01*
X133430500Y-120756287D01*
X133430500Y-120543713D01*
X133397246Y-120333757D01*
X133331557Y-120131588D01*
X133235051Y-119942184D01*
X133235049Y-119942181D01*
X133235048Y-119942179D01*
X133110109Y-119770213D01*
X132959786Y-119619890D01*
X132787820Y-119494951D01*
X132784648Y-119493335D01*
X132779054Y-119490485D01*
X132728259Y-119442512D01*
X132711463Y-119374692D01*
X132733999Y-119308556D01*
X132779054Y-119269515D01*
X132787816Y-119265051D01*
X132891409Y-119189787D01*
X132959786Y-119140109D01*
X132959788Y-119140106D01*
X132959792Y-119140104D01*
X133110104Y-118989792D01*
X133110106Y-118989788D01*
X133110109Y-118989786D01*
X133235048Y-118817820D01*
X133235047Y-118817820D01*
X133235051Y-118817816D01*
X133331557Y-118628412D01*
X133397246Y-118426243D01*
X133430500Y-118216287D01*
X133430500Y-118003713D01*
X133397246Y-117793757D01*
X133331557Y-117591588D01*
X133235051Y-117402184D01*
X133235049Y-117402181D01*
X133235048Y-117402179D01*
X133110109Y-117230213D01*
X132959786Y-117079890D01*
X132787820Y-116954951D01*
X132787115Y-116954591D01*
X132779054Y-116950485D01*
X132728259Y-116902512D01*
X132711463Y-116834692D01*
X132733999Y-116768556D01*
X132779054Y-116729515D01*
X132787816Y-116725051D01*
X132809789Y-116709086D01*
X132959786Y-116600109D01*
X132959788Y-116600106D01*
X132959792Y-116600104D01*
X133110104Y-116449792D01*
X133110106Y-116449788D01*
X133110109Y-116449786D01*
X133235048Y-116277820D01*
X133235047Y-116277820D01*
X133235051Y-116277816D01*
X133331557Y-116088412D01*
X133397246Y-115886243D01*
X133430500Y-115676287D01*
X133430500Y-115463713D01*
X133397246Y-115253757D01*
X133331557Y-115051588D01*
X133235051Y-114862184D01*
X133235049Y-114862181D01*
X133235048Y-114862179D01*
X133110109Y-114690213D01*
X132959786Y-114539890D01*
X132787820Y-114414951D01*
X132787115Y-114414591D01*
X132779054Y-114410485D01*
X132728259Y-114362512D01*
X132711463Y-114294692D01*
X132733999Y-114228556D01*
X132779054Y-114189515D01*
X132787816Y-114185051D01*
X132891409Y-114109787D01*
X132959786Y-114060109D01*
X132959788Y-114060106D01*
X132959792Y-114060104D01*
X133110104Y-113909792D01*
X133110106Y-113909788D01*
X133110109Y-113909786D01*
X133235048Y-113737820D01*
X133235047Y-113737820D01*
X133235051Y-113737816D01*
X133331557Y-113548412D01*
X133397246Y-113346243D01*
X133430500Y-113136287D01*
X133430500Y-112923713D01*
X133397246Y-112713757D01*
X133331557Y-112511588D01*
X133235051Y-112322184D01*
X133235049Y-112322181D01*
X133235048Y-112322179D01*
X133110109Y-112150213D01*
X132959786Y-111999890D01*
X132787820Y-111874951D01*
X132787115Y-111874591D01*
X132779054Y-111870485D01*
X132728259Y-111822512D01*
X132711463Y-111754692D01*
X132733999Y-111688556D01*
X132779054Y-111649515D01*
X132787816Y-111645051D01*
X132891409Y-111569787D01*
X132959786Y-111520109D01*
X132959788Y-111520106D01*
X132959792Y-111520104D01*
X133110104Y-111369792D01*
X133110106Y-111369788D01*
X133110109Y-111369786D01*
X133235048Y-111197820D01*
X133235047Y-111197820D01*
X133235051Y-111197816D01*
X133331557Y-111008412D01*
X133397246Y-110806243D01*
X133430500Y-110596287D01*
X133430500Y-110383713D01*
X133397246Y-110173757D01*
X133331557Y-109971588D01*
X133235051Y-109782184D01*
X133235049Y-109782181D01*
X133235048Y-109782179D01*
X133110109Y-109610213D01*
X132959786Y-109459890D01*
X132787820Y-109334951D01*
X132787115Y-109334591D01*
X132779054Y-109330485D01*
X132728259Y-109282512D01*
X132711463Y-109214692D01*
X132733999Y-109148556D01*
X132779054Y-109109515D01*
X132787816Y-109105051D01*
X132891409Y-109029787D01*
X132959786Y-108980109D01*
X132959788Y-108980106D01*
X132959792Y-108980104D01*
X133110104Y-108829792D01*
X133110106Y-108829788D01*
X133110109Y-108829786D01*
X133235048Y-108657820D01*
X133235047Y-108657820D01*
X133235051Y-108657816D01*
X133331557Y-108468412D01*
X133397246Y-108266243D01*
X133430500Y-108056287D01*
X133430500Y-107843713D01*
X133397246Y-107633757D01*
X133331557Y-107431588D01*
X133235051Y-107242184D01*
X133235049Y-107242181D01*
X133235048Y-107242179D01*
X133110109Y-107070213D01*
X132959786Y-106919890D01*
X132787820Y-106794951D01*
X132787115Y-106794591D01*
X132779054Y-106790485D01*
X132728259Y-106742512D01*
X132711463Y-106674692D01*
X132733999Y-106608556D01*
X132779054Y-106569515D01*
X132787816Y-106565051D01*
X132891409Y-106489787D01*
X132959786Y-106440109D01*
X132959788Y-106440106D01*
X132959792Y-106440104D01*
X133110104Y-106289792D01*
X133110106Y-106289788D01*
X133110109Y-106289786D01*
X133235048Y-106117820D01*
X133235047Y-106117820D01*
X133235051Y-106117816D01*
X133331557Y-105928412D01*
X133397246Y-105726243D01*
X133430500Y-105516287D01*
X133430500Y-105303713D01*
X133397246Y-105093757D01*
X133331557Y-104891588D01*
X133235051Y-104702184D01*
X133235049Y-104702181D01*
X133235048Y-104702179D01*
X133110109Y-104530213D01*
X132959786Y-104379890D01*
X132787820Y-104254951D01*
X132787115Y-104254591D01*
X132779054Y-104250485D01*
X132728259Y-104202512D01*
X132711463Y-104134692D01*
X132733999Y-104068556D01*
X132779054Y-104029515D01*
X132787816Y-104025051D01*
X132891409Y-103949787D01*
X132959786Y-103900109D01*
X132959788Y-103900106D01*
X132959792Y-103900104D01*
X133110104Y-103749792D01*
X133110106Y-103749788D01*
X133110109Y-103749786D01*
X133235048Y-103577820D01*
X133235047Y-103577820D01*
X133235051Y-103577816D01*
X133331557Y-103388412D01*
X133397246Y-103186243D01*
X133430500Y-102976287D01*
X133430500Y-102763713D01*
X133397246Y-102553757D01*
X133331557Y-102351588D01*
X133235051Y-102162184D01*
X133235049Y-102162181D01*
X133235048Y-102162179D01*
X133110109Y-101990213D01*
X132959786Y-101839890D01*
X132787820Y-101714951D01*
X132787115Y-101714591D01*
X132779054Y-101710485D01*
X132728259Y-101662512D01*
X132711463Y-101594692D01*
X132733999Y-101528556D01*
X132779054Y-101489515D01*
X132787816Y-101485051D01*
X132891409Y-101409787D01*
X132959786Y-101360109D01*
X132959788Y-101360106D01*
X132959792Y-101360104D01*
X133110104Y-101209792D01*
X133110106Y-101209788D01*
X133110109Y-101209786D01*
X133235048Y-101037820D01*
X133235047Y-101037820D01*
X133235051Y-101037816D01*
X133331557Y-100848412D01*
X133397246Y-100646243D01*
X133430500Y-100436287D01*
X133430500Y-100223713D01*
X133397246Y-100013757D01*
X133331557Y-99811588D01*
X133235051Y-99622184D01*
X133235049Y-99622181D01*
X133235048Y-99622179D01*
X133110109Y-99450213D01*
X132959786Y-99299890D01*
X132787820Y-99174951D01*
X132787115Y-99174591D01*
X132779054Y-99170485D01*
X132728259Y-99122512D01*
X132711463Y-99054692D01*
X132733999Y-98988556D01*
X132779054Y-98949515D01*
X132787816Y-98945051D01*
X132831113Y-98913594D01*
X132959786Y-98820109D01*
X132959788Y-98820106D01*
X132959792Y-98820104D01*
X133110104Y-98669792D01*
X133110106Y-98669788D01*
X133110109Y-98669786D01*
X133235048Y-98497820D01*
X133235047Y-98497820D01*
X133235051Y-98497816D01*
X133331557Y-98308412D01*
X133397246Y-98106243D01*
X133430500Y-97896287D01*
X133430500Y-97683713D01*
X133397246Y-97473757D01*
X133331557Y-97271588D01*
X133235051Y-97082184D01*
X133235049Y-97082181D01*
X133235048Y-97082179D01*
X133110109Y-96910213D01*
X132959786Y-96759890D01*
X132787817Y-96634949D01*
X132778504Y-96630204D01*
X132727707Y-96582230D01*
X132710912Y-96514409D01*
X132733449Y-96448274D01*
X132778507Y-96409232D01*
X132787555Y-96404622D01*
X132841716Y-96365270D01*
X132841717Y-96365270D01*
X132209408Y-95732962D01*
X132272993Y-95715925D01*
X132387007Y-95650099D01*
X132480099Y-95557007D01*
X132545925Y-95442993D01*
X132562962Y-95379409D01*
X133195270Y-96011717D01*
X133195270Y-96011716D01*
X133234622Y-95957554D01*
X133331095Y-95768217D01*
X133396757Y-95566130D01*
X133396757Y-95566127D01*
X133430000Y-95356246D01*
X133430000Y-95143753D01*
X133396757Y-94933872D01*
X133396757Y-94933869D01*
X133331095Y-94731782D01*
X133234624Y-94542449D01*
X133195270Y-94488282D01*
X133195269Y-94488282D01*
X132562962Y-95120590D01*
X132545925Y-95057007D01*
X132480099Y-94942993D01*
X132387007Y-94849901D01*
X132272993Y-94784075D01*
X132209409Y-94767037D01*
X132841716Y-94134728D01*
X132787547Y-94095373D01*
X132787547Y-94095372D01*
X132778500Y-94090763D01*
X132727706Y-94042788D01*
X132710912Y-93974966D01*
X132733451Y-93908832D01*
X132778508Y-93869793D01*
X132787816Y-93865051D01*
X132867007Y-93807515D01*
X132959786Y-93740109D01*
X132959788Y-93740106D01*
X132959792Y-93740104D01*
X133110104Y-93589792D01*
X133110106Y-93589788D01*
X133110109Y-93589786D01*
X133235048Y-93417820D01*
X133235047Y-93417820D01*
X133235051Y-93417816D01*
X133331557Y-93228412D01*
X133397246Y-93026243D01*
X133430500Y-92816287D01*
X133430500Y-92603713D01*
X133397246Y-92393757D01*
X133331557Y-92191588D01*
X133235051Y-92002184D01*
X133235049Y-92002181D01*
X133235048Y-92002179D01*
X133110109Y-91830213D01*
X132959786Y-91679890D01*
X132787820Y-91554951D01*
X132787115Y-91554591D01*
X132779054Y-91550485D01*
X132728259Y-91502512D01*
X132711463Y-91434692D01*
X132733999Y-91368556D01*
X132779054Y-91329515D01*
X132787816Y-91325051D01*
X132891409Y-91249787D01*
X132959786Y-91200109D01*
X132959788Y-91200106D01*
X132959792Y-91200104D01*
X133110104Y-91049792D01*
X133110106Y-91049788D01*
X133110109Y-91049786D01*
X133235048Y-90877820D01*
X133235047Y-90877820D01*
X133235051Y-90877816D01*
X133331557Y-90688412D01*
X133397246Y-90486243D01*
X133430500Y-90276287D01*
X133430500Y-90063713D01*
X133397246Y-89853757D01*
X133331557Y-89651588D01*
X133235051Y-89462184D01*
X133235049Y-89462181D01*
X133235048Y-89462179D01*
X133110109Y-89290213D01*
X132959786Y-89139890D01*
X132787820Y-89014951D01*
X132787115Y-89014591D01*
X132779054Y-89010485D01*
X132728259Y-88962512D01*
X132711463Y-88894692D01*
X132733999Y-88828556D01*
X132779054Y-88789515D01*
X132787816Y-88785051D01*
X132891409Y-88709787D01*
X132959786Y-88660109D01*
X132959788Y-88660106D01*
X132959792Y-88660104D01*
X133110104Y-88509792D01*
X133110106Y-88509788D01*
X133110109Y-88509786D01*
X133235048Y-88337820D01*
X133235047Y-88337820D01*
X133235051Y-88337816D01*
X133331557Y-88148412D01*
X133397246Y-87946243D01*
X133430500Y-87736287D01*
X133430500Y-87523713D01*
X133397246Y-87313757D01*
X133331557Y-87111588D01*
X133235051Y-86922184D01*
X133235049Y-86922181D01*
X133235048Y-86922179D01*
X133110109Y-86750213D01*
X132959786Y-86599890D01*
X132787820Y-86474951D01*
X132787115Y-86474591D01*
X132779054Y-86470485D01*
X132728259Y-86422512D01*
X132711463Y-86354692D01*
X132733999Y-86288556D01*
X132779054Y-86249515D01*
X132787816Y-86245051D01*
X132891409Y-86169787D01*
X132959786Y-86120109D01*
X132959788Y-86120106D01*
X132959792Y-86120104D01*
X133110104Y-85969792D01*
X133110106Y-85969788D01*
X133110109Y-85969786D01*
X133235048Y-85797820D01*
X133235047Y-85797820D01*
X133235051Y-85797816D01*
X133331557Y-85608412D01*
X133397246Y-85406243D01*
X133430500Y-85196287D01*
X133430500Y-84983713D01*
X133397246Y-84773757D01*
X133331557Y-84571588D01*
X133235051Y-84382184D01*
X133235049Y-84382181D01*
X133235048Y-84382179D01*
X133110109Y-84210213D01*
X132959786Y-84059890D01*
X132787820Y-83934951D01*
X132787115Y-83934591D01*
X132779054Y-83930485D01*
X132728259Y-83882512D01*
X132711463Y-83814692D01*
X132733999Y-83748556D01*
X132779054Y-83709515D01*
X132787816Y-83705051D01*
X132891409Y-83629787D01*
X132959786Y-83580109D01*
X132959788Y-83580106D01*
X132959792Y-83580104D01*
X133110104Y-83429792D01*
X133110106Y-83429788D01*
X133110109Y-83429786D01*
X133235048Y-83257820D01*
X133235047Y-83257820D01*
X133235051Y-83257816D01*
X133331557Y-83068412D01*
X133397246Y-82866243D01*
X133430500Y-82656287D01*
X133430500Y-82443713D01*
X133397246Y-82233757D01*
X133331557Y-82031588D01*
X133235051Y-81842184D01*
X133235049Y-81842181D01*
X133235048Y-81842179D01*
X133110109Y-81670213D01*
X132959786Y-81519890D01*
X132787820Y-81394951D01*
X132787115Y-81394591D01*
X132779054Y-81390485D01*
X132728259Y-81342512D01*
X132711463Y-81274692D01*
X132733999Y-81208556D01*
X132779054Y-81169515D01*
X132787816Y-81165051D01*
X132891409Y-81089787D01*
X132959786Y-81040109D01*
X132959788Y-81040106D01*
X132959792Y-81040104D01*
X133110104Y-80889792D01*
X133110106Y-80889788D01*
X133110109Y-80889786D01*
X133235048Y-80717820D01*
X133235047Y-80717820D01*
X133235051Y-80717816D01*
X133331557Y-80528412D01*
X133397246Y-80326243D01*
X133430500Y-80116287D01*
X133430500Y-79903713D01*
X133397246Y-79693757D01*
X133331557Y-79491588D01*
X133235051Y-79302184D01*
X133235049Y-79302181D01*
X133235048Y-79302179D01*
X133110109Y-79130213D01*
X132959786Y-78979890D01*
X132787820Y-78854951D01*
X132787115Y-78854591D01*
X132779054Y-78850485D01*
X132728259Y-78802512D01*
X132711463Y-78734692D01*
X132733999Y-78668556D01*
X132779054Y-78629515D01*
X132787816Y-78625051D01*
X132891409Y-78549787D01*
X132959786Y-78500109D01*
X132959788Y-78500106D01*
X132959792Y-78500104D01*
X133110104Y-78349792D01*
X133110106Y-78349788D01*
X133110109Y-78349786D01*
X133235048Y-78177820D01*
X133235047Y-78177820D01*
X133235051Y-78177816D01*
X133331557Y-77988412D01*
X133397246Y-77786243D01*
X133430500Y-77576287D01*
X133430500Y-77363713D01*
X133397246Y-77153757D01*
X133331557Y-76951588D01*
X133235051Y-76762184D01*
X133235049Y-76762181D01*
X133235048Y-76762179D01*
X133110109Y-76590213D01*
X132959786Y-76439890D01*
X132787820Y-76314951D01*
X132787115Y-76314591D01*
X132779054Y-76310485D01*
X132728259Y-76262512D01*
X132711463Y-76194692D01*
X132733999Y-76128556D01*
X132779054Y-76089515D01*
X132787816Y-76085051D01*
X132891409Y-76009787D01*
X132959786Y-75960109D01*
X132959788Y-75960106D01*
X132959792Y-75960104D01*
X133110104Y-75809792D01*
X133110106Y-75809788D01*
X133110109Y-75809786D01*
X133235048Y-75637820D01*
X133235047Y-75637820D01*
X133235051Y-75637816D01*
X133331557Y-75448412D01*
X133397246Y-75246243D01*
X133430500Y-75036287D01*
X133430500Y-74823713D01*
X133397246Y-74613757D01*
X133331557Y-74411588D01*
X133235051Y-74222184D01*
X133235049Y-74222181D01*
X133235048Y-74222179D01*
X133110109Y-74050213D01*
X132959786Y-73899890D01*
X132787817Y-73774949D01*
X132778504Y-73770204D01*
X132727707Y-73722230D01*
X132710912Y-73654409D01*
X132733449Y-73588274D01*
X132778507Y-73549232D01*
X132787555Y-73544622D01*
X132841716Y-73505270D01*
X132841717Y-73505270D01*
X132209408Y-72872962D01*
X132272993Y-72855925D01*
X132387007Y-72790099D01*
X132480099Y-72697007D01*
X132545925Y-72582993D01*
X132562962Y-72519409D01*
X133195270Y-73151717D01*
X133195270Y-73151716D01*
X133234622Y-73097554D01*
X133331095Y-72908217D01*
X133396757Y-72706130D01*
X133396757Y-72706127D01*
X133430000Y-72496246D01*
X133430000Y-72283753D01*
X133396757Y-72073872D01*
X133396757Y-72073869D01*
X133331095Y-71871782D01*
X133234624Y-71682449D01*
X133195270Y-71628282D01*
X133195269Y-71628282D01*
X132562962Y-72260590D01*
X132545925Y-72197007D01*
X132480099Y-72082993D01*
X132387007Y-71989901D01*
X132272993Y-71924075D01*
X132209409Y-71907037D01*
X132841716Y-71274728D01*
X132787550Y-71235375D01*
X132598217Y-71138904D01*
X132396129Y-71073242D01*
X132186246Y-71040000D01*
X131973754Y-71040000D01*
X131763872Y-71073242D01*
X131763869Y-71073242D01*
X131561782Y-71138904D01*
X131372439Y-71235380D01*
X131318282Y-71274727D01*
X131318282Y-71274728D01*
X131950591Y-71907037D01*
X131887007Y-71924075D01*
X131772993Y-71989901D01*
X131679901Y-72082993D01*
X131614075Y-72197007D01*
X131597037Y-72260591D01*
X130964728Y-71628282D01*
X130964727Y-71628282D01*
X130925380Y-71682439D01*
X130828904Y-71871782D01*
X130763242Y-72073869D01*
X130763242Y-72073872D01*
X130730000Y-72283753D01*
X130730000Y-72496246D01*
X130763242Y-72706127D01*
X130763242Y-72706130D01*
X130828904Y-72908217D01*
X130925375Y-73097550D01*
X130964728Y-73151716D01*
X131597037Y-72519408D01*
X131614075Y-72582993D01*
X131679901Y-72697007D01*
X131772993Y-72790099D01*
X131887007Y-72855925D01*
X131950590Y-72872962D01*
X131318282Y-73505269D01*
X131318282Y-73505270D01*
X131372452Y-73544626D01*
X131372451Y-73544626D01*
X131381495Y-73549234D01*
X131432292Y-73597208D01*
X131449087Y-73665029D01*
X131426550Y-73731164D01*
X131381499Y-73770202D01*
X131372182Y-73774949D01*
X131200213Y-73899890D01*
X131049890Y-74050213D01*
X130922085Y-74226125D01*
X130920740Y-74225148D01*
X130874295Y-74267166D01*
X130820382Y-74279500D01*
X128198071Y-74279500D01*
X128131032Y-74259815D01*
X128097754Y-74228386D01*
X127991966Y-74082781D01*
X127847219Y-73938034D01*
X127847217Y-73938032D01*
X127847212Y-73938028D01*
X127810325Y-73911228D01*
X127767659Y-73855898D01*
X127761680Y-73786285D01*
X127794286Y-73724490D01*
X127855124Y-73690133D01*
X127869956Y-73687620D01*
X127907379Y-73683596D01*
X128042086Y-73633354D01*
X128042093Y-73633350D01*
X128157187Y-73547190D01*
X128157190Y-73547187D01*
X128243350Y-73432093D01*
X128243354Y-73432086D01*
X128293596Y-73297379D01*
X128293598Y-73297372D01*
X128299999Y-73237844D01*
X128300000Y-73237827D01*
X128300000Y-72640000D01*
X127315686Y-72640000D01*
X127320080Y-72635606D01*
X127372741Y-72544394D01*
X127400000Y-72442661D01*
X127400000Y-72337339D01*
X127372741Y-72235606D01*
X127320080Y-72144394D01*
X127315686Y-72140000D01*
X128300000Y-72140000D01*
X128300000Y-71542172D01*
X128299999Y-71542155D01*
X128293598Y-71482627D01*
X128293596Y-71482619D01*
X128249847Y-71365320D01*
X128249846Y-71365319D01*
X128243355Y-71347916D01*
X128243350Y-71347906D01*
X128157190Y-71232812D01*
X128157187Y-71232809D01*
X128042093Y-71146649D01*
X128042086Y-71146645D01*
X127907379Y-71096403D01*
X127907372Y-71096401D01*
X127847844Y-71090000D01*
X127250000Y-71090000D01*
X127250000Y-72074314D01*
X127245606Y-72069920D01*
X127154394Y-72017259D01*
X127052661Y-71990000D01*
X126947339Y-71990000D01*
X126845606Y-72017259D01*
X126754394Y-72069920D01*
X126750000Y-72074314D01*
X126750000Y-71090000D01*
X126152155Y-71090000D01*
X126092627Y-71096401D01*
X126092620Y-71096403D01*
X125957913Y-71146645D01*
X125957906Y-71146649D01*
X125842812Y-71232809D01*
X125842809Y-71232812D01*
X125756649Y-71347906D01*
X125756645Y-71347913D01*
X125706403Y-71482620D01*
X125706401Y-71482627D01*
X125700000Y-71542155D01*
X125700000Y-72140000D01*
X126684314Y-72140000D01*
X126679920Y-72144394D01*
X126627259Y-72235606D01*
X126600000Y-72337339D01*
X126600000Y-72442661D01*
X126627259Y-72544394D01*
X126679920Y-72635606D01*
X126684314Y-72640000D01*
X125700000Y-72640000D01*
X125700000Y-73237844D01*
X125706401Y-73297372D01*
X125706403Y-73297379D01*
X125756645Y-73432086D01*
X125756649Y-73432093D01*
X125842809Y-73547187D01*
X125842812Y-73547190D01*
X125957906Y-73633350D01*
X125957913Y-73633354D01*
X126092620Y-73683596D01*
X126130043Y-73687620D01*
X126194595Y-73714358D01*
X126234443Y-73771750D01*
X126236937Y-73841576D01*
X126201285Y-73901665D01*
X126189675Y-73911227D01*
X126152789Y-73938026D01*
X126152782Y-73938032D01*
X126008034Y-74082780D01*
X125990046Y-74107539D01*
X125902246Y-74228386D01*
X125846918Y-74271051D01*
X125801929Y-74279500D01*
X120531101Y-74279500D01*
X120464062Y-74259815D01*
X120430783Y-74228385D01*
X120342983Y-74107539D01*
X120342978Y-74107533D01*
X120202466Y-73967021D01*
X120202464Y-73967019D01*
X120041694Y-73850213D01*
X119884667Y-73770203D01*
X119833872Y-73722229D01*
X119817077Y-73654408D01*
X119839614Y-73588273D01*
X119884669Y-73549234D01*
X120041422Y-73469364D01*
X120078716Y-73442268D01*
X119432848Y-72796400D01*
X119433504Y-72796400D01*
X119536865Y-72768705D01*
X119629536Y-72715201D01*
X119705201Y-72639536D01*
X119758705Y-72546865D01*
X119786400Y-72443504D01*
X119786400Y-72442847D01*
X120432268Y-73088715D01*
X120459362Y-73051425D01*
X120549542Y-72874437D01*
X120610924Y-72685523D01*
X120610924Y-72685520D01*
X120642000Y-72489321D01*
X120642000Y-72290681D01*
X120641999Y-72290676D01*
X120610924Y-72094479D01*
X120610924Y-72094476D01*
X120549542Y-71905562D01*
X120459358Y-71728567D01*
X120432268Y-71691283D01*
X119786400Y-72337151D01*
X119786400Y-72336496D01*
X119758705Y-72233135D01*
X119705201Y-72140464D01*
X119629536Y-72064799D01*
X119536865Y-72011295D01*
X119433504Y-71983600D01*
X119432847Y-71983600D01*
X120078716Y-71337731D01*
X120078715Y-71337730D01*
X120041432Y-71310641D01*
X119864437Y-71220457D01*
X119675522Y-71159075D01*
X119479321Y-71128000D01*
X119280679Y-71128000D01*
X119084479Y-71159075D01*
X119084476Y-71159075D01*
X118895562Y-71220457D01*
X118718564Y-71310643D01*
X118681283Y-71337729D01*
X118681282Y-71337730D01*
X119327154Y-71983600D01*
X119326496Y-71983600D01*
X119223135Y-72011295D01*
X119130464Y-72064799D01*
X119054799Y-72140464D01*
X119001295Y-72233135D01*
X118973600Y-72336496D01*
X118973600Y-72337152D01*
X118327730Y-71691282D01*
X118327729Y-71691283D01*
X118300643Y-71728564D01*
X118210457Y-71905562D01*
X118149075Y-72094476D01*
X118149075Y-72094479D01*
X118118000Y-72290678D01*
X118118000Y-72489321D01*
X118149075Y-72685520D01*
X118149075Y-72685523D01*
X118210457Y-72874437D01*
X118300641Y-73051432D01*
X118327730Y-73088715D01*
X118327731Y-73088716D01*
X118973600Y-72442847D01*
X118973600Y-72443504D01*
X119001295Y-72546865D01*
X119054799Y-72639536D01*
X119130464Y-72715201D01*
X119223135Y-72768705D01*
X119326496Y-72796400D01*
X119327153Y-72796400D01*
X118681283Y-73442268D01*
X118681283Y-73442269D01*
X118718567Y-73469358D01*
X118875331Y-73549234D01*
X118926127Y-73597209D01*
X118942922Y-73665030D01*
X118920384Y-73731165D01*
X118875331Y-73770204D01*
X118718305Y-73850213D01*
X118557533Y-73967021D01*
X118417021Y-74107533D01*
X118300213Y-74268305D01*
X118209994Y-74445367D01*
X118209993Y-74445370D01*
X118148587Y-74634362D01*
X118117500Y-74830639D01*
X113680500Y-74830639D01*
X113680500Y-68528885D01*
X113680596Y-68524016D01*
X113695081Y-68155418D01*
X113695842Y-68145748D01*
X113738918Y-67781819D01*
X113740441Y-67772209D01*
X113811934Y-67412806D01*
X113814207Y-67403338D01*
X113913679Y-67050648D01*
X113916688Y-67041389D01*
X114007440Y-66795401D01*
X114043528Y-66697581D01*
X114047240Y-66688620D01*
X114200672Y-66355806D01*
X114205080Y-66347154D01*
X114384146Y-66027415D01*
X114389222Y-66019132D01*
X114592832Y-65714415D01*
X114598543Y-65706556D01*
X114825419Y-65418772D01*
X114831728Y-65411385D01*
X115082871Y-65139706D01*
X115086169Y-65136275D01*
X115135587Y-65086859D01*
X115135588Y-65086856D01*
X120482821Y-59739623D01*
X120544142Y-59706140D01*
X120613834Y-59711124D01*
X120669767Y-59752996D01*
X120694184Y-59818460D01*
X120694500Y-59827300D01*
X120694500Y-59844998D01*
X120694501Y-59845019D01*
X120705000Y-59947796D01*
X120705001Y-59947799D01*
X120760185Y-60114331D01*
X120760187Y-60114336D01*
X120795069Y-60170888D01*
X120852288Y-60263656D01*
X120976344Y-60387712D01*
X121125666Y-60479814D01*
X121292203Y-60534999D01*
X121394991Y-60545500D01*
X122445008Y-60545499D01*
X122445016Y-60545498D01*
X122445019Y-60545498D01*
X122501302Y-60539748D01*
X122547797Y-60534999D01*
X122714334Y-60479814D01*
X122863656Y-60387712D01*
X122863662Y-60387705D01*
X122867422Y-60384734D01*
X122932217Y-60358593D01*
X122944333Y-60358000D01*
X123498539Y-60358000D01*
X123563633Y-60376460D01*
X123690666Y-60454814D01*
X123857203Y-60509999D01*
X123959991Y-60520500D01*
X124960008Y-60520499D01*
X124960016Y-60520498D01*
X124960019Y-60520498D01*
X125016302Y-60514748D01*
X125062797Y-60509999D01*
X125229334Y-60454814D01*
X125356366Y-60376460D01*
X125421461Y-60358000D01*
X126038539Y-60358000D01*
X126103633Y-60376460D01*
X126230666Y-60454814D01*
X126397203Y-60509999D01*
X126499991Y-60520500D01*
X127500008Y-60520499D01*
X127500016Y-60520498D01*
X127500019Y-60520498D01*
X127556302Y-60514748D01*
X127602797Y-60509999D01*
X127769334Y-60454814D01*
X127918656Y-60362712D01*
X128042712Y-60238656D01*
X128134814Y-60089334D01*
X128152557Y-60035786D01*
X128192329Y-59978342D01*
X128256845Y-59951519D01*
X128325621Y-59963834D01*
X128376821Y-60011376D01*
X128387969Y-60035787D01*
X128405641Y-60089119D01*
X128405643Y-60089124D01*
X128497684Y-60238345D01*
X128621654Y-60362315D01*
X128770875Y-60454356D01*
X128770880Y-60454358D01*
X128937302Y-60509505D01*
X128937309Y-60509506D01*
X129040019Y-60519999D01*
X129289999Y-60519999D01*
X129790000Y-60519999D01*
X130039972Y-60519999D01*
X130039986Y-60519998D01*
X130142697Y-60509505D01*
X130309119Y-60454358D01*
X130309124Y-60454356D01*
X130458345Y-60362315D01*
X130582315Y-60238345D01*
X130674355Y-60089124D01*
X130675647Y-60085227D01*
X130677259Y-60082897D01*
X130677408Y-60082579D01*
X130677462Y-60082604D01*
X130715414Y-60027778D01*
X130779927Y-60000948D01*
X130848704Y-60013256D01*
X130899909Y-60060794D01*
X130911062Y-60085213D01*
X130920640Y-60114115D01*
X130920643Y-60114124D01*
X131012684Y-60263345D01*
X131136654Y-60387315D01*
X131285875Y-60479356D01*
X131285880Y-60479358D01*
X131452302Y-60534505D01*
X131452309Y-60534506D01*
X131555019Y-60544999D01*
X131829999Y-60544999D01*
X132330000Y-60544999D01*
X132604972Y-60544999D01*
X132604986Y-60544998D01*
X132707697Y-60534505D01*
X132874119Y-60479358D01*
X132874124Y-60479356D01*
X133023345Y-60387315D01*
X133147315Y-60263345D01*
X133239356Y-60114124D01*
X133239358Y-60114119D01*
X133294505Y-59947697D01*
X133294506Y-59947690D01*
X133304999Y-59844986D01*
X133305000Y-59844973D01*
X133305000Y-59707500D01*
X132330000Y-59707500D01*
X132330000Y-60544999D01*
X131829999Y-60544999D01*
X131830000Y-60544998D01*
X131830000Y-59707500D01*
X130813862Y-59707500D01*
X130746823Y-59687815D01*
X130726181Y-59671181D01*
X130725000Y-59670000D01*
X129790000Y-59670000D01*
X129790000Y-60519999D01*
X129289999Y-60519999D01*
X129290000Y-60519998D01*
X129290000Y-59544000D01*
X129309685Y-59476961D01*
X129362489Y-59431206D01*
X129414000Y-59420000D01*
X129540000Y-59420000D01*
X129540000Y-59294000D01*
X129559685Y-59226961D01*
X129612489Y-59181206D01*
X129664000Y-59170000D01*
X130781138Y-59170000D01*
X130848177Y-59189685D01*
X130868819Y-59206319D01*
X130870000Y-59207500D01*
X133304999Y-59207500D01*
X133304999Y-59070028D01*
X133304998Y-59070013D01*
X133294505Y-58967302D01*
X133239358Y-58800880D01*
X133239356Y-58800875D01*
X133147315Y-58651654D01*
X133023344Y-58527683D01*
X133023341Y-58527681D01*
X133020339Y-58525829D01*
X133018713Y-58524021D01*
X133017677Y-58523202D01*
X133017817Y-58523024D01*
X132997910Y-58500891D01*
X132974904Y-58476488D01*
X132974626Y-58475002D01*
X132973617Y-58473880D01*
X132968233Y-58440792D01*
X132962070Y-58407807D01*
X132962639Y-58406407D01*
X132962397Y-58404917D01*
X132975755Y-58374175D01*
X132988405Y-58343090D01*
X132989802Y-58341850D01*
X132990243Y-58340836D01*
X133014086Y-58318880D01*
X133017141Y-58316730D01*
X133023656Y-58312712D01*
X133025563Y-58310804D01*
X133032979Y-58305587D01*
X133062900Y-58295420D01*
X133092217Y-58283593D01*
X133098635Y-58283278D01*
X133099135Y-58283109D01*
X133099623Y-58283230D01*
X133104333Y-58283000D01*
X133522008Y-58283000D01*
X133546199Y-58285383D01*
X133642306Y-58304499D01*
X133642308Y-58304500D01*
X133642309Y-58304500D01*
X133819693Y-58304500D01*
X133819694Y-58304499D01*
X133993666Y-58269895D01*
X134157547Y-58202013D01*
X134305036Y-58103464D01*
X134430464Y-57978036D01*
X134529013Y-57830547D01*
X134596895Y-57666666D01*
X134631500Y-57492692D01*
X134631500Y-57315309D01*
X134596895Y-57141334D01*
X134529013Y-56977454D01*
X134529011Y-56977451D01*
X134529009Y-56977447D01*
X134430466Y-56829968D01*
X134430464Y-56829965D01*
X134283536Y-56683036D01*
X134224459Y-56643563D01*
X134136047Y-56584487D01*
X134054106Y-56550546D01*
X133972166Y-56516605D01*
X133972158Y-56516603D01*
X133798196Y-56482000D01*
X133798192Y-56482000D01*
X133798191Y-56482000D01*
X133104500Y-56482000D01*
X133037461Y-56462315D01*
X132991706Y-56409511D01*
X132980500Y-56358000D01*
X132980500Y-55791306D01*
X132980499Y-55791304D01*
X132945896Y-55617341D01*
X132945893Y-55617332D01*
X132878016Y-55453459D01*
X132878009Y-55453446D01*
X132779464Y-55305965D01*
X132779461Y-55305961D01*
X132654038Y-55180538D01*
X132654034Y-55180535D01*
X132506553Y-55081990D01*
X132506540Y-55081983D01*
X132342667Y-55014106D01*
X132342658Y-55014103D01*
X132168694Y-54979500D01*
X132168691Y-54979500D01*
X131991309Y-54979500D01*
X131991306Y-54979500D01*
X131817341Y-55014103D01*
X131817332Y-55014106D01*
X131653459Y-55081983D01*
X131653446Y-55081990D01*
X131505965Y-55180535D01*
X131505961Y-55180538D01*
X131380538Y-55305961D01*
X131380535Y-55305965D01*
X131281990Y-55453446D01*
X131281983Y-55453459D01*
X131214106Y-55617332D01*
X131214103Y-55617341D01*
X131179500Y-55791304D01*
X131179500Y-56358132D01*
X131159815Y-56425171D01*
X131140616Y-56446346D01*
X131141451Y-56447181D01*
X131012289Y-56576342D01*
X130920187Y-56725663D01*
X130920185Y-56725668D01*
X130911062Y-56753199D01*
X130871287Y-56810642D01*
X130806771Y-56837463D01*
X130737995Y-56825146D01*
X130686797Y-56777602D01*
X130675652Y-56753197D01*
X130674814Y-56750666D01*
X130582712Y-56601344D01*
X130458656Y-56477288D01*
X130348771Y-56409511D01*
X130309336Y-56385187D01*
X130309331Y-56385185D01*
X130307862Y-56384698D01*
X130142797Y-56330001D01*
X130142795Y-56330000D01*
X130040010Y-56319500D01*
X129039998Y-56319500D01*
X129039980Y-56319501D01*
X128937203Y-56330000D01*
X128937200Y-56330001D01*
X128770668Y-56385185D01*
X128770663Y-56385187D01*
X128705032Y-56425669D01*
X128623368Y-56476039D01*
X128558273Y-56494500D01*
X127981727Y-56494500D01*
X127916631Y-56476039D01*
X127808750Y-56409498D01*
X127769336Y-56385187D01*
X127769331Y-56385185D01*
X127767862Y-56384698D01*
X127602797Y-56330001D01*
X127602795Y-56330000D01*
X127500010Y-56319500D01*
X126499998Y-56319500D01*
X126499980Y-56319501D01*
X126397203Y-56330000D01*
X126397200Y-56330001D01*
X126230668Y-56385185D01*
X126230663Y-56385187D01*
X126081342Y-56477289D01*
X125957289Y-56601342D01*
X125865187Y-56750663D01*
X125865185Y-56750668D01*
X125847706Y-56803418D01*
X125807933Y-56860863D01*
X125743417Y-56887686D01*
X125674641Y-56875371D01*
X125623442Y-56827828D01*
X125612294Y-56803418D01*
X125609984Y-56796446D01*
X125594814Y-56750666D01*
X125502712Y-56601344D01*
X125378656Y-56477288D01*
X125268771Y-56409511D01*
X125229336Y-56385187D01*
X125229331Y-56385185D01*
X125227862Y-56384698D01*
X125062797Y-56330001D01*
X125062795Y-56330000D01*
X124960010Y-56319500D01*
X123959998Y-56319500D01*
X123959980Y-56319501D01*
X123857203Y-56330000D01*
X123857200Y-56330001D01*
X123690668Y-56385185D01*
X123690663Y-56385187D01*
X123541342Y-56477289D01*
X123417287Y-56601344D01*
X123349902Y-56710595D01*
X123342315Y-56717418D01*
X123338076Y-56726702D01*
X123316775Y-56740390D01*
X123297954Y-56757320D01*
X123286318Y-56759964D01*
X123279298Y-56764476D01*
X123244363Y-56769499D01*
X123176057Y-56769499D01*
X123109018Y-56749814D01*
X123070518Y-56710595D01*
X123054160Y-56684075D01*
X122987712Y-56576344D01*
X122863656Y-56452288D01*
X122714334Y-56360186D01*
X122547797Y-56305001D01*
X122547795Y-56305000D01*
X122445010Y-56294500D01*
X121394998Y-56294500D01*
X121394980Y-56294501D01*
X121292203Y-56305000D01*
X121292200Y-56305001D01*
X121125668Y-56360185D01*
X121125663Y-56360187D01*
X120976342Y-56452289D01*
X120852289Y-56576342D01*
X120760187Y-56725663D01*
X120760185Y-56725668D01*
X120745661Y-56769499D01*
X120705001Y-56892203D01*
X120705001Y-56892204D01*
X120705000Y-56892204D01*
X120694500Y-56994983D01*
X120694500Y-57636690D01*
X120674815Y-57703729D01*
X120658181Y-57724371D01*
X114114588Y-64267964D01*
X114114044Y-64268563D01*
X114010021Y-64372585D01*
X114009996Y-64372612D01*
X113725024Y-64701480D01*
X113464255Y-65049819D01*
X113464252Y-65049823D01*
X113228981Y-65415904D01*
X113020436Y-65797819D01*
X112839649Y-66193676D01*
X112687593Y-66601345D01*
X112687575Y-66601400D01*
X112653470Y-66717545D01*
X112615695Y-66776322D01*
X112552139Y-66805346D01*
X112482980Y-66795401D01*
X112430177Y-66749645D01*
X112410494Y-66682610D01*
X112410498Y-60949613D01*
X112430183Y-60882577D01*
X112464596Y-60848909D01*
X112463874Y-60847914D01*
X112467811Y-60845053D01*
X112467816Y-60845051D01*
X112639792Y-60720104D01*
X112790104Y-60569792D01*
X112790106Y-60569788D01*
X112790109Y-60569786D01*
X112915048Y-60397820D01*
X112915047Y-60397820D01*
X112915051Y-60397816D01*
X112919514Y-60389054D01*
X112967488Y-60338259D01*
X113035308Y-60321463D01*
X113101444Y-60343999D01*
X113140486Y-60389056D01*
X113144951Y-60397820D01*
X113269890Y-60569786D01*
X113420213Y-60720109D01*
X113592179Y-60845048D01*
X113592181Y-60845049D01*
X113592184Y-60845051D01*
X113781588Y-60941557D01*
X113983757Y-61007246D01*
X114193713Y-61040500D01*
X114193714Y-61040500D01*
X114406286Y-61040500D01*
X114406287Y-61040500D01*
X114616243Y-61007246D01*
X114818412Y-60941557D01*
X115007816Y-60845051D01*
X115086214Y-60788092D01*
X115179786Y-60720109D01*
X115179788Y-60720106D01*
X115179792Y-60720104D01*
X115330104Y-60569792D01*
X115330106Y-60569788D01*
X115330109Y-60569786D01*
X115455048Y-60397820D01*
X115455047Y-60397820D01*
X115455051Y-60397816D01*
X115551557Y-60208412D01*
X115617246Y-60006243D01*
X115650500Y-59796287D01*
X115650500Y-59583713D01*
X115617246Y-59373757D01*
X115551557Y-59171588D01*
X115455051Y-58982184D01*
X115455049Y-58982181D01*
X115455048Y-58982179D01*
X115330109Y-58810213D01*
X115179786Y-58659890D01*
X115007817Y-58534949D01*
X114998504Y-58530204D01*
X114947707Y-58482230D01*
X114930912Y-58414409D01*
X114953449Y-58348274D01*
X114998507Y-58309232D01*
X115007555Y-58304622D01*
X115061716Y-58265270D01*
X115061717Y-58265270D01*
X114429408Y-57632962D01*
X114492993Y-57615925D01*
X114607007Y-57550099D01*
X114700099Y-57457007D01*
X114765925Y-57342993D01*
X114782962Y-57279408D01*
X115415270Y-57911717D01*
X115415270Y-57911716D01*
X115454622Y-57857554D01*
X115551095Y-57668217D01*
X115616757Y-57466130D01*
X115616757Y-57466127D01*
X115650000Y-57256246D01*
X115650000Y-57043753D01*
X115616757Y-56833872D01*
X115616757Y-56833869D01*
X115551095Y-56631782D01*
X115454624Y-56442449D01*
X115415270Y-56388282D01*
X115415269Y-56388282D01*
X114782962Y-57020590D01*
X114765925Y-56957007D01*
X114700099Y-56842993D01*
X114607007Y-56749901D01*
X114492993Y-56684075D01*
X114429409Y-56667037D01*
X115061716Y-56034728D01*
X115007550Y-55995375D01*
X114818217Y-55898904D01*
X114616129Y-55833242D01*
X114406246Y-55800000D01*
X114193754Y-55800000D01*
X113983872Y-55833242D01*
X113983869Y-55833242D01*
X113781782Y-55898904D01*
X113592439Y-55995380D01*
X113538282Y-56034727D01*
X113538282Y-56034728D01*
X114170591Y-56667037D01*
X114107007Y-56684075D01*
X113992993Y-56749901D01*
X113899901Y-56842993D01*
X113834075Y-56957007D01*
X113817037Y-57020591D01*
X113184728Y-56388282D01*
X113184727Y-56388282D01*
X113145380Y-56442440D01*
X113145376Y-56442446D01*
X113140760Y-56451505D01*
X113092781Y-56502297D01*
X113024959Y-56519087D01*
X112958826Y-56496543D01*
X112919794Y-56451493D01*
X112915051Y-56442184D01*
X112915049Y-56442181D01*
X112915048Y-56442179D01*
X112790109Y-56270213D01*
X112639786Y-56119890D01*
X112467820Y-55994951D01*
X112278414Y-55898444D01*
X112278413Y-55898443D01*
X112278412Y-55898443D01*
X112076243Y-55832754D01*
X112076241Y-55832753D01*
X112076240Y-55832753D01*
X111914957Y-55807208D01*
X111866287Y-55799500D01*
X111653713Y-55799500D01*
X111605042Y-55807208D01*
X111443760Y-55832753D01*
X111241585Y-55898444D01*
X111052179Y-55994951D01*
X110880213Y-56119890D01*
X110729890Y-56270213D01*
X110604949Y-56442182D01*
X110600484Y-56450946D01*
X110552509Y-56501742D01*
X110484688Y-56518536D01*
X110418553Y-56495998D01*
X110379516Y-56450946D01*
X110375050Y-56442182D01*
X110250109Y-56270213D01*
X110099786Y-56119890D01*
X109927820Y-55994951D01*
X109738414Y-55898444D01*
X109738413Y-55898443D01*
X109738412Y-55898443D01*
X109536243Y-55832754D01*
X109536241Y-55832753D01*
X109536240Y-55832753D01*
X109374957Y-55807208D01*
X109326287Y-55799500D01*
X109113713Y-55799500D01*
X109065042Y-55807208D01*
X108903760Y-55832753D01*
X108701585Y-55898444D01*
X108512179Y-55994951D01*
X108340213Y-56119890D01*
X108189890Y-56270213D01*
X108064951Y-56442179D01*
X107968444Y-56631585D01*
X107902753Y-56833760D01*
X107869500Y-57043713D01*
X107869500Y-57256286D01*
X107902753Y-57466239D01*
X107968444Y-57668414D01*
X108064951Y-57857820D01*
X108189890Y-58029786D01*
X108340213Y-58180109D01*
X108512182Y-58305050D01*
X108520946Y-58309516D01*
X108571742Y-58357491D01*
X108588536Y-58425312D01*
X108565998Y-58491447D01*
X108520946Y-58530484D01*
X108512182Y-58534949D01*
X108340213Y-58659890D01*
X108189890Y-58810213D01*
X108064951Y-58982179D01*
X107968444Y-59171585D01*
X107902753Y-59373760D01*
X107869500Y-59583713D01*
X107869500Y-59796287D01*
X107869499Y-59796287D01*
X107877754Y-59848402D01*
X107877226Y-59852481D01*
X107878747Y-59856305D01*
X107872785Y-59886846D01*
X107868799Y-59917695D01*
X107866150Y-59920841D01*
X107865362Y-59924880D01*
X107843839Y-59947345D01*
X107823803Y-59971147D01*
X107819057Y-59973212D01*
X107817026Y-59975333D01*
X107784229Y-59988373D01*
X107716462Y-60004643D01*
X107697246Y-60007686D01*
X107552051Y-60019117D01*
X107542319Y-60019500D01*
X101198592Y-60019500D01*
X101131553Y-59999815D01*
X101088107Y-59951795D01*
X101070732Y-59917695D01*
X101053343Y-59883567D01*
X100914517Y-59692490D01*
X100747510Y-59525483D01*
X100556433Y-59386657D01*
X100531121Y-59373760D01*
X100345996Y-59279433D01*
X100121368Y-59206446D01*
X99888097Y-59169500D01*
X99888092Y-59169500D01*
X99651908Y-59169500D01*
X99651903Y-59169500D01*
X99418631Y-59206446D01*
X99194003Y-59279433D01*
X98983566Y-59386657D01*
X98874550Y-59465862D01*
X98792490Y-59525483D01*
X98792488Y-59525485D01*
X98792487Y-59525485D01*
X98625485Y-59692487D01*
X98625485Y-59692488D01*
X98625483Y-59692490D01*
X98581523Y-59752996D01*
X98486657Y-59883566D01*
X98451893Y-59951795D01*
X98403918Y-60002591D01*
X98341408Y-60019500D01*
X94698592Y-60019500D01*
X94631553Y-59999815D01*
X94588107Y-59951795D01*
X94570732Y-59917695D01*
X94553343Y-59883567D01*
X94414517Y-59692490D01*
X94247510Y-59525483D01*
X94056433Y-59386657D01*
X94031121Y-59373760D01*
X93845996Y-59279433D01*
X93621368Y-59206446D01*
X93388097Y-59169500D01*
X93388092Y-59169500D01*
X93151908Y-59169500D01*
X93151903Y-59169500D01*
X92918631Y-59206446D01*
X92694003Y-59279433D01*
X92483566Y-59386657D01*
X92374550Y-59465862D01*
X92292490Y-59525483D01*
X92292488Y-59525485D01*
X92292487Y-59525485D01*
X92125485Y-59692487D01*
X92125485Y-59692488D01*
X92125483Y-59692490D01*
X92081523Y-59752996D01*
X91986657Y-59883566D01*
X91879433Y-60094003D01*
X91806446Y-60318631D01*
X91769500Y-60551902D01*
X91769500Y-60788097D01*
X91806446Y-61021368D01*
X91879433Y-61245996D01*
X91951893Y-61388205D01*
X91986657Y-61456433D01*
X92125483Y-61647510D01*
X92292490Y-61814517D01*
X92483567Y-61953343D01*
X92568273Y-61996503D01*
X92694003Y-62060566D01*
X92694005Y-62060566D01*
X92694008Y-62060568D01*
X92814412Y-62099689D01*
X92918631Y-62133553D01*
X93151903Y-62170500D01*
X93151908Y-62170500D01*
X93388097Y-62170500D01*
X93621368Y-62133553D01*
X93845992Y-62060568D01*
X94056433Y-61953343D01*
X94247510Y-61814517D01*
X94414517Y-61647510D01*
X94553343Y-61456433D01*
X94588107Y-61388205D01*
X94636082Y-61337409D01*
X94698592Y-61320500D01*
X98341408Y-61320500D01*
X98408447Y-61340185D01*
X98451893Y-61388205D01*
X98486657Y-61456433D01*
X98625483Y-61647510D01*
X98792490Y-61814517D01*
X98983567Y-61953343D01*
X99068273Y-61996503D01*
X99194003Y-62060566D01*
X99194005Y-62060566D01*
X99194008Y-62060568D01*
X99314412Y-62099689D01*
X99418631Y-62133553D01*
X99651903Y-62170500D01*
X99651908Y-62170500D01*
X99888097Y-62170500D01*
X100121368Y-62133553D01*
X100345992Y-62060568D01*
X100556433Y-61953343D01*
X100747510Y-61814517D01*
X100914517Y-61647510D01*
X101053343Y-61456433D01*
X101088107Y-61388205D01*
X101136082Y-61337409D01*
X101198592Y-61320500D01*
X107473751Y-61320500D01*
X107473755Y-61320501D01*
X107495676Y-61320500D01*
X107495725Y-61320514D01*
X107547049Y-61320513D01*
X107547049Y-61320514D01*
X107677523Y-61320511D01*
X107677534Y-61320511D01*
X107737962Y-61313700D01*
X107936854Y-61291288D01*
X108191275Y-61233214D01*
X108437594Y-61147020D01*
X108672714Y-61033790D01*
X108730189Y-60997674D01*
X108797424Y-60978673D01*
X108834478Y-60984735D01*
X108903757Y-61007246D01*
X109113713Y-61040500D01*
X109113714Y-61040500D01*
X109326286Y-61040500D01*
X109326287Y-61040500D01*
X109536243Y-61007246D01*
X109677182Y-60961451D01*
X109747020Y-60959457D01*
X109806853Y-60995537D01*
X109837681Y-61058238D01*
X109839497Y-61079383D01*
X109839497Y-61449193D01*
X109819812Y-61516232D01*
X109767008Y-61561987D01*
X109697850Y-61571931D01*
X109646606Y-61552295D01*
X109599185Y-61520609D01*
X109599172Y-61520602D01*
X109453501Y-61460264D01*
X109453489Y-61460261D01*
X109298845Y-61429500D01*
X109298842Y-61429500D01*
X109141158Y-61429500D01*
X109141155Y-61429500D01*
X108986510Y-61460261D01*
X108986498Y-61460264D01*
X108840827Y-61520602D01*
X108840814Y-61520609D01*
X108709711Y-61608210D01*
X108709707Y-61608213D01*
X108598213Y-61719707D01*
X108598210Y-61719711D01*
X108510609Y-61850814D01*
X108510602Y-61850827D01*
X108450264Y-61996498D01*
X108450261Y-61996510D01*
X108419500Y-62151153D01*
X108419500Y-62308846D01*
X108450261Y-62463489D01*
X108450264Y-62463501D01*
X108510602Y-62609171D01*
X108510608Y-62609182D01*
X108548601Y-62666043D01*
X108569478Y-62732721D01*
X108569498Y-62734933D01*
X108569486Y-77682730D01*
X108569486Y-77753599D01*
X108569390Y-77758468D01*
X108554906Y-78127058D01*
X108554142Y-78136764D01*
X108511070Y-78500668D01*
X108509547Y-78510285D01*
X108438054Y-78869696D01*
X108435781Y-78879163D01*
X108336314Y-79231841D01*
X108333306Y-79241101D01*
X108206467Y-79584909D01*
X108202741Y-79593904D01*
X108049325Y-79926688D01*
X108044904Y-79935363D01*
X107865846Y-80255093D01*
X107860759Y-80263395D01*
X107657175Y-80568080D01*
X107651452Y-80575957D01*
X107424585Y-80863737D01*
X107418262Y-80871140D01*
X107167622Y-81142280D01*
X107164247Y-81145790D01*
X105614181Y-82695863D01*
X105552858Y-82729348D01*
X105483167Y-82724364D01*
X105427233Y-82682493D01*
X105402816Y-82617028D01*
X105402500Y-82608182D01*
X105402500Y-82450639D01*
X105396419Y-82412247D01*
X105371413Y-82254364D01*
X105310005Y-82065368D01*
X105310005Y-82065367D01*
X105230790Y-81909901D01*
X105219787Y-81888306D01*
X105102981Y-81727536D01*
X104962464Y-81587019D01*
X104801694Y-81470213D01*
X104645218Y-81390484D01*
X104594423Y-81342510D01*
X104577628Y-81274689D01*
X104600165Y-81208554D01*
X104645218Y-81169515D01*
X104801694Y-81089787D01*
X104962464Y-80972981D01*
X105102981Y-80832464D01*
X105219787Y-80671694D01*
X105310005Y-80494632D01*
X105371413Y-80305636D01*
X105402500Y-80109361D01*
X105402500Y-79910639D01*
X105371413Y-79714364D01*
X105310005Y-79525368D01*
X105310005Y-79525367D01*
X105247108Y-79401927D01*
X105219787Y-79348306D01*
X105102981Y-79187536D01*
X104962464Y-79047019D01*
X104801694Y-78930213D01*
X104645218Y-78850484D01*
X104594423Y-78802510D01*
X104577628Y-78734689D01*
X104600165Y-78668554D01*
X104645218Y-78629515D01*
X104801694Y-78549787D01*
X104962464Y-78432981D01*
X105102981Y-78292464D01*
X105219787Y-78131694D01*
X105310005Y-77954632D01*
X105371413Y-77765636D01*
X105402500Y-77569361D01*
X105402500Y-77370639D01*
X105371413Y-77174364D01*
X105310005Y-76985368D01*
X105310005Y-76985367D01*
X105264035Y-76895149D01*
X105219787Y-76808306D01*
X105102981Y-76647536D01*
X104962464Y-76507019D01*
X104801694Y-76390213D01*
X104645218Y-76310484D01*
X104594423Y-76262510D01*
X104577628Y-76194689D01*
X104600165Y-76128554D01*
X104645218Y-76089515D01*
X104801694Y-76009787D01*
X104962464Y-75892981D01*
X105102981Y-75752464D01*
X105219787Y-75591694D01*
X105310005Y-75414632D01*
X105371413Y-75225636D01*
X105402500Y-75029361D01*
X105402500Y-74830639D01*
X105371413Y-74634364D01*
X105310005Y-74445368D01*
X105310005Y-74445367D01*
X105264035Y-74355149D01*
X105219787Y-74268306D01*
X105102981Y-74107536D01*
X104962464Y-73967019D01*
X104838310Y-73876816D01*
X104795646Y-73821487D01*
X104789667Y-73751874D01*
X104822273Y-73690079D01*
X104883112Y-73655721D01*
X104911196Y-73652499D01*
X104949872Y-73652499D01*
X105009483Y-73646091D01*
X105144331Y-73595796D01*
X105259546Y-73509546D01*
X105345796Y-73394331D01*
X105396091Y-73259483D01*
X105402500Y-73199873D01*
X105402499Y-71580128D01*
X105396091Y-71520517D01*
X105381956Y-71482620D01*
X105345797Y-71385671D01*
X105345793Y-71385664D01*
X105259547Y-71270455D01*
X105259544Y-71270452D01*
X105144335Y-71184206D01*
X105144328Y-71184202D01*
X105009482Y-71133908D01*
X105009483Y-71133908D01*
X104949883Y-71127501D01*
X104949881Y-71127500D01*
X104949873Y-71127500D01*
X104949864Y-71127500D01*
X103330129Y-71127500D01*
X103330123Y-71127501D01*
X103270516Y-71133908D01*
X103135671Y-71184202D01*
X103135664Y-71184206D01*
X103020455Y-71270452D01*
X103020452Y-71270455D01*
X102934206Y-71385664D01*
X102934202Y-71385671D01*
X102883908Y-71520517D01*
X102877501Y-71580116D01*
X102877501Y-71580123D01*
X102877500Y-71580135D01*
X102877500Y-71615500D01*
X102857815Y-71682539D01*
X102805011Y-71728294D01*
X102753500Y-71739500D01*
X92699618Y-71739500D01*
X92632579Y-71719815D01*
X92598900Y-71685408D01*
X92597915Y-71686125D01*
X92470109Y-71510213D01*
X92319786Y-71359890D01*
X92147820Y-71234951D01*
X91958414Y-71138444D01*
X91958413Y-71138443D01*
X91958412Y-71138443D01*
X91756243Y-71072754D01*
X91756241Y-71072753D01*
X91756240Y-71072753D01*
X91594957Y-71047208D01*
X91546287Y-71039500D01*
X91333713Y-71039500D01*
X91285042Y-71047208D01*
X91123760Y-71072753D01*
X90921585Y-71138444D01*
X90732179Y-71234951D01*
X90560213Y-71359890D01*
X90409890Y-71510213D01*
X90284951Y-71682179D01*
X90188444Y-71871585D01*
X90122753Y-72073760D01*
X90089500Y-72283713D01*
X84320500Y-72283713D01*
X84320500Y-56051947D01*
X91770000Y-56051947D01*
X91770000Y-56288052D01*
X91806934Y-56521247D01*
X91879897Y-56745802D01*
X91987087Y-56956174D01*
X92047338Y-57039104D01*
X92047340Y-57039105D01*
X92746212Y-56340233D01*
X92757482Y-56382292D01*
X92829890Y-56507708D01*
X92932292Y-56610110D01*
X93057708Y-56682518D01*
X93099765Y-56693787D01*
X92400893Y-57392658D01*
X92483828Y-57452914D01*
X92694197Y-57560102D01*
X92918752Y-57633065D01*
X92918751Y-57633065D01*
X93151948Y-57670000D01*
X93388052Y-57670000D01*
X93621247Y-57633065D01*
X93845802Y-57560102D01*
X94056163Y-57452918D01*
X94056169Y-57452914D01*
X94139104Y-57392658D01*
X94139105Y-57392658D01*
X93440233Y-56693787D01*
X93482292Y-56682518D01*
X93607708Y-56610110D01*
X93710110Y-56507708D01*
X93782518Y-56382292D01*
X93793787Y-56340233D01*
X94492658Y-57039105D01*
X94492658Y-57039104D01*
X94552914Y-56956169D01*
X94552918Y-56956163D01*
X94660102Y-56745802D01*
X94733065Y-56521247D01*
X94770000Y-56288052D01*
X94770000Y-56051947D01*
X98270000Y-56051947D01*
X98270000Y-56288052D01*
X98306934Y-56521247D01*
X98379897Y-56745802D01*
X98487087Y-56956174D01*
X98547338Y-57039104D01*
X98547340Y-57039105D01*
X99246212Y-56340233D01*
X99257482Y-56382292D01*
X99329890Y-56507708D01*
X99432292Y-56610110D01*
X99557708Y-56682518D01*
X99599765Y-56693787D01*
X98900893Y-57392658D01*
X98983828Y-57452914D01*
X99194197Y-57560102D01*
X99418752Y-57633065D01*
X99418751Y-57633065D01*
X99651948Y-57670000D01*
X99888052Y-57670000D01*
X100121247Y-57633065D01*
X100345802Y-57560102D01*
X100556163Y-57452918D01*
X100556169Y-57452914D01*
X100639104Y-57392658D01*
X100639105Y-57392658D01*
X99940233Y-56693787D01*
X99982292Y-56682518D01*
X100107708Y-56610110D01*
X100210110Y-56507708D01*
X100282518Y-56382292D01*
X100293787Y-56340233D01*
X100992658Y-57039105D01*
X100992658Y-57039104D01*
X101052914Y-56956169D01*
X101052918Y-56956163D01*
X101160102Y-56745802D01*
X101233065Y-56521247D01*
X101270000Y-56288052D01*
X101270000Y-56051947D01*
X101233065Y-55818752D01*
X101160102Y-55594197D01*
X101052914Y-55383828D01*
X100992658Y-55300894D01*
X100992658Y-55300893D01*
X100293787Y-55999765D01*
X100282518Y-55957708D01*
X100210110Y-55832292D01*
X100107708Y-55729890D01*
X99982292Y-55657482D01*
X99940234Y-55646212D01*
X100639105Y-54947340D01*
X100639104Y-54947338D01*
X100556174Y-54887087D01*
X100345802Y-54779897D01*
X100121247Y-54706934D01*
X100121248Y-54706934D01*
X99888052Y-54670000D01*
X99651948Y-54670000D01*
X99418752Y-54706934D01*
X99194197Y-54779897D01*
X98983830Y-54887084D01*
X98900894Y-54947340D01*
X99599766Y-55646212D01*
X99557708Y-55657482D01*
X99432292Y-55729890D01*
X99329890Y-55832292D01*
X99257482Y-55957708D01*
X99246212Y-55999766D01*
X98547340Y-55300894D01*
X98487084Y-55383830D01*
X98379897Y-55594197D01*
X98306934Y-55818752D01*
X98270000Y-56051947D01*
X94770000Y-56051947D01*
X94733065Y-55818752D01*
X94660102Y-55594197D01*
X94552914Y-55383828D01*
X94492658Y-55300894D01*
X94492658Y-55300893D01*
X93793787Y-55999765D01*
X93782518Y-55957708D01*
X93710110Y-55832292D01*
X93607708Y-55729890D01*
X93482292Y-55657482D01*
X93440234Y-55646212D01*
X94139105Y-54947340D01*
X94139104Y-54947339D01*
X94056174Y-54887087D01*
X93845802Y-54779897D01*
X93621247Y-54706934D01*
X93621248Y-54706934D01*
X93388052Y-54670000D01*
X93151948Y-54670000D01*
X92918752Y-54706934D01*
X92694197Y-54779897D01*
X92483830Y-54887084D01*
X92400894Y-54947340D01*
X93099766Y-55646212D01*
X93057708Y-55657482D01*
X92932292Y-55729890D01*
X92829890Y-55832292D01*
X92757482Y-55957708D01*
X92746212Y-55999766D01*
X92047340Y-55300894D01*
X91987084Y-55383830D01*
X91879897Y-55594197D01*
X91806934Y-55818752D01*
X91770000Y-56051947D01*
X84320500Y-56051947D01*
X84320500Y-54987022D01*
X84340185Y-54919983D01*
X84392989Y-54874228D01*
X84462147Y-54864284D01*
X84525703Y-54893309D01*
X84541447Y-54909709D01*
X84567266Y-54942085D01*
X84757915Y-55132734D01*
X84968711Y-55300838D01*
X85197003Y-55444284D01*
X85439921Y-55561267D01*
X85600146Y-55617332D01*
X85694397Y-55650312D01*
X85694405Y-55650315D01*
X85694408Y-55650315D01*
X85694409Y-55650316D01*
X85957268Y-55710312D01*
X86225187Y-55740499D01*
X86225188Y-55740500D01*
X86225191Y-55740500D01*
X86494812Y-55740500D01*
X86494812Y-55740499D01*
X86762732Y-55710312D01*
X87025591Y-55650316D01*
X87280079Y-55561267D01*
X87522997Y-55444284D01*
X87751289Y-55300838D01*
X87962085Y-55132734D01*
X88152734Y-54942085D01*
X88228131Y-54847538D01*
X88320835Y-54731293D01*
X88320836Y-54731291D01*
X88320838Y-54731289D01*
X88464284Y-54502997D01*
X88581267Y-54260079D01*
X88670316Y-54005591D01*
X88730312Y-53742732D01*
X88760500Y-53474809D01*
X88760500Y-53205191D01*
X88730312Y-52937268D01*
X88670316Y-52674409D01*
X88581267Y-52419921D01*
X88464284Y-52177003D01*
X88320838Y-51948711D01*
X88152734Y-51737915D01*
X87962085Y-51547266D01*
X87929709Y-51521447D01*
X87889569Y-51464259D01*
X87886719Y-51394447D01*
X87922064Y-51334177D01*
X87984383Y-51302584D01*
X88007022Y-51300500D01*
X135512978Y-51300500D01*
X135580017Y-51320185D01*
G37*
%TD.AperFunction*%
%TD*%
M02*
