%TF.GenerationSoftware,KiCad,Pcbnew,9.0.4*%
%TF.CreationDate,2025-09-25T23:25:47-04:00*%
%TF.ProjectId,8051_breakout,38303531-5f62-4726-9561-6b6f75742e6b,rev?*%
%TF.SameCoordinates,Original*%
%TF.FileFunction,Copper,L1,Top*%
%TF.FilePolarity,Positive*%
%FSLAX46Y46*%
G04 Gerber Fmt 4.6, Leading zero omitted, Abs format (unit mm)*
G04 Created by KiCad (PCBNEW 9.0.4) date 2025-09-25 23:25:47*
%MOMM*%
%LPD*%
G01*
G04 APERTURE LIST*
G04 Aperture macros list*
%AMRoundRect*
0 Rectangle with rounded corners*
0 $1 Rounding radius*
0 $2 $3 $4 $5 $6 $7 $8 $9 X,Y pos of 4 corners*
0 Add a 4 corners polygon primitive as box body*
4,1,4,$2,$3,$4,$5,$6,$7,$8,$9,$2,$3,0*
0 Add four circle primitives for the rounded corners*
1,1,$1+$1,$2,$3*
1,1,$1+$1,$4,$5*
1,1,$1+$1,$6,$7*
1,1,$1+$1,$8,$9*
0 Add four rect primitives between the rounded corners*
20,1,$1+$1,$2,$3,$4,$5,0*
20,1,$1+$1,$4,$5,$6,$7,0*
20,1,$1+$1,$6,$7,$8,$9,0*
20,1,$1+$1,$8,$9,$2,$3,0*%
G04 Aperture macros list end*
%TA.AperFunction,ComponentPad*%
%ADD10R,1.524000X1.524000*%
%TD*%
%TA.AperFunction,ComponentPad*%
%ADD11C,1.524000*%
%TD*%
%TA.AperFunction,ComponentPad*%
%ADD12C,1.700000*%
%TD*%
%TA.AperFunction,SMDPad,CuDef*%
%ADD13RoundRect,0.250000X0.450000X-0.350000X0.450000X0.350000X-0.450000X0.350000X-0.450000X-0.350000X0*%
%TD*%
%TA.AperFunction,ComponentPad*%
%ADD14C,1.500000*%
%TD*%
%TA.AperFunction,ComponentPad*%
%ADD15C,3.800000*%
%TD*%
%TA.AperFunction,ComponentPad*%
%ADD16R,1.600000X1.600000*%
%TD*%
%TA.AperFunction,ComponentPad*%
%ADD17C,1.600000*%
%TD*%
%TA.AperFunction,SMDPad,CuDef*%
%ADD18RoundRect,0.250000X-0.475000X0.337500X-0.475000X-0.337500X0.475000X-0.337500X0.475000X0.337500X0*%
%TD*%
%TA.AperFunction,SMDPad,CuDef*%
%ADD19RoundRect,0.250000X0.475000X-0.337500X0.475000X0.337500X-0.475000X0.337500X-0.475000X-0.337500X0*%
%TD*%
%TA.AperFunction,SMDPad,CuDef*%
%ADD20RoundRect,0.250000X0.450000X-0.325000X0.450000X0.325000X-0.450000X0.325000X-0.450000X-0.325000X0*%
%TD*%
%TA.AperFunction,ComponentPad*%
%ADD21C,2.000000*%
%TD*%
%TA.AperFunction,ViaPad*%
%ADD22C,0.600000*%
%TD*%
%TA.AperFunction,Conductor*%
%ADD23C,0.800000*%
%TD*%
%TA.AperFunction,Conductor*%
%ADD24C,0.300000*%
%TD*%
G04 APERTURE END LIST*
D10*
%TO.P,U1,1,P1.0*%
%TO.N,/P1.0*%
X104140000Y-72390000D03*
D11*
%TO.P,U1,2,P1.1*%
%TO.N,/P1.1*%
X104140000Y-74930000D03*
%TO.P,U1,3,P1.2*%
%TO.N,/P1.2*%
X104140000Y-77470000D03*
%TO.P,U1,4,P1.3*%
%TO.N,/P1.3*%
X104140000Y-80010000D03*
%TO.P,U1,5,P1.4*%
%TO.N,/P1.4*%
X104140000Y-82550000D03*
%TO.P,U1,6,(MOSI)_P1.5*%
%TO.N,/(MOSI)P1.5*%
X104140000Y-85090000D03*
%TO.P,U1,7,(MISO)_P1.6*%
%TO.N,/(MISO)P1.6*%
X104140000Y-87630000D03*
%TO.P,U1,8,(SCK)_P1.7*%
%TO.N,/(SCK)P1.7*%
X104140000Y-90170000D03*
%TO.P,U1,9,RST*%
%TO.N,/RST*%
X104140000Y-92710000D03*
%TO.P,U1,10,(RXD)_P3.0*%
%TO.N,/(RXD)P3.0*%
X104140000Y-95250000D03*
%TO.P,U1,11,(TXD)_P3.1*%
%TO.N,/(TXD)P3.1*%
X104140000Y-97790000D03*
%TO.P,U1,12,(INT0)_P3.2*%
%TO.N,/(INT0)P3.2*%
X104140000Y-100330000D03*
%TO.P,U1,13,(INT1)_P3.3*%
%TO.N,/(INT1)P3.3*%
X104140000Y-102870000D03*
%TO.P,U1,14,(T0)_P3.4*%
%TO.N,/(T0)P3.4*%
X104140000Y-105410000D03*
%TO.P,U1,15,(T1)_P3.5*%
%TO.N,/(T1)P3.5*%
X104140000Y-107950000D03*
%TO.P,U1,16,WR\u002A_P3.6*%
%TO.N,/(WR)P3.6*%
X104140000Y-110490000D03*
%TO.P,U1,17,RD\u002A_P3.7*%
%TO.N,/(RD)P3.7*%
X104140000Y-113030000D03*
%TO.P,U1,18,XTAL2*%
%TO.N,/XTAL2*%
X104140000Y-115570000D03*
%TO.P,U1,19,XTAL1*%
%TO.N,/XTAL1*%
X104140000Y-118110000D03*
%TO.P,U1,20,GND*%
%TO.N,GND*%
X104140000Y-120650000D03*
%TO.P,U1,21,P2.0_(A8)*%
%TO.N,/P2.0(A8)*%
X119380000Y-120650000D03*
%TO.P,U1,22,P2.1_(A9)*%
%TO.N,/P2.1(A9)*%
X119380000Y-118110000D03*
%TO.P,U1,23,P2.2_(A10)*%
%TO.N,/P2.2(A10)*%
X119380000Y-115570000D03*
%TO.P,U1,24,P2.3_(A11)*%
%TO.N,/P2.3(A11)*%
X119380000Y-113030000D03*
%TO.P,U1,25,P2.4_(A12)*%
%TO.N,/P2.4(A12)*%
X119380000Y-110490000D03*
%TO.P,U1,26,P2.5_(A13)*%
%TO.N,/P2.5(A13)*%
X119380000Y-107950000D03*
%TO.P,U1,27,P2.6_(A14)*%
%TO.N,/P2.6(A14)*%
X119380000Y-105410000D03*
%TO.P,U1,28,P2.7_(A15)*%
%TO.N,/P2.7(A15)*%
X119380000Y-102870000D03*
%TO.P,U1,29,PSEN\u002A*%
%TO.N,/PSEN*%
X119380000Y-100330000D03*
%TO.P,U1,30,ALE/PROG\u002A*%
%TO.N,/ALE{slash}PROG*%
X119380000Y-97790000D03*
%TO.P,U1,31,EA\u002A/VPP*%
%TO.N,+5V*%
X119380000Y-95250000D03*
%TO.P,U1,32,P0.7_(AD7)*%
%TO.N,/P0.7(AD7)*%
X119380000Y-92710000D03*
%TO.P,U1,33,P0.6_(AD6)*%
%TO.N,/P0.6(AD6)*%
X119380000Y-90170000D03*
%TO.P,U1,34,P0.5_(AD5)*%
%TO.N,/P0.5(AD5)*%
X119380000Y-87630000D03*
%TO.P,U1,35,P0.4_(AD4)*%
%TO.N,/P0.4(AD4)*%
X119380000Y-85090000D03*
%TO.P,U1,36,P0.3_(AD3)*%
%TO.N,/P0.3(AD3)*%
X119380000Y-82550000D03*
%TO.P,U1,37,P0.2_(AD2)*%
%TO.N,/P0.2(AD2)*%
X119380000Y-80010000D03*
%TO.P,U1,38,P0.1_(AD1)*%
%TO.N,/P0.1(AD1)*%
X119380000Y-77470000D03*
%TO.P,U1,39,P0.0_(AD0)*%
%TO.N,/P0.0(AD0)*%
X119380000Y-74930000D03*
%TO.P,U1,40,VCC*%
%TO.N,+5V*%
X119380000Y-72390000D03*
%TD*%
D12*
%TO.P,J3,1,Pin_1*%
%TO.N,/RST*%
X109220000Y-59690000D03*
%TO.P,J3,2,Pin_2*%
%TO.N,/(SCK)P1.7*%
X111760000Y-59690000D03*
%TO.P,J3,3,Pin_3*%
%TO.N,/(MISO)P1.6*%
X114300000Y-59690000D03*
%TO.P,J3,4,Pin_4*%
%TO.N,+5V*%
X114300000Y-57150000D03*
%TO.P,J3,5,Pin_5*%
%TO.N,/(MOSI)P1.5*%
X111760000Y-57150000D03*
%TO.P,J3,6,Pin_6*%
%TO.N,GND*%
X109220000Y-57150000D03*
%TD*%
D13*
%TO.P,R1,1*%
%TO.N,GND*%
X124460000Y-59420000D03*
%TO.P,R1,2*%
%TO.N,/RST*%
X124460000Y-57420000D03*
%TD*%
D14*
%TO.P,Y1,1,1*%
%TO.N,/XTAL2*%
X96520000Y-106680000D03*
%TO.P,Y1,2,2*%
%TO.N,/XTAL1*%
X96520000Y-111560000D03*
%TD*%
D15*
%TO.P,H2,1*%
%TO.N,N/C*%
X137160000Y-53340000D03*
%TD*%
D16*
%TO.P,RN1,1,common*%
%TO.N,+5V*%
X127000000Y-72390000D03*
D17*
%TO.P,RN1,2,R1*%
%TO.N,/P0.0(AD0)*%
X127000000Y-74930000D03*
%TO.P,RN1,3,R2*%
%TO.N,/P0.1(AD1)*%
X127000000Y-77470000D03*
%TO.P,RN1,4,R3*%
%TO.N,/P0.2(AD2)*%
X127000000Y-80010000D03*
%TO.P,RN1,5,R4*%
%TO.N,/P0.3(AD3)*%
X127000000Y-82550000D03*
%TO.P,RN1,6,R5*%
%TO.N,/P0.4(AD4)*%
X127000000Y-85090000D03*
%TO.P,RN1,7,R6*%
%TO.N,/P0.5(AD5)*%
X127000000Y-87630000D03*
%TO.P,RN1,8,R7*%
%TO.N,/P0.6(AD6)*%
X127000000Y-90170000D03*
%TO.P,RN1,9,R8*%
%TO.N,/P0.7(AD7)*%
X127000000Y-92710000D03*
%TD*%
D12*
%TO.P,J2,1,Pin_1*%
%TO.N,+5V*%
X132080000Y-72390000D03*
%TO.P,J2,2,Pin_2*%
%TO.N,/P0.0(AD0)*%
X132080000Y-74930000D03*
%TO.P,J2,3,Pin_3*%
%TO.N,/P0.1(AD1)*%
X132080000Y-77470000D03*
%TO.P,J2,4,Pin_4*%
%TO.N,/P0.2(AD2)*%
X132080000Y-80010000D03*
%TO.P,J2,5,Pin_5*%
%TO.N,/P0.3(AD3)*%
X132080000Y-82550000D03*
%TO.P,J2,6,Pin_6*%
%TO.N,/P0.4(AD4)*%
X132080000Y-85090000D03*
%TO.P,J2,7,Pin_7*%
%TO.N,/P0.5(AD5)*%
X132080000Y-87630000D03*
%TO.P,J2,8,Pin_8*%
%TO.N,/P0.6(AD6)*%
X132080000Y-90170000D03*
%TO.P,J2,9,Pin_9*%
%TO.N,/P0.7(AD7)*%
X132080000Y-92710000D03*
%TO.P,J2,10,Pin_10*%
%TO.N,+5V*%
X132080000Y-95250000D03*
%TO.P,J2,11,Pin_11*%
%TO.N,/ALE{slash}PROG*%
X132080000Y-97790000D03*
%TO.P,J2,12,Pin_12*%
%TO.N,/PSEN*%
X132080000Y-100330000D03*
%TO.P,J2,13,Pin_13*%
%TO.N,/P2.7(A15)*%
X132080000Y-102870000D03*
%TO.P,J2,14,Pin_14*%
%TO.N,/P2.6(A14)*%
X132080000Y-105410000D03*
%TO.P,J2,15,Pin_15*%
%TO.N,/P2.5(A13)*%
X132080000Y-107950000D03*
%TO.P,J2,16,Pin_16*%
%TO.N,/P2.4(A12)*%
X132080000Y-110490000D03*
%TO.P,J2,17,Pin_17*%
%TO.N,/P2.3(A11)*%
X132080000Y-113030000D03*
%TO.P,J2,18,Pin_18*%
%TO.N,/P2.2(A10)*%
X132080000Y-115570000D03*
%TO.P,J2,19,Pin_19*%
%TO.N,/P2.1(A9)*%
X132080000Y-118110000D03*
%TO.P,J2,20,Pin_20*%
%TO.N,/P2.0(A8)*%
X132080000Y-120650000D03*
%TD*%
D15*
%TO.P,H3,1*%
%TO.N,N/C*%
X86360000Y-132080000D03*
%TD*%
%TO.P,H4,1*%
%TO.N,N/C*%
X137160000Y-132080000D03*
%TD*%
D18*
%TO.P,C4,1*%
%TO.N,/RST*%
X121920000Y-57382500D03*
%TO.P,C4,2*%
%TO.N,GND*%
X121920000Y-59457500D03*
%TD*%
D19*
%TO.P,C1,1*%
%TO.N,+5V*%
X132080000Y-59457500D03*
%TO.P,C1,2*%
%TO.N,GND*%
X132080000Y-57382500D03*
%TD*%
D20*
%TO.P,D2,1,K*%
%TO.N,GND*%
X127000000Y-59445000D03*
%TO.P,D2,2,A*%
%TO.N,/LED*%
X127000000Y-57395000D03*
%TD*%
D15*
%TO.P,H1,1*%
%TO.N,N/C*%
X86360000Y-53340000D03*
%TD*%
D12*
%TO.P,J1,1,Pin_1*%
%TO.N,/P1.0*%
X91440000Y-72390000D03*
%TO.P,J1,2,Pin_2*%
%TO.N,/P1.1*%
X91440000Y-74930000D03*
%TO.P,J1,3,Pin_3*%
%TO.N,/P1.2*%
X91440000Y-77470000D03*
%TO.P,J1,4,Pin_4*%
%TO.N,/P1.3*%
X91440000Y-80010000D03*
%TO.P,J1,5,Pin_5*%
%TO.N,/P1.4*%
X91440000Y-82550000D03*
%TO.P,J1,6,Pin_6*%
%TO.N,/(MOSI)P1.5*%
X91440000Y-85090000D03*
%TO.P,J1,7,Pin_7*%
%TO.N,/(MISO)P1.6*%
X91440000Y-87630000D03*
%TO.P,J1,8,Pin_8*%
%TO.N,/(SCK)P1.7*%
X91440000Y-90170000D03*
%TO.P,J1,9,Pin_9*%
%TO.N,/RST*%
X91440000Y-92710000D03*
%TO.P,J1,10,Pin_10*%
%TO.N,/(RXD)P3.0*%
X91440000Y-95250000D03*
%TO.P,J1,11,Pin_11*%
%TO.N,/(TXD)P3.1*%
X91440000Y-97790000D03*
%TO.P,J1,12,Pin_12*%
%TO.N,/(INT0)P3.2*%
X91440000Y-100330000D03*
%TO.P,J1,13,Pin_13*%
%TO.N,/(INT1)P3.3*%
X91440000Y-102870000D03*
%TO.P,J1,14,Pin_14*%
%TO.N,/(T0)P3.4*%
X91440000Y-105410000D03*
%TO.P,J1,15,Pin_15*%
%TO.N,/(T1)P3.5*%
X91440000Y-107950000D03*
%TO.P,J1,16,Pin_16*%
%TO.N,/(WR)P3.6*%
X91440000Y-110490000D03*
%TO.P,J1,17,Pin_17*%
%TO.N,/(RD)P3.7*%
X91440000Y-113030000D03*
%TO.P,J1,18,Pin_18*%
%TO.N,/XTAL2*%
X91440000Y-115570000D03*
%TO.P,J1,19,Pin_19*%
%TO.N,/XTAL1*%
X91440000Y-118110000D03*
%TO.P,J1,20,Pin_20*%
%TO.N,GND*%
X91440000Y-120650000D03*
%TD*%
D18*
%TO.P,C3,1*%
%TO.N,/XTAL1*%
X96520000Y-118142500D03*
%TO.P,C3,2*%
%TO.N,GND*%
X96520000Y-120217500D03*
%TD*%
D21*
%TO.P,SW1,1,1*%
%TO.N,+5V*%
X93270000Y-56170000D03*
X99770000Y-56170000D03*
%TO.P,SW1,2,2*%
%TO.N,/RST*%
X93270000Y-60670000D03*
X99770000Y-60670000D03*
%TD*%
D13*
%TO.P,R4,1*%
%TO.N,+5V*%
X129540000Y-59420000D03*
%TO.P,R4,2*%
%TO.N,/LED*%
X129540000Y-57420000D03*
%TD*%
D19*
%TO.P,C2,1*%
%TO.N,/XTAL2*%
X96520000Y-99897500D03*
%TO.P,C2,2*%
%TO.N,GND*%
X96520000Y-97822500D03*
%TD*%
D22*
%TO.N,GND*%
X88900000Y-111760000D03*
X134620000Y-71120000D03*
X127000000Y-106680000D03*
X99060000Y-99060000D03*
X134620000Y-109220000D03*
X86360000Y-106680000D03*
X86360000Y-121920000D03*
X124460000Y-88900000D03*
X111760000Y-53340000D03*
X129540000Y-71120000D03*
X124460000Y-91440000D03*
X124460000Y-93980000D03*
X121920000Y-114300000D03*
X93980000Y-111760000D03*
X111760000Y-86360000D03*
X127000000Y-96520000D03*
X101600000Y-66040000D03*
X86360000Y-111760000D03*
X96520000Y-86360000D03*
X127000000Y-59445000D03*
X137160000Y-96520000D03*
X111760000Y-96520000D03*
X93980000Y-91440000D03*
X121920000Y-119380000D03*
X88900000Y-119380000D03*
X127000000Y-53340000D03*
X101600000Y-78740000D03*
X121920000Y-116840000D03*
X86360000Y-101600000D03*
X101600000Y-106680000D03*
X86360000Y-66040000D03*
X137160000Y-106680000D03*
X121920000Y-78740000D03*
X96520000Y-83820000D03*
X116840000Y-71120000D03*
X88900000Y-96520000D03*
X99060000Y-116840000D03*
X127000000Y-121920000D03*
X91440000Y-127000000D03*
X99060000Y-121920000D03*
X127000000Y-101600000D03*
X116840000Y-55880000D03*
X129540000Y-114300000D03*
X121920000Y-104140000D03*
X121920000Y-71120000D03*
X129540000Y-101600000D03*
X93980000Y-121920000D03*
X86360000Y-76200000D03*
X121920000Y-121920000D03*
X88900000Y-114300000D03*
X106680000Y-127000000D03*
X106680000Y-58420000D03*
X137160000Y-71120000D03*
X132080000Y-127000000D03*
X127000000Y-132080000D03*
X121920000Y-59457500D03*
X129540000Y-104140000D03*
X106680000Y-71120000D03*
X127000000Y-127000000D03*
X121920000Y-86360000D03*
X99060000Y-73660000D03*
X127000000Y-101600000D03*
X96520000Y-114300000D03*
X96520000Y-121920000D03*
X129540000Y-111760000D03*
X124460000Y-76200000D03*
X99060000Y-83820000D03*
X96520000Y-116840000D03*
X137160000Y-91440000D03*
X116840000Y-96520000D03*
X88900000Y-106680000D03*
X101600000Y-91440000D03*
X116840000Y-116840000D03*
X124460000Y-81280000D03*
X134620000Y-114300000D03*
X99060000Y-76200000D03*
X121920000Y-106680000D03*
X134620000Y-106680000D03*
X132080000Y-132080000D03*
X99060000Y-86360000D03*
X119380000Y-58420000D03*
X106680000Y-116840000D03*
X86360000Y-86360000D03*
X101600000Y-53340000D03*
X114300000Y-81280000D03*
X137160000Y-76200000D03*
X96520000Y-127000000D03*
X106680000Y-76200000D03*
X101600000Y-81280000D03*
X93980000Y-119380000D03*
X91440000Y-58420000D03*
X99060000Y-119380000D03*
X124460000Y-121920000D03*
X101600000Y-101600000D03*
X111760000Y-127000000D03*
X93980000Y-78740000D03*
X96520000Y-71120000D03*
X96520000Y-88900000D03*
X129540000Y-96520000D03*
X96520000Y-66040000D03*
X121920000Y-127000000D03*
X127000000Y-104140000D03*
X86360000Y-96520000D03*
X129540000Y-119380000D03*
X134620000Y-104140000D03*
X96520000Y-53340000D03*
X88900000Y-109220000D03*
X129540000Y-109220000D03*
X106680000Y-121920000D03*
X134620000Y-101600000D03*
X137160000Y-111760000D03*
X116840000Y-101600000D03*
X93980000Y-86360000D03*
X124460000Y-99060000D03*
X86360000Y-91440000D03*
X106680000Y-111760000D03*
X124460000Y-119380000D03*
X96520000Y-76200000D03*
X93980000Y-93980000D03*
X124460000Y-86360000D03*
X121920000Y-73660000D03*
X88900000Y-101600000D03*
X124460000Y-71120000D03*
X93980000Y-88900000D03*
X96520000Y-132080000D03*
X86360000Y-60960000D03*
X88900000Y-104140000D03*
X93980000Y-76200000D03*
X91440000Y-53340000D03*
X99060000Y-88900000D03*
X129540000Y-106680000D03*
X101600000Y-76200000D03*
X96520000Y-73660000D03*
X121920000Y-83820000D03*
X121920000Y-93980000D03*
X101600000Y-93980000D03*
X99060000Y-111760000D03*
X121920000Y-53340000D03*
X101600000Y-73660000D03*
X127000000Y-119380000D03*
X121920000Y-81280000D03*
X96520000Y-97822500D03*
X129540000Y-121920000D03*
X137160000Y-101600000D03*
X106680000Y-91440000D03*
X93980000Y-81280000D03*
X106680000Y-96520000D03*
X111760000Y-101600000D03*
X132080000Y-57382500D03*
X99060000Y-78740000D03*
X99060000Y-91440000D03*
X134620000Y-91440000D03*
X116840000Y-106680000D03*
X132080000Y-53340000D03*
X93980000Y-101600000D03*
X124460000Y-83820000D03*
X134620000Y-73660000D03*
X96520000Y-91440000D03*
X106680000Y-53340000D03*
X93980000Y-99060000D03*
X111760000Y-106680000D03*
X106680000Y-101600000D03*
X116840000Y-53340000D03*
X124460000Y-111760000D03*
X101600000Y-121920000D03*
X134620000Y-96520000D03*
X134620000Y-93980000D03*
X124460000Y-109220000D03*
X111760000Y-116840000D03*
X127000000Y-114300000D03*
X91440000Y-132080000D03*
X106680000Y-66040000D03*
X96520000Y-120217500D03*
X101600000Y-88900000D03*
X134620000Y-99060000D03*
X124460000Y-104140000D03*
X121920000Y-88900000D03*
X129540000Y-116840000D03*
X127000000Y-111760000D03*
X101600000Y-114300000D03*
X137160000Y-127000000D03*
X116840000Y-121920000D03*
X121920000Y-99060000D03*
X121920000Y-66040000D03*
X134620000Y-116840000D03*
X129540000Y-99060000D03*
X134620000Y-109220000D03*
X116840000Y-127000000D03*
X134620000Y-83820000D03*
X106680000Y-106680000D03*
X96520000Y-93980000D03*
X86360000Y-116840000D03*
X111760000Y-121920000D03*
X134620000Y-119380000D03*
X121920000Y-109220000D03*
X99060000Y-71120000D03*
X124460000Y-78740000D03*
X114300000Y-63500000D03*
X101600000Y-127000000D03*
X111760000Y-111760000D03*
X137160000Y-116840000D03*
X127000000Y-109220000D03*
X93980000Y-83820000D03*
X127000000Y-116840000D03*
X114300000Y-76200000D03*
X96520000Y-78740000D03*
X101600000Y-119380000D03*
X96520000Y-81280000D03*
X101600000Y-71120000D03*
X137160000Y-66040000D03*
X124460000Y-114300000D03*
X124460000Y-101600000D03*
X116840000Y-66040000D03*
X137160000Y-121920000D03*
X134620000Y-111760000D03*
X124460000Y-73660000D03*
X124460000Y-96520000D03*
X93980000Y-73660000D03*
X86360000Y-127000000D03*
X86360000Y-81280000D03*
X121920000Y-96520000D03*
X93980000Y-71120000D03*
X99060000Y-93980000D03*
X127000000Y-106680000D03*
X121920000Y-101600000D03*
X99060000Y-81280000D03*
X88900000Y-116840000D03*
X88900000Y-121920000D03*
X99060000Y-101600000D03*
X86360000Y-71120000D03*
X127000000Y-99060000D03*
X101600000Y-83820000D03*
X134620000Y-76200000D03*
X93980000Y-106680000D03*
X88900000Y-93980000D03*
X124460000Y-106680000D03*
X93980000Y-116840000D03*
X134620000Y-121920000D03*
X101600000Y-86360000D03*
X127000000Y-66040000D03*
X91440000Y-66040000D03*
X121920000Y-91440000D03*
X134620000Y-81280000D03*
X96520000Y-58420000D03*
X134620000Y-88900000D03*
X104140000Y-58420000D03*
X134620000Y-86360000D03*
X88900000Y-99060000D03*
X124460000Y-59420000D03*
X93980000Y-114300000D03*
X134620000Y-78740000D03*
X111760000Y-91440000D03*
X121920000Y-76200000D03*
X99060000Y-106680000D03*
X116840000Y-111760000D03*
X137160000Y-81280000D03*
X137160000Y-60960000D03*
X129540000Y-121920000D03*
X101600000Y-99060000D03*
X137160000Y-86360000D03*
X124460000Y-116840000D03*
X121920000Y-111760000D03*
%TO.N,/RST*%
X121920000Y-57382500D03*
%TO.N,/(MOSI)P1.5*%
X109220000Y-62230000D03*
%TD*%
D23*
%TO.N,+5V*%
X101477106Y-55170000D02*
X110919928Y-55170000D01*
X114300000Y-57150000D02*
X117786203Y-60636207D01*
X99062893Y-56170000D02*
X93270000Y-56170000D01*
X119380000Y-72390000D02*
X119379996Y-64483965D01*
X132080000Y-72390000D02*
X119380000Y-72390000D01*
X132080000Y-72390000D02*
X132080000Y-59457500D01*
X118110000Y-73660000D02*
X119380000Y-72390000D01*
X129558750Y-59438749D02*
X129540000Y-59420000D01*
X132080000Y-59457500D02*
X129604016Y-59457499D01*
X114300000Y-57150000D02*
X113310000Y-56160000D01*
X116840000Y-76726051D02*
X116840000Y-90913948D01*
X119380000Y-95250000D02*
X118110000Y-93980000D01*
X119380000Y-95250000D02*
X132080000Y-95250000D01*
X118110000Y-73660000D02*
G75*
G03*
X116840021Y-76726051I3066000J-3066000D01*
G01*
X116840000Y-90913948D02*
G75*
G03*
X118110014Y-93979986I4336100J48D01*
G01*
X100270000Y-55670000D02*
G75*
G02*
X99062893Y-56169997I-1207100J1207100D01*
G01*
X101477106Y-55170000D02*
G75*
G03*
X100269998Y-55669998I-6J-1707100D01*
G01*
X117786203Y-60636207D02*
G75*
G02*
X119380008Y-64483965I-3847803J-3847793D01*
G01*
X113310000Y-56160000D02*
G75*
G03*
X110919928Y-55169988I-2390100J-2390100D01*
G01*
X129558750Y-59438749D02*
G75*
G03*
X129604016Y-59457492I45250J45249D01*
G01*
D24*
%TO.N,/XTAL2*%
X96856759Y-107651758D02*
X103915495Y-114710490D01*
X96520000Y-105886250D02*
X96520000Y-106838749D01*
X104140001Y-115252499D02*
X104140000Y-115570000D01*
X96520000Y-105886250D02*
X96520000Y-99897500D01*
X103915495Y-114710490D02*
G75*
G02*
X104140007Y-115252499I-541995J-542010D01*
G01*
X96520000Y-106838749D02*
G75*
G03*
X96856727Y-107651790I1149800J-51D01*
G01*
%TO.N,/XTAL1*%
X103886000Y-118110000D02*
X91440000Y-118110000D01*
X103758999Y-118110001D02*
X103886000Y-118110000D01*
X103542196Y-118020200D02*
X97280695Y-111758698D01*
X103886000Y-118110000D02*
X103886000Y-118110000D01*
X96800999Y-111560001D02*
X96520000Y-111560000D01*
X103886000Y-118110000D02*
X103886000Y-118110000D01*
X103542196Y-118020200D02*
G75*
G03*
X103758999Y-118110004I216804J216800D01*
G01*
X96800999Y-111560001D02*
G75*
G02*
X97280697Y-111758696I1J-678399D01*
G01*
X103886000Y-118110000D02*
X103886000Y-118110000D01*
%TO.N,/P1.1*%
X91440000Y-74930000D02*
X104140000Y-74930000D01*
%TO.N,/(SCK)P1.7*%
X104140000Y-90170000D02*
X91440000Y-90170000D01*
X104140000Y-90170000D02*
X110166194Y-84143788D01*
X111759986Y-80296029D02*
X111760000Y-59690000D01*
X111759986Y-80296029D02*
G75*
G02*
X110166185Y-84143779I-5441586J29D01*
G01*
%TO.N,/P1.4*%
X91440000Y-82550000D02*
X104140000Y-82550000D01*
%TO.N,/(MISO)P1.6*%
X104140000Y-87630000D02*
X91440000Y-87630000D01*
X113630497Y-59020498D02*
X114300000Y-59690000D01*
X110489986Y-79026029D02*
X110489999Y-59856578D01*
X111926582Y-58420005D02*
X112180766Y-58420004D01*
X108896194Y-82873788D02*
X104140000Y-87630000D01*
X110910766Y-58840769D02*
G75*
G03*
X110489996Y-59856578I1015834J-1015831D01*
G01*
X113630497Y-59020498D02*
G75*
G03*
X112180766Y-58420015I-1449697J-1449702D01*
G01*
X110489986Y-79026029D02*
G75*
G02*
X108896185Y-82873779I-5441586J29D01*
G01*
X111926582Y-58420005D02*
G75*
G03*
X110910772Y-58840775I18J-1436595D01*
G01*
%TO.N,/P1.3*%
X91440000Y-80010000D02*
X104140000Y-80010000D01*
%TO.N,/P1.2*%
X91440000Y-77470000D02*
X104140000Y-77470000D01*
%TO.N,/RST*%
X121929375Y-57391874D02*
X121901250Y-57363750D01*
X99770000Y-60670000D02*
X107547035Y-60670000D01*
X93270000Y-60670000D02*
X89987200Y-63952799D01*
X91440000Y-92710000D02*
X104140000Y-92710000D01*
X93270000Y-60670000D02*
X99770000Y-60670000D01*
X121997274Y-57419999D02*
X124460000Y-57420000D01*
X108730000Y-60180000D02*
X109220000Y-59690000D01*
X91440000Y-92710000D02*
X89916703Y-91186704D01*
X88393406Y-87509141D02*
X88393407Y-67800555D01*
X108730000Y-60180000D02*
G75*
G02*
X107547035Y-60670015I-1183000J1183000D01*
G01*
X89987200Y-63952799D02*
G75*
G03*
X88393359Y-67800555I3847700J-3847801D01*
G01*
X121929375Y-57391874D02*
G75*
G03*
X121997274Y-57420024I67925J67874D01*
G01*
X88393406Y-87509141D02*
G75*
G03*
X89916716Y-91186691I5200894J41D01*
G01*
%TO.N,/(RXD)P3.0*%
X91440000Y-95250000D02*
X104140000Y-95250000D01*
%TO.N,/(TXD)P3.1*%
X103504999Y-97155000D02*
X104140000Y-97790000D01*
X92074998Y-97154995D02*
X91440000Y-97790000D01*
X101971973Y-96519999D02*
X93608023Y-96519990D01*
X101971973Y-96519999D02*
G75*
G02*
X103505008Y-97154991I27J-2168001D01*
G01*
X93608023Y-96519990D02*
G75*
G03*
X92074987Y-97154984I-23J-2168010D01*
G01*
%TO.N,/P1.0*%
X91440000Y-72390000D02*
X104140000Y-72390000D01*
%TO.N,/(MOSI)P1.5*%
X109220000Y-62230000D02*
X109219986Y-77756028D01*
X107626195Y-81603789D02*
X104140000Y-85090000D01*
X104140000Y-85090000D02*
X91440000Y-85090000D01*
X109219986Y-77756028D02*
G75*
G02*
X107626185Y-81603779I-5441586J28D01*
G01*
%TO.N,/P2.3(A11)*%
X119380000Y-113030000D02*
X132080000Y-113030000D01*
%TO.N,/P0.2(AD2)*%
X119380000Y-80010000D02*
X132080000Y-80010000D01*
%TO.N,/P0.7(AD7)*%
X119380000Y-92710000D02*
X132080000Y-92710000D01*
%TO.N,/P0.3(AD3)*%
X119380000Y-82550000D02*
X132080000Y-82550000D01*
%TO.N,/P0.4(AD4)*%
X119380000Y-85090000D02*
X132080000Y-85090000D01*
%TO.N,/P2.5(A13)*%
X119380000Y-107950000D02*
X132080000Y-107950000D01*
%TO.N,/P2.7(A15)*%
X119380000Y-102870000D02*
X132080000Y-102870000D01*
%TO.N,/P0.6(AD6)*%
X119380000Y-90170000D02*
X132080000Y-90170000D01*
%TO.N,/P2.1(A9)*%
X119380000Y-118110000D02*
X132080000Y-118110000D01*
%TO.N,/P2.0(A8)*%
X119380000Y-120650000D02*
X132080000Y-120650000D01*
%TO.N,/P0.5(AD5)*%
X119380000Y-87630000D02*
X132080000Y-87630000D01*
%TO.N,/P0.1(AD1)*%
X119380000Y-77470000D02*
X132080000Y-77470000D01*
%TO.N,/P2.6(A14)*%
X119380000Y-105410000D02*
X132080000Y-105410000D01*
%TO.N,/PSEN*%
X119380000Y-100330000D02*
X132080000Y-100330000D01*
%TO.N,/P2.4(A12)*%
X119380000Y-110490000D02*
X132080000Y-110490000D01*
%TO.N,/P2.2(A10)*%
X119380000Y-115570000D02*
X132080000Y-115570000D01*
%TO.N,/ALE{slash}PROG*%
X119380000Y-97790000D02*
X132080000Y-97790000D01*
%TO.N,/P0.0(AD0)*%
X119380000Y-74930000D02*
X132080000Y-74930000D01*
D23*
%TO.N,/LED*%
X129527499Y-57407500D02*
X129540000Y-57420000D01*
X129497320Y-57395000D02*
X127000000Y-57395000D01*
X129527499Y-57407500D02*
G75*
G03*
X129497320Y-57394991I-30199J-30200D01*
G01*
%TD*%
%TA.AperFunction,Conductor*%
%TO.N,GND*%
G36*
X130887421Y-118780185D02*
G01*
X130921099Y-118814591D01*
X130922085Y-118813875D01*
X131049890Y-118989786D01*
X131200213Y-119140109D01*
X131372182Y-119265050D01*
X131380946Y-119269516D01*
X131431742Y-119317491D01*
X131448536Y-119385312D01*
X131425998Y-119451447D01*
X131380946Y-119490484D01*
X131372182Y-119494949D01*
X131200213Y-119619890D01*
X131049890Y-119770213D01*
X130922085Y-119946125D01*
X130920740Y-119945148D01*
X130874295Y-119987166D01*
X130820382Y-119999500D01*
X120531101Y-119999500D01*
X120464062Y-119979815D01*
X120430783Y-119948385D01*
X120380201Y-119878766D01*
X120342981Y-119827536D01*
X120202464Y-119687019D01*
X120041694Y-119570213D01*
X119885218Y-119490484D01*
X119834423Y-119442510D01*
X119817628Y-119374689D01*
X119840165Y-119308554D01*
X119885218Y-119269515D01*
X120041694Y-119189787D01*
X120202464Y-119072981D01*
X120342981Y-118932464D01*
X120412150Y-118837260D01*
X120430783Y-118811615D01*
X120486113Y-118768949D01*
X120531101Y-118760500D01*
X130820382Y-118760500D01*
X130887421Y-118780185D01*
G37*
%TD.AperFunction*%
%TA.AperFunction,Conductor*%
G36*
X93681310Y-97170491D02*
G01*
X93681313Y-97170490D01*
X95187397Y-97170491D01*
X95254432Y-97190175D01*
X95300187Y-97242979D01*
X95310131Y-97312137D01*
X95306628Y-97327003D01*
X95305494Y-97332301D01*
X95295000Y-97435013D01*
X95295000Y-97572500D01*
X97744999Y-97572500D01*
X97744999Y-97435028D01*
X97744998Y-97435013D01*
X97734505Y-97332298D01*
X97733089Y-97325681D01*
X97734623Y-97325352D01*
X97732496Y-97263681D01*
X97768221Y-97203636D01*
X97830738Y-97172437D01*
X97852595Y-97170494D01*
X101898681Y-97170498D01*
X101898687Y-97170500D01*
X101967921Y-97170499D01*
X101976024Y-97170763D01*
X102161954Y-97182947D01*
X102178022Y-97185063D01*
X102356775Y-97220617D01*
X102372440Y-97224815D01*
X102461431Y-97255022D01*
X102545020Y-97283396D01*
X102560003Y-97289603D01*
X102723461Y-97370211D01*
X102737508Y-97378321D01*
X102842834Y-97448697D01*
X102887640Y-97502309D01*
X102896417Y-97571197D01*
X102877500Y-97690633D01*
X102877500Y-97889360D01*
X102908587Y-98085637D01*
X102969993Y-98274629D01*
X102969994Y-98274632D01*
X103054509Y-98440500D01*
X103060213Y-98451694D01*
X103177019Y-98612464D01*
X103317536Y-98752981D01*
X103478306Y-98869787D01*
X103563699Y-98913297D01*
X103634780Y-98949515D01*
X103685576Y-98997490D01*
X103702371Y-99065311D01*
X103679833Y-99131446D01*
X103634780Y-99170485D01*
X103478305Y-99250213D01*
X103317533Y-99367021D01*
X103177021Y-99507533D01*
X103060213Y-99668305D01*
X102969994Y-99845367D01*
X102969993Y-99845370D01*
X102908587Y-100034362D01*
X102877500Y-100230639D01*
X102877500Y-100429360D01*
X102908587Y-100625637D01*
X102969993Y-100814629D01*
X102969994Y-100814632D01*
X103047873Y-100967475D01*
X103060213Y-100991694D01*
X103177019Y-101152464D01*
X103317536Y-101292981D01*
X103478306Y-101409787D01*
X103596832Y-101470179D01*
X103634780Y-101489515D01*
X103685576Y-101537490D01*
X103702371Y-101605311D01*
X103679833Y-101671446D01*
X103634780Y-101710485D01*
X103478305Y-101790213D01*
X103317533Y-101907021D01*
X103177021Y-102047533D01*
X103060213Y-102208305D01*
X102969994Y-102385367D01*
X102969993Y-102385370D01*
X102908587Y-102574362D01*
X102877500Y-102770639D01*
X102877500Y-102969360D01*
X102908587Y-103165637D01*
X102969993Y-103354629D01*
X102969994Y-103354632D01*
X103054509Y-103520500D01*
X103060213Y-103531694D01*
X103177019Y-103692464D01*
X103317536Y-103832981D01*
X103478306Y-103949787D01*
X103596832Y-104010179D01*
X103634780Y-104029515D01*
X103685576Y-104077490D01*
X103702371Y-104145311D01*
X103679833Y-104211446D01*
X103634780Y-104250485D01*
X103478305Y-104330213D01*
X103317533Y-104447021D01*
X103177021Y-104587533D01*
X103060213Y-104748305D01*
X102969994Y-104925367D01*
X102969993Y-104925370D01*
X102908587Y-105114362D01*
X102877500Y-105310639D01*
X102877500Y-105509360D01*
X102908587Y-105705637D01*
X102969993Y-105894629D01*
X102969994Y-105894632D01*
X103054509Y-106060500D01*
X103060213Y-106071694D01*
X103177019Y-106232464D01*
X103317536Y-106372981D01*
X103478306Y-106489787D01*
X103596832Y-106550179D01*
X103634780Y-106569515D01*
X103685576Y-106617490D01*
X103702371Y-106685311D01*
X103679833Y-106751446D01*
X103634780Y-106790485D01*
X103478305Y-106870213D01*
X103317533Y-106987021D01*
X103177021Y-107127533D01*
X103060213Y-107288305D01*
X102969994Y-107465367D01*
X102969993Y-107465370D01*
X102908587Y-107654362D01*
X102877500Y-107850639D01*
X102877500Y-108049360D01*
X102908587Y-108245637D01*
X102969993Y-108434629D01*
X102969994Y-108434632D01*
X103054509Y-108600500D01*
X103060213Y-108611694D01*
X103177019Y-108772464D01*
X103317536Y-108912981D01*
X103478306Y-109029787D01*
X103596832Y-109090179D01*
X103634780Y-109109515D01*
X103685576Y-109157490D01*
X103702371Y-109225311D01*
X103679833Y-109291446D01*
X103634780Y-109330485D01*
X103478305Y-109410213D01*
X103317533Y-109527021D01*
X103177021Y-109667533D01*
X103060213Y-109828305D01*
X102969994Y-110005367D01*
X102969993Y-110005370D01*
X102908587Y-110194362D01*
X102877500Y-110390639D01*
X102877500Y-110589360D01*
X102908587Y-110785637D01*
X102969993Y-110974629D01*
X102969994Y-110974632D01*
X103023670Y-111079975D01*
X103060213Y-111151694D01*
X103177019Y-111312464D01*
X103317536Y-111452981D01*
X103478306Y-111569787D01*
X103596832Y-111630179D01*
X103634780Y-111649515D01*
X103685576Y-111697490D01*
X103702371Y-111765311D01*
X103679833Y-111831446D01*
X103634780Y-111870485D01*
X103478305Y-111950213D01*
X103317533Y-112067021D01*
X103177021Y-112207533D01*
X103060213Y-112368305D01*
X102969995Y-112545367D01*
X102959032Y-112579108D01*
X102919594Y-112636783D01*
X102855235Y-112663981D01*
X102786389Y-112652066D01*
X102753420Y-112628470D01*
X97609566Y-107484619D01*
X97576081Y-107423296D01*
X97581065Y-107353604D01*
X97587718Y-107339953D01*
X97587312Y-107339746D01*
X97678882Y-107160029D01*
X97678882Y-107160028D01*
X97678884Y-107160025D01*
X97739709Y-106972826D01*
X97748093Y-106919890D01*
X97770500Y-106778422D01*
X97770500Y-106581577D01*
X97739709Y-106387173D01*
X97708067Y-106289792D01*
X97678884Y-106199975D01*
X97678882Y-106199972D01*
X97678882Y-106199970D01*
X97589523Y-106024594D01*
X97473828Y-105865354D01*
X97334646Y-105726172D01*
X97221613Y-105644048D01*
X97178949Y-105588718D01*
X97170500Y-105543731D01*
X97170500Y-101057016D01*
X97190185Y-100989977D01*
X97242989Y-100944222D01*
X97255488Y-100939313D01*
X97314334Y-100919814D01*
X97463656Y-100827712D01*
X97587712Y-100703656D01*
X97679814Y-100554334D01*
X97734999Y-100387797D01*
X97745500Y-100285009D01*
X97745499Y-99509992D01*
X97745248Y-99507539D01*
X97734999Y-99407203D01*
X97734998Y-99407200D01*
X97721683Y-99367019D01*
X97679814Y-99240666D01*
X97587712Y-99091344D01*
X97463656Y-98967288D01*
X97460342Y-98965243D01*
X97458546Y-98963248D01*
X97457989Y-98962807D01*
X97458064Y-98962711D01*
X97413618Y-98913297D01*
X97402397Y-98844334D01*
X97430240Y-98780252D01*
X97460348Y-98754165D01*
X97463342Y-98752318D01*
X97587315Y-98628345D01*
X97679356Y-98479124D01*
X97679358Y-98479119D01*
X97734505Y-98312697D01*
X97734506Y-98312690D01*
X97744999Y-98209986D01*
X97745000Y-98209973D01*
X97745000Y-98072500D01*
X95295001Y-98072500D01*
X95295001Y-98209986D01*
X95305494Y-98312697D01*
X95360641Y-98479119D01*
X95360643Y-98479124D01*
X95452684Y-98628345D01*
X95576655Y-98752316D01*
X95576659Y-98752319D01*
X95579656Y-98754168D01*
X95581279Y-98755972D01*
X95582323Y-98756798D01*
X95582181Y-98756976D01*
X95626381Y-98806116D01*
X95637602Y-98875079D01*
X95609759Y-98939161D01*
X95579661Y-98965241D01*
X95576349Y-98967283D01*
X95576343Y-98967288D01*
X95452289Y-99091342D01*
X95360187Y-99240663D01*
X95360186Y-99240666D01*
X95305001Y-99407203D01*
X95305001Y-99407204D01*
X95305000Y-99407204D01*
X95294500Y-99509983D01*
X95294500Y-100285001D01*
X95294501Y-100285019D01*
X95305000Y-100387796D01*
X95305001Y-100387799D01*
X95321069Y-100436287D01*
X95360186Y-100554334D01*
X95452288Y-100703656D01*
X95576344Y-100827712D01*
X95725666Y-100919814D01*
X95725668Y-100919815D01*
X95746110Y-100926588D01*
X95784502Y-100939310D01*
X95841947Y-100979081D01*
X95868772Y-101043596D01*
X95869500Y-101057016D01*
X95869500Y-105543731D01*
X95849815Y-105610770D01*
X95818386Y-105644049D01*
X95705352Y-105726173D01*
X95566174Y-105865351D01*
X95566174Y-105865352D01*
X95566172Y-105865354D01*
X95544900Y-105894632D01*
X95450476Y-106024594D01*
X95361117Y-106199970D01*
X95300290Y-106387173D01*
X95269500Y-106581577D01*
X95269500Y-106778422D01*
X95300290Y-106972826D01*
X95361117Y-107160029D01*
X95450476Y-107335405D01*
X95566172Y-107494646D01*
X95705354Y-107633828D01*
X95864595Y-107749524D01*
X96039975Y-107838884D01*
X96173930Y-107882409D01*
X96188511Y-107892310D01*
X96204946Y-107897535D01*
X96227639Y-107918882D01*
X96231101Y-107921233D01*
X96232567Y-107923003D01*
X96313333Y-108028269D01*
X96350871Y-108065810D01*
X96350896Y-108065840D01*
X96396769Y-108111713D01*
X96453745Y-108168697D01*
X96453816Y-108168760D01*
X102278040Y-113992981D01*
X103041683Y-114756623D01*
X103075168Y-114817946D01*
X103070184Y-114887638D01*
X103062268Y-114903885D01*
X103062425Y-114903965D01*
X102969994Y-115085367D01*
X102969993Y-115085370D01*
X102908587Y-115274362D01*
X102877500Y-115470639D01*
X102877500Y-115669360D01*
X102908587Y-115865637D01*
X102969993Y-116054629D01*
X102969994Y-116054632D01*
X103031309Y-116174968D01*
X103058814Y-116228949D01*
X103060215Y-116231697D01*
X103161204Y-116370697D01*
X103184684Y-116436503D01*
X103168859Y-116504557D01*
X103118753Y-116553252D01*
X103050275Y-116567127D01*
X102985166Y-116541778D01*
X102973205Y-116531263D01*
X100551729Y-114109787D01*
X97773955Y-111332012D01*
X97741098Y-111271840D01*
X97740844Y-111271902D01*
X97740617Y-111270959D01*
X97740470Y-111270689D01*
X97740173Y-111269107D01*
X97739709Y-111267173D01*
X97678882Y-111079970D01*
X97589523Y-110904594D01*
X97473828Y-110745354D01*
X97334646Y-110606172D01*
X97175405Y-110490476D01*
X97000029Y-110401117D01*
X96812826Y-110340290D01*
X96618422Y-110309500D01*
X96618417Y-110309500D01*
X96421583Y-110309500D01*
X96421578Y-110309500D01*
X96227173Y-110340290D01*
X96039970Y-110401117D01*
X95864594Y-110490476D01*
X95773741Y-110556485D01*
X95705354Y-110606172D01*
X95705352Y-110606174D01*
X95705351Y-110606174D01*
X95566174Y-110745351D01*
X95566174Y-110745352D01*
X95566172Y-110745354D01*
X95536905Y-110785636D01*
X95450476Y-110904594D01*
X95361117Y-111079970D01*
X95300290Y-111267173D01*
X95269500Y-111461577D01*
X95269500Y-111658422D01*
X95300290Y-111852826D01*
X95361117Y-112040029D01*
X95417259Y-112150213D01*
X95450476Y-112215405D01*
X95566172Y-112374646D01*
X95705354Y-112513828D01*
X95864595Y-112629524D01*
X95932221Y-112663981D01*
X96039970Y-112718882D01*
X96039972Y-112718882D01*
X96039975Y-112718884D01*
X96140317Y-112751487D01*
X96227173Y-112779709D01*
X96421578Y-112810500D01*
X96421583Y-112810500D01*
X96618422Y-112810500D01*
X96812826Y-112779709D01*
X96821474Y-112776899D01*
X97000025Y-112718884D01*
X97132346Y-112651463D01*
X97201012Y-112638568D01*
X97265752Y-112664844D01*
X97276319Y-112674268D01*
X101849869Y-117247819D01*
X101883354Y-117309142D01*
X101878370Y-117378834D01*
X101836498Y-117434767D01*
X101771034Y-117459184D01*
X101762188Y-117459500D01*
X97732882Y-117459500D01*
X97665843Y-117439815D01*
X97627343Y-117400597D01*
X97587712Y-117336344D01*
X97463656Y-117212288D01*
X97357841Y-117147021D01*
X97314336Y-117120187D01*
X97314331Y-117120185D01*
X97312862Y-117119698D01*
X97147797Y-117065001D01*
X97147795Y-117065000D01*
X97045010Y-117054500D01*
X95994998Y-117054500D01*
X95994980Y-117054501D01*
X95892203Y-117065000D01*
X95892200Y-117065001D01*
X95725668Y-117120185D01*
X95725663Y-117120187D01*
X95576342Y-117212289D01*
X95452289Y-117336342D01*
X95412657Y-117400597D01*
X95360709Y-117447321D01*
X95307118Y-117459500D01*
X92699618Y-117459500D01*
X92632579Y-117439815D01*
X92598900Y-117405408D01*
X92597915Y-117406125D01*
X92470109Y-117230213D01*
X92319786Y-117079890D01*
X92147820Y-116954951D01*
X92147115Y-116954591D01*
X92139054Y-116950485D01*
X92088259Y-116902512D01*
X92071463Y-116834692D01*
X92093999Y-116768556D01*
X92139054Y-116729515D01*
X92147816Y-116725051D01*
X92169789Y-116709086D01*
X92319786Y-116600109D01*
X92319788Y-116600106D01*
X92319792Y-116600104D01*
X92470104Y-116449792D01*
X92470106Y-116449788D01*
X92470109Y-116449786D01*
X92595048Y-116277820D01*
X92595047Y-116277820D01*
X92595051Y-116277816D01*
X92691557Y-116088412D01*
X92757246Y-115886243D01*
X92790500Y-115676287D01*
X92790500Y-115463713D01*
X92757246Y-115253757D01*
X92691557Y-115051588D01*
X92595051Y-114862184D01*
X92595049Y-114862181D01*
X92595048Y-114862179D01*
X92470109Y-114690213D01*
X92319786Y-114539890D01*
X92147820Y-114414951D01*
X92147115Y-114414591D01*
X92139054Y-114410485D01*
X92088259Y-114362512D01*
X92071463Y-114294692D01*
X92093999Y-114228556D01*
X92139054Y-114189515D01*
X92147816Y-114185051D01*
X92251409Y-114109787D01*
X92319786Y-114060109D01*
X92319788Y-114060106D01*
X92319792Y-114060104D01*
X92470104Y-113909792D01*
X92470106Y-113909788D01*
X92470109Y-113909786D01*
X92595048Y-113737820D01*
X92595047Y-113737820D01*
X92595051Y-113737816D01*
X92691557Y-113548412D01*
X92757246Y-113346243D01*
X92790500Y-113136287D01*
X92790500Y-112923713D01*
X92757246Y-112713757D01*
X92691557Y-112511588D01*
X92595051Y-112322184D01*
X92595049Y-112322181D01*
X92595048Y-112322179D01*
X92470109Y-112150213D01*
X92319786Y-111999890D01*
X92147820Y-111874951D01*
X92147115Y-111874591D01*
X92139054Y-111870485D01*
X92088259Y-111822512D01*
X92071463Y-111754692D01*
X92093999Y-111688556D01*
X92139054Y-111649515D01*
X92147816Y-111645051D01*
X92251409Y-111569787D01*
X92319786Y-111520109D01*
X92319788Y-111520106D01*
X92319792Y-111520104D01*
X92470104Y-111369792D01*
X92470106Y-111369788D01*
X92470109Y-111369786D01*
X92595048Y-111197820D01*
X92595047Y-111197820D01*
X92595051Y-111197816D01*
X92691557Y-111008412D01*
X92757246Y-110806243D01*
X92790500Y-110596287D01*
X92790500Y-110383713D01*
X92757246Y-110173757D01*
X92691557Y-109971588D01*
X92595051Y-109782184D01*
X92595049Y-109782181D01*
X92595048Y-109782179D01*
X92470109Y-109610213D01*
X92319786Y-109459890D01*
X92147820Y-109334951D01*
X92147115Y-109334591D01*
X92139054Y-109330485D01*
X92088259Y-109282512D01*
X92071463Y-109214692D01*
X92093999Y-109148556D01*
X92139054Y-109109515D01*
X92147816Y-109105051D01*
X92251409Y-109029787D01*
X92319786Y-108980109D01*
X92319788Y-108980106D01*
X92319792Y-108980104D01*
X92470104Y-108829792D01*
X92470106Y-108829788D01*
X92470109Y-108829786D01*
X92595048Y-108657820D01*
X92595047Y-108657820D01*
X92595051Y-108657816D01*
X92691557Y-108468412D01*
X92757246Y-108266243D01*
X92790500Y-108056287D01*
X92790500Y-107843713D01*
X92757246Y-107633757D01*
X92691557Y-107431588D01*
X92595051Y-107242184D01*
X92595049Y-107242181D01*
X92595048Y-107242179D01*
X92470109Y-107070213D01*
X92319786Y-106919890D01*
X92147820Y-106794951D01*
X92147115Y-106794591D01*
X92139054Y-106790485D01*
X92088259Y-106742512D01*
X92071463Y-106674692D01*
X92093999Y-106608556D01*
X92139054Y-106569515D01*
X92147816Y-106565051D01*
X92251409Y-106489787D01*
X92319786Y-106440109D01*
X92319788Y-106440106D01*
X92319792Y-106440104D01*
X92470104Y-106289792D01*
X92470106Y-106289788D01*
X92470109Y-106289786D01*
X92595048Y-106117820D01*
X92595047Y-106117820D01*
X92595051Y-106117816D01*
X92691557Y-105928412D01*
X92757246Y-105726243D01*
X92790500Y-105516287D01*
X92790500Y-105303713D01*
X92757246Y-105093757D01*
X92691557Y-104891588D01*
X92595051Y-104702184D01*
X92595049Y-104702181D01*
X92595048Y-104702179D01*
X92470109Y-104530213D01*
X92319786Y-104379890D01*
X92147820Y-104254951D01*
X92147115Y-104254591D01*
X92139054Y-104250485D01*
X92088259Y-104202512D01*
X92071463Y-104134692D01*
X92093999Y-104068556D01*
X92139054Y-104029515D01*
X92147816Y-104025051D01*
X92251409Y-103949787D01*
X92319786Y-103900109D01*
X92319788Y-103900106D01*
X92319792Y-103900104D01*
X92470104Y-103749792D01*
X92470106Y-103749788D01*
X92470109Y-103749786D01*
X92595048Y-103577820D01*
X92595047Y-103577820D01*
X92595051Y-103577816D01*
X92691557Y-103388412D01*
X92757246Y-103186243D01*
X92790500Y-102976287D01*
X92790500Y-102763713D01*
X92757246Y-102553757D01*
X92691557Y-102351588D01*
X92595051Y-102162184D01*
X92595049Y-102162181D01*
X92595048Y-102162179D01*
X92470109Y-101990213D01*
X92319786Y-101839890D01*
X92147820Y-101714951D01*
X92147115Y-101714591D01*
X92139054Y-101710485D01*
X92088259Y-101662512D01*
X92071463Y-101594692D01*
X92093999Y-101528556D01*
X92139054Y-101489515D01*
X92147816Y-101485051D01*
X92251409Y-101409787D01*
X92319786Y-101360109D01*
X92319788Y-101360106D01*
X92319792Y-101360104D01*
X92470104Y-101209792D01*
X92470106Y-101209788D01*
X92470109Y-101209786D01*
X92595048Y-101037820D01*
X92595047Y-101037820D01*
X92595051Y-101037816D01*
X92691557Y-100848412D01*
X92757246Y-100646243D01*
X92790500Y-100436287D01*
X92790500Y-100223713D01*
X92757246Y-100013757D01*
X92691557Y-99811588D01*
X92595051Y-99622184D01*
X92595049Y-99622181D01*
X92595048Y-99622179D01*
X92470109Y-99450213D01*
X92319786Y-99299890D01*
X92147820Y-99174951D01*
X92147115Y-99174591D01*
X92139054Y-99170485D01*
X92088259Y-99122512D01*
X92071463Y-99054692D01*
X92093999Y-98988556D01*
X92139054Y-98949515D01*
X92147816Y-98945051D01*
X92251409Y-98869787D01*
X92319786Y-98820109D01*
X92319788Y-98820106D01*
X92319792Y-98820104D01*
X92470104Y-98669792D01*
X92470106Y-98669788D01*
X92470109Y-98669786D01*
X92595048Y-98497820D01*
X92595047Y-98497820D01*
X92595051Y-98497816D01*
X92691557Y-98308412D01*
X92757246Y-98106243D01*
X92790500Y-97896287D01*
X92790500Y-97683713D01*
X92764153Y-97517367D01*
X92766410Y-97499902D01*
X92763593Y-97482516D01*
X92770794Y-97465972D01*
X92773107Y-97448077D01*
X92784494Y-97434501D01*
X92791480Y-97418453D01*
X92817732Y-97394872D01*
X92842510Y-97378316D01*
X92856535Y-97370219D01*
X93020016Y-97289600D01*
X93034963Y-97283409D01*
X93207575Y-97224816D01*
X93223207Y-97220627D01*
X93401978Y-97185070D01*
X93418041Y-97182956D01*
X93604222Y-97170754D01*
X93612320Y-97170490D01*
X93613411Y-97170490D01*
X93681310Y-97170491D01*
G37*
%TD.AperFunction*%
%TA.AperFunction,Conductor*%
G36*
X130887421Y-116240185D02*
G01*
X130921099Y-116274591D01*
X130922085Y-116273875D01*
X131049890Y-116449786D01*
X131200213Y-116600109D01*
X131372182Y-116725050D01*
X131380946Y-116729516D01*
X131431742Y-116777491D01*
X131448536Y-116845312D01*
X131425998Y-116911447D01*
X131380946Y-116950484D01*
X131372182Y-116954949D01*
X131200213Y-117079890D01*
X131049890Y-117230213D01*
X130922085Y-117406125D01*
X130920740Y-117405148D01*
X130874295Y-117447166D01*
X130820382Y-117459500D01*
X120531101Y-117459500D01*
X120464062Y-117439815D01*
X120430783Y-117408385D01*
X120342983Y-117287539D01*
X120342978Y-117287533D01*
X120202466Y-117147021D01*
X120202464Y-117147019D01*
X120041694Y-117030213D01*
X119885218Y-116950484D01*
X119834423Y-116902510D01*
X119817628Y-116834689D01*
X119840165Y-116768554D01*
X119885218Y-116729515D01*
X120041694Y-116649787D01*
X120202464Y-116532981D01*
X120342981Y-116392464D01*
X120426275Y-116277820D01*
X120430783Y-116271615D01*
X120486113Y-116228949D01*
X120531101Y-116220500D01*
X130820382Y-116220500D01*
X130887421Y-116240185D01*
G37*
%TD.AperFunction*%
%TA.AperFunction,Conductor*%
G36*
X130830344Y-113683425D02*
G01*
X130840651Y-113682168D01*
X130863295Y-113693101D01*
X130887421Y-113700185D01*
X130895891Y-113708838D01*
X130903571Y-113712546D01*
X130921575Y-113734245D01*
X130922085Y-113733875D01*
X131049890Y-113909786D01*
X131200213Y-114060109D01*
X131372182Y-114185050D01*
X131380946Y-114189516D01*
X131431742Y-114237491D01*
X131448536Y-114305312D01*
X131425998Y-114371447D01*
X131380946Y-114410484D01*
X131372182Y-114414949D01*
X131200213Y-114539890D01*
X131049890Y-114690213D01*
X130922085Y-114866125D01*
X130920740Y-114865148D01*
X130874295Y-114907166D01*
X130820382Y-114919500D01*
X120531101Y-114919500D01*
X120464062Y-114899815D01*
X120430783Y-114868385D01*
X120342983Y-114747539D01*
X120342978Y-114747533D01*
X120202466Y-114607021D01*
X120202464Y-114607019D01*
X120041694Y-114490213D01*
X119885218Y-114410484D01*
X119834423Y-114362510D01*
X119817628Y-114294689D01*
X119840165Y-114228554D01*
X119885218Y-114189515D01*
X120041694Y-114109787D01*
X120202464Y-113992981D01*
X120342981Y-113852464D01*
X120426275Y-113737820D01*
X120430783Y-113731615D01*
X120486113Y-113688949D01*
X120531101Y-113680500D01*
X130820382Y-113680500D01*
X130830344Y-113683425D01*
G37*
%TD.AperFunction*%
%TA.AperFunction,Conductor*%
G36*
X130887421Y-111160185D02*
G01*
X130921099Y-111194591D01*
X130922085Y-111193875D01*
X131049890Y-111369786D01*
X131200213Y-111520109D01*
X131372182Y-111645050D01*
X131380946Y-111649516D01*
X131431742Y-111697491D01*
X131448536Y-111765312D01*
X131425998Y-111831447D01*
X131380946Y-111870484D01*
X131372182Y-111874949D01*
X131200213Y-111999890D01*
X131049890Y-112150213D01*
X130922085Y-112326125D01*
X130920740Y-112325148D01*
X130874295Y-112367166D01*
X130820382Y-112379500D01*
X120531101Y-112379500D01*
X120464062Y-112359815D01*
X120430783Y-112328385D01*
X120342983Y-112207539D01*
X120342978Y-112207533D01*
X120202466Y-112067021D01*
X120202464Y-112067019D01*
X120041694Y-111950213D01*
X119885218Y-111870484D01*
X119834423Y-111822510D01*
X119817628Y-111754689D01*
X119840165Y-111688554D01*
X119885218Y-111649515D01*
X120041694Y-111569787D01*
X120202464Y-111452981D01*
X120342981Y-111312464D01*
X120426275Y-111197820D01*
X120430783Y-111191615D01*
X120486113Y-111148949D01*
X120531101Y-111140500D01*
X130820382Y-111140500D01*
X130887421Y-111160185D01*
G37*
%TD.AperFunction*%
%TA.AperFunction,Conductor*%
G36*
X130887421Y-108620185D02*
G01*
X130921099Y-108654591D01*
X130922085Y-108653875D01*
X131049890Y-108829786D01*
X131200213Y-108980109D01*
X131372182Y-109105050D01*
X131380946Y-109109516D01*
X131431742Y-109157491D01*
X131448536Y-109225312D01*
X131425998Y-109291447D01*
X131380946Y-109330484D01*
X131372182Y-109334949D01*
X131200213Y-109459890D01*
X131049890Y-109610213D01*
X130922085Y-109786125D01*
X130920740Y-109785148D01*
X130874295Y-109827166D01*
X130820382Y-109839500D01*
X120531101Y-109839500D01*
X120464062Y-109819815D01*
X120430783Y-109788385D01*
X120342983Y-109667539D01*
X120342978Y-109667533D01*
X120202466Y-109527021D01*
X120202464Y-109527019D01*
X120041694Y-109410213D01*
X119885218Y-109330484D01*
X119834423Y-109282510D01*
X119817628Y-109214689D01*
X119840165Y-109148554D01*
X119885218Y-109109515D01*
X120041694Y-109029787D01*
X120202464Y-108912981D01*
X120342981Y-108772464D01*
X120426275Y-108657820D01*
X120430783Y-108651615D01*
X120486113Y-108608949D01*
X120531101Y-108600500D01*
X130820382Y-108600500D01*
X130887421Y-108620185D01*
G37*
%TD.AperFunction*%
%TA.AperFunction,Conductor*%
G36*
X130887421Y-106080185D02*
G01*
X130921099Y-106114591D01*
X130922085Y-106113875D01*
X131049890Y-106289786D01*
X131200213Y-106440109D01*
X131372182Y-106565050D01*
X131380946Y-106569516D01*
X131431742Y-106617491D01*
X131448536Y-106685312D01*
X131425998Y-106751447D01*
X131380946Y-106790484D01*
X131372182Y-106794949D01*
X131200213Y-106919890D01*
X131049890Y-107070213D01*
X130922085Y-107246125D01*
X130920740Y-107245148D01*
X130874295Y-107287166D01*
X130820382Y-107299500D01*
X120531101Y-107299500D01*
X120464062Y-107279815D01*
X120430783Y-107248385D01*
X120342983Y-107127539D01*
X120342978Y-107127533D01*
X120202466Y-106987021D01*
X120202464Y-106987019D01*
X120041694Y-106870213D01*
X119885218Y-106790484D01*
X119834423Y-106742510D01*
X119817628Y-106674689D01*
X119840165Y-106608554D01*
X119885218Y-106569515D01*
X120041694Y-106489787D01*
X120202464Y-106372981D01*
X120342981Y-106232464D01*
X120426275Y-106117820D01*
X120430783Y-106111615D01*
X120486113Y-106068949D01*
X120531101Y-106060500D01*
X130820382Y-106060500D01*
X130887421Y-106080185D01*
G37*
%TD.AperFunction*%
%TA.AperFunction,Conductor*%
G36*
X130887421Y-103540185D02*
G01*
X130921099Y-103574591D01*
X130922085Y-103573875D01*
X131049890Y-103749786D01*
X131200213Y-103900109D01*
X131372182Y-104025050D01*
X131380946Y-104029516D01*
X131431742Y-104077491D01*
X131448536Y-104145312D01*
X131425998Y-104211447D01*
X131380946Y-104250484D01*
X131372182Y-104254949D01*
X131200213Y-104379890D01*
X131049890Y-104530213D01*
X130922085Y-104706125D01*
X130920740Y-104705148D01*
X130874295Y-104747166D01*
X130820382Y-104759500D01*
X120531101Y-104759500D01*
X120464062Y-104739815D01*
X120430783Y-104708385D01*
X120342983Y-104587539D01*
X120342978Y-104587533D01*
X120202466Y-104447021D01*
X120202464Y-104447019D01*
X120041694Y-104330213D01*
X119885218Y-104250484D01*
X119834423Y-104202510D01*
X119817628Y-104134689D01*
X119840165Y-104068554D01*
X119885218Y-104029515D01*
X120041694Y-103949787D01*
X120202464Y-103832981D01*
X120342981Y-103692464D01*
X120426275Y-103577820D01*
X120430783Y-103571615D01*
X120486113Y-103528949D01*
X120531101Y-103520500D01*
X130820382Y-103520500D01*
X130887421Y-103540185D01*
G37*
%TD.AperFunction*%
%TA.AperFunction,Conductor*%
G36*
X130887421Y-101000185D02*
G01*
X130921099Y-101034591D01*
X130922085Y-101033875D01*
X131049890Y-101209786D01*
X131200213Y-101360109D01*
X131372182Y-101485050D01*
X131380946Y-101489516D01*
X131431742Y-101537491D01*
X131448536Y-101605312D01*
X131425998Y-101671447D01*
X131380946Y-101710484D01*
X131372182Y-101714949D01*
X131200213Y-101839890D01*
X131049890Y-101990213D01*
X130922085Y-102166125D01*
X130920740Y-102165148D01*
X130874295Y-102207166D01*
X130820382Y-102219500D01*
X120531101Y-102219500D01*
X120464062Y-102199815D01*
X120430783Y-102168385D01*
X120342983Y-102047539D01*
X120342978Y-102047533D01*
X120202466Y-101907021D01*
X120202464Y-101907019D01*
X120041694Y-101790213D01*
X119885218Y-101710484D01*
X119834423Y-101662510D01*
X119817628Y-101594689D01*
X119840165Y-101528554D01*
X119885218Y-101489515D01*
X120041694Y-101409787D01*
X120202464Y-101292981D01*
X120342981Y-101152464D01*
X120426275Y-101037820D01*
X120430783Y-101031615D01*
X120486113Y-100988949D01*
X120531101Y-100980500D01*
X130820382Y-100980500D01*
X130887421Y-101000185D01*
G37*
%TD.AperFunction*%
%TA.AperFunction,Conductor*%
G36*
X130887421Y-98460185D02*
G01*
X130921099Y-98494591D01*
X130922085Y-98493875D01*
X131049890Y-98669786D01*
X131200213Y-98820109D01*
X131372182Y-98945050D01*
X131380946Y-98949516D01*
X131431742Y-98997491D01*
X131448536Y-99065312D01*
X131425998Y-99131447D01*
X131380946Y-99170484D01*
X131372182Y-99174949D01*
X131200213Y-99299890D01*
X131049890Y-99450213D01*
X130922085Y-99626125D01*
X130920740Y-99625148D01*
X130874295Y-99667166D01*
X130820382Y-99679500D01*
X120531101Y-99679500D01*
X120464062Y-99659815D01*
X120430783Y-99628385D01*
X120344765Y-99509992D01*
X120342981Y-99507536D01*
X120202464Y-99367019D01*
X120041694Y-99250213D01*
X119885218Y-99170484D01*
X119834423Y-99122510D01*
X119817628Y-99054689D01*
X119840165Y-98988554D01*
X119885218Y-98949515D01*
X120041694Y-98869787D01*
X120202464Y-98752981D01*
X120342981Y-98612464D01*
X120426275Y-98497820D01*
X120430783Y-98491615D01*
X120486113Y-98448949D01*
X120531101Y-98440500D01*
X130820382Y-98440500D01*
X130887421Y-98460185D01*
G37*
%TD.AperFunction*%
%TA.AperFunction,Conductor*%
G36*
X131048682Y-96159144D02*
G01*
X131078669Y-96165668D01*
X131083684Y-96169422D01*
X131086281Y-96170185D01*
X131106923Y-96186819D01*
X131200213Y-96280109D01*
X131372182Y-96405050D01*
X131380946Y-96409516D01*
X131431742Y-96457491D01*
X131448536Y-96525312D01*
X131425998Y-96591447D01*
X131380946Y-96630484D01*
X131372182Y-96634949D01*
X131200213Y-96759890D01*
X131049890Y-96910213D01*
X130922085Y-97086125D01*
X130920740Y-97085148D01*
X130874295Y-97127166D01*
X130820382Y-97139500D01*
X120531101Y-97139500D01*
X120464062Y-97119815D01*
X120430783Y-97088385D01*
X120342983Y-96967539D01*
X120342978Y-96967533D01*
X120202466Y-96827021D01*
X120202464Y-96827019D01*
X120041694Y-96710213D01*
X119885218Y-96630484D01*
X119834423Y-96582510D01*
X119817628Y-96514689D01*
X119840165Y-96448554D01*
X119885218Y-96409515D01*
X120041694Y-96329787D01*
X120202464Y-96212981D01*
X120228626Y-96186819D01*
X120289949Y-96153334D01*
X120316307Y-96150500D01*
X131019242Y-96150500D01*
X131048682Y-96159144D01*
G37*
%TD.AperFunction*%
%TA.AperFunction,Conductor*%
G36*
X103055938Y-93380185D02*
G01*
X103089217Y-93411615D01*
X103134990Y-93474616D01*
X103177019Y-93532464D01*
X103317536Y-93672981D01*
X103478306Y-93789787D01*
X103548332Y-93825467D01*
X103634780Y-93869515D01*
X103685576Y-93917490D01*
X103702371Y-93985311D01*
X103679833Y-94051446D01*
X103634780Y-94090485D01*
X103478305Y-94170213D01*
X103317533Y-94287021D01*
X103177021Y-94427533D01*
X103177016Y-94427539D01*
X103089217Y-94548385D01*
X103033887Y-94591051D01*
X102988899Y-94599500D01*
X92699618Y-94599500D01*
X92632579Y-94579815D01*
X92598900Y-94545408D01*
X92597915Y-94546125D01*
X92470109Y-94370213D01*
X92319786Y-94219890D01*
X92147820Y-94094951D01*
X92147115Y-94094591D01*
X92139054Y-94090485D01*
X92088259Y-94042512D01*
X92071463Y-93974692D01*
X92093999Y-93908556D01*
X92139054Y-93869515D01*
X92147816Y-93865051D01*
X92169789Y-93849086D01*
X92319786Y-93740109D01*
X92319788Y-93740106D01*
X92319792Y-93740104D01*
X92470104Y-93589792D01*
X92470106Y-93589788D01*
X92470109Y-93589786D01*
X92597915Y-93413875D01*
X92599259Y-93414851D01*
X92645705Y-93372834D01*
X92699618Y-93360500D01*
X102988899Y-93360500D01*
X103055938Y-93380185D01*
G37*
%TD.AperFunction*%
%TA.AperFunction,Conductor*%
G36*
X125807178Y-93362041D02*
G01*
X125812541Y-93360955D01*
X125840343Y-93371779D01*
X125868968Y-93380185D01*
X125873903Y-93384846D01*
X125877650Y-93386305D01*
X125902245Y-93411612D01*
X125990046Y-93532460D01*
X126008034Y-93557219D01*
X126152786Y-93701971D01*
X126273657Y-93789787D01*
X126318390Y-93822287D01*
X126402319Y-93865051D01*
X126500776Y-93915218D01*
X126500778Y-93915218D01*
X126500781Y-93915220D01*
X126581395Y-93941413D01*
X126695465Y-93978477D01*
X126752434Y-93987500D01*
X126897648Y-94010500D01*
X126897649Y-94010500D01*
X127102351Y-94010500D01*
X127102352Y-94010500D01*
X127304534Y-93978477D01*
X127499219Y-93915220D01*
X127681610Y-93822287D01*
X127794726Y-93740104D01*
X127847213Y-93701971D01*
X127847215Y-93701968D01*
X127847219Y-93701966D01*
X127991966Y-93557219D01*
X128097753Y-93411613D01*
X128153082Y-93368949D01*
X128198071Y-93360500D01*
X130820382Y-93360500D01*
X130887421Y-93380185D01*
X130921099Y-93414591D01*
X130922085Y-93413875D01*
X131049890Y-93589786D01*
X131200213Y-93740109D01*
X131372182Y-93865050D01*
X131380946Y-93869516D01*
X131431742Y-93917491D01*
X131448536Y-93985312D01*
X131425998Y-94051447D01*
X131380946Y-94090484D01*
X131372182Y-94094949D01*
X131200213Y-94219890D01*
X131200209Y-94219894D01*
X131106923Y-94313181D01*
X131045600Y-94346666D01*
X131019242Y-94349500D01*
X120316307Y-94349500D01*
X120249268Y-94329815D01*
X120228626Y-94313181D01*
X120202466Y-94287021D01*
X120202464Y-94287019D01*
X120041694Y-94170213D01*
X119885218Y-94090484D01*
X119834423Y-94042510D01*
X119817628Y-93974689D01*
X119840165Y-93908554D01*
X119885218Y-93869515D01*
X120041694Y-93789787D01*
X120202464Y-93672981D01*
X120342981Y-93532464D01*
X120426275Y-93417820D01*
X120430783Y-93411615D01*
X120486113Y-93368949D01*
X120531101Y-93360500D01*
X125801929Y-93360500D01*
X125807178Y-93362041D01*
G37*
%TD.AperFunction*%
%TA.AperFunction,Conductor*%
G36*
X103055938Y-90840185D02*
G01*
X103089217Y-90871615D01*
X103093725Y-90877820D01*
X103177019Y-90992464D01*
X103317536Y-91132981D01*
X103478306Y-91249787D01*
X103542085Y-91282284D01*
X103634780Y-91329515D01*
X103685576Y-91377490D01*
X103702371Y-91445311D01*
X103679833Y-91511446D01*
X103634780Y-91550485D01*
X103478305Y-91630213D01*
X103317533Y-91747021D01*
X103177021Y-91887533D01*
X103177016Y-91887539D01*
X103089217Y-92008385D01*
X103033887Y-92051051D01*
X102988899Y-92059500D01*
X92699618Y-92059500D01*
X92632579Y-92039815D01*
X92598900Y-92005408D01*
X92597915Y-92006125D01*
X92470109Y-91830213D01*
X92319786Y-91679890D01*
X92147820Y-91554951D01*
X92147115Y-91554591D01*
X92139054Y-91550485D01*
X92088259Y-91502512D01*
X92071463Y-91434692D01*
X92093999Y-91368556D01*
X92139054Y-91329515D01*
X92147816Y-91325051D01*
X92206680Y-91282284D01*
X92319786Y-91200109D01*
X92319788Y-91200106D01*
X92319792Y-91200104D01*
X92470104Y-91049792D01*
X92470106Y-91049788D01*
X92470109Y-91049786D01*
X92597915Y-90873875D01*
X92599259Y-90874851D01*
X92645705Y-90832834D01*
X92699618Y-90820500D01*
X102988899Y-90820500D01*
X103055938Y-90840185D01*
G37*
%TD.AperFunction*%
%TA.AperFunction,Conductor*%
G36*
X125807178Y-90822041D02*
G01*
X125812541Y-90820955D01*
X125840343Y-90831779D01*
X125868968Y-90840185D01*
X125873903Y-90844846D01*
X125877650Y-90846305D01*
X125902245Y-90871612D01*
X125990046Y-90992460D01*
X126008034Y-91017219D01*
X126152786Y-91161971D01*
X126307749Y-91274556D01*
X126318390Y-91282287D01*
X126402313Y-91325048D01*
X126411080Y-91329515D01*
X126461876Y-91377490D01*
X126478671Y-91445311D01*
X126456134Y-91511446D01*
X126411080Y-91550485D01*
X126318386Y-91597715D01*
X126152786Y-91718028D01*
X126008034Y-91862780D01*
X125954589Y-91936342D01*
X125902246Y-92008386D01*
X125846918Y-92051051D01*
X125801929Y-92059500D01*
X120531101Y-92059500D01*
X120464062Y-92039815D01*
X120430783Y-92008385D01*
X120342983Y-91887539D01*
X120342978Y-91887533D01*
X120202466Y-91747021D01*
X120202464Y-91747019D01*
X120041694Y-91630213D01*
X119885218Y-91550484D01*
X119834423Y-91502510D01*
X119817628Y-91434689D01*
X119840165Y-91368554D01*
X119885218Y-91329515D01*
X120041694Y-91249787D01*
X120202464Y-91132981D01*
X120342981Y-90992464D01*
X120426275Y-90877820D01*
X120430783Y-90871615D01*
X120486113Y-90828949D01*
X120531101Y-90820500D01*
X125801929Y-90820500D01*
X125807178Y-90822041D01*
G37*
%TD.AperFunction*%
%TA.AperFunction,Conductor*%
G36*
X109806853Y-60995537D02*
G01*
X109837681Y-61058238D01*
X109839497Y-61079383D01*
X109839497Y-61449193D01*
X109819812Y-61516232D01*
X109767008Y-61561987D01*
X109697850Y-61571931D01*
X109646606Y-61552295D01*
X109599185Y-61520609D01*
X109599172Y-61520602D01*
X109453501Y-61460264D01*
X109453489Y-61460261D01*
X109298845Y-61429500D01*
X109298842Y-61429500D01*
X109141158Y-61429500D01*
X109141155Y-61429500D01*
X108986510Y-61460261D01*
X108986498Y-61460264D01*
X108840827Y-61520602D01*
X108840814Y-61520609D01*
X108709711Y-61608210D01*
X108709707Y-61608213D01*
X108598213Y-61719707D01*
X108598210Y-61719711D01*
X108510609Y-61850814D01*
X108510602Y-61850827D01*
X108450264Y-61996498D01*
X108450261Y-61996510D01*
X108419500Y-62151153D01*
X108419500Y-62308846D01*
X108450261Y-62463489D01*
X108450264Y-62463501D01*
X108510602Y-62609171D01*
X108510608Y-62609182D01*
X108548601Y-62666043D01*
X108569478Y-62732721D01*
X108569498Y-62734933D01*
X108569486Y-77682730D01*
X108569486Y-77753599D01*
X108569390Y-77758468D01*
X108554906Y-78127058D01*
X108554142Y-78136764D01*
X108511070Y-78500668D01*
X108509547Y-78510285D01*
X108438054Y-78869696D01*
X108435781Y-78879163D01*
X108336314Y-79231841D01*
X108333306Y-79241101D01*
X108206467Y-79584909D01*
X108202741Y-79593904D01*
X108049325Y-79926688D01*
X108044904Y-79935363D01*
X107865846Y-80255093D01*
X107860759Y-80263395D01*
X107657175Y-80568080D01*
X107651452Y-80575957D01*
X107424585Y-80863737D01*
X107418262Y-80871140D01*
X107167622Y-81142280D01*
X107164247Y-81145790D01*
X105614181Y-82695863D01*
X105552858Y-82729348D01*
X105483167Y-82724364D01*
X105427233Y-82682493D01*
X105402816Y-82617028D01*
X105402500Y-82608182D01*
X105402500Y-82450639D01*
X105396419Y-82412247D01*
X105371413Y-82254364D01*
X105310005Y-82065368D01*
X105310005Y-82065367D01*
X105230790Y-81909901D01*
X105219787Y-81888306D01*
X105102981Y-81727536D01*
X104962464Y-81587019D01*
X104801694Y-81470213D01*
X104645218Y-81390484D01*
X104594423Y-81342510D01*
X104577628Y-81274689D01*
X104600165Y-81208554D01*
X104645218Y-81169515D01*
X104801694Y-81089787D01*
X104962464Y-80972981D01*
X105102981Y-80832464D01*
X105219787Y-80671694D01*
X105310005Y-80494632D01*
X105371413Y-80305636D01*
X105402500Y-80109361D01*
X105402500Y-79910639D01*
X105371413Y-79714364D01*
X105310005Y-79525368D01*
X105310005Y-79525367D01*
X105247108Y-79401927D01*
X105219787Y-79348306D01*
X105102981Y-79187536D01*
X104962464Y-79047019D01*
X104801694Y-78930213D01*
X104645218Y-78850484D01*
X104594423Y-78802510D01*
X104577628Y-78734689D01*
X104600165Y-78668554D01*
X104645218Y-78629515D01*
X104801694Y-78549787D01*
X104962464Y-78432981D01*
X105102981Y-78292464D01*
X105219787Y-78131694D01*
X105310005Y-77954632D01*
X105371413Y-77765636D01*
X105402500Y-77569361D01*
X105402500Y-77370639D01*
X105371413Y-77174364D01*
X105310005Y-76985368D01*
X105310005Y-76985367D01*
X105264035Y-76895149D01*
X105219787Y-76808306D01*
X105102981Y-76647536D01*
X104962464Y-76507019D01*
X104801694Y-76390213D01*
X104645218Y-76310484D01*
X104594423Y-76262510D01*
X104577628Y-76194689D01*
X104600165Y-76128554D01*
X104645218Y-76089515D01*
X104801694Y-76009787D01*
X104962464Y-75892981D01*
X105102981Y-75752464D01*
X105219787Y-75591694D01*
X105310005Y-75414632D01*
X105371413Y-75225636D01*
X105402500Y-75029361D01*
X105402500Y-74830639D01*
X105371413Y-74634364D01*
X105310005Y-74445368D01*
X105310005Y-74445367D01*
X105264035Y-74355149D01*
X105219787Y-74268306D01*
X105102981Y-74107536D01*
X104962464Y-73967019D01*
X104838310Y-73876816D01*
X104795646Y-73821487D01*
X104789667Y-73751874D01*
X104822273Y-73690079D01*
X104883112Y-73655721D01*
X104911196Y-73652499D01*
X104949872Y-73652499D01*
X105009483Y-73646091D01*
X105144331Y-73595796D01*
X105259546Y-73509546D01*
X105345796Y-73394331D01*
X105396091Y-73259483D01*
X105402500Y-73199873D01*
X105402499Y-71580128D01*
X105396091Y-71520517D01*
X105384522Y-71489500D01*
X105345797Y-71385671D01*
X105345793Y-71385664D01*
X105259547Y-71270455D01*
X105259544Y-71270452D01*
X105144335Y-71184206D01*
X105144328Y-71184202D01*
X105009482Y-71133908D01*
X105009483Y-71133908D01*
X104949883Y-71127501D01*
X104949881Y-71127500D01*
X104949873Y-71127500D01*
X104949864Y-71127500D01*
X103330129Y-71127500D01*
X103330123Y-71127501D01*
X103270516Y-71133908D01*
X103135671Y-71184202D01*
X103135664Y-71184206D01*
X103020455Y-71270452D01*
X103020452Y-71270455D01*
X102934206Y-71385664D01*
X102934202Y-71385671D01*
X102883908Y-71520517D01*
X102878853Y-71567539D01*
X102877501Y-71580123D01*
X102877500Y-71580135D01*
X102877500Y-71615500D01*
X102857815Y-71682539D01*
X102805011Y-71728294D01*
X102753500Y-71739500D01*
X92699618Y-71739500D01*
X92632579Y-71719815D01*
X92598900Y-71685408D01*
X92597915Y-71686125D01*
X92470109Y-71510213D01*
X92319786Y-71359890D01*
X92147820Y-71234951D01*
X91958414Y-71138444D01*
X91958413Y-71138443D01*
X91958412Y-71138443D01*
X91756243Y-71072754D01*
X91756241Y-71072753D01*
X91756240Y-71072753D01*
X91594957Y-71047208D01*
X91546287Y-71039500D01*
X91333713Y-71039500D01*
X91285042Y-71047208D01*
X91123760Y-71072753D01*
X90921585Y-71138444D01*
X90732179Y-71234951D01*
X90560213Y-71359890D01*
X90409890Y-71510213D01*
X90284951Y-71682179D01*
X90188444Y-71871585D01*
X90188443Y-71871587D01*
X90188443Y-71871588D01*
X90177467Y-71905368D01*
X90122753Y-72073760D01*
X90089500Y-72283713D01*
X90089500Y-72496286D01*
X90122753Y-72706239D01*
X90188444Y-72908414D01*
X90284951Y-73097820D01*
X90409890Y-73269786D01*
X90560213Y-73420109D01*
X90732182Y-73545050D01*
X90740946Y-73549516D01*
X90791742Y-73597491D01*
X90808536Y-73665312D01*
X90785998Y-73731447D01*
X90740946Y-73770484D01*
X90732182Y-73774949D01*
X90560213Y-73899890D01*
X90409890Y-74050213D01*
X90284951Y-74222179D01*
X90188444Y-74411585D01*
X90188443Y-74411587D01*
X90188443Y-74411588D01*
X90177467Y-74445368D01*
X90122753Y-74613760D01*
X90119490Y-74634362D01*
X90089500Y-74823713D01*
X90089500Y-75036287D01*
X90122754Y-75246243D01*
X90177467Y-75414632D01*
X90188444Y-75448414D01*
X90284951Y-75637820D01*
X90409890Y-75809786D01*
X90560213Y-75960109D01*
X90732182Y-76085050D01*
X90740946Y-76089516D01*
X90791742Y-76137491D01*
X90808536Y-76205312D01*
X90785998Y-76271447D01*
X90740946Y-76310484D01*
X90732182Y-76314949D01*
X90560213Y-76439890D01*
X90409890Y-76590213D01*
X90284951Y-76762179D01*
X90188444Y-76951585D01*
X90188443Y-76951587D01*
X90188443Y-76951588D01*
X90177467Y-76985368D01*
X90122753Y-77153760D01*
X90089500Y-77363713D01*
X90089500Y-77576286D01*
X90117583Y-77753599D01*
X90122754Y-77786243D01*
X90177467Y-77954632D01*
X90188444Y-77988414D01*
X90284951Y-78177820D01*
X90409890Y-78349786D01*
X90560213Y-78500109D01*
X90732182Y-78625050D01*
X90740946Y-78629516D01*
X90791742Y-78677491D01*
X90808536Y-78745312D01*
X90785998Y-78811447D01*
X90740946Y-78850484D01*
X90732182Y-78854949D01*
X90560213Y-78979890D01*
X90409890Y-79130213D01*
X90284951Y-79302179D01*
X90188444Y-79491585D01*
X90188443Y-79491587D01*
X90188443Y-79491588D01*
X90177467Y-79525368D01*
X90122753Y-79693760D01*
X90089500Y-79903713D01*
X90089500Y-80116286D01*
X90112157Y-80259340D01*
X90122754Y-80326243D01*
X90182818Y-80511101D01*
X90188444Y-80528414D01*
X90284951Y-80717820D01*
X90409890Y-80889786D01*
X90560213Y-81040109D01*
X90732182Y-81165050D01*
X90740946Y-81169516D01*
X90791742Y-81217491D01*
X90808536Y-81285312D01*
X90785998Y-81351447D01*
X90740946Y-81390484D01*
X90732182Y-81394949D01*
X90560213Y-81519890D01*
X90409890Y-81670213D01*
X90284951Y-81842179D01*
X90188444Y-82031585D01*
X90188443Y-82031587D01*
X90188443Y-82031588D01*
X90177467Y-82065368D01*
X90122753Y-82233760D01*
X90089500Y-82443713D01*
X90089500Y-82656286D01*
X90120344Y-82851032D01*
X90122754Y-82866243D01*
X90177467Y-83034632D01*
X90188444Y-83068414D01*
X90284951Y-83257820D01*
X90409890Y-83429786D01*
X90560213Y-83580109D01*
X90732182Y-83705050D01*
X90740946Y-83709516D01*
X90791742Y-83757491D01*
X90808536Y-83825312D01*
X90785998Y-83891447D01*
X90740946Y-83930484D01*
X90732182Y-83934949D01*
X90560213Y-84059890D01*
X90409890Y-84210213D01*
X90284951Y-84382179D01*
X90188444Y-84571585D01*
X90188443Y-84571587D01*
X90188443Y-84571588D01*
X90177467Y-84605368D01*
X90122753Y-84773760D01*
X90089500Y-84983713D01*
X90089500Y-85196287D01*
X90122754Y-85406243D01*
X90177467Y-85574632D01*
X90188444Y-85608414D01*
X90284951Y-85797820D01*
X90409890Y-85969786D01*
X90560213Y-86120109D01*
X90732182Y-86245050D01*
X90740946Y-86249516D01*
X90791742Y-86297491D01*
X90808536Y-86365312D01*
X90785998Y-86431447D01*
X90740946Y-86470484D01*
X90732182Y-86474949D01*
X90560213Y-86599890D01*
X90409890Y-86750213D01*
X90284951Y-86922179D01*
X90188444Y-87111585D01*
X90188443Y-87111587D01*
X90188443Y-87111588D01*
X90177467Y-87145368D01*
X90122753Y-87313760D01*
X90091316Y-87512250D01*
X90089500Y-87523713D01*
X90089500Y-87736287D01*
X90122754Y-87946243D01*
X90177467Y-88114632D01*
X90188444Y-88148414D01*
X90284951Y-88337820D01*
X90409890Y-88509786D01*
X90560213Y-88660109D01*
X90732182Y-88785050D01*
X90740946Y-88789516D01*
X90791742Y-88837491D01*
X90808536Y-88905312D01*
X90785998Y-88971447D01*
X90740946Y-89010484D01*
X90732182Y-89014949D01*
X90560213Y-89139890D01*
X90409890Y-89290213D01*
X90284951Y-89462179D01*
X90188444Y-89651585D01*
X90188443Y-89651587D01*
X90188443Y-89651588D01*
X90177467Y-89685368D01*
X90122753Y-89853760D01*
X90089334Y-90064756D01*
X90059405Y-90127891D01*
X90000093Y-90164822D01*
X89930230Y-90163824D01*
X89871998Y-90125214D01*
X89862281Y-90111983D01*
X89835942Y-90070640D01*
X89656443Y-89788884D01*
X89651036Y-89779519D01*
X89472735Y-89437008D01*
X89468163Y-89427204D01*
X89364952Y-89178034D01*
X89320388Y-89070449D01*
X89316691Y-89060291D01*
X89315878Y-89057713D01*
X89200572Y-88692017D01*
X89197774Y-88681573D01*
X89114191Y-88304566D01*
X89112318Y-88293939D01*
X89061911Y-87911076D01*
X89060971Y-87900340D01*
X89044024Y-87512250D01*
X89043906Y-87506840D01*
X89043906Y-77682730D01*
X89043906Y-67802875D01*
X89044000Y-67798108D01*
X89058488Y-67429459D01*
X89059249Y-67419785D01*
X89102327Y-67055855D01*
X89103850Y-67046245D01*
X89175344Y-66686838D01*
X89177617Y-66677371D01*
X89187323Y-66642955D01*
X89277095Y-66324659D01*
X89280089Y-66315442D01*
X89406944Y-65971598D01*
X89410653Y-65962646D01*
X89564088Y-65629829D01*
X89568496Y-65621177D01*
X89747565Y-65301436D01*
X89752641Y-65293152D01*
X89956253Y-64988432D01*
X89961964Y-64980573D01*
X90188842Y-64692786D01*
X90195152Y-64685399D01*
X90445539Y-64414538D01*
X90448860Y-64411083D01*
X90498994Y-64360952D01*
X90498995Y-64360949D01*
X92719807Y-62140137D01*
X92781128Y-62106654D01*
X92845802Y-62109888D01*
X92918632Y-62133553D01*
X93035270Y-62152026D01*
X93151903Y-62170500D01*
X93151908Y-62170500D01*
X93388097Y-62170500D01*
X93621368Y-62133553D01*
X93845992Y-62060568D01*
X94056433Y-61953343D01*
X94247510Y-61814517D01*
X94414517Y-61647510D01*
X94553343Y-61456433D01*
X94588107Y-61388205D01*
X94636082Y-61337409D01*
X94698592Y-61320500D01*
X98341408Y-61320500D01*
X98408447Y-61340185D01*
X98451893Y-61388205D01*
X98486657Y-61456433D01*
X98625483Y-61647510D01*
X98792490Y-61814517D01*
X98983567Y-61953343D01*
X99068273Y-61996503D01*
X99194003Y-62060566D01*
X99194005Y-62060566D01*
X99194008Y-62060568D01*
X99273535Y-62086408D01*
X99418631Y-62133553D01*
X99651903Y-62170500D01*
X99651908Y-62170500D01*
X99888097Y-62170500D01*
X100121368Y-62133553D01*
X100345992Y-62060568D01*
X100556433Y-61953343D01*
X100747510Y-61814517D01*
X100914517Y-61647510D01*
X101053343Y-61456433D01*
X101088107Y-61388205D01*
X101136082Y-61337409D01*
X101198592Y-61320500D01*
X107473751Y-61320500D01*
X107473755Y-61320501D01*
X107495676Y-61320500D01*
X107495725Y-61320514D01*
X107547049Y-61320513D01*
X107547049Y-61320514D01*
X107677523Y-61320511D01*
X107677534Y-61320511D01*
X107737962Y-61313700D01*
X107936854Y-61291288D01*
X108191275Y-61233214D01*
X108437594Y-61147020D01*
X108672714Y-61033790D01*
X108730189Y-60997674D01*
X108797424Y-60978673D01*
X108834478Y-60984735D01*
X108903757Y-61007246D01*
X109113713Y-61040500D01*
X109113714Y-61040500D01*
X109326286Y-61040500D01*
X109326287Y-61040500D01*
X109536243Y-61007246D01*
X109677182Y-60961451D01*
X109747020Y-60959457D01*
X109806853Y-60995537D01*
G37*
%TD.AperFunction*%
%TA.AperFunction,Conductor*%
G36*
X103055938Y-88300185D02*
G01*
X103089217Y-88331615D01*
X103093725Y-88337820D01*
X103177019Y-88452464D01*
X103317536Y-88592981D01*
X103478306Y-88709787D01*
X103542085Y-88742284D01*
X103634780Y-88789515D01*
X103685576Y-88837490D01*
X103702371Y-88905311D01*
X103679833Y-88971446D01*
X103634780Y-89010485D01*
X103478305Y-89090213D01*
X103317533Y-89207021D01*
X103177021Y-89347533D01*
X103177016Y-89347539D01*
X103089217Y-89468385D01*
X103033887Y-89511051D01*
X102988899Y-89519500D01*
X92699618Y-89519500D01*
X92632579Y-89499815D01*
X92598900Y-89465408D01*
X92597915Y-89466125D01*
X92470109Y-89290213D01*
X92319786Y-89139890D01*
X92147820Y-89014951D01*
X92147115Y-89014591D01*
X92139054Y-89010485D01*
X92088259Y-88962512D01*
X92071463Y-88894692D01*
X92093999Y-88828556D01*
X92139054Y-88789515D01*
X92147816Y-88785051D01*
X92251409Y-88709787D01*
X92319786Y-88660109D01*
X92319788Y-88660106D01*
X92319792Y-88660104D01*
X92470104Y-88509792D01*
X92470106Y-88509788D01*
X92470109Y-88509786D01*
X92597915Y-88333875D01*
X92599259Y-88334851D01*
X92645705Y-88292834D01*
X92699618Y-88280500D01*
X102988899Y-88280500D01*
X103055938Y-88300185D01*
G37*
%TD.AperFunction*%
%TA.AperFunction,Conductor*%
G36*
X125807178Y-88282041D02*
G01*
X125812541Y-88280955D01*
X125840343Y-88291779D01*
X125868968Y-88300185D01*
X125873903Y-88304846D01*
X125877650Y-88306305D01*
X125902245Y-88331612D01*
X125906753Y-88337816D01*
X126008034Y-88477219D01*
X126152786Y-88621971D01*
X126273657Y-88709787D01*
X126318390Y-88742287D01*
X126402313Y-88785048D01*
X126411080Y-88789515D01*
X126461876Y-88837490D01*
X126478671Y-88905311D01*
X126456134Y-88971446D01*
X126411080Y-89010485D01*
X126318386Y-89057715D01*
X126152786Y-89178028D01*
X126008034Y-89322780D01*
X125990046Y-89347539D01*
X125902246Y-89468386D01*
X125846918Y-89511051D01*
X125801929Y-89519500D01*
X120531101Y-89519500D01*
X120464062Y-89499815D01*
X120430783Y-89468385D01*
X120342983Y-89347539D01*
X120342978Y-89347533D01*
X120202466Y-89207021D01*
X120202464Y-89207019D01*
X120041694Y-89090213D01*
X119885218Y-89010484D01*
X119834423Y-88962510D01*
X119817628Y-88894689D01*
X119840165Y-88828554D01*
X119885218Y-88789515D01*
X120041694Y-88709787D01*
X120202464Y-88592981D01*
X120342981Y-88452464D01*
X120426275Y-88337820D01*
X120430783Y-88331615D01*
X120486113Y-88288949D01*
X120531101Y-88280500D01*
X125801929Y-88280500D01*
X125807178Y-88282041D01*
G37*
%TD.AperFunction*%
%TA.AperFunction,Conductor*%
G36*
X103055938Y-85760185D02*
G01*
X103089217Y-85791615D01*
X103093725Y-85797820D01*
X103177019Y-85912464D01*
X103317536Y-86052981D01*
X103478306Y-86169787D01*
X103542085Y-86202284D01*
X103634780Y-86249515D01*
X103685576Y-86297490D01*
X103702371Y-86365311D01*
X103679833Y-86431446D01*
X103634780Y-86470485D01*
X103478305Y-86550213D01*
X103317533Y-86667021D01*
X103177021Y-86807533D01*
X103177016Y-86807539D01*
X103089217Y-86928385D01*
X103033887Y-86971051D01*
X102988899Y-86979500D01*
X92699618Y-86979500D01*
X92632579Y-86959815D01*
X92598900Y-86925408D01*
X92597915Y-86926125D01*
X92470109Y-86750213D01*
X92319786Y-86599890D01*
X92147820Y-86474951D01*
X92147115Y-86474591D01*
X92139054Y-86470485D01*
X92088259Y-86422512D01*
X92071463Y-86354692D01*
X92093999Y-86288556D01*
X92139054Y-86249515D01*
X92147816Y-86245051D01*
X92251409Y-86169787D01*
X92319786Y-86120109D01*
X92319788Y-86120106D01*
X92319792Y-86120104D01*
X92470104Y-85969792D01*
X92470106Y-85969788D01*
X92470109Y-85969786D01*
X92597915Y-85793875D01*
X92599259Y-85794851D01*
X92645705Y-85752834D01*
X92699618Y-85740500D01*
X102988899Y-85740500D01*
X103055938Y-85760185D01*
G37*
%TD.AperFunction*%
%TA.AperFunction,Conductor*%
G36*
X125807178Y-85742041D02*
G01*
X125812541Y-85740955D01*
X125840343Y-85751779D01*
X125868968Y-85760185D01*
X125873903Y-85764846D01*
X125877650Y-85766305D01*
X125902245Y-85791612D01*
X125906753Y-85797816D01*
X126008034Y-85937219D01*
X126152786Y-86081971D01*
X126273657Y-86169787D01*
X126318390Y-86202287D01*
X126402313Y-86245048D01*
X126411080Y-86249515D01*
X126461876Y-86297490D01*
X126478671Y-86365311D01*
X126456134Y-86431446D01*
X126411080Y-86470485D01*
X126318386Y-86517715D01*
X126152786Y-86638028D01*
X126008034Y-86782780D01*
X125990046Y-86807539D01*
X125902246Y-86928386D01*
X125846918Y-86971051D01*
X125801929Y-86979500D01*
X120531101Y-86979500D01*
X120464062Y-86959815D01*
X120430783Y-86928385D01*
X120342983Y-86807539D01*
X120342978Y-86807533D01*
X120202466Y-86667021D01*
X120202464Y-86667019D01*
X120041694Y-86550213D01*
X119885218Y-86470484D01*
X119834423Y-86422510D01*
X119817628Y-86354689D01*
X119840165Y-86288554D01*
X119885218Y-86249515D01*
X120041694Y-86169787D01*
X120202464Y-86052981D01*
X120342981Y-85912464D01*
X120426275Y-85797820D01*
X120430783Y-85791615D01*
X120486113Y-85748949D01*
X120531101Y-85740500D01*
X125801929Y-85740500D01*
X125807178Y-85742041D01*
G37*
%TD.AperFunction*%
%TA.AperFunction,Conductor*%
G36*
X103055938Y-83220185D02*
G01*
X103089217Y-83251615D01*
X103112623Y-83283830D01*
X103177019Y-83372464D01*
X103317536Y-83512981D01*
X103478306Y-83629787D01*
X103588153Y-83685757D01*
X103634780Y-83709515D01*
X103685576Y-83757490D01*
X103702371Y-83825311D01*
X103679833Y-83891446D01*
X103634780Y-83930485D01*
X103478305Y-84010213D01*
X103317533Y-84127021D01*
X103177021Y-84267533D01*
X103177016Y-84267539D01*
X103089217Y-84388385D01*
X103033887Y-84431051D01*
X102988899Y-84439500D01*
X92699618Y-84439500D01*
X92632579Y-84419815D01*
X92598900Y-84385408D01*
X92597915Y-84386125D01*
X92470109Y-84210213D01*
X92319786Y-84059890D01*
X92147820Y-83934951D01*
X92147115Y-83934591D01*
X92139054Y-83930485D01*
X92088259Y-83882512D01*
X92071463Y-83814692D01*
X92093999Y-83748556D01*
X92139054Y-83709515D01*
X92147816Y-83705051D01*
X92251409Y-83629787D01*
X92319786Y-83580109D01*
X92319788Y-83580106D01*
X92319792Y-83580104D01*
X92470104Y-83429792D01*
X92470106Y-83429788D01*
X92470109Y-83429786D01*
X92597915Y-83253875D01*
X92599259Y-83254851D01*
X92645705Y-83212834D01*
X92699618Y-83200500D01*
X102988899Y-83200500D01*
X103055938Y-83220185D01*
G37*
%TD.AperFunction*%
%TA.AperFunction,Conductor*%
G36*
X125807178Y-83202041D02*
G01*
X125812541Y-83200955D01*
X125840343Y-83211779D01*
X125868968Y-83220185D01*
X125873903Y-83224846D01*
X125877650Y-83226305D01*
X125902245Y-83251612D01*
X125929014Y-83288456D01*
X126008034Y-83397219D01*
X126152786Y-83541971D01*
X126273657Y-83629787D01*
X126318390Y-83662287D01*
X126402313Y-83705048D01*
X126411080Y-83709515D01*
X126461876Y-83757490D01*
X126478671Y-83825311D01*
X126456134Y-83891446D01*
X126411080Y-83930485D01*
X126318386Y-83977715D01*
X126152786Y-84098028D01*
X126008034Y-84242780D01*
X125990046Y-84267539D01*
X125902246Y-84388386D01*
X125846918Y-84431051D01*
X125801929Y-84439500D01*
X120531101Y-84439500D01*
X120464062Y-84419815D01*
X120430783Y-84388385D01*
X120342983Y-84267539D01*
X120342978Y-84267533D01*
X120202466Y-84127021D01*
X120202464Y-84127019D01*
X120041694Y-84010213D01*
X119885218Y-83930484D01*
X119834423Y-83882510D01*
X119817628Y-83814689D01*
X119840165Y-83748554D01*
X119885218Y-83709515D01*
X120041694Y-83629787D01*
X120202464Y-83512981D01*
X120342981Y-83372464D01*
X120426275Y-83257820D01*
X120430783Y-83251615D01*
X120486113Y-83208949D01*
X120531101Y-83200500D01*
X125801929Y-83200500D01*
X125807178Y-83202041D01*
G37*
%TD.AperFunction*%
%TA.AperFunction,Conductor*%
G36*
X103055938Y-80680185D02*
G01*
X103089217Y-80711615D01*
X103093725Y-80717820D01*
X103177019Y-80832464D01*
X103317536Y-80972981D01*
X103478306Y-81089787D01*
X103588218Y-81145790D01*
X103634780Y-81169515D01*
X103685576Y-81217490D01*
X103702371Y-81285311D01*
X103679833Y-81351446D01*
X103634780Y-81390485D01*
X103478305Y-81470213D01*
X103317533Y-81587021D01*
X103177021Y-81727533D01*
X103177016Y-81727539D01*
X103089217Y-81848385D01*
X103033887Y-81891051D01*
X102988899Y-81899500D01*
X92699618Y-81899500D01*
X92632579Y-81879815D01*
X92598900Y-81845408D01*
X92597915Y-81846125D01*
X92470109Y-81670213D01*
X92319786Y-81519890D01*
X92147820Y-81394951D01*
X92147115Y-81394591D01*
X92139054Y-81390485D01*
X92088259Y-81342512D01*
X92071463Y-81274692D01*
X92093999Y-81208556D01*
X92139054Y-81169515D01*
X92147816Y-81165051D01*
X92251409Y-81089787D01*
X92319786Y-81040109D01*
X92319788Y-81040106D01*
X92319792Y-81040104D01*
X92470104Y-80889792D01*
X92470106Y-80889788D01*
X92470109Y-80889786D01*
X92597915Y-80713875D01*
X92599259Y-80714851D01*
X92645705Y-80672834D01*
X92699618Y-80660500D01*
X102988899Y-80660500D01*
X103055938Y-80680185D01*
G37*
%TD.AperFunction*%
%TA.AperFunction,Conductor*%
G36*
X125807178Y-80662041D02*
G01*
X125812541Y-80660955D01*
X125840343Y-80671779D01*
X125868968Y-80680185D01*
X125873903Y-80684846D01*
X125877650Y-80686305D01*
X125902245Y-80711612D01*
X125906753Y-80717816D01*
X126008034Y-80857219D01*
X126152786Y-81001971D01*
X126273657Y-81089787D01*
X126318390Y-81122287D01*
X126402313Y-81165048D01*
X126411080Y-81169515D01*
X126461876Y-81217490D01*
X126478671Y-81285311D01*
X126456134Y-81351446D01*
X126411080Y-81390485D01*
X126318386Y-81437715D01*
X126152786Y-81558028D01*
X126008034Y-81702780D01*
X125970335Y-81754670D01*
X125902246Y-81848386D01*
X125846918Y-81891051D01*
X125801929Y-81899500D01*
X120531101Y-81899500D01*
X120464062Y-81879815D01*
X120430783Y-81848385D01*
X120342983Y-81727539D01*
X120342978Y-81727533D01*
X120202466Y-81587021D01*
X120202464Y-81587019D01*
X120041694Y-81470213D01*
X119885218Y-81390484D01*
X119834423Y-81342510D01*
X119817628Y-81274689D01*
X119840165Y-81208554D01*
X119885218Y-81169515D01*
X120041694Y-81089787D01*
X120202464Y-80972981D01*
X120342981Y-80832464D01*
X120426275Y-80717820D01*
X120430783Y-80711615D01*
X120486113Y-80668949D01*
X120531101Y-80660500D01*
X125801929Y-80660500D01*
X125807178Y-80662041D01*
G37*
%TD.AperFunction*%
%TA.AperFunction,Conductor*%
G36*
X103055938Y-78140185D02*
G01*
X103089217Y-78171615D01*
X103093725Y-78177820D01*
X103177019Y-78292464D01*
X103317536Y-78432981D01*
X103478306Y-78549787D01*
X103542085Y-78582284D01*
X103634780Y-78629515D01*
X103685576Y-78677490D01*
X103702371Y-78745311D01*
X103679833Y-78811446D01*
X103634780Y-78850485D01*
X103478305Y-78930213D01*
X103317533Y-79047021D01*
X103177021Y-79187533D01*
X103177016Y-79187539D01*
X103089217Y-79308385D01*
X103033887Y-79351051D01*
X102988899Y-79359500D01*
X92699618Y-79359500D01*
X92632579Y-79339815D01*
X92598900Y-79305408D01*
X92597915Y-79306125D01*
X92470109Y-79130213D01*
X92319786Y-78979890D01*
X92147820Y-78854951D01*
X92147115Y-78854591D01*
X92139054Y-78850485D01*
X92088259Y-78802512D01*
X92071463Y-78734692D01*
X92093999Y-78668556D01*
X92139054Y-78629515D01*
X92147816Y-78625051D01*
X92251409Y-78549787D01*
X92319786Y-78500109D01*
X92319788Y-78500106D01*
X92319792Y-78500104D01*
X92470104Y-78349792D01*
X92470106Y-78349788D01*
X92470109Y-78349786D01*
X92597915Y-78173875D01*
X92599259Y-78174851D01*
X92645705Y-78132834D01*
X92699618Y-78120500D01*
X102988899Y-78120500D01*
X103055938Y-78140185D01*
G37*
%TD.AperFunction*%
%TA.AperFunction,Conductor*%
G36*
X125807178Y-78122041D02*
G01*
X125812541Y-78120955D01*
X125840343Y-78131779D01*
X125868968Y-78140185D01*
X125873903Y-78144846D01*
X125877650Y-78146305D01*
X125902245Y-78171612D01*
X125906753Y-78177816D01*
X126008034Y-78317219D01*
X126152786Y-78461971D01*
X126273657Y-78549787D01*
X126318390Y-78582287D01*
X126402313Y-78625048D01*
X126411080Y-78629515D01*
X126461876Y-78677490D01*
X126478671Y-78745311D01*
X126456134Y-78811446D01*
X126411080Y-78850485D01*
X126318386Y-78897715D01*
X126152786Y-79018028D01*
X126008034Y-79162780D01*
X125990046Y-79187539D01*
X125902246Y-79308386D01*
X125846918Y-79351051D01*
X125801929Y-79359500D01*
X120531101Y-79359500D01*
X120464062Y-79339815D01*
X120430783Y-79308385D01*
X120342983Y-79187539D01*
X120342978Y-79187533D01*
X120202466Y-79047021D01*
X120202464Y-79047019D01*
X120041694Y-78930213D01*
X119885218Y-78850484D01*
X119834423Y-78802510D01*
X119817628Y-78734689D01*
X119840165Y-78668554D01*
X119885218Y-78629515D01*
X120041694Y-78549787D01*
X120202464Y-78432981D01*
X120342981Y-78292464D01*
X120426275Y-78177820D01*
X120430783Y-78171615D01*
X120486113Y-78128949D01*
X120531101Y-78120500D01*
X125801929Y-78120500D01*
X125807178Y-78122041D01*
G37*
%TD.AperFunction*%
%TA.AperFunction,Conductor*%
G36*
X103055938Y-75600185D02*
G01*
X103089217Y-75631615D01*
X103164086Y-75734663D01*
X103177019Y-75752464D01*
X103317536Y-75892981D01*
X103478306Y-76009787D01*
X103580434Y-76061824D01*
X103634780Y-76089515D01*
X103685576Y-76137490D01*
X103702371Y-76205311D01*
X103679833Y-76271446D01*
X103634780Y-76310485D01*
X103478305Y-76390213D01*
X103317533Y-76507021D01*
X103177021Y-76647533D01*
X103177016Y-76647539D01*
X103089217Y-76768385D01*
X103033887Y-76811051D01*
X102988899Y-76819500D01*
X92699618Y-76819500D01*
X92632579Y-76799815D01*
X92598900Y-76765408D01*
X92597915Y-76766125D01*
X92470109Y-76590213D01*
X92319786Y-76439890D01*
X92147820Y-76314951D01*
X92147115Y-76314591D01*
X92139054Y-76310485D01*
X92088259Y-76262512D01*
X92071463Y-76194692D01*
X92093999Y-76128556D01*
X92139054Y-76089515D01*
X92147816Y-76085051D01*
X92169789Y-76069086D01*
X92319786Y-75960109D01*
X92319788Y-75960106D01*
X92319792Y-75960104D01*
X92470104Y-75809792D01*
X92470106Y-75809788D01*
X92470109Y-75809786D01*
X92597915Y-75633875D01*
X92599259Y-75634851D01*
X92645705Y-75592834D01*
X92699618Y-75580500D01*
X102988899Y-75580500D01*
X103055938Y-75600185D01*
G37*
%TD.AperFunction*%
%TA.AperFunction,Conductor*%
G36*
X125807178Y-75582041D02*
G01*
X125812541Y-75580955D01*
X125840343Y-75591779D01*
X125868968Y-75600185D01*
X125873903Y-75604846D01*
X125877650Y-75606305D01*
X125902245Y-75631612D01*
X125954596Y-75703667D01*
X126008034Y-75777219D01*
X126152786Y-75921971D01*
X126273657Y-76009787D01*
X126318390Y-76042287D01*
X126402313Y-76085048D01*
X126411080Y-76089515D01*
X126461876Y-76137490D01*
X126478671Y-76205311D01*
X126456134Y-76271446D01*
X126411080Y-76310485D01*
X126318386Y-76357715D01*
X126152786Y-76478028D01*
X126008034Y-76622780D01*
X125990046Y-76647539D01*
X125902246Y-76768386D01*
X125846918Y-76811051D01*
X125801929Y-76819500D01*
X120531101Y-76819500D01*
X120464062Y-76799815D01*
X120430783Y-76768385D01*
X120342983Y-76647539D01*
X120342978Y-76647533D01*
X120202466Y-76507021D01*
X120202464Y-76507019D01*
X120041694Y-76390213D01*
X119885218Y-76310484D01*
X119834423Y-76262510D01*
X119817628Y-76194689D01*
X119840165Y-76128554D01*
X119885218Y-76089515D01*
X120041694Y-76009787D01*
X120202464Y-75892981D01*
X120342981Y-75752464D01*
X120426275Y-75637820D01*
X120430783Y-75631615D01*
X120486113Y-75588949D01*
X120531101Y-75580500D01*
X125801929Y-75580500D01*
X125807178Y-75582041D01*
G37*
%TD.AperFunction*%
%TA.AperFunction,Conductor*%
G36*
X102820540Y-73060185D02*
G01*
X102866295Y-73112989D01*
X102877501Y-73164500D01*
X102877501Y-73199876D01*
X102883908Y-73259483D01*
X102934202Y-73394328D01*
X102934206Y-73394335D01*
X103020452Y-73509544D01*
X103020455Y-73509547D01*
X103135664Y-73595793D01*
X103135671Y-73595797D01*
X103270517Y-73646091D01*
X103270516Y-73646091D01*
X103277444Y-73646835D01*
X103330127Y-73652500D01*
X103368801Y-73652499D01*
X103435838Y-73672182D01*
X103481594Y-73724985D01*
X103491539Y-73794143D01*
X103462516Y-73857699D01*
X103441687Y-73876816D01*
X103317542Y-73967014D01*
X103317533Y-73967021D01*
X103177021Y-74107533D01*
X103177016Y-74107539D01*
X103089217Y-74228385D01*
X103033887Y-74271051D01*
X102988899Y-74279500D01*
X92699618Y-74279500D01*
X92632579Y-74259815D01*
X92598900Y-74225408D01*
X92597915Y-74226125D01*
X92470109Y-74050213D01*
X92319786Y-73899890D01*
X92147820Y-73774951D01*
X92142397Y-73772188D01*
X92139054Y-73770485D01*
X92088259Y-73722512D01*
X92071463Y-73654692D01*
X92093999Y-73588556D01*
X92139054Y-73549515D01*
X92147816Y-73545051D01*
X92169789Y-73529086D01*
X92319786Y-73420109D01*
X92319788Y-73420106D01*
X92319792Y-73420104D01*
X92470104Y-73269792D01*
X92470106Y-73269788D01*
X92470109Y-73269786D01*
X92597915Y-73093875D01*
X92599259Y-73094851D01*
X92645705Y-73052834D01*
X92699618Y-73040500D01*
X102753501Y-73040500D01*
X102820540Y-73060185D01*
G37*
%TD.AperFunction*%
%TA.AperFunction,Conductor*%
G36*
X125638454Y-73296738D02*
G01*
X125660543Y-73298318D01*
X125671327Y-73306390D01*
X125684248Y-73310185D01*
X125698746Y-73326916D01*
X125716477Y-73340190D01*
X125727090Y-73359627D01*
X125730003Y-73362989D01*
X125733391Y-73371167D01*
X125756202Y-73432328D01*
X125756206Y-73432335D01*
X125842452Y-73547544D01*
X125842455Y-73547547D01*
X125957664Y-73633793D01*
X125957671Y-73633797D01*
X126002618Y-73650561D01*
X126092517Y-73684091D01*
X126129441Y-73688060D01*
X126193989Y-73714796D01*
X126233838Y-73772188D01*
X126236333Y-73842013D01*
X126200681Y-73902102D01*
X126189071Y-73911666D01*
X126152784Y-73938030D01*
X126008034Y-74082780D01*
X125990046Y-74107539D01*
X125902246Y-74228386D01*
X125846918Y-74271051D01*
X125801929Y-74279500D01*
X120531101Y-74279500D01*
X120464062Y-74259815D01*
X120430783Y-74228385D01*
X120342983Y-74107539D01*
X120342978Y-74107533D01*
X120202466Y-73967021D01*
X120202464Y-73967019D01*
X120041694Y-73850213D01*
X119885218Y-73770484D01*
X119834423Y-73722510D01*
X119817628Y-73654689D01*
X119840165Y-73588554D01*
X119885218Y-73549515D01*
X120041694Y-73469787D01*
X120202464Y-73352981D01*
X120228626Y-73326819D01*
X120289949Y-73293334D01*
X120316307Y-73290500D01*
X125617209Y-73290500D01*
X125638454Y-73296738D01*
G37*
%TD.AperFunction*%
%TA.AperFunction,Conductor*%
G36*
X110335270Y-57911717D02*
G01*
X110335270Y-57911716D01*
X110374622Y-57857555D01*
X110379232Y-57848507D01*
X110427205Y-57797709D01*
X110495025Y-57780912D01*
X110561161Y-57803447D01*
X110591118Y-57833424D01*
X110596197Y-57840640D01*
X110604949Y-57857816D01*
X110712096Y-58005292D01*
X110712647Y-58006075D01*
X110723612Y-58038327D01*
X110735046Y-58070371D01*
X110734827Y-58071311D01*
X110735138Y-58072225D01*
X110726931Y-58105263D01*
X110719220Y-58138424D01*
X110718478Y-58139293D01*
X110718295Y-58140034D01*
X110716015Y-58142183D01*
X110688561Y-58174396D01*
X110533670Y-58297917D01*
X110450793Y-58380794D01*
X110450792Y-58380797D01*
X110398966Y-58432623D01*
X110398958Y-58432633D01*
X110395515Y-58436077D01*
X110395512Y-58436078D01*
X110367916Y-58463675D01*
X110244398Y-58618562D01*
X110240061Y-58621605D01*
X110237660Y-58626327D01*
X110211762Y-58641468D01*
X110187209Y-58658702D01*
X110181916Y-58658918D01*
X110177343Y-58661592D01*
X110147370Y-58660328D01*
X110117397Y-58661552D01*
X110111408Y-58658812D01*
X110107535Y-58658649D01*
X110080981Y-58644891D01*
X110076077Y-58642648D01*
X110075274Y-58642083D01*
X109927816Y-58534949D01*
X109910640Y-58526197D01*
X109903424Y-58521118D01*
X109886950Y-58500404D01*
X109867707Y-58482230D01*
X109865540Y-58473483D01*
X109859934Y-58466433D01*
X109857274Y-58440099D01*
X109850912Y-58414409D01*
X109853817Y-58405882D01*
X109852912Y-58396917D01*
X109864912Y-58373324D01*
X109873449Y-58348274D01*
X109880968Y-58341758D01*
X109884589Y-58334641D01*
X109898712Y-58326383D01*
X109918507Y-58309232D01*
X109927555Y-58304622D01*
X109981716Y-58265270D01*
X109981717Y-58265270D01*
X109349408Y-57632962D01*
X109412993Y-57615925D01*
X109527007Y-57550099D01*
X109620099Y-57457007D01*
X109685925Y-57342993D01*
X109702962Y-57279408D01*
X110335270Y-57911717D01*
G37*
%TD.AperFunction*%
%TA.AperFunction,Conductor*%
G36*
X110698667Y-56090185D02*
G01*
X110744422Y-56142989D01*
X110754366Y-56212147D01*
X110731946Y-56267385D01*
X110604949Y-56442182D01*
X110600202Y-56451499D01*
X110552227Y-56502293D01*
X110484405Y-56519087D01*
X110418271Y-56496548D01*
X110379234Y-56451495D01*
X110374626Y-56442452D01*
X110335270Y-56388282D01*
X110335269Y-56388282D01*
X109702962Y-57020590D01*
X109685925Y-56957007D01*
X109620099Y-56842993D01*
X109527007Y-56749901D01*
X109412993Y-56684075D01*
X109349408Y-56667037D01*
X109909627Y-56106819D01*
X109970950Y-56073334D01*
X109997308Y-56070500D01*
X110631628Y-56070500D01*
X110698667Y-56090185D01*
G37*
%TD.AperFunction*%
%TA.AperFunction,Conductor*%
G36*
X135580017Y-51320185D02*
G01*
X135625772Y-51372989D01*
X135635716Y-51442147D01*
X135606691Y-51505703D01*
X135590291Y-51521447D01*
X135557915Y-51547265D01*
X135367265Y-51737915D01*
X135199161Y-51948712D01*
X135055714Y-52177005D01*
X134938734Y-52419917D01*
X134849687Y-52674397D01*
X134849684Y-52674405D01*
X134789688Y-52937268D01*
X134789686Y-52937280D01*
X134759500Y-53205186D01*
X134759500Y-53474813D01*
X134789686Y-53742719D01*
X134789688Y-53742731D01*
X134849684Y-54005594D01*
X134849687Y-54005602D01*
X134938734Y-54260082D01*
X135055714Y-54502994D01*
X135055716Y-54502997D01*
X135199162Y-54731289D01*
X135367266Y-54942085D01*
X135557915Y-55132734D01*
X135768711Y-55300838D01*
X135997003Y-55444284D01*
X136239921Y-55561267D01*
X136333490Y-55594008D01*
X136494397Y-55650312D01*
X136494405Y-55650315D01*
X136494408Y-55650315D01*
X136494409Y-55650316D01*
X136757268Y-55710312D01*
X137025187Y-55740499D01*
X137025188Y-55740500D01*
X137025191Y-55740500D01*
X137294812Y-55740500D01*
X137294812Y-55740499D01*
X137562732Y-55710312D01*
X137825591Y-55650316D01*
X138080079Y-55561267D01*
X138322997Y-55444284D01*
X138551289Y-55300838D01*
X138762085Y-55132734D01*
X138952734Y-54942085D01*
X138978553Y-54909709D01*
X139035741Y-54869569D01*
X139105553Y-54866719D01*
X139165823Y-54902064D01*
X139197416Y-54964383D01*
X139199500Y-54987022D01*
X139199500Y-130432977D01*
X139179815Y-130500016D01*
X139127011Y-130545771D01*
X139057853Y-130555715D01*
X138994297Y-130526690D01*
X138978554Y-130510291D01*
X138952735Y-130477916D01*
X138762084Y-130287265D01*
X138708549Y-130244573D01*
X138551289Y-130119162D01*
X138322997Y-129975716D01*
X138322994Y-129975714D01*
X138080082Y-129858734D01*
X137825602Y-129769687D01*
X137825594Y-129769684D01*
X137628446Y-129724687D01*
X137562732Y-129709688D01*
X137562728Y-129709687D01*
X137562719Y-129709686D01*
X137294813Y-129679500D01*
X137294809Y-129679500D01*
X137025191Y-129679500D01*
X137025186Y-129679500D01*
X136757280Y-129709686D01*
X136757268Y-129709688D01*
X136494405Y-129769684D01*
X136494397Y-129769687D01*
X136239917Y-129858734D01*
X135997005Y-129975714D01*
X135768712Y-130119161D01*
X135557915Y-130287265D01*
X135367265Y-130477915D01*
X135199161Y-130688712D01*
X135055714Y-130917005D01*
X134938734Y-131159917D01*
X134849687Y-131414397D01*
X134849684Y-131414405D01*
X134789688Y-131677268D01*
X134789686Y-131677280D01*
X134759500Y-131945186D01*
X134759500Y-132214813D01*
X134789686Y-132482719D01*
X134789688Y-132482731D01*
X134849684Y-132745594D01*
X134849687Y-132745602D01*
X134938734Y-133000082D01*
X135055714Y-133242994D01*
X135055716Y-133242997D01*
X135199162Y-133471289D01*
X135324573Y-133628549D01*
X135367265Y-133682084D01*
X135557915Y-133872734D01*
X135590291Y-133898553D01*
X135630431Y-133955741D01*
X135633281Y-134025553D01*
X135597936Y-134085823D01*
X135535617Y-134117416D01*
X135512978Y-134119500D01*
X88007022Y-134119500D01*
X87939983Y-134099815D01*
X87894228Y-134047011D01*
X87884284Y-133977853D01*
X87913309Y-133914297D01*
X87929709Y-133898553D01*
X87930971Y-133897546D01*
X87962085Y-133872734D01*
X88152734Y-133682085D01*
X88320838Y-133471289D01*
X88464284Y-133242997D01*
X88581267Y-133000079D01*
X88670316Y-132745591D01*
X88730312Y-132482732D01*
X88760500Y-132214809D01*
X88760500Y-131945191D01*
X88730312Y-131677268D01*
X88670316Y-131414409D01*
X88581267Y-131159921D01*
X88464284Y-130917003D01*
X88320838Y-130688711D01*
X88152734Y-130477915D01*
X87962085Y-130287266D01*
X87751289Y-130119162D01*
X87522997Y-129975716D01*
X87522994Y-129975714D01*
X87280082Y-129858734D01*
X87025602Y-129769687D01*
X87025594Y-129769684D01*
X86828446Y-129724687D01*
X86762732Y-129709688D01*
X86762728Y-129709687D01*
X86762719Y-129709686D01*
X86494813Y-129679500D01*
X86494809Y-129679500D01*
X86225191Y-129679500D01*
X86225186Y-129679500D01*
X85957280Y-129709686D01*
X85957268Y-129709688D01*
X85694405Y-129769684D01*
X85694397Y-129769687D01*
X85439917Y-129858734D01*
X85197005Y-129975714D01*
X84968712Y-130119161D01*
X84757915Y-130287265D01*
X84567264Y-130477916D01*
X84541446Y-130510291D01*
X84484257Y-130550431D01*
X84414446Y-130553280D01*
X84354176Y-130517934D01*
X84322584Y-130455614D01*
X84320500Y-130432977D01*
X84320500Y-87457826D01*
X87742888Y-87457826D01*
X87742888Y-87739040D01*
X87742889Y-87739051D01*
X87778968Y-88197430D01*
X87841619Y-88592978D01*
X87850900Y-88651570D01*
X87951469Y-89070456D01*
X87958240Y-89098660D01*
X87958242Y-89098670D01*
X88100332Y-89535969D01*
X88100334Y-89535974D01*
X88276289Y-89960761D01*
X88485039Y-90370453D01*
X88485046Y-90370464D01*
X88725273Y-90762476D01*
X88725287Y-90762498D01*
X88995548Y-91134477D01*
X89294166Y-91484113D01*
X89407091Y-91597037D01*
X89407112Y-91597060D01*
X90089342Y-92279288D01*
X90122827Y-92340611D01*
X90122319Y-92388755D01*
X90123516Y-92388945D01*
X90119490Y-92414362D01*
X90089500Y-92603713D01*
X90089500Y-92816287D01*
X90122754Y-93026243D01*
X90177467Y-93194632D01*
X90188444Y-93228414D01*
X90284951Y-93417820D01*
X90409890Y-93589786D01*
X90560213Y-93740109D01*
X90732182Y-93865050D01*
X90740946Y-93869516D01*
X90791742Y-93917491D01*
X90808536Y-93985312D01*
X90785998Y-94051447D01*
X90740946Y-94090484D01*
X90732182Y-94094949D01*
X90560213Y-94219890D01*
X90409890Y-94370213D01*
X90284951Y-94542179D01*
X90188444Y-94731585D01*
X90188443Y-94731587D01*
X90188443Y-94731588D01*
X90177467Y-94765368D01*
X90122753Y-94933760D01*
X90119490Y-94954362D01*
X90089500Y-95143713D01*
X90089500Y-95356287D01*
X90122754Y-95566243D01*
X90177467Y-95734632D01*
X90188444Y-95768414D01*
X90284951Y-95957820D01*
X90409890Y-96129786D01*
X90560213Y-96280109D01*
X90732182Y-96405050D01*
X90740946Y-96409516D01*
X90791742Y-96457491D01*
X90808536Y-96525312D01*
X90785998Y-96591447D01*
X90740946Y-96630484D01*
X90732182Y-96634949D01*
X90560213Y-96759890D01*
X90409890Y-96910213D01*
X90284951Y-97082179D01*
X90188444Y-97271585D01*
X90188443Y-97271587D01*
X90188443Y-97271588D01*
X90168717Y-97332298D01*
X90122753Y-97473760D01*
X90089500Y-97683713D01*
X90089500Y-97896286D01*
X90117409Y-98072500D01*
X90122754Y-98106243D01*
X90177467Y-98274632D01*
X90188444Y-98308414D01*
X90284951Y-98497820D01*
X90409890Y-98669786D01*
X90560213Y-98820109D01*
X90732182Y-98945050D01*
X90740946Y-98949516D01*
X90791742Y-98997491D01*
X90808536Y-99065312D01*
X90785998Y-99131447D01*
X90740946Y-99170484D01*
X90732182Y-99174949D01*
X90560213Y-99299890D01*
X90409890Y-99450213D01*
X90284951Y-99622179D01*
X90188444Y-99811585D01*
X90188443Y-99811587D01*
X90188443Y-99811588D01*
X90177467Y-99845368D01*
X90122753Y-100013760D01*
X90119490Y-100034362D01*
X90089500Y-100223713D01*
X90089500Y-100436287D01*
X90122754Y-100646243D01*
X90181716Y-100827710D01*
X90188444Y-100848414D01*
X90284951Y-101037820D01*
X90409890Y-101209786D01*
X90560213Y-101360109D01*
X90732182Y-101485050D01*
X90740946Y-101489516D01*
X90791742Y-101537491D01*
X90808536Y-101605312D01*
X90785998Y-101671447D01*
X90740946Y-101710484D01*
X90732182Y-101714949D01*
X90560213Y-101839890D01*
X90409890Y-101990213D01*
X90284951Y-102162179D01*
X90188444Y-102351585D01*
X90188443Y-102351587D01*
X90188443Y-102351588D01*
X90177467Y-102385368D01*
X90122753Y-102553760D01*
X90119490Y-102574362D01*
X90089500Y-102763713D01*
X90089500Y-102976287D01*
X90122754Y-103186243D01*
X90177467Y-103354632D01*
X90188444Y-103388414D01*
X90284951Y-103577820D01*
X90409890Y-103749786D01*
X90560213Y-103900109D01*
X90732182Y-104025050D01*
X90740946Y-104029516D01*
X90791742Y-104077491D01*
X90808536Y-104145312D01*
X90785998Y-104211447D01*
X90740946Y-104250484D01*
X90732182Y-104254949D01*
X90560213Y-104379890D01*
X90409890Y-104530213D01*
X90284951Y-104702179D01*
X90188444Y-104891585D01*
X90188443Y-104891587D01*
X90188443Y-104891588D01*
X90177467Y-104925368D01*
X90122753Y-105093760D01*
X90089500Y-105303713D01*
X90089500Y-105516286D01*
X90122742Y-105726172D01*
X90122754Y-105726243D01*
X90177467Y-105894632D01*
X90188444Y-105928414D01*
X90284951Y-106117820D01*
X90409890Y-106289786D01*
X90560213Y-106440109D01*
X90732182Y-106565050D01*
X90740946Y-106569516D01*
X90791742Y-106617491D01*
X90808536Y-106685312D01*
X90785998Y-106751447D01*
X90740946Y-106790484D01*
X90732182Y-106794949D01*
X90560213Y-106919890D01*
X90409890Y-107070213D01*
X90284951Y-107242179D01*
X90188444Y-107431585D01*
X90188443Y-107431587D01*
X90188443Y-107431588D01*
X90177467Y-107465368D01*
X90122753Y-107633760D01*
X90089500Y-107843713D01*
X90089500Y-108056286D01*
X90106488Y-108163548D01*
X90122754Y-108266243D01*
X90177467Y-108434632D01*
X90188444Y-108468414D01*
X90284951Y-108657820D01*
X90409890Y-108829786D01*
X90560213Y-108980109D01*
X90732182Y-109105050D01*
X90740946Y-109109516D01*
X90791742Y-109157491D01*
X90808536Y-109225312D01*
X90785998Y-109291447D01*
X90740946Y-109330484D01*
X90732182Y-109334949D01*
X90560213Y-109459890D01*
X90409890Y-109610213D01*
X90284951Y-109782179D01*
X90188444Y-109971585D01*
X90188443Y-109971587D01*
X90188443Y-109971588D01*
X90177467Y-110005368D01*
X90122753Y-110173760D01*
X90089500Y-110383713D01*
X90089500Y-110596286D01*
X90113109Y-110745351D01*
X90122754Y-110806243D01*
X90177467Y-110974632D01*
X90188444Y-111008414D01*
X90284951Y-111197820D01*
X90409890Y-111369786D01*
X90560213Y-111520109D01*
X90732182Y-111645050D01*
X90740946Y-111649516D01*
X90791742Y-111697491D01*
X90808536Y-111765312D01*
X90785998Y-111831447D01*
X90740946Y-111870484D01*
X90732182Y-111874949D01*
X90560213Y-111999890D01*
X90409890Y-112150213D01*
X90284951Y-112322179D01*
X90188444Y-112511585D01*
X90188443Y-112511587D01*
X90188443Y-112511588D01*
X90177467Y-112545368D01*
X90122753Y-112713760D01*
X90119490Y-112734362D01*
X90089500Y-112923713D01*
X90089500Y-113136287D01*
X90122754Y-113346243D01*
X90177467Y-113514632D01*
X90188444Y-113548414D01*
X90284951Y-113737820D01*
X90409890Y-113909786D01*
X90560213Y-114060109D01*
X90732182Y-114185050D01*
X90740946Y-114189516D01*
X90791742Y-114237491D01*
X90808536Y-114305312D01*
X90785998Y-114371447D01*
X90740946Y-114410484D01*
X90732182Y-114414949D01*
X90560213Y-114539890D01*
X90409890Y-114690213D01*
X90284951Y-114862179D01*
X90188444Y-115051585D01*
X90188443Y-115051587D01*
X90188443Y-115051588D01*
X90177467Y-115085368D01*
X90122753Y-115253760D01*
X90119490Y-115274362D01*
X90089500Y-115463713D01*
X90089500Y-115676287D01*
X90122754Y-115886243D01*
X90177467Y-116054632D01*
X90188444Y-116088414D01*
X90284951Y-116277820D01*
X90409890Y-116449786D01*
X90560213Y-116600109D01*
X90732182Y-116725050D01*
X90740946Y-116729516D01*
X90791742Y-116777491D01*
X90808536Y-116845312D01*
X90785998Y-116911447D01*
X90740946Y-116950484D01*
X90732182Y-116954949D01*
X90560213Y-117079890D01*
X90409890Y-117230213D01*
X90284951Y-117402179D01*
X90188444Y-117591585D01*
X90188443Y-117591587D01*
X90188443Y-117591588D01*
X90177467Y-117625368D01*
X90122753Y-117793760D01*
X90119490Y-117814362D01*
X90089500Y-118003713D01*
X90089500Y-118216287D01*
X90122754Y-118426243D01*
X90177467Y-118594632D01*
X90188444Y-118628414D01*
X90284951Y-118817820D01*
X90409890Y-118989786D01*
X90560213Y-119140109D01*
X90732179Y-119265048D01*
X90732181Y-119265049D01*
X90732184Y-119265051D01*
X90741493Y-119269794D01*
X90792290Y-119317766D01*
X90809087Y-119385587D01*
X90786552Y-119451722D01*
X90741505Y-119490760D01*
X90732446Y-119495376D01*
X90732440Y-119495380D01*
X90678282Y-119534727D01*
X90678282Y-119534728D01*
X91310591Y-120167037D01*
X91247007Y-120184075D01*
X91132993Y-120249901D01*
X91039901Y-120342993D01*
X90974075Y-120457007D01*
X90957037Y-120520591D01*
X90324728Y-119888282D01*
X90324727Y-119888282D01*
X90285380Y-119942439D01*
X90188904Y-120131782D01*
X90123242Y-120333869D01*
X90123242Y-120333872D01*
X90090000Y-120543753D01*
X90090000Y-120756246D01*
X90123242Y-120966127D01*
X90123242Y-120966130D01*
X90188904Y-121168217D01*
X90285375Y-121357550D01*
X90324728Y-121411716D01*
X90957037Y-120779408D01*
X90974075Y-120842993D01*
X91039901Y-120957007D01*
X91132993Y-121050099D01*
X91247007Y-121115925D01*
X91310590Y-121132962D01*
X90678282Y-121765269D01*
X90678282Y-121765270D01*
X90732449Y-121804624D01*
X90921782Y-121901095D01*
X91123870Y-121966757D01*
X91333754Y-122000000D01*
X91546246Y-122000000D01*
X91756127Y-121966757D01*
X91756130Y-121966757D01*
X91958217Y-121901095D01*
X92147554Y-121804622D01*
X92201716Y-121765270D01*
X92201717Y-121765270D01*
X92179137Y-121742690D01*
X91569408Y-121132962D01*
X91632993Y-121115925D01*
X91747007Y-121050099D01*
X91840099Y-120957007D01*
X91905925Y-120842993D01*
X91922962Y-120779408D01*
X92555270Y-121411717D01*
X92555270Y-121411716D01*
X92594622Y-121357554D01*
X92691095Y-121168217D01*
X92756757Y-120966130D01*
X92756757Y-120966127D01*
X92790000Y-120756246D01*
X92790000Y-120604986D01*
X95295001Y-120604986D01*
X95305494Y-120707697D01*
X95360641Y-120874119D01*
X95360643Y-120874124D01*
X95452684Y-121023345D01*
X95576654Y-121147315D01*
X95725875Y-121239356D01*
X95725880Y-121239358D01*
X95892302Y-121294505D01*
X95892309Y-121294506D01*
X95995019Y-121304999D01*
X96269999Y-121304999D01*
X96770000Y-121304999D01*
X97044972Y-121304999D01*
X97044986Y-121304998D01*
X97147697Y-121294505D01*
X97314119Y-121239358D01*
X97314124Y-121239356D01*
X97463345Y-121147315D01*
X97587315Y-121023345D01*
X97679356Y-120874124D01*
X97679358Y-120874119D01*
X97734505Y-120707697D01*
X97734506Y-120707690D01*
X97744999Y-120604986D01*
X97745000Y-120604973D01*
X97745000Y-120467500D01*
X96770000Y-120467500D01*
X96770000Y-121304999D01*
X96269999Y-121304999D01*
X96270000Y-121304998D01*
X96270000Y-120467500D01*
X95295001Y-120467500D01*
X95295001Y-120604986D01*
X92790000Y-120604986D01*
X92790000Y-120543753D01*
X92772860Y-120435536D01*
X92756757Y-120333872D01*
X92756757Y-120333869D01*
X92691095Y-120131782D01*
X92594624Y-119942449D01*
X92555270Y-119888282D01*
X92555269Y-119888282D01*
X91922962Y-120520590D01*
X91905925Y-120457007D01*
X91840099Y-120342993D01*
X91747007Y-120249901D01*
X91632993Y-120184075D01*
X91569409Y-120167037D01*
X92201716Y-119534728D01*
X92147547Y-119495373D01*
X92147547Y-119495372D01*
X92138500Y-119490763D01*
X92087706Y-119442788D01*
X92070912Y-119374966D01*
X92093451Y-119308832D01*
X92138508Y-119269793D01*
X92147816Y-119265051D01*
X92243324Y-119195661D01*
X92319786Y-119140109D01*
X92319788Y-119140106D01*
X92319792Y-119140104D01*
X92470104Y-118989792D01*
X92470106Y-118989788D01*
X92470109Y-118989786D01*
X92597915Y-118813875D01*
X92599259Y-118814851D01*
X92645705Y-118772834D01*
X92699618Y-118760500D01*
X95267026Y-118760500D01*
X95334065Y-118780185D01*
X95372563Y-118819401D01*
X95452288Y-118948656D01*
X95576344Y-119072712D01*
X95579628Y-119074737D01*
X95579653Y-119074753D01*
X95581445Y-119076746D01*
X95582011Y-119077193D01*
X95581934Y-119077289D01*
X95626379Y-119126699D01*
X95637603Y-119195661D01*
X95609761Y-119259744D01*
X95579665Y-119285826D01*
X95576660Y-119287679D01*
X95576655Y-119287683D01*
X95452684Y-119411654D01*
X95360643Y-119560875D01*
X95360641Y-119560880D01*
X95305494Y-119727302D01*
X95305493Y-119727309D01*
X95295000Y-119830013D01*
X95295000Y-119967500D01*
X97744999Y-119967500D01*
X97744999Y-119830028D01*
X97744998Y-119830013D01*
X97734505Y-119727302D01*
X97679358Y-119560880D01*
X97679356Y-119560875D01*
X97587315Y-119411654D01*
X97463344Y-119287683D01*
X97463341Y-119287681D01*
X97460339Y-119285829D01*
X97458713Y-119284021D01*
X97457677Y-119283202D01*
X97457817Y-119283024D01*
X97413617Y-119233880D01*
X97402397Y-119164917D01*
X97430243Y-119100836D01*
X97460344Y-119074754D01*
X97463656Y-119072712D01*
X97587712Y-118948656D01*
X97667435Y-118819402D01*
X97719383Y-118772679D01*
X97772974Y-118760500D01*
X102988899Y-118760500D01*
X103055938Y-118780185D01*
X103089217Y-118811615D01*
X103177016Y-118932460D01*
X103177019Y-118932464D01*
X103317536Y-119072981D01*
X103478306Y-119189787D01*
X103635332Y-119269796D01*
X103686127Y-119317769D01*
X103702922Y-119385590D01*
X103680385Y-119451725D01*
X103635332Y-119490764D01*
X103478566Y-119570641D01*
X103441283Y-119597729D01*
X103441282Y-119597730D01*
X104087154Y-120243600D01*
X104086496Y-120243600D01*
X103983135Y-120271295D01*
X103890464Y-120324799D01*
X103814799Y-120400464D01*
X103761295Y-120493135D01*
X103733600Y-120596496D01*
X103733600Y-120597152D01*
X103087730Y-119951282D01*
X103087729Y-119951283D01*
X103060643Y-119988564D01*
X102970457Y-120165562D01*
X102909075Y-120354476D01*
X102909075Y-120354479D01*
X102878000Y-120550678D01*
X102878000Y-120749321D01*
X102909075Y-120945520D01*
X102909075Y-120945523D01*
X102970457Y-121134437D01*
X103060641Y-121311432D01*
X103087730Y-121348715D01*
X103087731Y-121348716D01*
X103733600Y-120702847D01*
X103733600Y-120703504D01*
X103761295Y-120806865D01*
X103814799Y-120899536D01*
X103890464Y-120975201D01*
X103983135Y-121028705D01*
X104086496Y-121056400D01*
X104087153Y-121056400D01*
X103441283Y-121702268D01*
X103441283Y-121702269D01*
X103478567Y-121729358D01*
X103655562Y-121819542D01*
X103844477Y-121880924D01*
X104040679Y-121912000D01*
X104239321Y-121912000D01*
X104435520Y-121880924D01*
X104435523Y-121880924D01*
X104624437Y-121819542D01*
X104801425Y-121729362D01*
X104838716Y-121702268D01*
X104192848Y-121056400D01*
X104193504Y-121056400D01*
X104296865Y-121028705D01*
X104389536Y-120975201D01*
X104465201Y-120899536D01*
X104518705Y-120806865D01*
X104546400Y-120703504D01*
X104546400Y-120702847D01*
X105192268Y-121348715D01*
X105219362Y-121311425D01*
X105309542Y-121134437D01*
X105370924Y-120945523D01*
X105370924Y-120945520D01*
X105402000Y-120749321D01*
X105402000Y-120550678D01*
X105370924Y-120354479D01*
X105370924Y-120354476D01*
X105309542Y-120165562D01*
X105219358Y-119988567D01*
X105192268Y-119951283D01*
X104546400Y-120597151D01*
X104546400Y-120596496D01*
X104518705Y-120493135D01*
X104465201Y-120400464D01*
X104389536Y-120324799D01*
X104296865Y-120271295D01*
X104193504Y-120243600D01*
X104192847Y-120243600D01*
X104838716Y-119597731D01*
X104838715Y-119597730D01*
X104801432Y-119570641D01*
X104644668Y-119490765D01*
X104593872Y-119442790D01*
X104577077Y-119374969D01*
X104599615Y-119308834D01*
X104644667Y-119269796D01*
X104801694Y-119189787D01*
X104962464Y-119072981D01*
X105102981Y-118932464D01*
X105219787Y-118771694D01*
X105310005Y-118594632D01*
X105371413Y-118405636D01*
X105402500Y-118209361D01*
X105402500Y-118010639D01*
X105371413Y-117814364D01*
X105310005Y-117625368D01*
X105310005Y-117625367D01*
X105264035Y-117535149D01*
X105219787Y-117448306D01*
X105102981Y-117287536D01*
X104962464Y-117147019D01*
X104801694Y-117030213D01*
X104645218Y-116950484D01*
X104594423Y-116902510D01*
X104577628Y-116834689D01*
X104600165Y-116768554D01*
X104645218Y-116729515D01*
X104801694Y-116649787D01*
X104962464Y-116532981D01*
X105102981Y-116392464D01*
X105219787Y-116231694D01*
X105310005Y-116054632D01*
X105371413Y-115865636D01*
X105402500Y-115669361D01*
X105402500Y-115470639D01*
X105371413Y-115274364D01*
X105310005Y-115085368D01*
X105310005Y-115085367D01*
X105264035Y-114995149D01*
X105219787Y-114908306D01*
X105102981Y-114747536D01*
X104962464Y-114607019D01*
X104801694Y-114490213D01*
X104645218Y-114410484D01*
X104594423Y-114362510D01*
X104577628Y-114294689D01*
X104600165Y-114228554D01*
X104645218Y-114189515D01*
X104801694Y-114109787D01*
X104962464Y-113992981D01*
X105102981Y-113852464D01*
X105219787Y-113691694D01*
X105310005Y-113514632D01*
X105371413Y-113325636D01*
X105402500Y-113129361D01*
X105402500Y-112930639D01*
X105371413Y-112734364D01*
X105310005Y-112545368D01*
X105310005Y-112545367D01*
X105264035Y-112455149D01*
X105219787Y-112368306D01*
X105102981Y-112207536D01*
X104962464Y-112067019D01*
X104801694Y-111950213D01*
X104645218Y-111870484D01*
X104594423Y-111822510D01*
X104577628Y-111754689D01*
X104600165Y-111688554D01*
X104645218Y-111649515D01*
X104801694Y-111569787D01*
X104962464Y-111452981D01*
X105102981Y-111312464D01*
X105219787Y-111151694D01*
X105310005Y-110974632D01*
X105371413Y-110785636D01*
X105402500Y-110589361D01*
X105402500Y-110390639D01*
X105371413Y-110194364D01*
X105310005Y-110005368D01*
X105310005Y-110005367D01*
X105264035Y-109915149D01*
X105219787Y-109828306D01*
X105102981Y-109667536D01*
X104962464Y-109527019D01*
X104801694Y-109410213D01*
X104645218Y-109330484D01*
X104594423Y-109282510D01*
X104577628Y-109214689D01*
X104600165Y-109148554D01*
X104645218Y-109109515D01*
X104801694Y-109029787D01*
X104962464Y-108912981D01*
X105102981Y-108772464D01*
X105219787Y-108611694D01*
X105310005Y-108434632D01*
X105371413Y-108245636D01*
X105402500Y-108049361D01*
X105402500Y-107850639D01*
X105371413Y-107654364D01*
X105310005Y-107465368D01*
X105310005Y-107465367D01*
X105253058Y-107353604D01*
X105219787Y-107288306D01*
X105102981Y-107127536D01*
X104962464Y-106987019D01*
X104801694Y-106870213D01*
X104645218Y-106790484D01*
X104594423Y-106742510D01*
X104577628Y-106674689D01*
X104600165Y-106608554D01*
X104645218Y-106569515D01*
X104801694Y-106489787D01*
X104962464Y-106372981D01*
X105102981Y-106232464D01*
X105219787Y-106071694D01*
X105310005Y-105894632D01*
X105371413Y-105705636D01*
X105402500Y-105509361D01*
X105402500Y-105310639D01*
X105371413Y-105114364D01*
X105310005Y-104925368D01*
X105310005Y-104925367D01*
X105264035Y-104835149D01*
X105219787Y-104748306D01*
X105102981Y-104587536D01*
X104962464Y-104447019D01*
X104801694Y-104330213D01*
X104645218Y-104250484D01*
X104594423Y-104202510D01*
X104577628Y-104134689D01*
X104600165Y-104068554D01*
X104645218Y-104029515D01*
X104801694Y-103949787D01*
X104962464Y-103832981D01*
X105102981Y-103692464D01*
X105219787Y-103531694D01*
X105310005Y-103354632D01*
X105371413Y-103165636D01*
X105402500Y-102969361D01*
X105402500Y-102770639D01*
X105371413Y-102574364D01*
X105310005Y-102385368D01*
X105310005Y-102385367D01*
X105264035Y-102295149D01*
X105219787Y-102208306D01*
X105102981Y-102047536D01*
X104962464Y-101907019D01*
X104801694Y-101790213D01*
X104645218Y-101710484D01*
X104594423Y-101662510D01*
X104577628Y-101594689D01*
X104600165Y-101528554D01*
X104645218Y-101489515D01*
X104801694Y-101409787D01*
X104962464Y-101292981D01*
X105102981Y-101152464D01*
X105219787Y-100991694D01*
X105310005Y-100814632D01*
X105371413Y-100625636D01*
X105402500Y-100429361D01*
X105402500Y-100230639D01*
X105371413Y-100034364D01*
X105310005Y-99845368D01*
X105310005Y-99845367D01*
X105264035Y-99755149D01*
X105219787Y-99668306D01*
X105102981Y-99507536D01*
X104962464Y-99367019D01*
X104801694Y-99250213D01*
X104645218Y-99170484D01*
X104594423Y-99122510D01*
X104577628Y-99054689D01*
X104600165Y-98988554D01*
X104645218Y-98949515D01*
X104801694Y-98869787D01*
X104962464Y-98752981D01*
X105102981Y-98612464D01*
X105219787Y-98451694D01*
X105310005Y-98274632D01*
X105371413Y-98085636D01*
X105402500Y-97889361D01*
X105402500Y-97690639D01*
X105371413Y-97494364D01*
X105316498Y-97325352D01*
X105310006Y-97305370D01*
X105310005Y-97305367D01*
X105242273Y-97172437D01*
X105219787Y-97128306D01*
X105102981Y-96967536D01*
X104962464Y-96827019D01*
X104801694Y-96710213D01*
X104645218Y-96630484D01*
X104594423Y-96582510D01*
X104577628Y-96514689D01*
X104600165Y-96448554D01*
X104645218Y-96409515D01*
X104801694Y-96329787D01*
X104962464Y-96212981D01*
X105102981Y-96072464D01*
X105219787Y-95911694D01*
X105310005Y-95734632D01*
X105371413Y-95545636D01*
X105402500Y-95349361D01*
X105402500Y-95150639D01*
X105371413Y-94954364D01*
X105310005Y-94765368D01*
X105310005Y-94765367D01*
X105264035Y-94675149D01*
X105219787Y-94588306D01*
X105102981Y-94427536D01*
X104962464Y-94287019D01*
X104801694Y-94170213D01*
X104645218Y-94090484D01*
X104594423Y-94042510D01*
X104577628Y-93974689D01*
X104600165Y-93908554D01*
X104645218Y-93869515D01*
X104801694Y-93789787D01*
X104962464Y-93672981D01*
X105102981Y-93532464D01*
X105219787Y-93371694D01*
X105310005Y-93194632D01*
X105371413Y-93005636D01*
X105402500Y-92809361D01*
X105402500Y-92610639D01*
X105371413Y-92414364D01*
X105327525Y-92279288D01*
X105310006Y-92225370D01*
X105310005Y-92225367D01*
X105264035Y-92135149D01*
X105219787Y-92048306D01*
X105102981Y-91887536D01*
X104962464Y-91747019D01*
X104801694Y-91630213D01*
X104645218Y-91550484D01*
X104594423Y-91502510D01*
X104577628Y-91434689D01*
X104600165Y-91368554D01*
X104645218Y-91329515D01*
X104801694Y-91249787D01*
X104962464Y-91132981D01*
X105102981Y-90992464D01*
X105219787Y-90831694D01*
X105310005Y-90654632D01*
X105371413Y-90465636D01*
X105402500Y-90269361D01*
X105402500Y-90070639D01*
X105379131Y-89923095D01*
X105388085Y-89853805D01*
X105413921Y-89816021D01*
X110671471Y-84558457D01*
X110671472Y-84558454D01*
X110676096Y-84553831D01*
X110676253Y-84553655D01*
X110780009Y-84449901D01*
X111064975Y-84121032D01*
X111325754Y-83772673D01*
X111561017Y-83406597D01*
X111769566Y-83024670D01*
X111950337Y-82628840D01*
X112102409Y-82221121D01*
X112225008Y-81803593D01*
X112317508Y-81378383D01*
X112379439Y-80947657D01*
X112410485Y-80513610D01*
X112410486Y-80296032D01*
X112410486Y-80222739D01*
X112410498Y-60949613D01*
X112430183Y-60882577D01*
X112464596Y-60848909D01*
X112463874Y-60847914D01*
X112467811Y-60845053D01*
X112467816Y-60845051D01*
X112639792Y-60720104D01*
X112790104Y-60569792D01*
X112790106Y-60569788D01*
X112790109Y-60569786D01*
X112915048Y-60397820D01*
X112915047Y-60397820D01*
X112915051Y-60397816D01*
X112919514Y-60389054D01*
X112967488Y-60338259D01*
X113035308Y-60321463D01*
X113101444Y-60343999D01*
X113140484Y-60389054D01*
X113144591Y-60397115D01*
X113144951Y-60397820D01*
X113269890Y-60569786D01*
X113420213Y-60720109D01*
X113592179Y-60845048D01*
X113592181Y-60845049D01*
X113592184Y-60845051D01*
X113781588Y-60941557D01*
X113983757Y-61007246D01*
X114193713Y-61040500D01*
X114193714Y-61040500D01*
X114406286Y-61040500D01*
X114406287Y-61040500D01*
X114616243Y-61007246D01*
X114818412Y-60941557D01*
X115007816Y-60845051D01*
X115086214Y-60788092D01*
X115179786Y-60720109D01*
X115179788Y-60720106D01*
X115179792Y-60720104D01*
X115330104Y-60569792D01*
X115330106Y-60569788D01*
X115330109Y-60569786D01*
X115455048Y-60397820D01*
X115455047Y-60397820D01*
X115455051Y-60397816D01*
X115551557Y-60208412D01*
X115617246Y-60006243D01*
X115617246Y-60006240D01*
X115618751Y-60001610D01*
X115620067Y-60002037D01*
X115651731Y-59946869D01*
X115713751Y-59914694D01*
X115783321Y-59921158D01*
X115825210Y-59948711D01*
X116818052Y-60941555D01*
X117086737Y-61210240D01*
X117147517Y-61271020D01*
X117151258Y-61274928D01*
X117255058Y-61388205D01*
X117413440Y-61561048D01*
X117420378Y-61569317D01*
X117480379Y-61647511D01*
X117654958Y-61875027D01*
X117661163Y-61883888D01*
X117868206Y-62208880D01*
X117873614Y-62218248D01*
X118051535Y-62560031D01*
X118056107Y-62569835D01*
X118203568Y-62925833D01*
X118207268Y-62935998D01*
X118323140Y-63303493D01*
X118325940Y-63313942D01*
X118409344Y-63690143D01*
X118411222Y-63700796D01*
X118461519Y-64082822D01*
X118462462Y-64093599D01*
X118479378Y-64480994D01*
X118479496Y-64486403D01*
X118479498Y-71453692D01*
X118459813Y-71520731D01*
X118443182Y-71541370D01*
X118417022Y-71567531D01*
X118417015Y-71567539D01*
X118300215Y-71728302D01*
X118209994Y-71905367D01*
X118209993Y-71905370D01*
X118148587Y-72094362D01*
X118117500Y-72290639D01*
X118117500Y-72327638D01*
X118097815Y-72394677D01*
X118081181Y-72415319D01*
X117509584Y-72986916D01*
X117509517Y-72986952D01*
X117327746Y-73168725D01*
X117327734Y-73168738D01*
X117060524Y-73481601D01*
X117060503Y-73481628D01*
X116818656Y-73814504D01*
X116818646Y-73814518D01*
X116603634Y-74165388D01*
X116603628Y-74165399D01*
X116416837Y-74532002D01*
X116416827Y-74532023D01*
X116259358Y-74912194D01*
X116259355Y-74912200D01*
X116132209Y-75303525D01*
X116132199Y-75303562D01*
X116036146Y-75703661D01*
X116001573Y-75921966D01*
X115975039Y-76089514D01*
X115971778Y-76110102D01*
X115971778Y-76110105D01*
X115939498Y-76520308D01*
X115939498Y-76520316D01*
X115939500Y-76692861D01*
X115939500Y-90825260D01*
X115939499Y-90825266D01*
X115939499Y-90844846D01*
X115939499Y-90862579D01*
X115939479Y-90862647D01*
X115939482Y-91119695D01*
X115939483Y-91119706D01*
X115971771Y-91529916D01*
X115971772Y-91529928D01*
X116036145Y-91936342D01*
X116036146Y-91936345D01*
X116131277Y-92332578D01*
X116132209Y-92336457D01*
X116132211Y-92336467D01*
X116259371Y-92727819D01*
X116259373Y-92727824D01*
X116416840Y-93107975D01*
X116603650Y-93474607D01*
X116603661Y-93474626D01*
X116725212Y-93672978D01*
X116818659Y-93825467D01*
X116818670Y-93825483D01*
X116818672Y-93825485D01*
X117060520Y-94158360D01*
X117060530Y-94158374D01*
X117241455Y-94370208D01*
X117327767Y-94471266D01*
X117327774Y-94471273D01*
X117403465Y-94546964D01*
X117403468Y-94546968D01*
X118081181Y-95224681D01*
X118114666Y-95286004D01*
X118117500Y-95312362D01*
X118117500Y-95349360D01*
X118148587Y-95545637D01*
X118209993Y-95734629D01*
X118209994Y-95734632D01*
X118294509Y-95900500D01*
X118300213Y-95911694D01*
X118417019Y-96072464D01*
X118557536Y-96212981D01*
X118718306Y-96329787D01*
X118836832Y-96390179D01*
X118874780Y-96409515D01*
X118925576Y-96457490D01*
X118942371Y-96525311D01*
X118919833Y-96591446D01*
X118874780Y-96630485D01*
X118718305Y-96710213D01*
X118557533Y-96827021D01*
X118417021Y-96967533D01*
X118300213Y-97128305D01*
X118209994Y-97305367D01*
X118209993Y-97305370D01*
X118148587Y-97494362D01*
X118117500Y-97690639D01*
X118117500Y-97889360D01*
X118148587Y-98085637D01*
X118209993Y-98274629D01*
X118209994Y-98274632D01*
X118294509Y-98440500D01*
X118300213Y-98451694D01*
X118417019Y-98612464D01*
X118557536Y-98752981D01*
X118718306Y-98869787D01*
X118803699Y-98913297D01*
X118874780Y-98949515D01*
X118925576Y-98997490D01*
X118942371Y-99065311D01*
X118919833Y-99131446D01*
X118874780Y-99170485D01*
X118718305Y-99250213D01*
X118557533Y-99367021D01*
X118417021Y-99507533D01*
X118300213Y-99668305D01*
X118209994Y-99845367D01*
X118209993Y-99845370D01*
X118148587Y-100034362D01*
X118117500Y-100230639D01*
X118117500Y-100429360D01*
X118148587Y-100625637D01*
X118209993Y-100814629D01*
X118209994Y-100814632D01*
X118287873Y-100967475D01*
X118300213Y-100991694D01*
X118417019Y-101152464D01*
X118557536Y-101292981D01*
X118718306Y-101409787D01*
X118836832Y-101470179D01*
X118874780Y-101489515D01*
X118925576Y-101537490D01*
X118942371Y-101605311D01*
X118919833Y-101671446D01*
X118874780Y-101710485D01*
X118718305Y-101790213D01*
X118557533Y-101907021D01*
X118417021Y-102047533D01*
X118300213Y-102208305D01*
X118209994Y-102385367D01*
X118209993Y-102385370D01*
X118148587Y-102574362D01*
X118117500Y-102770639D01*
X118117500Y-102969360D01*
X118148587Y-103165637D01*
X118209993Y-103354629D01*
X118209994Y-103354632D01*
X118294509Y-103520500D01*
X118300213Y-103531694D01*
X118417019Y-103692464D01*
X118557536Y-103832981D01*
X118718306Y-103949787D01*
X118836832Y-104010179D01*
X118874780Y-104029515D01*
X118925576Y-104077490D01*
X118942371Y-104145311D01*
X118919833Y-104211446D01*
X118874780Y-104250485D01*
X118718305Y-104330213D01*
X118557533Y-104447021D01*
X118417021Y-104587533D01*
X118300213Y-104748305D01*
X118209994Y-104925367D01*
X118209993Y-104925370D01*
X118148587Y-105114362D01*
X118117500Y-105310639D01*
X118117500Y-105509360D01*
X118148587Y-105705637D01*
X118209993Y-105894629D01*
X118209994Y-105894632D01*
X118294509Y-106060500D01*
X118300213Y-106071694D01*
X118417019Y-106232464D01*
X118557536Y-106372981D01*
X118718306Y-106489787D01*
X118836832Y-106550179D01*
X118874780Y-106569515D01*
X118925576Y-106617490D01*
X118942371Y-106685311D01*
X118919833Y-106751446D01*
X118874780Y-106790485D01*
X118718305Y-106870213D01*
X118557533Y-106987021D01*
X118417021Y-107127533D01*
X118300213Y-107288305D01*
X118209994Y-107465367D01*
X118209993Y-107465370D01*
X118148587Y-107654362D01*
X118117500Y-107850639D01*
X118117500Y-108049360D01*
X118148587Y-108245637D01*
X118209993Y-108434629D01*
X118209994Y-108434632D01*
X118294509Y-108600500D01*
X118300213Y-108611694D01*
X118417019Y-108772464D01*
X118557536Y-108912981D01*
X118718306Y-109029787D01*
X118836832Y-109090179D01*
X118874780Y-109109515D01*
X118925576Y-109157490D01*
X118942371Y-109225311D01*
X118919833Y-109291446D01*
X118874780Y-109330485D01*
X118718305Y-109410213D01*
X118557533Y-109527021D01*
X118417021Y-109667533D01*
X118300213Y-109828305D01*
X118209994Y-110005367D01*
X118209993Y-110005370D01*
X118148587Y-110194362D01*
X118117500Y-110390639D01*
X118117500Y-110589360D01*
X118148587Y-110785637D01*
X118209993Y-110974629D01*
X118209994Y-110974632D01*
X118263670Y-111079975D01*
X118300213Y-111151694D01*
X118417019Y-111312464D01*
X118557536Y-111452981D01*
X118718306Y-111569787D01*
X118836832Y-111630179D01*
X118874780Y-111649515D01*
X118925576Y-111697490D01*
X118942371Y-111765311D01*
X118919833Y-111831446D01*
X118874780Y-111870485D01*
X118718305Y-111950213D01*
X118557533Y-112067021D01*
X118417021Y-112207533D01*
X118300213Y-112368305D01*
X118209994Y-112545367D01*
X118209993Y-112545370D01*
X118148587Y-112734362D01*
X118117500Y-112930639D01*
X118117500Y-113129360D01*
X118148587Y-113325637D01*
X118209993Y-113514629D01*
X118209994Y-113514632D01*
X118294509Y-113680500D01*
X118300213Y-113691694D01*
X118417019Y-113852464D01*
X118557536Y-113992981D01*
X118718306Y-114109787D01*
X118836832Y-114170179D01*
X118874780Y-114189515D01*
X118925576Y-114237490D01*
X118942371Y-114305311D01*
X118919833Y-114371446D01*
X118874780Y-114410485D01*
X118718305Y-114490213D01*
X118557533Y-114607021D01*
X118417021Y-114747533D01*
X118300213Y-114908305D01*
X118209994Y-115085367D01*
X118209993Y-115085370D01*
X118148587Y-115274362D01*
X118117500Y-115470639D01*
X118117500Y-115669360D01*
X118148587Y-115865637D01*
X118209993Y-116054629D01*
X118209994Y-116054632D01*
X118294509Y-116220500D01*
X118300213Y-116231694D01*
X118417019Y-116392464D01*
X118557536Y-116532981D01*
X118718306Y-116649787D01*
X118836832Y-116710179D01*
X118874780Y-116729515D01*
X118925576Y-116777490D01*
X118942371Y-116845311D01*
X118919833Y-116911446D01*
X118874780Y-116950485D01*
X118718305Y-117030213D01*
X118557533Y-117147021D01*
X118417021Y-117287533D01*
X118300213Y-117448305D01*
X118209994Y-117625367D01*
X118209993Y-117625370D01*
X118148587Y-117814362D01*
X118117500Y-118010639D01*
X118117500Y-118209360D01*
X118148587Y-118405637D01*
X118209993Y-118594629D01*
X118209994Y-118594632D01*
X118294509Y-118760500D01*
X118300213Y-118771694D01*
X118417019Y-118932464D01*
X118557536Y-119072981D01*
X118718306Y-119189787D01*
X118804843Y-119233880D01*
X118874780Y-119269515D01*
X118925576Y-119317490D01*
X118942371Y-119385311D01*
X118919833Y-119451446D01*
X118874780Y-119490485D01*
X118718305Y-119570213D01*
X118557533Y-119687021D01*
X118417021Y-119827533D01*
X118300213Y-119988305D01*
X118209994Y-120165367D01*
X118209993Y-120165370D01*
X118148587Y-120354362D01*
X118132330Y-120457007D01*
X118117500Y-120550639D01*
X118117500Y-120749361D01*
X118118597Y-120756286D01*
X118148587Y-120945637D01*
X118209993Y-121134629D01*
X118209994Y-121134632D01*
X118291455Y-121294505D01*
X118300213Y-121311694D01*
X118417019Y-121472464D01*
X118557536Y-121612981D01*
X118718306Y-121729787D01*
X118787943Y-121765269D01*
X118895367Y-121820005D01*
X118895370Y-121820006D01*
X118989866Y-121850709D01*
X119084364Y-121881413D01*
X119280639Y-121912500D01*
X119280640Y-121912500D01*
X119479360Y-121912500D01*
X119479361Y-121912500D01*
X119675636Y-121881413D01*
X119864632Y-121820005D01*
X120041694Y-121729787D01*
X120202464Y-121612981D01*
X120342981Y-121472464D01*
X120426275Y-121357820D01*
X120430783Y-121351615D01*
X120486113Y-121308949D01*
X120531101Y-121300500D01*
X130820382Y-121300500D01*
X130887421Y-121320185D01*
X130921099Y-121354591D01*
X130922085Y-121353875D01*
X131049890Y-121529786D01*
X131200213Y-121680109D01*
X131372179Y-121805048D01*
X131372181Y-121805049D01*
X131372184Y-121805051D01*
X131561588Y-121901557D01*
X131763757Y-121967246D01*
X131973713Y-122000500D01*
X131973714Y-122000500D01*
X132186286Y-122000500D01*
X132186287Y-122000500D01*
X132396243Y-121967246D01*
X132598412Y-121901557D01*
X132787816Y-121805051D01*
X132842572Y-121765269D01*
X132959786Y-121680109D01*
X132959788Y-121680106D01*
X132959792Y-121680104D01*
X133110104Y-121529792D01*
X133110106Y-121529788D01*
X133110109Y-121529786D01*
X133235048Y-121357820D01*
X133235047Y-121357820D01*
X133235051Y-121357816D01*
X133331557Y-121168412D01*
X133397246Y-120966243D01*
X133430500Y-120756287D01*
X133430500Y-120543713D01*
X133397246Y-120333757D01*
X133331557Y-120131588D01*
X133235051Y-119942184D01*
X133235049Y-119942181D01*
X133235048Y-119942179D01*
X133110109Y-119770213D01*
X132959786Y-119619890D01*
X132787820Y-119494951D01*
X132779600Y-119490763D01*
X132779054Y-119490485D01*
X132728259Y-119442512D01*
X132711463Y-119374692D01*
X132733999Y-119308556D01*
X132779054Y-119269515D01*
X132787816Y-119265051D01*
X132883324Y-119195661D01*
X132959786Y-119140109D01*
X132959788Y-119140106D01*
X132959792Y-119140104D01*
X133110104Y-118989792D01*
X133110106Y-118989788D01*
X133110109Y-118989786D01*
X133235048Y-118817820D01*
X133235047Y-118817820D01*
X133235051Y-118817816D01*
X133331557Y-118628412D01*
X133397246Y-118426243D01*
X133430500Y-118216287D01*
X133430500Y-118003713D01*
X133397246Y-117793757D01*
X133331557Y-117591588D01*
X133235051Y-117402184D01*
X133235049Y-117402181D01*
X133235048Y-117402179D01*
X133110109Y-117230213D01*
X132959786Y-117079890D01*
X132787820Y-116954951D01*
X132787115Y-116954591D01*
X132779054Y-116950485D01*
X132728259Y-116902512D01*
X132711463Y-116834692D01*
X132733999Y-116768556D01*
X132779054Y-116729515D01*
X132787816Y-116725051D01*
X132809789Y-116709086D01*
X132959786Y-116600109D01*
X132959788Y-116600106D01*
X132959792Y-116600104D01*
X133110104Y-116449792D01*
X133110106Y-116449788D01*
X133110109Y-116449786D01*
X133235048Y-116277820D01*
X133235047Y-116277820D01*
X133235051Y-116277816D01*
X133331557Y-116088412D01*
X133397246Y-115886243D01*
X133430500Y-115676287D01*
X133430500Y-115463713D01*
X133397246Y-115253757D01*
X133331557Y-115051588D01*
X133235051Y-114862184D01*
X133235049Y-114862181D01*
X133235048Y-114862179D01*
X133110109Y-114690213D01*
X132959786Y-114539890D01*
X132787820Y-114414951D01*
X132787115Y-114414591D01*
X132779054Y-114410485D01*
X132728259Y-114362512D01*
X132711463Y-114294692D01*
X132733999Y-114228556D01*
X132779054Y-114189515D01*
X132787816Y-114185051D01*
X132891409Y-114109787D01*
X132959786Y-114060109D01*
X132959788Y-114060106D01*
X132959792Y-114060104D01*
X133110104Y-113909792D01*
X133110106Y-113909788D01*
X133110109Y-113909786D01*
X133235048Y-113737820D01*
X133235047Y-113737820D01*
X133235051Y-113737816D01*
X133331557Y-113548412D01*
X133397246Y-113346243D01*
X133430500Y-113136287D01*
X133430500Y-112923713D01*
X133397246Y-112713757D01*
X133331557Y-112511588D01*
X133235051Y-112322184D01*
X133235049Y-112322181D01*
X133235048Y-112322179D01*
X133110109Y-112150213D01*
X132959786Y-111999890D01*
X132787820Y-111874951D01*
X132787115Y-111874591D01*
X132779054Y-111870485D01*
X132728259Y-111822512D01*
X132711463Y-111754692D01*
X132733999Y-111688556D01*
X132779054Y-111649515D01*
X132787816Y-111645051D01*
X132891409Y-111569787D01*
X132959786Y-111520109D01*
X132959788Y-111520106D01*
X132959792Y-111520104D01*
X133110104Y-111369792D01*
X133110106Y-111369788D01*
X133110109Y-111369786D01*
X133235048Y-111197820D01*
X133235047Y-111197820D01*
X133235051Y-111197816D01*
X133331557Y-111008412D01*
X133397246Y-110806243D01*
X133430500Y-110596287D01*
X133430500Y-110383713D01*
X133397246Y-110173757D01*
X133331557Y-109971588D01*
X133235051Y-109782184D01*
X133235049Y-109782181D01*
X133235048Y-109782179D01*
X133110109Y-109610213D01*
X132959786Y-109459890D01*
X132787820Y-109334951D01*
X132787115Y-109334591D01*
X132779054Y-109330485D01*
X132728259Y-109282512D01*
X132711463Y-109214692D01*
X132733999Y-109148556D01*
X132779054Y-109109515D01*
X132787816Y-109105051D01*
X132891409Y-109029787D01*
X132959786Y-108980109D01*
X132959788Y-108980106D01*
X132959792Y-108980104D01*
X133110104Y-108829792D01*
X133110106Y-108829788D01*
X133110109Y-108829786D01*
X133235048Y-108657820D01*
X133235047Y-108657820D01*
X133235051Y-108657816D01*
X133331557Y-108468412D01*
X133397246Y-108266243D01*
X133430500Y-108056287D01*
X133430500Y-107843713D01*
X133397246Y-107633757D01*
X133331557Y-107431588D01*
X133235051Y-107242184D01*
X133235049Y-107242181D01*
X133235048Y-107242179D01*
X133110109Y-107070213D01*
X132959786Y-106919890D01*
X132787820Y-106794951D01*
X132787115Y-106794591D01*
X132779054Y-106790485D01*
X132728259Y-106742512D01*
X132711463Y-106674692D01*
X132733999Y-106608556D01*
X132779054Y-106569515D01*
X132787816Y-106565051D01*
X132891409Y-106489787D01*
X132959786Y-106440109D01*
X132959788Y-106440106D01*
X132959792Y-106440104D01*
X133110104Y-106289792D01*
X133110106Y-106289788D01*
X133110109Y-106289786D01*
X133235048Y-106117820D01*
X133235047Y-106117820D01*
X133235051Y-106117816D01*
X133331557Y-105928412D01*
X133397246Y-105726243D01*
X133430500Y-105516287D01*
X133430500Y-105303713D01*
X133397246Y-105093757D01*
X133331557Y-104891588D01*
X133235051Y-104702184D01*
X133235049Y-104702181D01*
X133235048Y-104702179D01*
X133110109Y-104530213D01*
X132959786Y-104379890D01*
X132787820Y-104254951D01*
X132787115Y-104254591D01*
X132779054Y-104250485D01*
X132728259Y-104202512D01*
X132711463Y-104134692D01*
X132733999Y-104068556D01*
X132779054Y-104029515D01*
X132787816Y-104025051D01*
X132891409Y-103949787D01*
X132959786Y-103900109D01*
X132959788Y-103900106D01*
X132959792Y-103900104D01*
X133110104Y-103749792D01*
X133110106Y-103749788D01*
X133110109Y-103749786D01*
X133235048Y-103577820D01*
X133235047Y-103577820D01*
X133235051Y-103577816D01*
X133331557Y-103388412D01*
X133397246Y-103186243D01*
X133430500Y-102976287D01*
X133430500Y-102763713D01*
X133397246Y-102553757D01*
X133331557Y-102351588D01*
X133235051Y-102162184D01*
X133235049Y-102162181D01*
X133235048Y-102162179D01*
X133110109Y-101990213D01*
X132959786Y-101839890D01*
X132787820Y-101714951D01*
X132787115Y-101714591D01*
X132779054Y-101710485D01*
X132728259Y-101662512D01*
X132711463Y-101594692D01*
X132733999Y-101528556D01*
X132779054Y-101489515D01*
X132787816Y-101485051D01*
X132891409Y-101409787D01*
X132959786Y-101360109D01*
X132959788Y-101360106D01*
X132959792Y-101360104D01*
X133110104Y-101209792D01*
X133110106Y-101209788D01*
X133110109Y-101209786D01*
X133235048Y-101037820D01*
X133235047Y-101037820D01*
X133235051Y-101037816D01*
X133331557Y-100848412D01*
X133397246Y-100646243D01*
X133430500Y-100436287D01*
X133430500Y-100223713D01*
X133397246Y-100013757D01*
X133331557Y-99811588D01*
X133235051Y-99622184D01*
X133235049Y-99622181D01*
X133235048Y-99622179D01*
X133110109Y-99450213D01*
X132959786Y-99299890D01*
X132787820Y-99174951D01*
X132787115Y-99174591D01*
X132779054Y-99170485D01*
X132728259Y-99122512D01*
X132711463Y-99054692D01*
X132733999Y-98988556D01*
X132779054Y-98949515D01*
X132787816Y-98945051D01*
X132891409Y-98869787D01*
X132959786Y-98820109D01*
X132959788Y-98820106D01*
X132959792Y-98820104D01*
X133110104Y-98669792D01*
X133110106Y-98669788D01*
X133110109Y-98669786D01*
X133235048Y-98497820D01*
X133235047Y-98497820D01*
X133235051Y-98497816D01*
X133331557Y-98308412D01*
X133397246Y-98106243D01*
X133430500Y-97896287D01*
X133430500Y-97683713D01*
X133397246Y-97473757D01*
X133331557Y-97271588D01*
X133235051Y-97082184D01*
X133235049Y-97082181D01*
X133235048Y-97082179D01*
X133110109Y-96910213D01*
X132959786Y-96759890D01*
X132787820Y-96634951D01*
X132787115Y-96634591D01*
X132779054Y-96630485D01*
X132728259Y-96582512D01*
X132711463Y-96514692D01*
X132733999Y-96448556D01*
X132779054Y-96409515D01*
X132787816Y-96405051D01*
X132891409Y-96329787D01*
X132959786Y-96280109D01*
X132959788Y-96280106D01*
X132959792Y-96280104D01*
X133110104Y-96129792D01*
X133110106Y-96129788D01*
X133110109Y-96129786D01*
X133235048Y-95957820D01*
X133235047Y-95957820D01*
X133235051Y-95957816D01*
X133331557Y-95768412D01*
X133397246Y-95566243D01*
X133430500Y-95356287D01*
X133430500Y-95143713D01*
X133397246Y-94933757D01*
X133331557Y-94731588D01*
X133235051Y-94542184D01*
X133235049Y-94542181D01*
X133235048Y-94542179D01*
X133110109Y-94370213D01*
X132959786Y-94219890D01*
X132787820Y-94094951D01*
X132787115Y-94094591D01*
X132779054Y-94090485D01*
X132728259Y-94042512D01*
X132711463Y-93974692D01*
X132733999Y-93908556D01*
X132779054Y-93869515D01*
X132787816Y-93865051D01*
X132809789Y-93849086D01*
X132959786Y-93740109D01*
X132959788Y-93740106D01*
X132959792Y-93740104D01*
X133110104Y-93589792D01*
X133110106Y-93589788D01*
X133110109Y-93589786D01*
X133235048Y-93417820D01*
X133235047Y-93417820D01*
X133235051Y-93417816D01*
X133331557Y-93228412D01*
X133397246Y-93026243D01*
X133430500Y-92816287D01*
X133430500Y-92603713D01*
X133397246Y-92393757D01*
X133331557Y-92191588D01*
X133235051Y-92002184D01*
X133235049Y-92002181D01*
X133235048Y-92002179D01*
X133110109Y-91830213D01*
X132959786Y-91679890D01*
X132787820Y-91554951D01*
X132787115Y-91554591D01*
X132779054Y-91550485D01*
X132728259Y-91502512D01*
X132711463Y-91434692D01*
X132733999Y-91368556D01*
X132779054Y-91329515D01*
X132787816Y-91325051D01*
X132846680Y-91282284D01*
X132959786Y-91200109D01*
X132959788Y-91200106D01*
X132959792Y-91200104D01*
X133110104Y-91049792D01*
X133110106Y-91049788D01*
X133110109Y-91049786D01*
X133235048Y-90877820D01*
X133235047Y-90877820D01*
X133235051Y-90877816D01*
X133331557Y-90688412D01*
X133397246Y-90486243D01*
X133430500Y-90276287D01*
X133430500Y-90063713D01*
X133397246Y-89853757D01*
X133331557Y-89651588D01*
X133235051Y-89462184D01*
X133235049Y-89462181D01*
X133235048Y-89462179D01*
X133110109Y-89290213D01*
X132959786Y-89139890D01*
X132787820Y-89014951D01*
X132787115Y-89014591D01*
X132779054Y-89010485D01*
X132728259Y-88962512D01*
X132711463Y-88894692D01*
X132733999Y-88828556D01*
X132779054Y-88789515D01*
X132787816Y-88785051D01*
X132891409Y-88709787D01*
X132959786Y-88660109D01*
X132959788Y-88660106D01*
X132959792Y-88660104D01*
X133110104Y-88509792D01*
X133110106Y-88509788D01*
X133110109Y-88509786D01*
X133235048Y-88337820D01*
X133235047Y-88337820D01*
X133235051Y-88337816D01*
X133331557Y-88148412D01*
X133397246Y-87946243D01*
X133430500Y-87736287D01*
X133430500Y-87523713D01*
X133397246Y-87313757D01*
X133331557Y-87111588D01*
X133235051Y-86922184D01*
X133235049Y-86922181D01*
X133235048Y-86922179D01*
X133110109Y-86750213D01*
X132959786Y-86599890D01*
X132787820Y-86474951D01*
X132787115Y-86474591D01*
X132779054Y-86470485D01*
X132728259Y-86422512D01*
X132711463Y-86354692D01*
X132733999Y-86288556D01*
X132779054Y-86249515D01*
X132787816Y-86245051D01*
X132891409Y-86169787D01*
X132959786Y-86120109D01*
X132959788Y-86120106D01*
X132959792Y-86120104D01*
X133110104Y-85969792D01*
X133110106Y-85969788D01*
X133110109Y-85969786D01*
X133235048Y-85797820D01*
X133235047Y-85797820D01*
X133235051Y-85797816D01*
X133331557Y-85608412D01*
X133397246Y-85406243D01*
X133430500Y-85196287D01*
X133430500Y-84983713D01*
X133397246Y-84773757D01*
X133331557Y-84571588D01*
X133235051Y-84382184D01*
X133235049Y-84382181D01*
X133235048Y-84382179D01*
X133110109Y-84210213D01*
X132959786Y-84059890D01*
X132787820Y-83934951D01*
X132787115Y-83934591D01*
X132779054Y-83930485D01*
X132728259Y-83882512D01*
X132711463Y-83814692D01*
X132733999Y-83748556D01*
X132779054Y-83709515D01*
X132787816Y-83705051D01*
X132891409Y-83629787D01*
X132959786Y-83580109D01*
X132959788Y-83580106D01*
X132959792Y-83580104D01*
X133110104Y-83429792D01*
X133110106Y-83429788D01*
X133110109Y-83429786D01*
X133235048Y-83257820D01*
X133235047Y-83257820D01*
X133235051Y-83257816D01*
X133331557Y-83068412D01*
X133397246Y-82866243D01*
X133430500Y-82656287D01*
X133430500Y-82443713D01*
X133397246Y-82233757D01*
X133331557Y-82031588D01*
X133235051Y-81842184D01*
X133235049Y-81842181D01*
X133235048Y-81842179D01*
X133110109Y-81670213D01*
X132959786Y-81519890D01*
X132787820Y-81394951D01*
X132787115Y-81394591D01*
X132779054Y-81390485D01*
X132728259Y-81342512D01*
X132711463Y-81274692D01*
X132733999Y-81208556D01*
X132779054Y-81169515D01*
X132787816Y-81165051D01*
X132891409Y-81089787D01*
X132959786Y-81040109D01*
X132959788Y-81040106D01*
X132959792Y-81040104D01*
X133110104Y-80889792D01*
X133110106Y-80889788D01*
X133110109Y-80889786D01*
X133235048Y-80717820D01*
X133235047Y-80717820D01*
X133235051Y-80717816D01*
X133331557Y-80528412D01*
X133397246Y-80326243D01*
X133430500Y-80116287D01*
X133430500Y-79903713D01*
X133397246Y-79693757D01*
X133331557Y-79491588D01*
X133235051Y-79302184D01*
X133235049Y-79302181D01*
X133235048Y-79302179D01*
X133110109Y-79130213D01*
X132959786Y-78979890D01*
X132787820Y-78854951D01*
X132787115Y-78854591D01*
X132779054Y-78850485D01*
X132728259Y-78802512D01*
X132711463Y-78734692D01*
X132733999Y-78668556D01*
X132779054Y-78629515D01*
X132787816Y-78625051D01*
X132891409Y-78549787D01*
X132959786Y-78500109D01*
X132959788Y-78500106D01*
X132959792Y-78500104D01*
X133110104Y-78349792D01*
X133110106Y-78349788D01*
X133110109Y-78349786D01*
X133235048Y-78177820D01*
X133235047Y-78177820D01*
X133235051Y-78177816D01*
X133331557Y-77988412D01*
X133397246Y-77786243D01*
X133430500Y-77576287D01*
X133430500Y-77363713D01*
X133397246Y-77153757D01*
X133331557Y-76951588D01*
X133235051Y-76762184D01*
X133235049Y-76762181D01*
X133235048Y-76762179D01*
X133110109Y-76590213D01*
X132959786Y-76439890D01*
X132787820Y-76314951D01*
X132787115Y-76314591D01*
X132779054Y-76310485D01*
X132728259Y-76262512D01*
X132711463Y-76194692D01*
X132733999Y-76128556D01*
X132779054Y-76089515D01*
X132787816Y-76085051D01*
X132809789Y-76069086D01*
X132959786Y-75960109D01*
X132959788Y-75960106D01*
X132959792Y-75960104D01*
X133110104Y-75809792D01*
X133110106Y-75809788D01*
X133110109Y-75809786D01*
X133235048Y-75637820D01*
X133235047Y-75637820D01*
X133235051Y-75637816D01*
X133331557Y-75448412D01*
X133397246Y-75246243D01*
X133430500Y-75036287D01*
X133430500Y-74823713D01*
X133397246Y-74613757D01*
X133331557Y-74411588D01*
X133235051Y-74222184D01*
X133235049Y-74222181D01*
X133235048Y-74222179D01*
X133110109Y-74050213D01*
X132959786Y-73899890D01*
X132787820Y-73774951D01*
X132782397Y-73772188D01*
X132779054Y-73770485D01*
X132728259Y-73722512D01*
X132711463Y-73654692D01*
X132733999Y-73588556D01*
X132779054Y-73549515D01*
X132787816Y-73545051D01*
X132809789Y-73529086D01*
X132959786Y-73420109D01*
X132959788Y-73420106D01*
X132959792Y-73420104D01*
X133110104Y-73269792D01*
X133110106Y-73269788D01*
X133110109Y-73269786D01*
X133235048Y-73097820D01*
X133235047Y-73097820D01*
X133235051Y-73097816D01*
X133331557Y-72908412D01*
X133397246Y-72706243D01*
X133430500Y-72496287D01*
X133430500Y-72283713D01*
X133397246Y-72073757D01*
X133331557Y-71871588D01*
X133235051Y-71682184D01*
X133235049Y-71682181D01*
X133235048Y-71682179D01*
X133110109Y-71510213D01*
X133016819Y-71416923D01*
X132983334Y-71355600D01*
X132980500Y-71329242D01*
X132980500Y-60481867D01*
X133000185Y-60414828D01*
X133019386Y-60393656D01*
X133018549Y-60392819D01*
X133073109Y-60338259D01*
X133147712Y-60263656D01*
X133239814Y-60114334D01*
X133294999Y-59947797D01*
X133305500Y-59845009D01*
X133305499Y-59069992D01*
X133294999Y-58967203D01*
X133239814Y-58800666D01*
X133147712Y-58651344D01*
X133023656Y-58527288D01*
X133020342Y-58525243D01*
X133018546Y-58523248D01*
X133017989Y-58522807D01*
X133018064Y-58522711D01*
X132973618Y-58473297D01*
X132962397Y-58404334D01*
X132990240Y-58340252D01*
X133020348Y-58314165D01*
X133023342Y-58312318D01*
X133147315Y-58188345D01*
X133239356Y-58039124D01*
X133239358Y-58039119D01*
X133294505Y-57872697D01*
X133294506Y-57872690D01*
X133304999Y-57769986D01*
X133305000Y-57769973D01*
X133305000Y-57632500D01*
X132204000Y-57632500D01*
X132136961Y-57612815D01*
X132091206Y-57560011D01*
X132080000Y-57508500D01*
X132080000Y-57382500D01*
X131954000Y-57382500D01*
X131886961Y-57362815D01*
X131841206Y-57310011D01*
X131830000Y-57258500D01*
X131830000Y-57132500D01*
X132330000Y-57132500D01*
X133304999Y-57132500D01*
X133304999Y-56995028D01*
X133304998Y-56995013D01*
X133294505Y-56892302D01*
X133239358Y-56725880D01*
X133239356Y-56725875D01*
X133147315Y-56576654D01*
X133023345Y-56452684D01*
X132874124Y-56360643D01*
X132874119Y-56360641D01*
X132707697Y-56305494D01*
X132707690Y-56305493D01*
X132604986Y-56295000D01*
X132330000Y-56295000D01*
X132330000Y-57132500D01*
X131830000Y-57132500D01*
X131830000Y-56295000D01*
X131555029Y-56295000D01*
X131555012Y-56295001D01*
X131452302Y-56305494D01*
X131285880Y-56360641D01*
X131285875Y-56360643D01*
X131136654Y-56452684D01*
X131012684Y-56576654D01*
X130920643Y-56725875D01*
X130920641Y-56725880D01*
X130911327Y-56753990D01*
X130871554Y-56811435D01*
X130807038Y-56838258D01*
X130738263Y-56825943D01*
X130687063Y-56778400D01*
X130675915Y-56753990D01*
X130674814Y-56750666D01*
X130582712Y-56601344D01*
X130458656Y-56477288D01*
X130365888Y-56420069D01*
X130309336Y-56385187D01*
X130309331Y-56385185D01*
X130307862Y-56384698D01*
X130142797Y-56330001D01*
X130142795Y-56330000D01*
X130040010Y-56319500D01*
X129039998Y-56319500D01*
X129039980Y-56319501D01*
X128937203Y-56330000D01*
X128937200Y-56330001D01*
X128770668Y-56385185D01*
X128770663Y-56385187D01*
X128686584Y-56437047D01*
X128623368Y-56476039D01*
X128558273Y-56494500D01*
X127981727Y-56494500D01*
X127916631Y-56476039D01*
X127808750Y-56409498D01*
X127769336Y-56385187D01*
X127769331Y-56385185D01*
X127767862Y-56384698D01*
X127602797Y-56330001D01*
X127602795Y-56330000D01*
X127500010Y-56319500D01*
X126499998Y-56319500D01*
X126499980Y-56319501D01*
X126397203Y-56330000D01*
X126397200Y-56330001D01*
X126230668Y-56385185D01*
X126230663Y-56385187D01*
X126081342Y-56477289D01*
X125957289Y-56601342D01*
X125865187Y-56750663D01*
X125865185Y-56750668D01*
X125847706Y-56803418D01*
X125807933Y-56860863D01*
X125743417Y-56887686D01*
X125674641Y-56875371D01*
X125623442Y-56827828D01*
X125612294Y-56803418D01*
X125604004Y-56778400D01*
X125594814Y-56750666D01*
X125502712Y-56601344D01*
X125378656Y-56477288D01*
X125285888Y-56420069D01*
X125229336Y-56385187D01*
X125229331Y-56385185D01*
X125227862Y-56384698D01*
X125062797Y-56330001D01*
X125062795Y-56330000D01*
X124960010Y-56319500D01*
X123959998Y-56319500D01*
X123959980Y-56319501D01*
X123857203Y-56330000D01*
X123857200Y-56330001D01*
X123690668Y-56385185D01*
X123690663Y-56385187D01*
X123541342Y-56477289D01*
X123417287Y-56601344D01*
X123349902Y-56710595D01*
X123342315Y-56717418D01*
X123338076Y-56726702D01*
X123316775Y-56740390D01*
X123297954Y-56757320D01*
X123286318Y-56759964D01*
X123279298Y-56764476D01*
X123244363Y-56769499D01*
X123176057Y-56769499D01*
X123109018Y-56749814D01*
X123070518Y-56710595D01*
X123054160Y-56684075D01*
X122987712Y-56576344D01*
X122863656Y-56452288D01*
X122714334Y-56360186D01*
X122547797Y-56305001D01*
X122547795Y-56305000D01*
X122445010Y-56294500D01*
X121394998Y-56294500D01*
X121394980Y-56294501D01*
X121292203Y-56305000D01*
X121292200Y-56305001D01*
X121125668Y-56360185D01*
X121125663Y-56360187D01*
X120976342Y-56452289D01*
X120852289Y-56576342D01*
X120760187Y-56725663D01*
X120760185Y-56725668D01*
X120745661Y-56769499D01*
X120705001Y-56892203D01*
X120705001Y-56892204D01*
X120705000Y-56892204D01*
X120694500Y-56994983D01*
X120694500Y-57770001D01*
X120694501Y-57770019D01*
X120705000Y-57872796D01*
X120705001Y-57872799D01*
X120754995Y-58023670D01*
X120760186Y-58039334D01*
X120852288Y-58188656D01*
X120976344Y-58312712D01*
X120978700Y-58314165D01*
X120979653Y-58314753D01*
X120981445Y-58316746D01*
X120982011Y-58317193D01*
X120981934Y-58317289D01*
X121026379Y-58366699D01*
X121037603Y-58435661D01*
X121009761Y-58499744D01*
X120979665Y-58525826D01*
X120976660Y-58527679D01*
X120976655Y-58527683D01*
X120852684Y-58651654D01*
X120760643Y-58800875D01*
X120760641Y-58800880D01*
X120705494Y-58967302D01*
X120705493Y-58967309D01*
X120695000Y-59070013D01*
X120695000Y-59207500D01*
X123130000Y-59207500D01*
X123131181Y-59206319D01*
X123192504Y-59172834D01*
X123218862Y-59170000D01*
X125685083Y-59170000D01*
X125691131Y-59166697D01*
X125760823Y-59171676D01*
X125797119Y-59195000D01*
X126876000Y-59195000D01*
X126943039Y-59214685D01*
X126988794Y-59267489D01*
X127000000Y-59319000D01*
X127000000Y-59445000D01*
X127126000Y-59445000D01*
X127193039Y-59464685D01*
X127238794Y-59517489D01*
X127250000Y-59569000D01*
X127250000Y-60519999D01*
X127499972Y-60519999D01*
X127499986Y-60519998D01*
X127602697Y-60509505D01*
X127769119Y-60454358D01*
X127769124Y-60454356D01*
X127918345Y-60362315D01*
X128042315Y-60238345D01*
X128134356Y-60089124D01*
X128134356Y-60089122D01*
X128152029Y-60035789D01*
X128191801Y-59978343D01*
X128256317Y-59951519D01*
X128325093Y-59963833D01*
X128376293Y-60011375D01*
X128387441Y-60035785D01*
X128405116Y-60089124D01*
X128405186Y-60089333D01*
X128405187Y-60089336D01*
X128420604Y-60114331D01*
X128497288Y-60238656D01*
X128621344Y-60362712D01*
X128770666Y-60454814D01*
X128937203Y-60509999D01*
X129039991Y-60520500D01*
X130040008Y-60520499D01*
X130040016Y-60520498D01*
X130040019Y-60520498D01*
X130096302Y-60514748D01*
X130142797Y-60509999D01*
X130309334Y-60454814D01*
X130436367Y-60376459D01*
X130501463Y-60357999D01*
X131055500Y-60357999D01*
X131122539Y-60377684D01*
X131168294Y-60430488D01*
X131179500Y-60481999D01*
X131179500Y-71329242D01*
X131170855Y-71358682D01*
X131164332Y-71388669D01*
X131160577Y-71393684D01*
X131159815Y-71396281D01*
X131143181Y-71416923D01*
X131106923Y-71453181D01*
X131045600Y-71486666D01*
X131019242Y-71489500D01*
X128382791Y-71489500D01*
X128315752Y-71469815D01*
X128269997Y-71417011D01*
X128266609Y-71408833D01*
X128243797Y-71347671D01*
X128243793Y-71347664D01*
X128157547Y-71232455D01*
X128157544Y-71232452D01*
X128042335Y-71146206D01*
X128042328Y-71146202D01*
X127907482Y-71095908D01*
X127907483Y-71095908D01*
X127847883Y-71089501D01*
X127847881Y-71089500D01*
X127847873Y-71089500D01*
X127847864Y-71089500D01*
X126152129Y-71089500D01*
X126152123Y-71089501D01*
X126092516Y-71095908D01*
X125957671Y-71146202D01*
X125957664Y-71146206D01*
X125842455Y-71232452D01*
X125842452Y-71232455D01*
X125756206Y-71347664D01*
X125756202Y-71347671D01*
X125733391Y-71408833D01*
X125691520Y-71464767D01*
X125626056Y-71489184D01*
X125617209Y-71489500D01*
X120404500Y-71489500D01*
X120337461Y-71469815D01*
X120291706Y-71417011D01*
X120280500Y-71365500D01*
X120280496Y-64535332D01*
X120280507Y-64535291D01*
X120280507Y-64483959D01*
X120280508Y-64483959D01*
X120280507Y-64257452D01*
X120248187Y-63805593D01*
X120183714Y-63357191D01*
X120173156Y-63308658D01*
X120087418Y-62914533D01*
X120023637Y-62697319D01*
X119959787Y-62479868D01*
X119801474Y-62055418D01*
X119613284Y-61643343D01*
X119396177Y-61245742D01*
X119332733Y-61147021D01*
X119151273Y-60864662D01*
X119151256Y-60864638D01*
X118879786Y-60501995D01*
X118651331Y-60238345D01*
X118583118Y-60159623D01*
X118489997Y-60066502D01*
X118489980Y-60066483D01*
X118268483Y-59844986D01*
X120695001Y-59844986D01*
X120705494Y-59947697D01*
X120760641Y-60114119D01*
X120760643Y-60114124D01*
X120852684Y-60263345D01*
X120976654Y-60387315D01*
X121125875Y-60479356D01*
X121125880Y-60479358D01*
X121292302Y-60534505D01*
X121292309Y-60534506D01*
X121395019Y-60544999D01*
X121669999Y-60544999D01*
X121670000Y-60544998D01*
X121670000Y-59707500D01*
X122170000Y-59707500D01*
X122170000Y-60544999D01*
X122444972Y-60544999D01*
X122444986Y-60544998D01*
X122547697Y-60534505D01*
X122714119Y-60479358D01*
X122714124Y-60479356D01*
X122863345Y-60387315D01*
X122987315Y-60263345D01*
X123079356Y-60114124D01*
X123079359Y-60114117D01*
X123088936Y-60085216D01*
X123128708Y-60027771D01*
X123193223Y-60000947D01*
X123261999Y-60013261D01*
X123313200Y-60060804D01*
X123324349Y-60085217D01*
X123325643Y-60089122D01*
X123325643Y-60089124D01*
X123417684Y-60238345D01*
X123541654Y-60362315D01*
X123690875Y-60454356D01*
X123690880Y-60454358D01*
X123857302Y-60509505D01*
X123857309Y-60509506D01*
X123960019Y-60519999D01*
X124209999Y-60519999D01*
X124710000Y-60519999D01*
X124959972Y-60519999D01*
X124959986Y-60519998D01*
X125062697Y-60509505D01*
X125229119Y-60454358D01*
X125229124Y-60454356D01*
X125378345Y-60362315D01*
X125502315Y-60238345D01*
X125594356Y-60089124D01*
X125594356Y-60089122D01*
X125612292Y-60034995D01*
X125652064Y-59977549D01*
X125716579Y-59950725D01*
X125785355Y-59963039D01*
X125836556Y-60010581D01*
X125847704Y-60034992D01*
X125865638Y-60089113D01*
X125865643Y-60089124D01*
X125957684Y-60238345D01*
X126081654Y-60362315D01*
X126230875Y-60454356D01*
X126230880Y-60454358D01*
X126397302Y-60509505D01*
X126397309Y-60509506D01*
X126500019Y-60519999D01*
X126749999Y-60519999D01*
X126750000Y-60519998D01*
X126750000Y-59695000D01*
X125774904Y-59695000D01*
X125768848Y-59698306D01*
X125699157Y-59693316D01*
X125662880Y-59670000D01*
X124710000Y-59670000D01*
X124710000Y-60519999D01*
X124209999Y-60519999D01*
X124210000Y-60519998D01*
X124210000Y-59670000D01*
X123275000Y-59670000D01*
X123273819Y-59671181D01*
X123212496Y-59704666D01*
X123186138Y-59707500D01*
X122170000Y-59707500D01*
X121670000Y-59707500D01*
X120695001Y-59707500D01*
X120695001Y-59844986D01*
X118268483Y-59844986D01*
X118167316Y-59743819D01*
X115686819Y-57263320D01*
X115653334Y-57201997D01*
X115650500Y-57175639D01*
X115650500Y-57043713D01*
X115642782Y-56994983D01*
X115617246Y-56833757D01*
X115551557Y-56631588D01*
X115455051Y-56442184D01*
X115455049Y-56442181D01*
X115455048Y-56442179D01*
X115330109Y-56270213D01*
X115179786Y-56119890D01*
X115007820Y-55994951D01*
X114818414Y-55898444D01*
X114818413Y-55898443D01*
X114818412Y-55898443D01*
X114616243Y-55832754D01*
X114616241Y-55832753D01*
X114616240Y-55832753D01*
X114454957Y-55807208D01*
X114406287Y-55799500D01*
X114406286Y-55799500D01*
X114274362Y-55799500D01*
X114207323Y-55779815D01*
X114186681Y-55763181D01*
X113879992Y-55456491D01*
X113879791Y-55456308D01*
X113814590Y-55391107D01*
X113805604Y-55383567D01*
X113659596Y-55261051D01*
X113528257Y-55150844D01*
X113222070Y-54936449D01*
X113222067Y-54936447D01*
X113222064Y-54936445D01*
X113097078Y-54864284D01*
X112898364Y-54749555D01*
X112898362Y-54749554D01*
X112859193Y-54731289D01*
X112559592Y-54591580D01*
X112208348Y-54463736D01*
X112040789Y-54418838D01*
X111847301Y-54366992D01*
X111847294Y-54366991D01*
X111479194Y-54302082D01*
X111479197Y-54302082D01*
X111106832Y-54269502D01*
X111106829Y-54269501D01*
X111008623Y-54269500D01*
X111008622Y-54269500D01*
X110919935Y-54269500D01*
X110831244Y-54269499D01*
X110831239Y-54269500D01*
X101388415Y-54269500D01*
X101383707Y-54269500D01*
X101383655Y-54269502D01*
X101330662Y-54269502D01*
X101039637Y-54302292D01*
X101039636Y-54302292D01*
X100754095Y-54367464D01*
X100477640Y-54464199D01*
X100213778Y-54591267D01*
X100088173Y-54670189D01*
X100020936Y-54689188D01*
X100002805Y-54687667D01*
X99888098Y-54669500D01*
X99888092Y-54669500D01*
X99651908Y-54669500D01*
X99651903Y-54669500D01*
X99418631Y-54706446D01*
X99194003Y-54779433D01*
X98983566Y-54886657D01*
X98907277Y-54942085D01*
X98792490Y-55025483D01*
X98792488Y-55025485D01*
X98792487Y-55025485D01*
X98625485Y-55192487D01*
X98625485Y-55192488D01*
X98625483Y-55192490D01*
X98606667Y-55218386D01*
X98551339Y-55261051D01*
X98506351Y-55269500D01*
X94533649Y-55269500D01*
X94466610Y-55249815D01*
X94433332Y-55218387D01*
X94414517Y-55192490D01*
X94247510Y-55025483D01*
X94056433Y-54886657D01*
X94022896Y-54869569D01*
X93845996Y-54779433D01*
X93621368Y-54706446D01*
X93388097Y-54669500D01*
X93388092Y-54669500D01*
X93151908Y-54669500D01*
X93151903Y-54669500D01*
X92918631Y-54706446D01*
X92694003Y-54779433D01*
X92483566Y-54886657D01*
X92407277Y-54942085D01*
X92292490Y-55025483D01*
X92292488Y-55025485D01*
X92292487Y-55025485D01*
X92125485Y-55192487D01*
X92125485Y-55192488D01*
X92125483Y-55192490D01*
X92083834Y-55249815D01*
X91986657Y-55383566D01*
X91879433Y-55594003D01*
X91806446Y-55818631D01*
X91769500Y-56051902D01*
X91769500Y-56288097D01*
X91806446Y-56521368D01*
X91879433Y-56745996D01*
X91966668Y-56917203D01*
X91986657Y-56956433D01*
X92125483Y-57147510D01*
X92292490Y-57314517D01*
X92483567Y-57453343D01*
X92508885Y-57466243D01*
X92694003Y-57560566D01*
X92694005Y-57560566D01*
X92694008Y-57560568D01*
X92814412Y-57599689D01*
X92918631Y-57633553D01*
X93151903Y-57670500D01*
X93151908Y-57670500D01*
X93388097Y-57670500D01*
X93621368Y-57633553D01*
X93675621Y-57615925D01*
X93845992Y-57560568D01*
X94056433Y-57453343D01*
X94247510Y-57314517D01*
X94414517Y-57147510D01*
X94433332Y-57121613D01*
X94488661Y-57078949D01*
X94533649Y-57070500D01*
X98506351Y-57070500D01*
X98573390Y-57090185D01*
X98606667Y-57121612D01*
X98625483Y-57147510D01*
X98792490Y-57314517D01*
X98983567Y-57453343D01*
X99008885Y-57466243D01*
X99194003Y-57560566D01*
X99194005Y-57560566D01*
X99194008Y-57560568D01*
X99314412Y-57599689D01*
X99418631Y-57633553D01*
X99651903Y-57670500D01*
X99651908Y-57670500D01*
X99888097Y-57670500D01*
X100121368Y-57633553D01*
X100175621Y-57615925D01*
X100345992Y-57560568D01*
X100556433Y-57453343D01*
X100747510Y-57314517D01*
X100914517Y-57147510D01*
X101053343Y-56956433D01*
X101160568Y-56745992D01*
X101233553Y-56521368D01*
X101237484Y-56496548D01*
X101270500Y-56288097D01*
X101270500Y-56201387D01*
X101271659Y-56197438D01*
X101270756Y-56193424D01*
X101281421Y-56164193D01*
X101290185Y-56134348D01*
X101293294Y-56131653D01*
X101294705Y-56127787D01*
X101319487Y-56108957D01*
X101342989Y-56088593D01*
X101347997Y-56087295D01*
X101350338Y-56085517D01*
X101384770Y-56077769D01*
X101472290Y-56070881D01*
X101482012Y-56070500D01*
X101565794Y-56070500D01*
X108442692Y-56070500D01*
X108509731Y-56090185D01*
X108530373Y-56106819D01*
X109090591Y-56667037D01*
X109027007Y-56684075D01*
X108912993Y-56749901D01*
X108819901Y-56842993D01*
X108754075Y-56957007D01*
X108737037Y-57020591D01*
X108104728Y-56388282D01*
X108104727Y-56388282D01*
X108065380Y-56442439D01*
X107968904Y-56631782D01*
X107903242Y-56833869D01*
X107903242Y-56833872D01*
X107870000Y-57043753D01*
X107870000Y-57256246D01*
X107903242Y-57466127D01*
X107903242Y-57466130D01*
X107968904Y-57668217D01*
X108065375Y-57857550D01*
X108104728Y-57911716D01*
X108737037Y-57279408D01*
X108754075Y-57342993D01*
X108819901Y-57457007D01*
X108912993Y-57550099D01*
X109027007Y-57615925D01*
X109090590Y-57632962D01*
X108458282Y-58265269D01*
X108458282Y-58265270D01*
X108512452Y-58304626D01*
X108512451Y-58304626D01*
X108521495Y-58309234D01*
X108572292Y-58357208D01*
X108589087Y-58425029D01*
X108566550Y-58491164D01*
X108521499Y-58530202D01*
X108512182Y-58534949D01*
X108340213Y-58659890D01*
X108189890Y-58810213D01*
X108064951Y-58982179D01*
X107968444Y-59171585D01*
X107902753Y-59373760D01*
X107869500Y-59583713D01*
X107869500Y-59796287D01*
X107869499Y-59796287D01*
X107877754Y-59848402D01*
X107877226Y-59852481D01*
X107878747Y-59856305D01*
X107872785Y-59886846D01*
X107868799Y-59917695D01*
X107866150Y-59920841D01*
X107865362Y-59924880D01*
X107843839Y-59947345D01*
X107823803Y-59971147D01*
X107819057Y-59973212D01*
X107817026Y-59975333D01*
X107784229Y-59988373D01*
X107716462Y-60004643D01*
X107697246Y-60007686D01*
X107552051Y-60019117D01*
X107542319Y-60019500D01*
X101198592Y-60019500D01*
X101131553Y-59999815D01*
X101088107Y-59951795D01*
X101069203Y-59914694D01*
X101053343Y-59883567D01*
X100914517Y-59692490D01*
X100747510Y-59525483D01*
X100556433Y-59386657D01*
X100531121Y-59373760D01*
X100345996Y-59279433D01*
X100121368Y-59206446D01*
X99888097Y-59169500D01*
X99888092Y-59169500D01*
X99651908Y-59169500D01*
X99651903Y-59169500D01*
X99418631Y-59206446D01*
X99194003Y-59279433D01*
X98983566Y-59386657D01*
X98903265Y-59445000D01*
X98792490Y-59525483D01*
X98792488Y-59525485D01*
X98792487Y-59525485D01*
X98625485Y-59692487D01*
X98625485Y-59692488D01*
X98625483Y-59692490D01*
X98616637Y-59704666D01*
X98486657Y-59883566D01*
X98451893Y-59951795D01*
X98403918Y-60002591D01*
X98341408Y-60019500D01*
X94698592Y-60019500D01*
X94631553Y-59999815D01*
X94588107Y-59951795D01*
X94569203Y-59914694D01*
X94553343Y-59883567D01*
X94414517Y-59692490D01*
X94247510Y-59525483D01*
X94056433Y-59386657D01*
X94031121Y-59373760D01*
X93845996Y-59279433D01*
X93621368Y-59206446D01*
X93388097Y-59169500D01*
X93388092Y-59169500D01*
X93151908Y-59169500D01*
X93151903Y-59169500D01*
X92918631Y-59206446D01*
X92694003Y-59279433D01*
X92483566Y-59386657D01*
X92403265Y-59445000D01*
X92292490Y-59525483D01*
X92292488Y-59525485D01*
X92292487Y-59525485D01*
X92125485Y-59692487D01*
X92125485Y-59692488D01*
X92125483Y-59692490D01*
X92116637Y-59704666D01*
X91986657Y-59883566D01*
X91879433Y-60094003D01*
X91806446Y-60318631D01*
X91769500Y-60551902D01*
X91769500Y-60788097D01*
X91806447Y-61021369D01*
X91806447Y-61021372D01*
X91830109Y-61094194D01*
X91832104Y-61164035D01*
X91799859Y-61220193D01*
X89554994Y-63465057D01*
X89554993Y-63465058D01*
X89373443Y-63646602D01*
X89373417Y-63646630D01*
X89088453Y-63975487D01*
X88827676Y-64323837D01*
X88592398Y-64689926D01*
X88481576Y-64892875D01*
X88383848Y-65071847D01*
X88203073Y-65467679D01*
X88203066Y-65467695D01*
X88050999Y-65875389D01*
X87928394Y-66292930D01*
X87835890Y-66718139D01*
X87773957Y-67148870D01*
X87742908Y-67582919D01*
X87742907Y-67736484D01*
X87742907Y-67800550D01*
X87742906Y-67873844D01*
X87742906Y-87457765D01*
X87742888Y-87457826D01*
X84320500Y-87457826D01*
X84320500Y-54987022D01*
X84340185Y-54919983D01*
X84392989Y-54874228D01*
X84462147Y-54864284D01*
X84525703Y-54893309D01*
X84541447Y-54909709D01*
X84567266Y-54942085D01*
X84757915Y-55132734D01*
X84968711Y-55300838D01*
X85197003Y-55444284D01*
X85439921Y-55561267D01*
X85533490Y-55594008D01*
X85694397Y-55650312D01*
X85694405Y-55650315D01*
X85694408Y-55650315D01*
X85694409Y-55650316D01*
X85957268Y-55710312D01*
X86225187Y-55740499D01*
X86225188Y-55740500D01*
X86225191Y-55740500D01*
X86494812Y-55740500D01*
X86494812Y-55740499D01*
X86762732Y-55710312D01*
X87025591Y-55650316D01*
X87280079Y-55561267D01*
X87522997Y-55444284D01*
X87751289Y-55300838D01*
X87962085Y-55132734D01*
X88152734Y-54942085D01*
X88320838Y-54731289D01*
X88464284Y-54502997D01*
X88581267Y-54260079D01*
X88670316Y-54005591D01*
X88730312Y-53742732D01*
X88760500Y-53474809D01*
X88760500Y-53205191D01*
X88730312Y-52937268D01*
X88670316Y-52674409D01*
X88581267Y-52419921D01*
X88464284Y-52177003D01*
X88320838Y-51948711D01*
X88152734Y-51737915D01*
X87962085Y-51547266D01*
X87929709Y-51521447D01*
X87889569Y-51464259D01*
X87886719Y-51394447D01*
X87922064Y-51334177D01*
X87984383Y-51302584D01*
X88007022Y-51300500D01*
X135512978Y-51300500D01*
X135580017Y-51320185D01*
G37*
%TD.AperFunction*%
%TD*%
M02*
