M48
; DRILL file {KiCad 9.0.4} date 2025-09-25T23:25:36-0400
; FORMAT={-:-/ absolute / inch / decimal}
; #@! TF.CreationDate,2025-09-25T23:25:36-04:00
; #@! TF.GenerationSoftware,Kicad,Pcbnew,9.0.4
; #@! TF.FileFunction,Plated,1,2,PTH
FMAT,2
INCH
; #@! TA.AperFunction,Plated,PTH,ViaDrill
T1C0.0118
; #@! TA.AperFunction,Plated,PTH,ComponentDrill
T2C0.0315
; #@! TA.AperFunction,Plated,PTH,ComponentDrill
T3C0.0320
; #@! TA.AperFunction,Plated,PTH,ComponentDrill
T4C0.0394
; #@! TA.AperFunction,Plated,PTH,ComponentDrill
T5C0.0433
; #@! TA.AperFunction,Plated,PTH,ComponentDrill
T6C0.0866
%
G90
G05
T1
X3.4Y-2.4
X3.4Y-2.6
X3.4Y-2.8
X3.4Y-3.0
X3.4Y-3.2
X3.4Y-3.4
X3.4Y-3.6
X3.4Y-3.8
X3.4Y-4.0
X3.4Y-4.2
X3.4Y-4.4
X3.4Y-4.6
X3.4Y-4.8
X3.4Y-5.0
X3.5Y-3.7
X3.5Y-3.8
X3.5Y-3.9
X3.5Y-4.0
X3.5Y-4.1
X3.5Y-4.2
X3.5Y-4.3
X3.5Y-4.4
X3.5Y-4.5
X3.5Y-4.6
X3.5Y-4.7
X3.5Y-4.8
X3.6Y-2.1
X3.6Y-2.3
X3.6Y-2.6
X3.6Y-5.0
X3.6Y-5.2
X3.7Y-2.8
X3.7Y-2.9
X3.7Y-3.0
X3.7Y-3.1
X3.7Y-3.2
X3.7Y-3.3
X3.7Y-3.4
X3.7Y-3.5
X3.7Y-3.6
X3.7Y-3.7
X3.7Y-3.9
X3.7Y-4.0
X3.7Y-4.2
X3.7Y-4.4
X3.7Y-4.5
X3.7Y-4.6
X3.7Y-4.7
X3.7Y-4.8
X3.8Y-2.1
X3.8Y-2.3
X3.8Y-2.6
X3.8Y-2.8
X3.8Y-2.9
X3.8Y-3.0
X3.8Y-3.1
X3.8Y-3.2
X3.8Y-3.3
X3.8Y-3.4
X3.8Y-3.5
X3.8Y-3.6
X3.8Y-3.7
X3.8Y-3.8513
X3.8Y-4.5
X3.8Y-4.6
X3.8Y-4.733
X3.8Y-4.8
X3.8Y-5.0
X3.8Y-5.2
X3.9Y-2.8
X3.9Y-2.9
X3.9Y-3.0
X3.9Y-3.1
X3.9Y-3.2
X3.9Y-3.3
X3.9Y-3.4
X3.9Y-3.5
X3.9Y-3.6
X3.9Y-3.7
X3.9Y-3.9
X3.9Y-4.0
X3.9Y-4.2
X3.9Y-4.4
X3.9Y-4.6
X3.9Y-4.7
X3.9Y-4.8
X4.0Y-2.1
X4.0Y-2.6
X4.0Y-2.8
X4.0Y-2.9
X4.0Y-3.0
X4.0Y-3.1
X4.0Y-3.2
X4.0Y-3.3
X4.0Y-3.4
X4.0Y-3.5
X4.0Y-3.6
X4.0Y-3.7
X4.0Y-3.9
X4.0Y-4.0
X4.0Y-4.2
X4.0Y-4.5
X4.0Y-4.7
X4.0Y-4.8
X4.0Y-5.0
X4.1Y-2.3
X4.2Y-2.1
X4.2Y-2.3
X4.2Y-2.6
X4.2Y-2.8
X4.2Y-3.0
X4.2Y-3.6
X4.2Y-3.8
X4.2Y-4.0
X4.2Y-4.2
X4.2Y-4.4
X4.2Y-4.6
X4.2Y-4.8
X4.2Y-5.0
X4.3Y-2.45
X4.4Y-2.1
X4.4Y-3.4
X4.4Y-3.6
X4.4Y-3.8
X4.4Y-4.0
X4.4Y-4.2
X4.4Y-4.4
X4.4Y-4.6
X4.4Y-4.8
X4.4Y-5.0
X4.5Y-2.5
X4.5Y-3.0
X4.5Y-3.2
X4.6Y-2.1
X4.6Y-2.2
X4.6Y-2.6
X4.6Y-2.8
X4.6Y-3.8
X4.6Y-4.0
X4.6Y-4.2
X4.6Y-4.4
X4.6Y-4.6
X4.6Y-4.8
X4.6Y-5.0
X4.7Y-2.3
X4.8Y-2.1
X4.8Y-2.2592
X4.8Y-2.3408
X4.8Y-2.6
X4.8Y-2.8
X4.8Y-2.9
X4.8Y-3.0
X4.8Y-3.1
X4.8Y-3.2
X4.8Y-3.3
X4.8Y-3.4
X4.8Y-3.5
X4.8Y-3.6
X4.8Y-3.7
X4.8Y-3.8
X4.8Y-3.9
X4.8Y-4.0
X4.8Y-4.1
X4.8Y-4.2
X4.8Y-4.3
X4.8Y-4.4
X4.8Y-4.5
X4.8Y-4.6
X4.8Y-4.7
X4.8Y-4.8
X4.8Y-5.0
X4.9Y-2.3394
X4.9Y-2.8
X4.9Y-2.9
X4.9Y-3.0
X4.9Y-3.1
X4.9Y-3.2
X4.9Y-3.3
X4.9Y-3.4
X4.9Y-3.5
X4.9Y-3.6
X4.9Y-3.7
X4.9Y-3.8
X4.9Y-3.9
X4.9Y-4.0
X4.9Y-4.1
X4.9Y-4.2
X4.9Y-4.3
X4.9Y-4.4
X4.9Y-4.5
X4.9Y-4.6
X4.9Y-4.7
X4.9Y-4.8
X5.0Y-2.1
X5.0Y-2.3404
X5.0Y-2.6
X5.0Y-3.8
X5.0Y-3.9
X5.0Y-4.0
X5.0Y-4.0
X5.0Y-4.1
X5.0Y-4.2
X5.0Y-4.2
X5.0Y-4.3
X5.0Y-4.4
X5.0Y-4.5
X5.0Y-4.6
X5.0Y-4.7
X5.0Y-4.8
X5.0Y-5.0
X5.0Y-5.2
X5.1Y-2.8
X5.1Y-3.8
X5.1Y-3.9
X5.1Y-4.0
X5.1Y-4.1
X5.1Y-4.2
X5.1Y-4.3
X5.1Y-4.4
X5.1Y-4.5
X5.1Y-4.6
X5.1Y-4.7
X5.1Y-4.8
X5.1Y-4.8
X5.2Y-2.1
X5.2Y-2.2592
X5.2Y-5.0
X5.2Y-5.2
X5.3Y-2.8
X5.3Y-2.9
X5.3Y-3.0
X5.3Y-3.1
X5.3Y-3.2
X5.3Y-3.3
X5.3Y-3.4
X5.3Y-3.5
X5.3Y-3.6
X5.3Y-3.7
X5.3Y-3.8
X5.3Y-3.9
X5.3Y-4.0
X5.3Y-4.1
X5.3Y-4.2
X5.3Y-4.3
X5.3Y-4.3
X5.3Y-4.4
X5.3Y-4.5
X5.3Y-4.6
X5.3Y-4.7
X5.3Y-4.8
X5.4Y-2.4
X5.4Y-2.6
X5.4Y-2.8
X5.4Y-3.0
X5.4Y-3.2
X5.4Y-3.4
X5.4Y-3.6
X5.4Y-3.8
X5.4Y-4.0
X5.4Y-4.2
X5.4Y-4.4
X5.4Y-4.6
X5.4Y-4.8
X5.4Y-5.0
T2
X3.8Y-4.2
X3.8Y-4.3921
X5.0Y-2.85
X5.0Y-2.95
X5.0Y-3.05
X5.0Y-3.15
X5.0Y-3.25
X5.0Y-3.35
X5.0Y-3.45
X5.0Y-3.55
X5.0Y-3.65
T3
X4.1Y-2.85
X4.1Y-2.95
X4.1Y-3.05
X4.1Y-3.15
X4.1Y-3.25
X4.1Y-3.35
X4.1Y-3.45
X4.1Y-3.55
X4.1Y-3.65
X4.1Y-3.75
X4.1Y-3.85
X4.1Y-3.95
X4.1Y-4.05
X4.1Y-4.15
X4.1Y-4.25
X4.1Y-4.35
X4.1Y-4.45
X4.1Y-4.55
X4.1Y-4.65
X4.1Y-4.75
X4.7Y-2.85
X4.7Y-2.95
X4.7Y-3.05
X4.7Y-3.15
X4.7Y-3.25
X4.7Y-3.35
X4.7Y-3.45
X4.7Y-3.55
X4.7Y-3.65
X4.7Y-3.75
X4.7Y-3.85
X4.7Y-3.95
X4.7Y-4.05
X4.7Y-4.15
X4.7Y-4.25
X4.7Y-4.35
X4.7Y-4.45
X4.7Y-4.55
X4.7Y-4.65
X4.7Y-4.75
T4
X3.6Y-2.85
X3.6Y-2.95
X3.6Y-3.05
X3.6Y-3.15
X3.6Y-3.25
X3.6Y-3.35
X3.6Y-3.45
X3.6Y-3.55
X3.6Y-3.65
X3.6Y-3.75
X3.6Y-3.85
X3.6Y-3.95
X3.6Y-4.05
X3.6Y-4.15
X3.6Y-4.25
X3.6Y-4.35
X3.6Y-4.45
X3.6Y-4.55
X3.6Y-4.65
X3.6Y-4.75
X4.3Y-2.25
X4.3Y-2.35
X4.4Y-2.25
X4.4Y-2.35
X4.5Y-2.25
X4.5Y-2.35
X5.2Y-2.85
X5.2Y-2.95
X5.2Y-3.05
X5.2Y-3.15
X5.2Y-3.25
X5.2Y-3.35
X5.2Y-3.45
X5.2Y-3.55
X5.2Y-3.65
X5.2Y-3.75
X5.2Y-3.85
X5.2Y-3.95
X5.2Y-4.05
X5.2Y-4.15
X5.2Y-4.25
X5.2Y-4.35
X5.2Y-4.45
X5.2Y-4.55
X5.2Y-4.65
X5.2Y-4.75
T5
X3.672Y-2.2114
X3.672Y-2.3886
X3.928Y-2.2114
X3.928Y-2.3886
T6
X3.4Y-2.1
X3.4Y-5.2
X5.4Y-2.1
X5.4Y-5.2
M30
