%TF.GenerationSoftware,KiCad,Pcbnew,9.0.4*%
%TF.CreationDate,2025-09-26T16:37:24-04:00*%
%TF.ProjectId,8051_breakout,38303531-5f62-4726-9561-6b6f75742e6b,rev?*%
%TF.SameCoordinates,Original*%
%TF.FileFunction,Copper,L2,Bot*%
%TF.FilePolarity,Positive*%
%FSLAX46Y46*%
G04 Gerber Fmt 4.6, Leading zero omitted, Abs format (unit mm)*
G04 Created by KiCad (PCBNEW 9.0.4) date 2025-09-26 16:37:24*
%MOMM*%
%LPD*%
G01*
G04 APERTURE LIST*
%TA.AperFunction,ComponentPad*%
%ADD10C,1.700000*%
%TD*%
%TA.AperFunction,ComponentPad*%
%ADD11C,1.500000*%
%TD*%
%TA.AperFunction,ComponentPad*%
%ADD12C,3.800000*%
%TD*%
%TA.AperFunction,ComponentPad*%
%ADD13C,1.600000*%
%TD*%
%TA.AperFunction,ComponentPad*%
%ADD14R,1.600000X1.600000*%
%TD*%
%TA.AperFunction,ComponentPad*%
%ADD15C,2.000000*%
%TD*%
%TA.AperFunction,ComponentPad*%
%ADD16C,1.524000*%
%TD*%
%TA.AperFunction,ComponentPad*%
%ADD17R,1.524000X1.524000*%
%TD*%
%TA.AperFunction,ViaPad*%
%ADD18C,0.600000*%
%TD*%
%TA.AperFunction,Conductor*%
%ADD19C,0.300000*%
%TD*%
G04 APERTURE END LIST*
D10*
%TO.P,J3,6,Pin_6*%
%TO.N,GND*%
X109220000Y-57150000D03*
%TO.P,J3,5,Pin_5*%
%TO.N,/(MOSI)P1.5*%
X111760000Y-57150000D03*
%TO.P,J3,4,Pin_4*%
%TO.N,+5V*%
X114300000Y-57150000D03*
%TO.P,J3,3,Pin_3*%
%TO.N,/(MISO)P1.6*%
X114300000Y-59690000D03*
%TO.P,J3,2,Pin_2*%
%TO.N,/(SCK)P1.7*%
X111760000Y-59690000D03*
%TO.P,J3,1,Pin_1*%
%TO.N,/RST*%
X109220000Y-59690000D03*
%TD*%
D11*
%TO.P,Y1,2,2*%
%TO.N,/XTAL1*%
X96520000Y-111560000D03*
%TO.P,Y1,1,1*%
%TO.N,/XTAL2*%
X96520000Y-106680000D03*
%TD*%
D12*
%TO.P,H2,1*%
%TO.N,N/C*%
X137160000Y-53340000D03*
%TD*%
D13*
%TO.P,RN1,9,R8*%
%TO.N,/P0.7(AD7)*%
X127000000Y-92710000D03*
%TO.P,RN1,8,R7*%
%TO.N,/P0.6(AD6)*%
X127000000Y-90170000D03*
%TO.P,RN1,7,R6*%
%TO.N,/P0.5(AD5)*%
X127000000Y-87630000D03*
%TO.P,RN1,6,R5*%
%TO.N,/P0.4(AD4)*%
X127000000Y-85090000D03*
%TO.P,RN1,5,R4*%
%TO.N,/P0.3(AD3)*%
X127000000Y-82550000D03*
%TO.P,RN1,4,R3*%
%TO.N,/P0.2(AD2)*%
X127000000Y-80010000D03*
%TO.P,RN1,3,R2*%
%TO.N,/P0.1(AD1)*%
X127000000Y-77470000D03*
%TO.P,RN1,2,R1*%
%TO.N,/P0.0(AD0)*%
X127000000Y-74930000D03*
D14*
%TO.P,RN1,1,common*%
%TO.N,+5V*%
X127000000Y-72390000D03*
%TD*%
D10*
%TO.P,J2,20,Pin_20*%
%TO.N,/P2.0(A8)*%
X132080000Y-120650000D03*
%TO.P,J2,19,Pin_19*%
%TO.N,/P2.1(A9)*%
X132080000Y-118110000D03*
%TO.P,J2,18,Pin_18*%
%TO.N,/P2.2(A10)*%
X132080000Y-115570000D03*
%TO.P,J2,17,Pin_17*%
%TO.N,/P2.3(A11)*%
X132080000Y-113030000D03*
%TO.P,J2,16,Pin_16*%
%TO.N,/P2.4(A12)*%
X132080000Y-110490000D03*
%TO.P,J2,15,Pin_15*%
%TO.N,/P2.5(A13)*%
X132080000Y-107950000D03*
%TO.P,J2,14,Pin_14*%
%TO.N,/P2.6(A14)*%
X132080000Y-105410000D03*
%TO.P,J2,13,Pin_13*%
%TO.N,/P2.7(A15)*%
X132080000Y-102870000D03*
%TO.P,J2,12,Pin_12*%
%TO.N,/PSEN*%
X132080000Y-100330000D03*
%TO.P,J2,11,Pin_11*%
%TO.N,/ALE{slash}PROG*%
X132080000Y-97790000D03*
%TO.P,J2,10,Pin_10*%
%TO.N,+5V*%
X132080000Y-95250000D03*
%TO.P,J2,9,Pin_9*%
%TO.N,/P0.7(AD7)*%
X132080000Y-92710000D03*
%TO.P,J2,8,Pin_8*%
%TO.N,/P0.6(AD6)*%
X132080000Y-90170000D03*
%TO.P,J2,7,Pin_7*%
%TO.N,/P0.5(AD5)*%
X132080000Y-87630000D03*
%TO.P,J2,6,Pin_6*%
%TO.N,/P0.4(AD4)*%
X132080000Y-85090000D03*
%TO.P,J2,5,Pin_5*%
%TO.N,/P0.3(AD3)*%
X132080000Y-82550000D03*
%TO.P,J2,4,Pin_4*%
%TO.N,/P0.2(AD2)*%
X132080000Y-80010000D03*
%TO.P,J2,3,Pin_3*%
%TO.N,/P0.1(AD1)*%
X132080000Y-77470000D03*
%TO.P,J2,2,Pin_2*%
%TO.N,/P0.0(AD0)*%
X132080000Y-74930000D03*
%TO.P,J2,1,Pin_1*%
%TO.N,+5V*%
X132080000Y-72390000D03*
%TD*%
D12*
%TO.P,H3,1*%
%TO.N,N/C*%
X86360000Y-132080000D03*
%TD*%
%TO.P,H4,1*%
%TO.N,N/C*%
X137160000Y-132080000D03*
%TD*%
%TO.P,H1,1*%
%TO.N,N/C*%
X86360000Y-53340000D03*
%TD*%
D10*
%TO.P,J1,20,Pin_20*%
%TO.N,GND*%
X91440000Y-120650000D03*
%TO.P,J1,19,Pin_19*%
%TO.N,/XTAL1*%
X91440000Y-118110000D03*
%TO.P,J1,18,Pin_18*%
%TO.N,/XTAL2*%
X91440000Y-115570000D03*
%TO.P,J1,17,Pin_17*%
%TO.N,/(RD)P3.7*%
X91440000Y-113030000D03*
%TO.P,J1,16,Pin_16*%
%TO.N,/(WR)P3.6*%
X91440000Y-110490000D03*
%TO.P,J1,15,Pin_15*%
%TO.N,/(T1)P3.5*%
X91440000Y-107950000D03*
%TO.P,J1,14,Pin_14*%
%TO.N,/(T0)P3.4*%
X91440000Y-105410000D03*
%TO.P,J1,13,Pin_13*%
%TO.N,/(INT1)P3.3*%
X91440000Y-102870000D03*
%TO.P,J1,12,Pin_12*%
%TO.N,/(INT0)P3.2*%
X91440000Y-100330000D03*
%TO.P,J1,11,Pin_11*%
%TO.N,/(TXD)P3.1*%
X91440000Y-97790000D03*
%TO.P,J1,10,Pin_10*%
%TO.N,/(RXD)P3.0*%
X91440000Y-95250000D03*
%TO.P,J1,9,Pin_9*%
%TO.N,/RST*%
X91440000Y-92710000D03*
%TO.P,J1,8,Pin_8*%
%TO.N,/(SCK)P1.7*%
X91440000Y-90170000D03*
%TO.P,J1,7,Pin_7*%
%TO.N,/(MISO)P1.6*%
X91440000Y-87630000D03*
%TO.P,J1,6,Pin_6*%
%TO.N,/(MOSI)P1.5*%
X91440000Y-85090000D03*
%TO.P,J1,5,Pin_5*%
%TO.N,/P1.4*%
X91440000Y-82550000D03*
%TO.P,J1,4,Pin_4*%
%TO.N,/P1.3*%
X91440000Y-80010000D03*
%TO.P,J1,3,Pin_3*%
%TO.N,/P1.2*%
X91440000Y-77470000D03*
%TO.P,J1,2,Pin_2*%
%TO.N,/P1.1*%
X91440000Y-74930000D03*
%TO.P,J1,1,Pin_1*%
%TO.N,/P1.0*%
X91440000Y-72390000D03*
%TD*%
D15*
%TO.P,SW1,2,2*%
%TO.N,/RST*%
X99770000Y-60670000D03*
X93270000Y-60670000D03*
%TO.P,SW1,1,1*%
%TO.N,+5V*%
X99770000Y-56170000D03*
X93270000Y-56170000D03*
%TD*%
D16*
%TO.P,U1,40,VCC*%
%TO.N,+5V*%
X119380000Y-72390000D03*
%TO.P,U1,39,P0.0_(AD0)*%
%TO.N,/P0.0(AD0)*%
X119380000Y-74930000D03*
%TO.P,U1,38,P0.1_(AD1)*%
%TO.N,/P0.1(AD1)*%
X119380000Y-77470000D03*
%TO.P,U1,37,P0.2_(AD2)*%
%TO.N,/P0.2(AD2)*%
X119380000Y-80010000D03*
%TO.P,U1,36,P0.3_(AD3)*%
%TO.N,/P0.3(AD3)*%
X119380000Y-82550000D03*
%TO.P,U1,35,P0.4_(AD4)*%
%TO.N,/P0.4(AD4)*%
X119380000Y-85090000D03*
%TO.P,U1,34,P0.5_(AD5)*%
%TO.N,/P0.5(AD5)*%
X119380000Y-87630000D03*
%TO.P,U1,33,P0.6_(AD6)*%
%TO.N,/P0.6(AD6)*%
X119380000Y-90170000D03*
%TO.P,U1,32,P0.7_(AD7)*%
%TO.N,/P0.7(AD7)*%
X119380000Y-92710000D03*
%TO.P,U1,31,EA\u002A/VPP*%
%TO.N,+5V*%
X119380000Y-95250000D03*
%TO.P,U1,30,ALE/PROG\u002A*%
%TO.N,/ALE{slash}PROG*%
X119380000Y-97790000D03*
%TO.P,U1,29,PSEN\u002A*%
%TO.N,/PSEN*%
X119380000Y-100330000D03*
%TO.P,U1,28,P2.7_(A15)*%
%TO.N,/P2.7(A15)*%
X119380000Y-102870000D03*
%TO.P,U1,27,P2.6_(A14)*%
%TO.N,/P2.6(A14)*%
X119380000Y-105410000D03*
%TO.P,U1,26,P2.5_(A13)*%
%TO.N,/P2.5(A13)*%
X119380000Y-107950000D03*
%TO.P,U1,25,P2.4_(A12)*%
%TO.N,/P2.4(A12)*%
X119380000Y-110490000D03*
%TO.P,U1,24,P2.3_(A11)*%
%TO.N,/P2.3(A11)*%
X119380000Y-113030000D03*
%TO.P,U1,23,P2.2_(A10)*%
%TO.N,/P2.2(A10)*%
X119380000Y-115570000D03*
%TO.P,U1,22,P2.1_(A9)*%
%TO.N,/P2.1(A9)*%
X119380000Y-118110000D03*
%TO.P,U1,21,P2.0_(A8)*%
%TO.N,/P2.0(A8)*%
X119380000Y-120650000D03*
%TO.P,U1,20,GND*%
%TO.N,GND*%
X104140000Y-120650000D03*
%TO.P,U1,19,XTAL1*%
%TO.N,/XTAL1*%
X104140000Y-118110000D03*
%TO.P,U1,18,XTAL2*%
%TO.N,/XTAL2*%
X104140000Y-115570000D03*
%TO.P,U1,17,RD\u002A_P3.7*%
%TO.N,/(RD)P3.7*%
X104140000Y-113030000D03*
%TO.P,U1,16,WR\u002A_P3.6*%
%TO.N,/(WR)P3.6*%
X104140000Y-110490000D03*
%TO.P,U1,15,(T1)_P3.5*%
%TO.N,/(T1)P3.5*%
X104140000Y-107950000D03*
%TO.P,U1,14,(T0)_P3.4*%
%TO.N,/(T0)P3.4*%
X104140000Y-105410000D03*
%TO.P,U1,13,(INT1)_P3.3*%
%TO.N,/(INT1)P3.3*%
X104140000Y-102870000D03*
%TO.P,U1,12,(INT0)_P3.2*%
%TO.N,/(INT0)P3.2*%
X104140000Y-100330000D03*
%TO.P,U1,11,(TXD)_P3.1*%
%TO.N,/(TXD)P3.1*%
X104140000Y-97790000D03*
%TO.P,U1,10,(RXD)_P3.0*%
%TO.N,/(RXD)P3.0*%
X104140000Y-95250000D03*
%TO.P,U1,9,RST*%
%TO.N,/RST*%
X104140000Y-92710000D03*
%TO.P,U1,8,(SCK)_P1.7*%
%TO.N,/(SCK)P1.7*%
X104140000Y-90170000D03*
%TO.P,U1,7,(MISO)_P1.6*%
%TO.N,/(MISO)P1.6*%
X104140000Y-87630000D03*
%TO.P,U1,6,(MOSI)_P1.5*%
%TO.N,/(MOSI)P1.5*%
X104140000Y-85090000D03*
%TO.P,U1,5,P1.4*%
%TO.N,/P1.4*%
X104140000Y-82550000D03*
%TO.P,U1,4,P1.3*%
%TO.N,/P1.3*%
X104140000Y-80010000D03*
%TO.P,U1,3,P1.2*%
%TO.N,/P1.2*%
X104140000Y-77470000D03*
%TO.P,U1,2,P1.1*%
%TO.N,/P1.1*%
X104140000Y-74930000D03*
D17*
%TO.P,U1,1,P1.0*%
%TO.N,/P1.0*%
X104140000Y-72390000D03*
%TD*%
D18*
%TO.N,GND*%
X133731000Y-57404000D03*
X132080000Y-55880000D03*
X125730000Y-59436000D03*
X123190000Y-59436000D03*
X127000000Y-59445000D03*
X124460000Y-59420000D03*
X121920000Y-59457500D03*
X98044000Y-120192800D03*
X94996000Y-120192800D03*
X98044000Y-97790000D03*
X94996000Y-97790000D03*
%TO.N,/RST*%
X121920000Y-57382500D03*
%TO.N,/(MOSI)P1.5*%
X109220000Y-62230000D03*
%TD*%
D19*
%TO.N,/RST*%
X110807500Y-56197500D02*
G75*
G03*
X110490005Y-56964012I766500J-766500D01*
G01*
X109444506Y-58830493D02*
G75*
G03*
X109219996Y-59372500I541994J-542007D01*
G01*
X110459671Y-57793126D02*
G75*
G02*
X110386448Y-57888547I-399071J230426D01*
G01*
X110490000Y-57679936D02*
G75*
G02*
X110459658Y-57793118I-226400J36D01*
G01*
X121168750Y-56631250D02*
G75*
G03*
X119355072Y-55880012I-1813650J-1813650D01*
G01*
X111574012Y-55880000D02*
G75*
G03*
X110807496Y-56197496I-12J-1084000D01*
G01*
%TO.N,/XTAL2*%
X91440000Y-115570000D02*
X104140000Y-115570000D01*
%TO.N,/(INT0)P3.2*%
X91440000Y-100330000D02*
X104140000Y-100330000D01*
%TO.N,/(INT1)P3.3*%
X91440000Y-102870000D02*
X104140000Y-102870000D01*
%TO.N,/(T1)P3.5*%
X91757500Y-108267499D02*
X91440000Y-107950000D01*
X103822499Y-108267500D02*
X104140000Y-107950000D01*
X103055985Y-108584999D02*
X92524012Y-108584999D01*
X91757500Y-108267499D02*
G75*
G03*
X92524012Y-108584994I766500J766499D01*
G01*
X103822499Y-108267500D02*
G75*
G02*
X103055985Y-108584994I-766499J766500D01*
G01*
%TO.N,/(T0)P3.4*%
X92524011Y-104774996D02*
X103055985Y-104774999D01*
X103822499Y-105092500D02*
X104140000Y-105410000D01*
X91757499Y-105092498D02*
X91440000Y-105410000D01*
X92524011Y-104774996D02*
G75*
G03*
X91757494Y-105092493I-11J-1084004D01*
G01*
X103822499Y-105092500D02*
G75*
G03*
X103055985Y-104775006I-766499J-766500D01*
G01*
%TO.N,/(WR)P3.6*%
X103055985Y-109854999D02*
X92524011Y-109854996D01*
X91757499Y-110172498D02*
X91440000Y-110490000D01*
X103822499Y-110172500D02*
X104140000Y-110490000D01*
X103055985Y-109854999D02*
G75*
G02*
X103822504Y-110172495I15J-1084001D01*
G01*
X91757499Y-110172498D02*
G75*
G02*
X92524011Y-109855003I766501J-766502D01*
G01*
%TO.N,/(RD)P3.7*%
X91440000Y-113030000D02*
X104140000Y-113030000D01*
%TO.N,/(MOSI)P1.5*%
X110490006Y-60061976D02*
X110490004Y-59318025D01*
X109220000Y-62230000D02*
X109855005Y-61595002D01*
X111125000Y-57785000D02*
X111760000Y-57150000D01*
X110490004Y-59318025D02*
G75*
G02*
X111124995Y-57784995I2167996J25D01*
G01*
X110490006Y-60061976D02*
G75*
G02*
X109855013Y-61595010I-2168006J-24D01*
G01*
%TO.N,/RST*%
X121168750Y-56631250D02*
X121920000Y-57382500D01*
X119355072Y-55880000D02*
X111574012Y-55880000D01*
X110490000Y-56964012D02*
X110490000Y-57679936D01*
X109444506Y-58830493D02*
X110386450Y-57888549D01*
X109220000Y-59372500D02*
X109220000Y-59690000D01*
%TD*%
%TA.AperFunction,Conductor*%
%TO.N,GND*%
G36*
X135580017Y-51320185D02*
G01*
X135625772Y-51372989D01*
X135635716Y-51442147D01*
X135606691Y-51505703D01*
X135590291Y-51521447D01*
X135557915Y-51547265D01*
X135367265Y-51737915D01*
X135199161Y-51948712D01*
X135055714Y-52177005D01*
X134938734Y-52419917D01*
X134849687Y-52674397D01*
X134849684Y-52674405D01*
X134789688Y-52937268D01*
X134789686Y-52937280D01*
X134759500Y-53205186D01*
X134759500Y-53474813D01*
X134789686Y-53742719D01*
X134789688Y-53742731D01*
X134849684Y-54005594D01*
X134849687Y-54005602D01*
X134938734Y-54260082D01*
X135055714Y-54502994D01*
X135055716Y-54502997D01*
X135199162Y-54731289D01*
X135367266Y-54942085D01*
X135557915Y-55132734D01*
X135768711Y-55300838D01*
X135997003Y-55444284D01*
X136239921Y-55561267D01*
X136333490Y-55594008D01*
X136494397Y-55650312D01*
X136494405Y-55650315D01*
X136494408Y-55650315D01*
X136494409Y-55650316D01*
X136757268Y-55710312D01*
X137025187Y-55740499D01*
X137025188Y-55740500D01*
X137025191Y-55740500D01*
X137294812Y-55740500D01*
X137294812Y-55740499D01*
X137562732Y-55710312D01*
X137825591Y-55650316D01*
X138080079Y-55561267D01*
X138322997Y-55444284D01*
X138551289Y-55300838D01*
X138762085Y-55132734D01*
X138952734Y-54942085D01*
X138978553Y-54909709D01*
X139035741Y-54869569D01*
X139105553Y-54866719D01*
X139165823Y-54902064D01*
X139197416Y-54964383D01*
X139199500Y-54987022D01*
X139199500Y-130432977D01*
X139179815Y-130500016D01*
X139127011Y-130545771D01*
X139057853Y-130555715D01*
X138994297Y-130526690D01*
X138978554Y-130510291D01*
X138952735Y-130477916D01*
X138762084Y-130287265D01*
X138708549Y-130244573D01*
X138551289Y-130119162D01*
X138322997Y-129975716D01*
X138322994Y-129975714D01*
X138080082Y-129858734D01*
X137825602Y-129769687D01*
X137825594Y-129769684D01*
X137628446Y-129724687D01*
X137562732Y-129709688D01*
X137562728Y-129709687D01*
X137562719Y-129709686D01*
X137294813Y-129679500D01*
X137294809Y-129679500D01*
X137025191Y-129679500D01*
X137025186Y-129679500D01*
X136757280Y-129709686D01*
X136757268Y-129709688D01*
X136494405Y-129769684D01*
X136494397Y-129769687D01*
X136239917Y-129858734D01*
X135997005Y-129975714D01*
X135768712Y-130119161D01*
X135557915Y-130287265D01*
X135367265Y-130477915D01*
X135199161Y-130688712D01*
X135055714Y-130917005D01*
X134938734Y-131159917D01*
X134849687Y-131414397D01*
X134849684Y-131414405D01*
X134789688Y-131677268D01*
X134789686Y-131677280D01*
X134759500Y-131945186D01*
X134759500Y-132214813D01*
X134789686Y-132482719D01*
X134789688Y-132482731D01*
X134849684Y-132745594D01*
X134849687Y-132745602D01*
X134938734Y-133000082D01*
X135055714Y-133242994D01*
X135055716Y-133242997D01*
X135199162Y-133471289D01*
X135324573Y-133628549D01*
X135367265Y-133682084D01*
X135557915Y-133872734D01*
X135590291Y-133898553D01*
X135630431Y-133955741D01*
X135633281Y-134025553D01*
X135597936Y-134085823D01*
X135535617Y-134117416D01*
X135512978Y-134119500D01*
X88007022Y-134119500D01*
X87939983Y-134099815D01*
X87894228Y-134047011D01*
X87884284Y-133977853D01*
X87913309Y-133914297D01*
X87929709Y-133898553D01*
X87930971Y-133897546D01*
X87962085Y-133872734D01*
X88152734Y-133682085D01*
X88320838Y-133471289D01*
X88464284Y-133242997D01*
X88581267Y-133000079D01*
X88670316Y-132745591D01*
X88730312Y-132482732D01*
X88760500Y-132214809D01*
X88760500Y-131945191D01*
X88730312Y-131677268D01*
X88670316Y-131414409D01*
X88581267Y-131159921D01*
X88464284Y-130917003D01*
X88320838Y-130688711D01*
X88152734Y-130477915D01*
X87962085Y-130287266D01*
X87751289Y-130119162D01*
X87522997Y-129975716D01*
X87522994Y-129975714D01*
X87280082Y-129858734D01*
X87025602Y-129769687D01*
X87025594Y-129769684D01*
X86828446Y-129724687D01*
X86762732Y-129709688D01*
X86762728Y-129709687D01*
X86762719Y-129709686D01*
X86494813Y-129679500D01*
X86494809Y-129679500D01*
X86225191Y-129679500D01*
X86225186Y-129679500D01*
X85957280Y-129709686D01*
X85957268Y-129709688D01*
X85694405Y-129769684D01*
X85694397Y-129769687D01*
X85439917Y-129858734D01*
X85197005Y-129975714D01*
X84968712Y-130119161D01*
X84757915Y-130287265D01*
X84567264Y-130477916D01*
X84541446Y-130510291D01*
X84484257Y-130550431D01*
X84414446Y-130553280D01*
X84354176Y-130517934D01*
X84322584Y-130455614D01*
X84320500Y-130432977D01*
X84320500Y-72283713D01*
X90089500Y-72283713D01*
X90089500Y-72496287D01*
X90122754Y-72706243D01*
X90177467Y-72874632D01*
X90188444Y-72908414D01*
X90284951Y-73097820D01*
X90409890Y-73269786D01*
X90560213Y-73420109D01*
X90732182Y-73545050D01*
X90740946Y-73549516D01*
X90791742Y-73597491D01*
X90808536Y-73665312D01*
X90785998Y-73731447D01*
X90740946Y-73770484D01*
X90732182Y-73774949D01*
X90560213Y-73899890D01*
X90409890Y-74050213D01*
X90284951Y-74222179D01*
X90188444Y-74411585D01*
X90188443Y-74411587D01*
X90188443Y-74411588D01*
X90177467Y-74445368D01*
X90122753Y-74613760D01*
X90120899Y-74625466D01*
X90089500Y-74823713D01*
X90089500Y-75036287D01*
X90122754Y-75246243D01*
X90177467Y-75414632D01*
X90188444Y-75448414D01*
X90284951Y-75637820D01*
X90409890Y-75809786D01*
X90560213Y-75960109D01*
X90732182Y-76085050D01*
X90740946Y-76089516D01*
X90791742Y-76137491D01*
X90808536Y-76205312D01*
X90785998Y-76271447D01*
X90740946Y-76310484D01*
X90732182Y-76314949D01*
X90560213Y-76439890D01*
X90409890Y-76590213D01*
X90284951Y-76762179D01*
X90188444Y-76951585D01*
X90188443Y-76951587D01*
X90188443Y-76951588D01*
X90177467Y-76985368D01*
X90122753Y-77153760D01*
X90120899Y-77165466D01*
X90089500Y-77363713D01*
X90089500Y-77576287D01*
X90122754Y-77786243D01*
X90177467Y-77954632D01*
X90188444Y-77988414D01*
X90284951Y-78177820D01*
X90409890Y-78349786D01*
X90560213Y-78500109D01*
X90732182Y-78625050D01*
X90740946Y-78629516D01*
X90791742Y-78677491D01*
X90808536Y-78745312D01*
X90785998Y-78811447D01*
X90740946Y-78850484D01*
X90732182Y-78854949D01*
X90560213Y-78979890D01*
X90409890Y-79130213D01*
X90284951Y-79302179D01*
X90188444Y-79491585D01*
X90188443Y-79491587D01*
X90188443Y-79491588D01*
X90177467Y-79525368D01*
X90122753Y-79693760D01*
X90120899Y-79705466D01*
X90089500Y-79903713D01*
X90089500Y-80116287D01*
X90122754Y-80326243D01*
X90177467Y-80494632D01*
X90188444Y-80528414D01*
X90284951Y-80717820D01*
X90409890Y-80889786D01*
X90560213Y-81040109D01*
X90732182Y-81165050D01*
X90740946Y-81169516D01*
X90791742Y-81217491D01*
X90808536Y-81285312D01*
X90785998Y-81351447D01*
X90740946Y-81390484D01*
X90732182Y-81394949D01*
X90560213Y-81519890D01*
X90409890Y-81670213D01*
X90284951Y-81842179D01*
X90188444Y-82031585D01*
X90188443Y-82031587D01*
X90188443Y-82031588D01*
X90177467Y-82065368D01*
X90122753Y-82233760D01*
X90120899Y-82245466D01*
X90089500Y-82443713D01*
X90089500Y-82656287D01*
X90122754Y-82866243D01*
X90177467Y-83034632D01*
X90188444Y-83068414D01*
X90284951Y-83257820D01*
X90409890Y-83429786D01*
X90560213Y-83580109D01*
X90732182Y-83705050D01*
X90740946Y-83709516D01*
X90791742Y-83757491D01*
X90808536Y-83825312D01*
X90785998Y-83891447D01*
X90740946Y-83930484D01*
X90732182Y-83934949D01*
X90560213Y-84059890D01*
X90409890Y-84210213D01*
X90284951Y-84382179D01*
X90188444Y-84571585D01*
X90188443Y-84571587D01*
X90188443Y-84571588D01*
X90177467Y-84605368D01*
X90122753Y-84773760D01*
X90120899Y-84785466D01*
X90089500Y-84983713D01*
X90089500Y-85196287D01*
X90122754Y-85406243D01*
X90177467Y-85574632D01*
X90188444Y-85608414D01*
X90284951Y-85797820D01*
X90409890Y-85969786D01*
X90560213Y-86120109D01*
X90732182Y-86245050D01*
X90740946Y-86249516D01*
X90791742Y-86297491D01*
X90808536Y-86365312D01*
X90785998Y-86431447D01*
X90740946Y-86470484D01*
X90732182Y-86474949D01*
X90560213Y-86599890D01*
X90409890Y-86750213D01*
X90284951Y-86922179D01*
X90188444Y-87111585D01*
X90188443Y-87111587D01*
X90188443Y-87111588D01*
X90177467Y-87145368D01*
X90122753Y-87313760D01*
X90120899Y-87325466D01*
X90089500Y-87523713D01*
X90089500Y-87736287D01*
X90122754Y-87946243D01*
X90177467Y-88114632D01*
X90188444Y-88148414D01*
X90284951Y-88337820D01*
X90409890Y-88509786D01*
X90560213Y-88660109D01*
X90732182Y-88785050D01*
X90740946Y-88789516D01*
X90791742Y-88837491D01*
X90808536Y-88905312D01*
X90785998Y-88971447D01*
X90740946Y-89010484D01*
X90732182Y-89014949D01*
X90560213Y-89139890D01*
X90409890Y-89290213D01*
X90284951Y-89462179D01*
X90188444Y-89651585D01*
X90188443Y-89651587D01*
X90188443Y-89651588D01*
X90177467Y-89685368D01*
X90122753Y-89853760D01*
X90120899Y-89865466D01*
X90089500Y-90063713D01*
X90089500Y-90276287D01*
X90122754Y-90486243D01*
X90177467Y-90654632D01*
X90188444Y-90688414D01*
X90284951Y-90877820D01*
X90409890Y-91049786D01*
X90560213Y-91200109D01*
X90732182Y-91325050D01*
X90740946Y-91329516D01*
X90791742Y-91377491D01*
X90808536Y-91445312D01*
X90785998Y-91511447D01*
X90740946Y-91550484D01*
X90732182Y-91554949D01*
X90560213Y-91679890D01*
X90409890Y-91830213D01*
X90284951Y-92002179D01*
X90188444Y-92191585D01*
X90188443Y-92191587D01*
X90188443Y-92191588D01*
X90177467Y-92225368D01*
X90122753Y-92393760D01*
X90120899Y-92405466D01*
X90089500Y-92603713D01*
X90089500Y-92816287D01*
X90122754Y-93026243D01*
X90177467Y-93194632D01*
X90188444Y-93228414D01*
X90284951Y-93417820D01*
X90409890Y-93589786D01*
X90560213Y-93740109D01*
X90732182Y-93865050D01*
X90740946Y-93869516D01*
X90791742Y-93917491D01*
X90808536Y-93985312D01*
X90785998Y-94051447D01*
X90740946Y-94090484D01*
X90732182Y-94094949D01*
X90560213Y-94219890D01*
X90409890Y-94370213D01*
X90284951Y-94542179D01*
X90188444Y-94731585D01*
X90188443Y-94731587D01*
X90188443Y-94731588D01*
X90177467Y-94765368D01*
X90122753Y-94933760D01*
X90119490Y-94954362D01*
X90089500Y-95143713D01*
X90089500Y-95356287D01*
X90122754Y-95566243D01*
X90177467Y-95734632D01*
X90188444Y-95768414D01*
X90284951Y-95957820D01*
X90409890Y-96129786D01*
X90560213Y-96280109D01*
X90732182Y-96405050D01*
X90740946Y-96409516D01*
X90791742Y-96457491D01*
X90808536Y-96525312D01*
X90785998Y-96591447D01*
X90740946Y-96630484D01*
X90732182Y-96634949D01*
X90560213Y-96759890D01*
X90409890Y-96910213D01*
X90284951Y-97082179D01*
X90188444Y-97271585D01*
X90188443Y-97271587D01*
X90188443Y-97271588D01*
X90177467Y-97305368D01*
X90122753Y-97473760D01*
X90119490Y-97494362D01*
X90089500Y-97683713D01*
X90089500Y-97896287D01*
X90122754Y-98106243D01*
X90177467Y-98274632D01*
X90188444Y-98308414D01*
X90284951Y-98497820D01*
X90409890Y-98669786D01*
X90560213Y-98820109D01*
X90732182Y-98945050D01*
X90740946Y-98949516D01*
X90791742Y-98997491D01*
X90808536Y-99065312D01*
X90785998Y-99131447D01*
X90740946Y-99170484D01*
X90732182Y-99174949D01*
X90560213Y-99299890D01*
X90409890Y-99450213D01*
X90284951Y-99622179D01*
X90188444Y-99811585D01*
X90188443Y-99811587D01*
X90188443Y-99811588D01*
X90177467Y-99845368D01*
X90122753Y-100013760D01*
X90119490Y-100034362D01*
X90089500Y-100223713D01*
X90089500Y-100436287D01*
X90122754Y-100646243D01*
X90177467Y-100814632D01*
X90188444Y-100848414D01*
X90284951Y-101037820D01*
X90409890Y-101209786D01*
X90560213Y-101360109D01*
X90732182Y-101485050D01*
X90740946Y-101489516D01*
X90791742Y-101537491D01*
X90808536Y-101605312D01*
X90785998Y-101671447D01*
X90740946Y-101710484D01*
X90732182Y-101714949D01*
X90560213Y-101839890D01*
X90409890Y-101990213D01*
X90284951Y-102162179D01*
X90188444Y-102351585D01*
X90188443Y-102351587D01*
X90188443Y-102351588D01*
X90177467Y-102385368D01*
X90122753Y-102553760D01*
X90119490Y-102574362D01*
X90089500Y-102763713D01*
X90089500Y-102976287D01*
X90122754Y-103186243D01*
X90177467Y-103354632D01*
X90188444Y-103388414D01*
X90284951Y-103577820D01*
X90409890Y-103749786D01*
X90560213Y-103900109D01*
X90732182Y-104025050D01*
X90740946Y-104029516D01*
X90791742Y-104077491D01*
X90808536Y-104145312D01*
X90785998Y-104211447D01*
X90740946Y-104250484D01*
X90732182Y-104254949D01*
X90560213Y-104379890D01*
X90409890Y-104530213D01*
X90284951Y-104702179D01*
X90188444Y-104891585D01*
X90188443Y-104891587D01*
X90188443Y-104891588D01*
X90177467Y-104925368D01*
X90122753Y-105093760D01*
X90119490Y-105114362D01*
X90089500Y-105303713D01*
X90089500Y-105516287D01*
X90091688Y-105530099D01*
X90122753Y-105726239D01*
X90122753Y-105726241D01*
X90122754Y-105726243D01*
X90177467Y-105894632D01*
X90188444Y-105928414D01*
X90284951Y-106117820D01*
X90409890Y-106289786D01*
X90560213Y-106440109D01*
X90732182Y-106565050D01*
X90740946Y-106569516D01*
X90791742Y-106617491D01*
X90808536Y-106685312D01*
X90785998Y-106751447D01*
X90740946Y-106790484D01*
X90732182Y-106794949D01*
X90560213Y-106919890D01*
X90409890Y-107070213D01*
X90284951Y-107242179D01*
X90188444Y-107431585D01*
X90188443Y-107431587D01*
X90188443Y-107431588D01*
X90177467Y-107465368D01*
X90122753Y-107633760D01*
X90107622Y-107729296D01*
X90089500Y-107843713D01*
X90089500Y-108056287D01*
X90122754Y-108266243D01*
X90177467Y-108434632D01*
X90188444Y-108468414D01*
X90284951Y-108657820D01*
X90409890Y-108829786D01*
X90560213Y-108980109D01*
X90732182Y-109105050D01*
X90740946Y-109109516D01*
X90791742Y-109157491D01*
X90808536Y-109225312D01*
X90785998Y-109291447D01*
X90740946Y-109330484D01*
X90732182Y-109334949D01*
X90560213Y-109459890D01*
X90409890Y-109610213D01*
X90284951Y-109782179D01*
X90188444Y-109971585D01*
X90188443Y-109971587D01*
X90188443Y-109971588D01*
X90177467Y-110005368D01*
X90122753Y-110173760D01*
X90119490Y-110194362D01*
X90089500Y-110383713D01*
X90089500Y-110596287D01*
X90091688Y-110610099D01*
X90122753Y-110806239D01*
X90122753Y-110806241D01*
X90122754Y-110806243D01*
X90177467Y-110974632D01*
X90188444Y-111008414D01*
X90284951Y-111197820D01*
X90409890Y-111369786D01*
X90560213Y-111520109D01*
X90732182Y-111645050D01*
X90740946Y-111649516D01*
X90791742Y-111697491D01*
X90808536Y-111765312D01*
X90785998Y-111831447D01*
X90740946Y-111870484D01*
X90732182Y-111874949D01*
X90560213Y-111999890D01*
X90409890Y-112150213D01*
X90284951Y-112322179D01*
X90188444Y-112511585D01*
X90188443Y-112511587D01*
X90188443Y-112511588D01*
X90177467Y-112545368D01*
X90122753Y-112713760D01*
X90119490Y-112734362D01*
X90089500Y-112923713D01*
X90089500Y-113136287D01*
X90122754Y-113346243D01*
X90177467Y-113514632D01*
X90188444Y-113548414D01*
X90284951Y-113737820D01*
X90409890Y-113909786D01*
X90560213Y-114060109D01*
X90732182Y-114185050D01*
X90740946Y-114189516D01*
X90791742Y-114237491D01*
X90808536Y-114305312D01*
X90785998Y-114371447D01*
X90740946Y-114410484D01*
X90732182Y-114414949D01*
X90560213Y-114539890D01*
X90409890Y-114690213D01*
X90284951Y-114862179D01*
X90188444Y-115051585D01*
X90188443Y-115051587D01*
X90188443Y-115051588D01*
X90177467Y-115085368D01*
X90122753Y-115253760D01*
X90119490Y-115274362D01*
X90089500Y-115463713D01*
X90089500Y-115676287D01*
X90122754Y-115886243D01*
X90177467Y-116054632D01*
X90188444Y-116088414D01*
X90284951Y-116277820D01*
X90409890Y-116449786D01*
X90560213Y-116600109D01*
X90732182Y-116725050D01*
X90740946Y-116729516D01*
X90791742Y-116777491D01*
X90808536Y-116845312D01*
X90785998Y-116911447D01*
X90740946Y-116950484D01*
X90732182Y-116954949D01*
X90560213Y-117079890D01*
X90409890Y-117230213D01*
X90284951Y-117402179D01*
X90188444Y-117591585D01*
X90188443Y-117591587D01*
X90188443Y-117591588D01*
X90177467Y-117625368D01*
X90122753Y-117793760D01*
X90119490Y-117814362D01*
X90089500Y-118003713D01*
X90089500Y-118216287D01*
X90122754Y-118426243D01*
X90177467Y-118594632D01*
X90188444Y-118628414D01*
X90284951Y-118817820D01*
X90409890Y-118989786D01*
X90560213Y-119140109D01*
X90732179Y-119265048D01*
X90732181Y-119265049D01*
X90732184Y-119265051D01*
X90741493Y-119269794D01*
X90792290Y-119317766D01*
X90809087Y-119385587D01*
X90786552Y-119451722D01*
X90741505Y-119490760D01*
X90732446Y-119495376D01*
X90732440Y-119495380D01*
X90678282Y-119534727D01*
X90678282Y-119534728D01*
X91310591Y-120167037D01*
X91247007Y-120184075D01*
X91132993Y-120249901D01*
X91039901Y-120342993D01*
X90974075Y-120457007D01*
X90957037Y-120520591D01*
X90324728Y-119888282D01*
X90324727Y-119888282D01*
X90285380Y-119942439D01*
X90188904Y-120131782D01*
X90123242Y-120333869D01*
X90123242Y-120333872D01*
X90090000Y-120543753D01*
X90090000Y-120756246D01*
X90123242Y-120966127D01*
X90123242Y-120966130D01*
X90188904Y-121168217D01*
X90285375Y-121357550D01*
X90324728Y-121411716D01*
X90957037Y-120779408D01*
X90974075Y-120842993D01*
X91039901Y-120957007D01*
X91132993Y-121050099D01*
X91247007Y-121115925D01*
X91310590Y-121132962D01*
X90678282Y-121765269D01*
X90678282Y-121765270D01*
X90732449Y-121804624D01*
X90921782Y-121901095D01*
X91123870Y-121966757D01*
X91333754Y-122000000D01*
X91546246Y-122000000D01*
X91756127Y-121966757D01*
X91756130Y-121966757D01*
X91958217Y-121901095D01*
X92147554Y-121804622D01*
X92201716Y-121765270D01*
X92201717Y-121765270D01*
X92179137Y-121742690D01*
X91569408Y-121132962D01*
X91632993Y-121115925D01*
X91747007Y-121050099D01*
X91840099Y-120957007D01*
X91905925Y-120842993D01*
X91922962Y-120779408D01*
X92555270Y-121411717D01*
X92555270Y-121411716D01*
X92594622Y-121357554D01*
X92691095Y-121168217D01*
X92756757Y-120966130D01*
X92756757Y-120966127D01*
X92790000Y-120756246D01*
X92790000Y-120543753D01*
X92756757Y-120333872D01*
X92756757Y-120333869D01*
X92691095Y-120131782D01*
X92594624Y-119942449D01*
X92555270Y-119888282D01*
X92555269Y-119888282D01*
X91922962Y-120520590D01*
X91905925Y-120457007D01*
X91840099Y-120342993D01*
X91747007Y-120249901D01*
X91632993Y-120184075D01*
X91569409Y-120167037D01*
X92201716Y-119534728D01*
X92147547Y-119495373D01*
X92147547Y-119495372D01*
X92138500Y-119490763D01*
X92087706Y-119442788D01*
X92070912Y-119374966D01*
X92093451Y-119308832D01*
X92138508Y-119269793D01*
X92147816Y-119265051D01*
X92227007Y-119207515D01*
X92319786Y-119140109D01*
X92319788Y-119140106D01*
X92319792Y-119140104D01*
X92470104Y-118989792D01*
X92470106Y-118989788D01*
X92470109Y-118989786D01*
X92595048Y-118817820D01*
X92595047Y-118817820D01*
X92595051Y-118817816D01*
X92691557Y-118628412D01*
X92757246Y-118426243D01*
X92790500Y-118216287D01*
X92790500Y-118003713D01*
X92757246Y-117793757D01*
X92691557Y-117591588D01*
X92595051Y-117402184D01*
X92595049Y-117402181D01*
X92595048Y-117402179D01*
X92470109Y-117230213D01*
X92319786Y-117079890D01*
X92147820Y-116954951D01*
X92147115Y-116954591D01*
X92139054Y-116950485D01*
X92088259Y-116902512D01*
X92071463Y-116834692D01*
X92093999Y-116768556D01*
X92139054Y-116729515D01*
X92147816Y-116725051D01*
X92251409Y-116649787D01*
X92319786Y-116600109D01*
X92319788Y-116600106D01*
X92319792Y-116600104D01*
X92470104Y-116449792D01*
X92470106Y-116449788D01*
X92470109Y-116449786D01*
X92597915Y-116273875D01*
X92599259Y-116274851D01*
X92645705Y-116232834D01*
X92699618Y-116220500D01*
X102988899Y-116220500D01*
X103055938Y-116240185D01*
X103089217Y-116271615D01*
X103093725Y-116277820D01*
X103177019Y-116392464D01*
X103317536Y-116532981D01*
X103478306Y-116649787D01*
X103596832Y-116710179D01*
X103634780Y-116729515D01*
X103685576Y-116777490D01*
X103702371Y-116845311D01*
X103679833Y-116911446D01*
X103634780Y-116950485D01*
X103478305Y-117030213D01*
X103317533Y-117147021D01*
X103177021Y-117287533D01*
X103060213Y-117448305D01*
X102969994Y-117625367D01*
X102969993Y-117625370D01*
X102908587Y-117814362D01*
X102877500Y-118010639D01*
X102877500Y-118209360D01*
X102908587Y-118405637D01*
X102969993Y-118594629D01*
X102969994Y-118594632D01*
X103060213Y-118771694D01*
X103177019Y-118932464D01*
X103317536Y-119072981D01*
X103478306Y-119189787D01*
X103635332Y-119269796D01*
X103686127Y-119317769D01*
X103702922Y-119385590D01*
X103680385Y-119451725D01*
X103635332Y-119490764D01*
X103478566Y-119570641D01*
X103441283Y-119597729D01*
X103441282Y-119597730D01*
X104087154Y-120243600D01*
X104086496Y-120243600D01*
X103983135Y-120271295D01*
X103890464Y-120324799D01*
X103814799Y-120400464D01*
X103761295Y-120493135D01*
X103733600Y-120596496D01*
X103733600Y-120597152D01*
X103087730Y-119951282D01*
X103087729Y-119951283D01*
X103060643Y-119988564D01*
X102970457Y-120165562D01*
X102909075Y-120354476D01*
X102909075Y-120354479D01*
X102878000Y-120550678D01*
X102878000Y-120749321D01*
X102909075Y-120945520D01*
X102909075Y-120945523D01*
X102970457Y-121134437D01*
X103060641Y-121311432D01*
X103087730Y-121348715D01*
X103087731Y-121348716D01*
X103733600Y-120702847D01*
X103733600Y-120703504D01*
X103761295Y-120806865D01*
X103814799Y-120899536D01*
X103890464Y-120975201D01*
X103983135Y-121028705D01*
X104086496Y-121056400D01*
X104087153Y-121056400D01*
X103441283Y-121702268D01*
X103441283Y-121702269D01*
X103478567Y-121729358D01*
X103655562Y-121819542D01*
X103844477Y-121880924D01*
X104040679Y-121912000D01*
X104239321Y-121912000D01*
X104435520Y-121880924D01*
X104435523Y-121880924D01*
X104624437Y-121819542D01*
X104801425Y-121729362D01*
X104838716Y-121702268D01*
X104192848Y-121056400D01*
X104193504Y-121056400D01*
X104296865Y-121028705D01*
X104389536Y-120975201D01*
X104465201Y-120899536D01*
X104518705Y-120806865D01*
X104546400Y-120703504D01*
X104546400Y-120702847D01*
X105192268Y-121348715D01*
X105219362Y-121311425D01*
X105309542Y-121134437D01*
X105370924Y-120945523D01*
X105370924Y-120945520D01*
X105402000Y-120749321D01*
X105402000Y-120550678D01*
X105370924Y-120354479D01*
X105370924Y-120354476D01*
X105309542Y-120165562D01*
X105219358Y-119988567D01*
X105192268Y-119951283D01*
X104546400Y-120597151D01*
X104546400Y-120596496D01*
X104518705Y-120493135D01*
X104465201Y-120400464D01*
X104389536Y-120324799D01*
X104296865Y-120271295D01*
X104193504Y-120243600D01*
X104192847Y-120243600D01*
X104838716Y-119597731D01*
X104838715Y-119597730D01*
X104801432Y-119570641D01*
X104644668Y-119490765D01*
X104593872Y-119442790D01*
X104577077Y-119374969D01*
X104599615Y-119308834D01*
X104644667Y-119269796D01*
X104801694Y-119189787D01*
X104962464Y-119072981D01*
X105102981Y-118932464D01*
X105219787Y-118771694D01*
X105310005Y-118594632D01*
X105371413Y-118405636D01*
X105402500Y-118209361D01*
X105402500Y-118010639D01*
X105371413Y-117814364D01*
X105310005Y-117625368D01*
X105310005Y-117625367D01*
X105219786Y-117448305D01*
X105186277Y-117402184D01*
X105102981Y-117287536D01*
X104962464Y-117147019D01*
X104801694Y-117030213D01*
X104645218Y-116950484D01*
X104594423Y-116902510D01*
X104577628Y-116834689D01*
X104600165Y-116768554D01*
X104645218Y-116729515D01*
X104801694Y-116649787D01*
X104962464Y-116532981D01*
X105102981Y-116392464D01*
X105219787Y-116231694D01*
X105310005Y-116054632D01*
X105371413Y-115865636D01*
X105402500Y-115669361D01*
X105402500Y-115470639D01*
X105371413Y-115274364D01*
X105310005Y-115085368D01*
X105310005Y-115085367D01*
X105264035Y-114995149D01*
X105219787Y-114908306D01*
X105102981Y-114747536D01*
X104962464Y-114607019D01*
X104801694Y-114490213D01*
X104645218Y-114410484D01*
X104594423Y-114362510D01*
X104577628Y-114294689D01*
X104600165Y-114228554D01*
X104645218Y-114189515D01*
X104801694Y-114109787D01*
X104962464Y-113992981D01*
X105102981Y-113852464D01*
X105219787Y-113691694D01*
X105310005Y-113514632D01*
X105371413Y-113325636D01*
X105402500Y-113129361D01*
X105402500Y-112930639D01*
X105371413Y-112734364D01*
X105310005Y-112545368D01*
X105310005Y-112545367D01*
X105264035Y-112455149D01*
X105219787Y-112368306D01*
X105102981Y-112207536D01*
X104962464Y-112067019D01*
X104801694Y-111950213D01*
X104645218Y-111870484D01*
X104594423Y-111822510D01*
X104577628Y-111754689D01*
X104600165Y-111688554D01*
X104645218Y-111649515D01*
X104801694Y-111569787D01*
X104962464Y-111452981D01*
X105102981Y-111312464D01*
X105219787Y-111151694D01*
X105310005Y-110974632D01*
X105371413Y-110785636D01*
X105402500Y-110589361D01*
X105402500Y-110390639D01*
X105371413Y-110194364D01*
X105310005Y-110005368D01*
X105310005Y-110005367D01*
X105219786Y-109828305D01*
X105186277Y-109782184D01*
X105102981Y-109667536D01*
X104962464Y-109527019D01*
X104801694Y-109410213D01*
X104645218Y-109330484D01*
X104594423Y-109282510D01*
X104577628Y-109214689D01*
X104600165Y-109148554D01*
X104645218Y-109109515D01*
X104801694Y-109029787D01*
X104962464Y-108912981D01*
X105102981Y-108772464D01*
X105219787Y-108611694D01*
X105310005Y-108434632D01*
X105371413Y-108245636D01*
X105402500Y-108049361D01*
X105402500Y-107850639D01*
X105371413Y-107654364D01*
X105310005Y-107465368D01*
X105310005Y-107465367D01*
X105219786Y-107288305D01*
X105186277Y-107242184D01*
X105102981Y-107127536D01*
X104962464Y-106987019D01*
X104801694Y-106870213D01*
X104645218Y-106790484D01*
X104594423Y-106742510D01*
X104577628Y-106674689D01*
X104600165Y-106608554D01*
X104645218Y-106569515D01*
X104801694Y-106489787D01*
X104962464Y-106372981D01*
X105102981Y-106232464D01*
X105219787Y-106071694D01*
X105310005Y-105894632D01*
X105371413Y-105705636D01*
X105402500Y-105509361D01*
X105402500Y-105310639D01*
X105371413Y-105114364D01*
X105310005Y-104925368D01*
X105310005Y-104925367D01*
X105219786Y-104748305D01*
X105186277Y-104702184D01*
X105102981Y-104587536D01*
X104962464Y-104447019D01*
X104801694Y-104330213D01*
X104645218Y-104250484D01*
X104594423Y-104202510D01*
X104577628Y-104134689D01*
X104600165Y-104068554D01*
X104645218Y-104029515D01*
X104801694Y-103949787D01*
X104962464Y-103832981D01*
X105102981Y-103692464D01*
X105219787Y-103531694D01*
X105310005Y-103354632D01*
X105371413Y-103165636D01*
X105402500Y-102969361D01*
X105402500Y-102770639D01*
X105371413Y-102574364D01*
X105310005Y-102385368D01*
X105310005Y-102385367D01*
X105264035Y-102295149D01*
X105219787Y-102208306D01*
X105102981Y-102047536D01*
X104962464Y-101907019D01*
X104801694Y-101790213D01*
X104645218Y-101710484D01*
X104594423Y-101662510D01*
X104577628Y-101594689D01*
X104600165Y-101528554D01*
X104645218Y-101489515D01*
X104801694Y-101409787D01*
X104962464Y-101292981D01*
X105102981Y-101152464D01*
X105219787Y-100991694D01*
X105310005Y-100814632D01*
X105371413Y-100625636D01*
X105402500Y-100429361D01*
X105402500Y-100230639D01*
X105371413Y-100034364D01*
X105310005Y-99845368D01*
X105310005Y-99845367D01*
X105264035Y-99755149D01*
X105219787Y-99668306D01*
X105102981Y-99507536D01*
X104962464Y-99367019D01*
X104801694Y-99250213D01*
X104645218Y-99170484D01*
X104594423Y-99122510D01*
X104577628Y-99054689D01*
X104600165Y-98988554D01*
X104645218Y-98949515D01*
X104801694Y-98869787D01*
X104962464Y-98752981D01*
X105102981Y-98612464D01*
X105219787Y-98451694D01*
X105310005Y-98274632D01*
X105371413Y-98085636D01*
X105402500Y-97889361D01*
X105402500Y-97690639D01*
X105371413Y-97494364D01*
X105310005Y-97305368D01*
X105310005Y-97305367D01*
X105219786Y-97128305D01*
X105186277Y-97082184D01*
X105102981Y-96967536D01*
X104962464Y-96827019D01*
X104801694Y-96710213D01*
X104645218Y-96630484D01*
X104594423Y-96582510D01*
X104577628Y-96514689D01*
X104600165Y-96448554D01*
X104645218Y-96409515D01*
X104801694Y-96329787D01*
X104962464Y-96212981D01*
X105102981Y-96072464D01*
X105219787Y-95911694D01*
X105310005Y-95734632D01*
X105371413Y-95545636D01*
X105402500Y-95349361D01*
X105402500Y-95150639D01*
X105371413Y-94954364D01*
X105310005Y-94765368D01*
X105310005Y-94765367D01*
X105219786Y-94588305D01*
X105186277Y-94542184D01*
X105102981Y-94427536D01*
X104962464Y-94287019D01*
X104801694Y-94170213D01*
X104645218Y-94090484D01*
X104594423Y-94042510D01*
X104577628Y-93974689D01*
X104600165Y-93908554D01*
X104645218Y-93869515D01*
X104801694Y-93789787D01*
X104962464Y-93672981D01*
X105102981Y-93532464D01*
X105219787Y-93371694D01*
X105310005Y-93194632D01*
X105371413Y-93005636D01*
X105402500Y-92809361D01*
X105402500Y-92610639D01*
X105371413Y-92414364D01*
X105310005Y-92225368D01*
X105310005Y-92225367D01*
X105219786Y-92048305D01*
X105186277Y-92002184D01*
X105102981Y-91887536D01*
X104962464Y-91747019D01*
X104801694Y-91630213D01*
X104645218Y-91550484D01*
X104594423Y-91502510D01*
X104577628Y-91434689D01*
X104600165Y-91368554D01*
X104645218Y-91329515D01*
X104801694Y-91249787D01*
X104962464Y-91132981D01*
X105102981Y-90992464D01*
X105219787Y-90831694D01*
X105310005Y-90654632D01*
X105371413Y-90465636D01*
X105402500Y-90269361D01*
X105402500Y-90070639D01*
X105371413Y-89874364D01*
X105310005Y-89685368D01*
X105310005Y-89685367D01*
X105219786Y-89508305D01*
X105186277Y-89462184D01*
X105102981Y-89347536D01*
X104962464Y-89207019D01*
X104801694Y-89090213D01*
X104645218Y-89010484D01*
X104594423Y-88962510D01*
X104577628Y-88894689D01*
X104600165Y-88828554D01*
X104645218Y-88789515D01*
X104801694Y-88709787D01*
X104962464Y-88592981D01*
X105102981Y-88452464D01*
X105219787Y-88291694D01*
X105310005Y-88114632D01*
X105371413Y-87925636D01*
X105402500Y-87729361D01*
X105402500Y-87530639D01*
X105371413Y-87334364D01*
X105310005Y-87145368D01*
X105310005Y-87145367D01*
X105219786Y-86968305D01*
X105186277Y-86922184D01*
X105102981Y-86807536D01*
X104962464Y-86667019D01*
X104801694Y-86550213D01*
X104645218Y-86470484D01*
X104594423Y-86422510D01*
X104577628Y-86354689D01*
X104600165Y-86288554D01*
X104645218Y-86249515D01*
X104801694Y-86169787D01*
X104962464Y-86052981D01*
X105102981Y-85912464D01*
X105219787Y-85751694D01*
X105310005Y-85574632D01*
X105371413Y-85385636D01*
X105402500Y-85189361D01*
X105402500Y-84990639D01*
X105371413Y-84794364D01*
X105310005Y-84605368D01*
X105310005Y-84605367D01*
X105219786Y-84428305D01*
X105186277Y-84382184D01*
X105102981Y-84267536D01*
X104962464Y-84127019D01*
X104801694Y-84010213D01*
X104645218Y-83930484D01*
X104594423Y-83882510D01*
X104577628Y-83814689D01*
X104600165Y-83748554D01*
X104645218Y-83709515D01*
X104801694Y-83629787D01*
X104962464Y-83512981D01*
X105102981Y-83372464D01*
X105219787Y-83211694D01*
X105310005Y-83034632D01*
X105371413Y-82845636D01*
X105402500Y-82649361D01*
X105402500Y-82450639D01*
X105371413Y-82254364D01*
X105310005Y-82065368D01*
X105310005Y-82065367D01*
X105219786Y-81888305D01*
X105186277Y-81842184D01*
X105102981Y-81727536D01*
X104962464Y-81587019D01*
X104801694Y-81470213D01*
X104645218Y-81390484D01*
X104594423Y-81342510D01*
X104577628Y-81274689D01*
X104600165Y-81208554D01*
X104645218Y-81169515D01*
X104801694Y-81089787D01*
X104962464Y-80972981D01*
X105102981Y-80832464D01*
X105219787Y-80671694D01*
X105310005Y-80494632D01*
X105371413Y-80305636D01*
X105402500Y-80109361D01*
X105402500Y-79910639D01*
X105371413Y-79714364D01*
X105310005Y-79525368D01*
X105310005Y-79525367D01*
X105219786Y-79348305D01*
X105186277Y-79302184D01*
X105102981Y-79187536D01*
X104962464Y-79047019D01*
X104801694Y-78930213D01*
X104645218Y-78850484D01*
X104594423Y-78802510D01*
X104577628Y-78734689D01*
X104600165Y-78668554D01*
X104645218Y-78629515D01*
X104801694Y-78549787D01*
X104962464Y-78432981D01*
X105102981Y-78292464D01*
X105219787Y-78131694D01*
X105310005Y-77954632D01*
X105371413Y-77765636D01*
X105402500Y-77569361D01*
X105402500Y-77370639D01*
X105371413Y-77174364D01*
X105310005Y-76985368D01*
X105310005Y-76985367D01*
X105219786Y-76808305D01*
X105186277Y-76762184D01*
X105102981Y-76647536D01*
X104962464Y-76507019D01*
X104801694Y-76390213D01*
X104645218Y-76310484D01*
X104594423Y-76262510D01*
X104577628Y-76194689D01*
X104600165Y-76128554D01*
X104645218Y-76089515D01*
X104801694Y-76009787D01*
X104962464Y-75892981D01*
X105102981Y-75752464D01*
X105219787Y-75591694D01*
X105310005Y-75414632D01*
X105371413Y-75225636D01*
X105402500Y-75029361D01*
X105402500Y-74830639D01*
X105371413Y-74634364D01*
X105310005Y-74445368D01*
X105310005Y-74445367D01*
X105219786Y-74268305D01*
X105186277Y-74222184D01*
X105102981Y-74107536D01*
X104962464Y-73967019D01*
X104838310Y-73876816D01*
X104795646Y-73821487D01*
X104789667Y-73751874D01*
X104822273Y-73690079D01*
X104883112Y-73655721D01*
X104911196Y-73652499D01*
X104949872Y-73652499D01*
X105009483Y-73646091D01*
X105144331Y-73595796D01*
X105259546Y-73509546D01*
X105345796Y-73394331D01*
X105396091Y-73259483D01*
X105402500Y-73199873D01*
X105402499Y-72290639D01*
X118117500Y-72290639D01*
X118117500Y-72489360D01*
X118148587Y-72685637D01*
X118209993Y-72874629D01*
X118209994Y-72874632D01*
X118300213Y-73051694D01*
X118417019Y-73212464D01*
X118557536Y-73352981D01*
X118718306Y-73469787D01*
X118796333Y-73509544D01*
X118874780Y-73549515D01*
X118925576Y-73597490D01*
X118942371Y-73665311D01*
X118919833Y-73731446D01*
X118874780Y-73770485D01*
X118718305Y-73850213D01*
X118557533Y-73967021D01*
X118417021Y-74107533D01*
X118300213Y-74268305D01*
X118209994Y-74445367D01*
X118209993Y-74445370D01*
X118148587Y-74634362D01*
X118117500Y-74830639D01*
X118117500Y-75029360D01*
X118148587Y-75225637D01*
X118209993Y-75414629D01*
X118209994Y-75414632D01*
X118300213Y-75591694D01*
X118417019Y-75752464D01*
X118557536Y-75892981D01*
X118718306Y-76009787D01*
X118782085Y-76042284D01*
X118874780Y-76089515D01*
X118925576Y-76137490D01*
X118942371Y-76205311D01*
X118919833Y-76271446D01*
X118874780Y-76310485D01*
X118718305Y-76390213D01*
X118557533Y-76507021D01*
X118417021Y-76647533D01*
X118300213Y-76808305D01*
X118209994Y-76985367D01*
X118209993Y-76985370D01*
X118148587Y-77174362D01*
X118117500Y-77370639D01*
X118117500Y-77569360D01*
X118148587Y-77765637D01*
X118209993Y-77954629D01*
X118209994Y-77954632D01*
X118300213Y-78131694D01*
X118417019Y-78292464D01*
X118557536Y-78432981D01*
X118718306Y-78549787D01*
X118782085Y-78582284D01*
X118874780Y-78629515D01*
X118925576Y-78677490D01*
X118942371Y-78745311D01*
X118919833Y-78811446D01*
X118874780Y-78850485D01*
X118718305Y-78930213D01*
X118557533Y-79047021D01*
X118417021Y-79187533D01*
X118300213Y-79348305D01*
X118209994Y-79525367D01*
X118209993Y-79525370D01*
X118148587Y-79714362D01*
X118117500Y-79910639D01*
X118117500Y-80109360D01*
X118148587Y-80305637D01*
X118209993Y-80494629D01*
X118209994Y-80494632D01*
X118300213Y-80671694D01*
X118417019Y-80832464D01*
X118557536Y-80972981D01*
X118718306Y-81089787D01*
X118782085Y-81122284D01*
X118874780Y-81169515D01*
X118925576Y-81217490D01*
X118942371Y-81285311D01*
X118919833Y-81351446D01*
X118874780Y-81390485D01*
X118718305Y-81470213D01*
X118557533Y-81587021D01*
X118417021Y-81727533D01*
X118300213Y-81888305D01*
X118209994Y-82065367D01*
X118209993Y-82065370D01*
X118148587Y-82254362D01*
X118117500Y-82450639D01*
X118117500Y-82649360D01*
X118148587Y-82845637D01*
X118209993Y-83034629D01*
X118209994Y-83034632D01*
X118300213Y-83211694D01*
X118417019Y-83372464D01*
X118557536Y-83512981D01*
X118718306Y-83629787D01*
X118782085Y-83662284D01*
X118874780Y-83709515D01*
X118925576Y-83757490D01*
X118942371Y-83825311D01*
X118919833Y-83891446D01*
X118874780Y-83930485D01*
X118718305Y-84010213D01*
X118557533Y-84127021D01*
X118417021Y-84267533D01*
X118300213Y-84428305D01*
X118209994Y-84605367D01*
X118209993Y-84605370D01*
X118148587Y-84794362D01*
X118117500Y-84990639D01*
X118117500Y-85189360D01*
X118148587Y-85385637D01*
X118209993Y-85574629D01*
X118209994Y-85574632D01*
X118300213Y-85751694D01*
X118417019Y-85912464D01*
X118557536Y-86052981D01*
X118718306Y-86169787D01*
X118782085Y-86202284D01*
X118874780Y-86249515D01*
X118925576Y-86297490D01*
X118942371Y-86365311D01*
X118919833Y-86431446D01*
X118874780Y-86470485D01*
X118718305Y-86550213D01*
X118557533Y-86667021D01*
X118417021Y-86807533D01*
X118300213Y-86968305D01*
X118209994Y-87145367D01*
X118209993Y-87145370D01*
X118148587Y-87334362D01*
X118117500Y-87530639D01*
X118117500Y-87729360D01*
X118148587Y-87925637D01*
X118209993Y-88114629D01*
X118209994Y-88114632D01*
X118300213Y-88291694D01*
X118417019Y-88452464D01*
X118557536Y-88592981D01*
X118718306Y-88709787D01*
X118782085Y-88742284D01*
X118874780Y-88789515D01*
X118925576Y-88837490D01*
X118942371Y-88905311D01*
X118919833Y-88971446D01*
X118874780Y-89010485D01*
X118718305Y-89090213D01*
X118557533Y-89207021D01*
X118417021Y-89347533D01*
X118300213Y-89508305D01*
X118209994Y-89685367D01*
X118209993Y-89685370D01*
X118148587Y-89874362D01*
X118117500Y-90070639D01*
X118117500Y-90269360D01*
X118148587Y-90465637D01*
X118209993Y-90654629D01*
X118209994Y-90654632D01*
X118300213Y-90831694D01*
X118417019Y-90992464D01*
X118557536Y-91132981D01*
X118718306Y-91249787D01*
X118782085Y-91282284D01*
X118874780Y-91329515D01*
X118925576Y-91377490D01*
X118942371Y-91445311D01*
X118919833Y-91511446D01*
X118874780Y-91550485D01*
X118718305Y-91630213D01*
X118557533Y-91747021D01*
X118417021Y-91887533D01*
X118300213Y-92048305D01*
X118209994Y-92225367D01*
X118209993Y-92225370D01*
X118148587Y-92414362D01*
X118117500Y-92610639D01*
X118117500Y-92809360D01*
X118148587Y-93005637D01*
X118209993Y-93194629D01*
X118209994Y-93194632D01*
X118300213Y-93371694D01*
X118417019Y-93532464D01*
X118557536Y-93672981D01*
X118718306Y-93789787D01*
X118782085Y-93822284D01*
X118874780Y-93869515D01*
X118925576Y-93917490D01*
X118942371Y-93985311D01*
X118919833Y-94051446D01*
X118874780Y-94090485D01*
X118718305Y-94170213D01*
X118557533Y-94287021D01*
X118417021Y-94427533D01*
X118300213Y-94588305D01*
X118209994Y-94765367D01*
X118209993Y-94765370D01*
X118148587Y-94954362D01*
X118117500Y-95150639D01*
X118117500Y-95349360D01*
X118148587Y-95545637D01*
X118209993Y-95734629D01*
X118209994Y-95734632D01*
X118300213Y-95911694D01*
X118417019Y-96072464D01*
X118557536Y-96212981D01*
X118718306Y-96329787D01*
X118836832Y-96390179D01*
X118874780Y-96409515D01*
X118925576Y-96457490D01*
X118942371Y-96525311D01*
X118919833Y-96591446D01*
X118874780Y-96630485D01*
X118718305Y-96710213D01*
X118557533Y-96827021D01*
X118417021Y-96967533D01*
X118300213Y-97128305D01*
X118209994Y-97305367D01*
X118209993Y-97305370D01*
X118148587Y-97494362D01*
X118117500Y-97690639D01*
X118117500Y-97889360D01*
X118148587Y-98085637D01*
X118209993Y-98274629D01*
X118209994Y-98274632D01*
X118300213Y-98451694D01*
X118417019Y-98612464D01*
X118557536Y-98752981D01*
X118718306Y-98869787D01*
X118836832Y-98930179D01*
X118874780Y-98949515D01*
X118925576Y-98997490D01*
X118942371Y-99065311D01*
X118919833Y-99131446D01*
X118874780Y-99170485D01*
X118718305Y-99250213D01*
X118557533Y-99367021D01*
X118417021Y-99507533D01*
X118300213Y-99668305D01*
X118209994Y-99845367D01*
X118209993Y-99845370D01*
X118148587Y-100034362D01*
X118117500Y-100230639D01*
X118117500Y-100429360D01*
X118148587Y-100625637D01*
X118209993Y-100814629D01*
X118209994Y-100814632D01*
X118294509Y-100980500D01*
X118300213Y-100991694D01*
X118417019Y-101152464D01*
X118557536Y-101292981D01*
X118718306Y-101409787D01*
X118836832Y-101470179D01*
X118874780Y-101489515D01*
X118925576Y-101537490D01*
X118942371Y-101605311D01*
X118919833Y-101671446D01*
X118874780Y-101710485D01*
X118718305Y-101790213D01*
X118557533Y-101907021D01*
X118417021Y-102047533D01*
X118300213Y-102208305D01*
X118209994Y-102385367D01*
X118209993Y-102385370D01*
X118148587Y-102574362D01*
X118117500Y-102770639D01*
X118117500Y-102969360D01*
X118148587Y-103165637D01*
X118209993Y-103354629D01*
X118209994Y-103354632D01*
X118300213Y-103531694D01*
X118417019Y-103692464D01*
X118557536Y-103832981D01*
X118718306Y-103949787D01*
X118779814Y-103981127D01*
X118874780Y-104029515D01*
X118925576Y-104077490D01*
X118942371Y-104145311D01*
X118919833Y-104211446D01*
X118874780Y-104250485D01*
X118718305Y-104330213D01*
X118557533Y-104447021D01*
X118417021Y-104587533D01*
X118300213Y-104748305D01*
X118209994Y-104925367D01*
X118209993Y-104925370D01*
X118148587Y-105114362D01*
X118148587Y-105114364D01*
X118117500Y-105310639D01*
X118117500Y-105509361D01*
X118120785Y-105530099D01*
X118148587Y-105705637D01*
X118209993Y-105894629D01*
X118209994Y-105894632D01*
X118300213Y-106071694D01*
X118417019Y-106232464D01*
X118557536Y-106372981D01*
X118718306Y-106489787D01*
X118836832Y-106550179D01*
X118874780Y-106569515D01*
X118925576Y-106617490D01*
X118942371Y-106685311D01*
X118919833Y-106751446D01*
X118874780Y-106790485D01*
X118718305Y-106870213D01*
X118557533Y-106987021D01*
X118417021Y-107127533D01*
X118300213Y-107288305D01*
X118209994Y-107465367D01*
X118209993Y-107465370D01*
X118148587Y-107654362D01*
X118117500Y-107850639D01*
X118117500Y-108049360D01*
X118148587Y-108245637D01*
X118209993Y-108434629D01*
X118209994Y-108434632D01*
X118300213Y-108611694D01*
X118417019Y-108772464D01*
X118557536Y-108912981D01*
X118718306Y-109029787D01*
X118836832Y-109090179D01*
X118874780Y-109109515D01*
X118925576Y-109157490D01*
X118942371Y-109225311D01*
X118919833Y-109291446D01*
X118874780Y-109330485D01*
X118718305Y-109410213D01*
X118557533Y-109527021D01*
X118417021Y-109667533D01*
X118300213Y-109828305D01*
X118209994Y-110005367D01*
X118209993Y-110005370D01*
X118148587Y-110194362D01*
X118148587Y-110194364D01*
X118117500Y-110390639D01*
X118117500Y-110589361D01*
X118120785Y-110610099D01*
X118148587Y-110785637D01*
X118209993Y-110974629D01*
X118209994Y-110974632D01*
X118263670Y-111079975D01*
X118300213Y-111151694D01*
X118417019Y-111312464D01*
X118557536Y-111452981D01*
X118718306Y-111569787D01*
X118836832Y-111630179D01*
X118874780Y-111649515D01*
X118925576Y-111697490D01*
X118942371Y-111765311D01*
X118919833Y-111831446D01*
X118874780Y-111870485D01*
X118718305Y-111950213D01*
X118557533Y-112067021D01*
X118417021Y-112207533D01*
X118300213Y-112368305D01*
X118209994Y-112545367D01*
X118209993Y-112545370D01*
X118148587Y-112734362D01*
X118117500Y-112930639D01*
X118117500Y-113129360D01*
X118148587Y-113325637D01*
X118209993Y-113514629D01*
X118209994Y-113514632D01*
X118294509Y-113680500D01*
X118300213Y-113691694D01*
X118417019Y-113852464D01*
X118557536Y-113992981D01*
X118718306Y-114109787D01*
X118836832Y-114170179D01*
X118874780Y-114189515D01*
X118925576Y-114237490D01*
X118942371Y-114305311D01*
X118919833Y-114371446D01*
X118874780Y-114410485D01*
X118718305Y-114490213D01*
X118557533Y-114607021D01*
X118417021Y-114747533D01*
X118300213Y-114908305D01*
X118209994Y-115085367D01*
X118209993Y-115085370D01*
X118148587Y-115274362D01*
X118117500Y-115470639D01*
X118117500Y-115669360D01*
X118148587Y-115865637D01*
X118209993Y-116054629D01*
X118209994Y-116054632D01*
X118294509Y-116220500D01*
X118300213Y-116231694D01*
X118417019Y-116392464D01*
X118557536Y-116532981D01*
X118718306Y-116649787D01*
X118836832Y-116710179D01*
X118874780Y-116729515D01*
X118925576Y-116777490D01*
X118942371Y-116845311D01*
X118919833Y-116911446D01*
X118874780Y-116950485D01*
X118718305Y-117030213D01*
X118557533Y-117147021D01*
X118417021Y-117287533D01*
X118300213Y-117448305D01*
X118209994Y-117625367D01*
X118209993Y-117625370D01*
X118148587Y-117814362D01*
X118117500Y-118010639D01*
X118117500Y-118209360D01*
X118148587Y-118405637D01*
X118209993Y-118594629D01*
X118209994Y-118594632D01*
X118300213Y-118771694D01*
X118417019Y-118932464D01*
X118557536Y-119072981D01*
X118718306Y-119189787D01*
X118836832Y-119250179D01*
X118874780Y-119269515D01*
X118925576Y-119317490D01*
X118942371Y-119385311D01*
X118919833Y-119451446D01*
X118874780Y-119490485D01*
X118718305Y-119570213D01*
X118557533Y-119687021D01*
X118417021Y-119827533D01*
X118300213Y-119988305D01*
X118209994Y-120165367D01*
X118209993Y-120165370D01*
X118148587Y-120354362D01*
X118141285Y-120400464D01*
X118117500Y-120550639D01*
X118117500Y-120749361D01*
X118118597Y-120756286D01*
X118148587Y-120945637D01*
X118209993Y-121134629D01*
X118209994Y-121134632D01*
X118300076Y-121311425D01*
X118300213Y-121311694D01*
X118417019Y-121472464D01*
X118557536Y-121612981D01*
X118718306Y-121729787D01*
X118787943Y-121765269D01*
X118895367Y-121820005D01*
X118895370Y-121820006D01*
X118989866Y-121850709D01*
X119084364Y-121881413D01*
X119280639Y-121912500D01*
X119280640Y-121912500D01*
X119479360Y-121912500D01*
X119479361Y-121912500D01*
X119675636Y-121881413D01*
X119864632Y-121820005D01*
X120041694Y-121729787D01*
X120202464Y-121612981D01*
X120342981Y-121472464D01*
X120459787Y-121311694D01*
X120550005Y-121134632D01*
X120611413Y-120945636D01*
X120642500Y-120749361D01*
X120642500Y-120550639D01*
X120611413Y-120354364D01*
X120575424Y-120243600D01*
X120550006Y-120165370D01*
X120550005Y-120165367D01*
X120504035Y-120075149D01*
X120459787Y-119988306D01*
X120342981Y-119827536D01*
X120202464Y-119687019D01*
X120041694Y-119570213D01*
X119885218Y-119490484D01*
X119834423Y-119442510D01*
X119817628Y-119374689D01*
X119840165Y-119308554D01*
X119885218Y-119269515D01*
X120041694Y-119189787D01*
X120202464Y-119072981D01*
X120342981Y-118932464D01*
X120459787Y-118771694D01*
X120550005Y-118594632D01*
X120611413Y-118405636D01*
X120642500Y-118209361D01*
X120642500Y-118010639D01*
X120611413Y-117814364D01*
X120550005Y-117625368D01*
X120550005Y-117625367D01*
X120459786Y-117448305D01*
X120426277Y-117402184D01*
X120342981Y-117287536D01*
X120202464Y-117147019D01*
X120041694Y-117030213D01*
X119885218Y-116950484D01*
X119834423Y-116902510D01*
X119817628Y-116834689D01*
X119840165Y-116768554D01*
X119885218Y-116729515D01*
X120041694Y-116649787D01*
X120202464Y-116532981D01*
X120342981Y-116392464D01*
X120459787Y-116231694D01*
X120550005Y-116054632D01*
X120611413Y-115865636D01*
X120642500Y-115669361D01*
X120642500Y-115470639D01*
X120611413Y-115274364D01*
X120550005Y-115085368D01*
X120550005Y-115085367D01*
X120504035Y-114995149D01*
X120459787Y-114908306D01*
X120342981Y-114747536D01*
X120202464Y-114607019D01*
X120041694Y-114490213D01*
X119885218Y-114410484D01*
X119834423Y-114362510D01*
X119817628Y-114294689D01*
X119840165Y-114228554D01*
X119885218Y-114189515D01*
X120041694Y-114109787D01*
X120202464Y-113992981D01*
X120342981Y-113852464D01*
X120459787Y-113691694D01*
X120550005Y-113514632D01*
X120611413Y-113325636D01*
X120642500Y-113129361D01*
X120642500Y-112930639D01*
X120611413Y-112734364D01*
X120550005Y-112545368D01*
X120550005Y-112545367D01*
X120504035Y-112455149D01*
X120459787Y-112368306D01*
X120342981Y-112207536D01*
X120202464Y-112067019D01*
X120041694Y-111950213D01*
X119885218Y-111870484D01*
X119834423Y-111822510D01*
X119817628Y-111754689D01*
X119840165Y-111688554D01*
X119885218Y-111649515D01*
X120041694Y-111569787D01*
X120202464Y-111452981D01*
X120342981Y-111312464D01*
X120459787Y-111151694D01*
X120550005Y-110974632D01*
X120611413Y-110785636D01*
X120642500Y-110589361D01*
X120642500Y-110390639D01*
X120611413Y-110194364D01*
X120550005Y-110005368D01*
X120550005Y-110005367D01*
X120459786Y-109828305D01*
X120426277Y-109782184D01*
X120342981Y-109667536D01*
X120202464Y-109527019D01*
X120041694Y-109410213D01*
X119885218Y-109330484D01*
X119834423Y-109282510D01*
X119817628Y-109214689D01*
X119840165Y-109148554D01*
X119885218Y-109109515D01*
X120041694Y-109029787D01*
X120202464Y-108912981D01*
X120342981Y-108772464D01*
X120459787Y-108611694D01*
X120550005Y-108434632D01*
X120611413Y-108245636D01*
X120642500Y-108049361D01*
X120642500Y-107850639D01*
X120611413Y-107654364D01*
X120550005Y-107465368D01*
X120550005Y-107465367D01*
X120459786Y-107288305D01*
X120426277Y-107242184D01*
X120342981Y-107127536D01*
X120202464Y-106987019D01*
X120041694Y-106870213D01*
X119885218Y-106790484D01*
X119834423Y-106742510D01*
X119817628Y-106674689D01*
X119840165Y-106608554D01*
X119885218Y-106569515D01*
X120041694Y-106489787D01*
X120202464Y-106372981D01*
X120342981Y-106232464D01*
X120459787Y-106071694D01*
X120550005Y-105894632D01*
X120611413Y-105705636D01*
X120642500Y-105509361D01*
X120642500Y-105310639D01*
X120611413Y-105114364D01*
X120550005Y-104925368D01*
X120550005Y-104925367D01*
X120459786Y-104748305D01*
X120426277Y-104702184D01*
X120342981Y-104587536D01*
X120202464Y-104447019D01*
X120041694Y-104330213D01*
X119885218Y-104250484D01*
X119834423Y-104202510D01*
X119817628Y-104134689D01*
X119840165Y-104068554D01*
X119885218Y-104029515D01*
X120041694Y-103949787D01*
X120202464Y-103832981D01*
X120342981Y-103692464D01*
X120459787Y-103531694D01*
X120550005Y-103354632D01*
X120611413Y-103165636D01*
X120642500Y-102969361D01*
X120642500Y-102770639D01*
X120611413Y-102574364D01*
X120550005Y-102385368D01*
X120550005Y-102385367D01*
X120504035Y-102295149D01*
X120459787Y-102208306D01*
X120342981Y-102047536D01*
X120202464Y-101907019D01*
X120041694Y-101790213D01*
X119885218Y-101710484D01*
X119834423Y-101662510D01*
X119817628Y-101594689D01*
X119840165Y-101528554D01*
X119885218Y-101489515D01*
X120041694Y-101409787D01*
X120202464Y-101292981D01*
X120342981Y-101152464D01*
X120459787Y-100991694D01*
X120550005Y-100814632D01*
X120611413Y-100625636D01*
X120642500Y-100429361D01*
X120642500Y-100230639D01*
X120611413Y-100034364D01*
X120550005Y-99845368D01*
X120550005Y-99845367D01*
X120504035Y-99755149D01*
X120459787Y-99668306D01*
X120342981Y-99507536D01*
X120202464Y-99367019D01*
X120041694Y-99250213D01*
X119885218Y-99170484D01*
X119834423Y-99122510D01*
X119817628Y-99054689D01*
X119840165Y-98988554D01*
X119885218Y-98949515D01*
X120041694Y-98869787D01*
X120202464Y-98752981D01*
X120342981Y-98612464D01*
X120459787Y-98451694D01*
X120550005Y-98274632D01*
X120611413Y-98085636D01*
X120642500Y-97889361D01*
X120642500Y-97690639D01*
X120611413Y-97494364D01*
X120550005Y-97305368D01*
X120550005Y-97305367D01*
X120459786Y-97128305D01*
X120426277Y-97082184D01*
X120342981Y-96967536D01*
X120202464Y-96827019D01*
X120041694Y-96710213D01*
X119885218Y-96630484D01*
X119834423Y-96582510D01*
X119817628Y-96514689D01*
X119840165Y-96448554D01*
X119885218Y-96409515D01*
X120041694Y-96329787D01*
X120202464Y-96212981D01*
X120342981Y-96072464D01*
X120459787Y-95911694D01*
X120550005Y-95734632D01*
X120611413Y-95545636D01*
X120642500Y-95349361D01*
X120642500Y-95150639D01*
X120611413Y-94954364D01*
X120550005Y-94765368D01*
X120550005Y-94765367D01*
X120459786Y-94588305D01*
X120426277Y-94542184D01*
X120342981Y-94427536D01*
X120202464Y-94287019D01*
X120041694Y-94170213D01*
X119885218Y-94090484D01*
X119834423Y-94042510D01*
X119817628Y-93974689D01*
X119840165Y-93908554D01*
X119885218Y-93869515D01*
X120041694Y-93789787D01*
X120202464Y-93672981D01*
X120342981Y-93532464D01*
X120459787Y-93371694D01*
X120550005Y-93194632D01*
X120611413Y-93005636D01*
X120642500Y-92809361D01*
X120642500Y-92610639D01*
X120611413Y-92414364D01*
X120550005Y-92225368D01*
X120550005Y-92225367D01*
X120459786Y-92048305D01*
X120426277Y-92002184D01*
X120342981Y-91887536D01*
X120202464Y-91747019D01*
X120041694Y-91630213D01*
X119885218Y-91550484D01*
X119834423Y-91502510D01*
X119817628Y-91434689D01*
X119840165Y-91368554D01*
X119885218Y-91329515D01*
X120041694Y-91249787D01*
X120202464Y-91132981D01*
X120342981Y-90992464D01*
X120459787Y-90831694D01*
X120550005Y-90654632D01*
X120611413Y-90465636D01*
X120642500Y-90269361D01*
X120642500Y-90070639D01*
X120611413Y-89874364D01*
X120550005Y-89685368D01*
X120550005Y-89685367D01*
X120459786Y-89508305D01*
X120426277Y-89462184D01*
X120342981Y-89347536D01*
X120202464Y-89207019D01*
X120041694Y-89090213D01*
X119885218Y-89010484D01*
X119834423Y-88962510D01*
X119817628Y-88894689D01*
X119840165Y-88828554D01*
X119885218Y-88789515D01*
X120041694Y-88709787D01*
X120202464Y-88592981D01*
X120342981Y-88452464D01*
X120459787Y-88291694D01*
X120550005Y-88114632D01*
X120611413Y-87925636D01*
X120642500Y-87729361D01*
X120642500Y-87530639D01*
X120611413Y-87334364D01*
X120550005Y-87145368D01*
X120550005Y-87145367D01*
X120459786Y-86968305D01*
X120426277Y-86922184D01*
X120342981Y-86807536D01*
X120202464Y-86667019D01*
X120041694Y-86550213D01*
X119885218Y-86470484D01*
X119834423Y-86422510D01*
X119817628Y-86354689D01*
X119840165Y-86288554D01*
X119885218Y-86249515D01*
X120041694Y-86169787D01*
X120202464Y-86052981D01*
X120342981Y-85912464D01*
X120459787Y-85751694D01*
X120550005Y-85574632D01*
X120611413Y-85385636D01*
X120642500Y-85189361D01*
X120642500Y-84990639D01*
X120611413Y-84794364D01*
X120550005Y-84605368D01*
X120550005Y-84605367D01*
X120459786Y-84428305D01*
X120426277Y-84382184D01*
X120342981Y-84267536D01*
X120202464Y-84127019D01*
X120041694Y-84010213D01*
X119885218Y-83930484D01*
X119834423Y-83882510D01*
X119817628Y-83814689D01*
X119840165Y-83748554D01*
X119885218Y-83709515D01*
X120041694Y-83629787D01*
X120202464Y-83512981D01*
X120342981Y-83372464D01*
X120459787Y-83211694D01*
X120550005Y-83034632D01*
X120611413Y-82845636D01*
X120642500Y-82649361D01*
X120642500Y-82450639D01*
X120611413Y-82254364D01*
X120550005Y-82065368D01*
X120550005Y-82065367D01*
X120459786Y-81888305D01*
X120426277Y-81842184D01*
X120342981Y-81727536D01*
X120202464Y-81587019D01*
X120041694Y-81470213D01*
X119885218Y-81390484D01*
X119834423Y-81342510D01*
X119817628Y-81274689D01*
X119840165Y-81208554D01*
X119885218Y-81169515D01*
X120041694Y-81089787D01*
X120202464Y-80972981D01*
X120342981Y-80832464D01*
X120459787Y-80671694D01*
X120550005Y-80494632D01*
X120611413Y-80305636D01*
X120642500Y-80109361D01*
X120642500Y-79910639D01*
X120611413Y-79714364D01*
X120550005Y-79525368D01*
X120550005Y-79525367D01*
X120459786Y-79348305D01*
X120426277Y-79302184D01*
X120342981Y-79187536D01*
X120202464Y-79047019D01*
X120041694Y-78930213D01*
X119885218Y-78850484D01*
X119834423Y-78802510D01*
X119817628Y-78734689D01*
X119840165Y-78668554D01*
X119885218Y-78629515D01*
X120041694Y-78549787D01*
X120202464Y-78432981D01*
X120342981Y-78292464D01*
X120459787Y-78131694D01*
X120550005Y-77954632D01*
X120611413Y-77765636D01*
X120642500Y-77569361D01*
X120642500Y-77370639D01*
X120611413Y-77174364D01*
X120550005Y-76985368D01*
X120550005Y-76985367D01*
X120459786Y-76808305D01*
X120426277Y-76762184D01*
X120342981Y-76647536D01*
X120202464Y-76507019D01*
X120041694Y-76390213D01*
X119885218Y-76310484D01*
X119834423Y-76262510D01*
X119817628Y-76194689D01*
X119840165Y-76128554D01*
X119885218Y-76089515D01*
X120041694Y-76009787D01*
X120202464Y-75892981D01*
X120342981Y-75752464D01*
X120459787Y-75591694D01*
X120550005Y-75414632D01*
X120611413Y-75225636D01*
X120642500Y-75029361D01*
X120642500Y-74830639D01*
X120611413Y-74634364D01*
X120550005Y-74445368D01*
X120550005Y-74445367D01*
X120459786Y-74268305D01*
X120426277Y-74222184D01*
X120342981Y-74107536D01*
X120202464Y-73967019D01*
X120041694Y-73850213D01*
X119885218Y-73770484D01*
X119834423Y-73722510D01*
X119817628Y-73654689D01*
X119840165Y-73588554D01*
X119885218Y-73549515D01*
X120041694Y-73469787D01*
X120202464Y-73352981D01*
X120342981Y-73212464D01*
X120459787Y-73051694D01*
X120550005Y-72874632D01*
X120611413Y-72685636D01*
X120642500Y-72489361D01*
X120642500Y-72290639D01*
X120611413Y-72094364D01*
X120550005Y-71905368D01*
X120550005Y-71905367D01*
X120518762Y-71844052D01*
X120459787Y-71728306D01*
X120443737Y-71706215D01*
X120375064Y-71611694D01*
X120375062Y-71611692D01*
X120342981Y-71567536D01*
X120317580Y-71542135D01*
X125699500Y-71542135D01*
X125699500Y-73237870D01*
X125699501Y-73237876D01*
X125705908Y-73297483D01*
X125756202Y-73432328D01*
X125756206Y-73432335D01*
X125842452Y-73547544D01*
X125842455Y-73547547D01*
X125957664Y-73633793D01*
X125957671Y-73633797D01*
X126002618Y-73650561D01*
X126092517Y-73684091D01*
X126129441Y-73688060D01*
X126193989Y-73714796D01*
X126233838Y-73772188D01*
X126236333Y-73842013D01*
X126200681Y-73902102D01*
X126189071Y-73911666D01*
X126152784Y-73938030D01*
X126008028Y-74082786D01*
X125887715Y-74248386D01*
X125794781Y-74430776D01*
X125731522Y-74625465D01*
X125699500Y-74827648D01*
X125699500Y-75032351D01*
X125731522Y-75234534D01*
X125794781Y-75429223D01*
X125858691Y-75554653D01*
X125877565Y-75591694D01*
X125887715Y-75611613D01*
X126008028Y-75777213D01*
X126152786Y-75921971D01*
X126273657Y-76009787D01*
X126318390Y-76042287D01*
X126402313Y-76085048D01*
X126411080Y-76089515D01*
X126461876Y-76137490D01*
X126478671Y-76205311D01*
X126456134Y-76271446D01*
X126411080Y-76310485D01*
X126318386Y-76357715D01*
X126152786Y-76478028D01*
X126008028Y-76622786D01*
X125887715Y-76788386D01*
X125794781Y-76970776D01*
X125731522Y-77165465D01*
X125699500Y-77367648D01*
X125699500Y-77572351D01*
X125731522Y-77774534D01*
X125794781Y-77969223D01*
X125858691Y-78094653D01*
X125877565Y-78131694D01*
X125887715Y-78151613D01*
X126008028Y-78317213D01*
X126152786Y-78461971D01*
X126273657Y-78549787D01*
X126318390Y-78582287D01*
X126402313Y-78625048D01*
X126411080Y-78629515D01*
X126461876Y-78677490D01*
X126478671Y-78745311D01*
X126456134Y-78811446D01*
X126411080Y-78850485D01*
X126318386Y-78897715D01*
X126152786Y-79018028D01*
X126008028Y-79162786D01*
X125887715Y-79328386D01*
X125794781Y-79510776D01*
X125731522Y-79705465D01*
X125699500Y-79907648D01*
X125699500Y-80112351D01*
X125731522Y-80314534D01*
X125794781Y-80509223D01*
X125858691Y-80634653D01*
X125877565Y-80671694D01*
X125887715Y-80691613D01*
X126008028Y-80857213D01*
X126152786Y-81001971D01*
X126273657Y-81089787D01*
X126318390Y-81122287D01*
X126402313Y-81165048D01*
X126411080Y-81169515D01*
X126461876Y-81217490D01*
X126478671Y-81285311D01*
X126456134Y-81351446D01*
X126411080Y-81390485D01*
X126318386Y-81437715D01*
X126152786Y-81558028D01*
X126008028Y-81702786D01*
X125887715Y-81868386D01*
X125794781Y-82050776D01*
X125731522Y-82245465D01*
X125699500Y-82447648D01*
X125699500Y-82652351D01*
X125731522Y-82854534D01*
X125794781Y-83049223D01*
X125858691Y-83174653D01*
X125877565Y-83211694D01*
X125887715Y-83231613D01*
X126008028Y-83397213D01*
X126152786Y-83541971D01*
X126273657Y-83629787D01*
X126318390Y-83662287D01*
X126402313Y-83705048D01*
X126411080Y-83709515D01*
X126461876Y-83757490D01*
X126478671Y-83825311D01*
X126456134Y-83891446D01*
X126411080Y-83930485D01*
X126318386Y-83977715D01*
X126152786Y-84098028D01*
X126008028Y-84242786D01*
X125887715Y-84408386D01*
X125794781Y-84590776D01*
X125731522Y-84785465D01*
X125699500Y-84987648D01*
X125699500Y-85192351D01*
X125731522Y-85394534D01*
X125794781Y-85589223D01*
X125858691Y-85714653D01*
X125877565Y-85751694D01*
X125887715Y-85771613D01*
X126008028Y-85937213D01*
X126152786Y-86081971D01*
X126273657Y-86169787D01*
X126318390Y-86202287D01*
X126402313Y-86245048D01*
X126411080Y-86249515D01*
X126461876Y-86297490D01*
X126478671Y-86365311D01*
X126456134Y-86431446D01*
X126411080Y-86470485D01*
X126318386Y-86517715D01*
X126152786Y-86638028D01*
X126008028Y-86782786D01*
X125887715Y-86948386D01*
X125794781Y-87130776D01*
X125731522Y-87325465D01*
X125699500Y-87527648D01*
X125699500Y-87732351D01*
X125731522Y-87934534D01*
X125794781Y-88129223D01*
X125858691Y-88254653D01*
X125877565Y-88291694D01*
X125887715Y-88311613D01*
X126008028Y-88477213D01*
X126152786Y-88621971D01*
X126273657Y-88709787D01*
X126318390Y-88742287D01*
X126402313Y-88785048D01*
X126411080Y-88789515D01*
X126461876Y-88837490D01*
X126478671Y-88905311D01*
X126456134Y-88971446D01*
X126411080Y-89010485D01*
X126318386Y-89057715D01*
X126152786Y-89178028D01*
X126008028Y-89322786D01*
X125887715Y-89488386D01*
X125794781Y-89670776D01*
X125731522Y-89865465D01*
X125699500Y-90067648D01*
X125699500Y-90272351D01*
X125731522Y-90474534D01*
X125794781Y-90669223D01*
X125858691Y-90794653D01*
X125877565Y-90831694D01*
X125887715Y-90851613D01*
X126008028Y-91017213D01*
X126152786Y-91161971D01*
X126273657Y-91249787D01*
X126318390Y-91282287D01*
X126402313Y-91325048D01*
X126411080Y-91329515D01*
X126461876Y-91377490D01*
X126478671Y-91445311D01*
X126456134Y-91511446D01*
X126411080Y-91550485D01*
X126318386Y-91597715D01*
X126152786Y-91718028D01*
X126008028Y-91862786D01*
X125887715Y-92028386D01*
X125794781Y-92210776D01*
X125731522Y-92405465D01*
X125699500Y-92607648D01*
X125699500Y-92812351D01*
X125731522Y-93014534D01*
X125794781Y-93209223D01*
X125858691Y-93334653D01*
X125877565Y-93371694D01*
X125887715Y-93391613D01*
X126008028Y-93557213D01*
X126152786Y-93701971D01*
X126273657Y-93789787D01*
X126318390Y-93822287D01*
X126402319Y-93865051D01*
X126500776Y-93915218D01*
X126500778Y-93915218D01*
X126500781Y-93915220D01*
X126581395Y-93941413D01*
X126695465Y-93978477D01*
X126752434Y-93987500D01*
X126897648Y-94010500D01*
X126897649Y-94010500D01*
X127102351Y-94010500D01*
X127102352Y-94010500D01*
X127304534Y-93978477D01*
X127499219Y-93915220D01*
X127681610Y-93822287D01*
X127794726Y-93740104D01*
X127847213Y-93701971D01*
X127847215Y-93701968D01*
X127847219Y-93701966D01*
X127991966Y-93557219D01*
X127991968Y-93557215D01*
X127991971Y-93557213D01*
X128093247Y-93417816D01*
X128112287Y-93391610D01*
X128205220Y-93209219D01*
X128268477Y-93014534D01*
X128300500Y-92812352D01*
X128300500Y-92607648D01*
X128268477Y-92405466D01*
X128264673Y-92393760D01*
X128209960Y-92225370D01*
X128205220Y-92210781D01*
X128205218Y-92210778D01*
X128205218Y-92210776D01*
X128171503Y-92144607D01*
X128112287Y-92028390D01*
X128104556Y-92017749D01*
X127991971Y-91862786D01*
X127847213Y-91718028D01*
X127681614Y-91597715D01*
X127675006Y-91594348D01*
X127588917Y-91550483D01*
X127538123Y-91502511D01*
X127521328Y-91434690D01*
X127543865Y-91368555D01*
X127588917Y-91329516D01*
X127681610Y-91282287D01*
X127726344Y-91249786D01*
X127847213Y-91161971D01*
X127847215Y-91161968D01*
X127847219Y-91161966D01*
X127991966Y-91017219D01*
X127991968Y-91017215D01*
X127991971Y-91017213D01*
X128093247Y-90877816D01*
X128112287Y-90851610D01*
X128205220Y-90669219D01*
X128268477Y-90474534D01*
X128300500Y-90272352D01*
X128300500Y-90067648D01*
X128268477Y-89865466D01*
X128264673Y-89853760D01*
X128209960Y-89685370D01*
X128205220Y-89670781D01*
X128205218Y-89670778D01*
X128205218Y-89670776D01*
X128171503Y-89604607D01*
X128112287Y-89488390D01*
X128104556Y-89477749D01*
X127991971Y-89322786D01*
X127847213Y-89178028D01*
X127681614Y-89057715D01*
X127675006Y-89054348D01*
X127588917Y-89010483D01*
X127538123Y-88962511D01*
X127521328Y-88894690D01*
X127543865Y-88828555D01*
X127588917Y-88789516D01*
X127681610Y-88742287D01*
X127726344Y-88709786D01*
X127847213Y-88621971D01*
X127847215Y-88621968D01*
X127847219Y-88621966D01*
X127991966Y-88477219D01*
X127991968Y-88477215D01*
X127991971Y-88477213D01*
X128093247Y-88337816D01*
X128112287Y-88311610D01*
X128205220Y-88129219D01*
X128268477Y-87934534D01*
X128300500Y-87732352D01*
X128300500Y-87527648D01*
X128268477Y-87325466D01*
X128264673Y-87313760D01*
X128209960Y-87145370D01*
X128205220Y-87130781D01*
X128205218Y-87130778D01*
X128205218Y-87130776D01*
X128171503Y-87064607D01*
X128112287Y-86948390D01*
X128104556Y-86937749D01*
X127991971Y-86782786D01*
X127847213Y-86638028D01*
X127681614Y-86517715D01*
X127675006Y-86514348D01*
X127588917Y-86470483D01*
X127538123Y-86422511D01*
X127521328Y-86354690D01*
X127543865Y-86288555D01*
X127588917Y-86249516D01*
X127681610Y-86202287D01*
X127726344Y-86169786D01*
X127847213Y-86081971D01*
X127847215Y-86081968D01*
X127847219Y-86081966D01*
X127991966Y-85937219D01*
X127991968Y-85937215D01*
X127991971Y-85937213D01*
X128093247Y-85797816D01*
X128112287Y-85771610D01*
X128205220Y-85589219D01*
X128268477Y-85394534D01*
X128300500Y-85192352D01*
X128300500Y-84987648D01*
X128268477Y-84785466D01*
X128264673Y-84773760D01*
X128209960Y-84605370D01*
X128205220Y-84590781D01*
X128205218Y-84590778D01*
X128205218Y-84590776D01*
X128171503Y-84524607D01*
X128112287Y-84408390D01*
X128104556Y-84397749D01*
X127991971Y-84242786D01*
X127847213Y-84098028D01*
X127681614Y-83977715D01*
X127675006Y-83974348D01*
X127588917Y-83930483D01*
X127538123Y-83882511D01*
X127521328Y-83814690D01*
X127543865Y-83748555D01*
X127588917Y-83709516D01*
X127681610Y-83662287D01*
X127726344Y-83629786D01*
X127847213Y-83541971D01*
X127847215Y-83541968D01*
X127847219Y-83541966D01*
X127991966Y-83397219D01*
X127991968Y-83397215D01*
X127991971Y-83397213D01*
X128093247Y-83257816D01*
X128112287Y-83231610D01*
X128205220Y-83049219D01*
X128268477Y-82854534D01*
X128300500Y-82652352D01*
X128300500Y-82447648D01*
X128268477Y-82245466D01*
X128264673Y-82233760D01*
X128209960Y-82065370D01*
X128205220Y-82050781D01*
X128205218Y-82050778D01*
X128205218Y-82050776D01*
X128171503Y-81984607D01*
X128112287Y-81868390D01*
X128104556Y-81857749D01*
X127991971Y-81702786D01*
X127847213Y-81558028D01*
X127681614Y-81437715D01*
X127675006Y-81434348D01*
X127588917Y-81390483D01*
X127538123Y-81342511D01*
X127521328Y-81274690D01*
X127543865Y-81208555D01*
X127588917Y-81169516D01*
X127681610Y-81122287D01*
X127726344Y-81089786D01*
X127847213Y-81001971D01*
X127847215Y-81001968D01*
X127847219Y-81001966D01*
X127991966Y-80857219D01*
X127991968Y-80857215D01*
X127991971Y-80857213D01*
X128093247Y-80717816D01*
X128112287Y-80691610D01*
X128205220Y-80509219D01*
X128268477Y-80314534D01*
X128300500Y-80112352D01*
X128300500Y-79907648D01*
X128268477Y-79705466D01*
X128264673Y-79693760D01*
X128209960Y-79525370D01*
X128205220Y-79510781D01*
X128205218Y-79510778D01*
X128205218Y-79510776D01*
X128171503Y-79444607D01*
X128112287Y-79328390D01*
X128104556Y-79317749D01*
X127991971Y-79162786D01*
X127847213Y-79018028D01*
X127681614Y-78897715D01*
X127675006Y-78894348D01*
X127588917Y-78850483D01*
X127538123Y-78802511D01*
X127521328Y-78734690D01*
X127543865Y-78668555D01*
X127588917Y-78629516D01*
X127681610Y-78582287D01*
X127726344Y-78549786D01*
X127847213Y-78461971D01*
X127847215Y-78461968D01*
X127847219Y-78461966D01*
X127991966Y-78317219D01*
X127991968Y-78317215D01*
X127991971Y-78317213D01*
X128093247Y-78177816D01*
X128112287Y-78151610D01*
X128205220Y-77969219D01*
X128268477Y-77774534D01*
X128300500Y-77572352D01*
X128300500Y-77367648D01*
X128268477Y-77165466D01*
X128264673Y-77153760D01*
X128209960Y-76985370D01*
X128205220Y-76970781D01*
X128205218Y-76970778D01*
X128205218Y-76970776D01*
X128171503Y-76904607D01*
X128112287Y-76788390D01*
X128104556Y-76777749D01*
X127991971Y-76622786D01*
X127847213Y-76478028D01*
X127681614Y-76357715D01*
X127675006Y-76354348D01*
X127588917Y-76310483D01*
X127538123Y-76262511D01*
X127521328Y-76194690D01*
X127543865Y-76128555D01*
X127588917Y-76089516D01*
X127681610Y-76042287D01*
X127726344Y-76009786D01*
X127847213Y-75921971D01*
X127847215Y-75921968D01*
X127847219Y-75921966D01*
X127991966Y-75777219D01*
X127991968Y-75777215D01*
X127991971Y-75777213D01*
X128093247Y-75637816D01*
X128112287Y-75611610D01*
X128205220Y-75429219D01*
X128268477Y-75234534D01*
X128300500Y-75032352D01*
X128300500Y-74827648D01*
X128268477Y-74625466D01*
X128264673Y-74613760D01*
X128209960Y-74445370D01*
X128205220Y-74430781D01*
X128205218Y-74430778D01*
X128205218Y-74430776D01*
X128171503Y-74364607D01*
X128112287Y-74248390D01*
X128104556Y-74237749D01*
X127991971Y-74082786D01*
X127847219Y-73938034D01*
X127810930Y-73911669D01*
X127768264Y-73856339D01*
X127762285Y-73786726D01*
X127794890Y-73724931D01*
X127855728Y-73690573D01*
X127870562Y-73688060D01*
X127907483Y-73684091D01*
X127992183Y-73652500D01*
X128042331Y-73633796D01*
X128157546Y-73547546D01*
X128243796Y-73432331D01*
X128294091Y-73297483D01*
X128300500Y-73237873D01*
X128300499Y-72283713D01*
X130729500Y-72283713D01*
X130729500Y-72496287D01*
X130762754Y-72706243D01*
X130817467Y-72874632D01*
X130828444Y-72908414D01*
X130924951Y-73097820D01*
X131049890Y-73269786D01*
X131200213Y-73420109D01*
X131372182Y-73545050D01*
X131380946Y-73549516D01*
X131431742Y-73597491D01*
X131448536Y-73665312D01*
X131425998Y-73731447D01*
X131380946Y-73770484D01*
X131372182Y-73774949D01*
X131200213Y-73899890D01*
X131049890Y-74050213D01*
X130924951Y-74222179D01*
X130828444Y-74411585D01*
X130828443Y-74411587D01*
X130828443Y-74411588D01*
X130817467Y-74445368D01*
X130762753Y-74613760D01*
X130760899Y-74625466D01*
X130729500Y-74823713D01*
X130729500Y-75036287D01*
X130762754Y-75246243D01*
X130817467Y-75414632D01*
X130828444Y-75448414D01*
X130924951Y-75637820D01*
X131049890Y-75809786D01*
X131200213Y-75960109D01*
X131372182Y-76085050D01*
X131380946Y-76089516D01*
X131431742Y-76137491D01*
X131448536Y-76205312D01*
X131425998Y-76271447D01*
X131380946Y-76310484D01*
X131372182Y-76314949D01*
X131200213Y-76439890D01*
X131049890Y-76590213D01*
X130924951Y-76762179D01*
X130828444Y-76951585D01*
X130828443Y-76951587D01*
X130828443Y-76951588D01*
X130817467Y-76985368D01*
X130762753Y-77153760D01*
X130760899Y-77165466D01*
X130729500Y-77363713D01*
X130729500Y-77576287D01*
X130762754Y-77786243D01*
X130817467Y-77954632D01*
X130828444Y-77988414D01*
X130924951Y-78177820D01*
X131049890Y-78349786D01*
X131200213Y-78500109D01*
X131372182Y-78625050D01*
X131380946Y-78629516D01*
X131431742Y-78677491D01*
X131448536Y-78745312D01*
X131425998Y-78811447D01*
X131380946Y-78850484D01*
X131372182Y-78854949D01*
X131200213Y-78979890D01*
X131049890Y-79130213D01*
X130924951Y-79302179D01*
X130828444Y-79491585D01*
X130828443Y-79491587D01*
X130828443Y-79491588D01*
X130817467Y-79525368D01*
X130762753Y-79693760D01*
X130760899Y-79705466D01*
X130729500Y-79903713D01*
X130729500Y-80116287D01*
X130762754Y-80326243D01*
X130817467Y-80494632D01*
X130828444Y-80528414D01*
X130924951Y-80717820D01*
X131049890Y-80889786D01*
X131200213Y-81040109D01*
X131372182Y-81165050D01*
X131380946Y-81169516D01*
X131431742Y-81217491D01*
X131448536Y-81285312D01*
X131425998Y-81351447D01*
X131380946Y-81390484D01*
X131372182Y-81394949D01*
X131200213Y-81519890D01*
X131049890Y-81670213D01*
X130924951Y-81842179D01*
X130828444Y-82031585D01*
X130828443Y-82031587D01*
X130828443Y-82031588D01*
X130817467Y-82065368D01*
X130762753Y-82233760D01*
X130760899Y-82245466D01*
X130729500Y-82443713D01*
X130729500Y-82656287D01*
X130762754Y-82866243D01*
X130817467Y-83034632D01*
X130828444Y-83068414D01*
X130924951Y-83257820D01*
X131049890Y-83429786D01*
X131200213Y-83580109D01*
X131372182Y-83705050D01*
X131380946Y-83709516D01*
X131431742Y-83757491D01*
X131448536Y-83825312D01*
X131425998Y-83891447D01*
X131380946Y-83930484D01*
X131372182Y-83934949D01*
X131200213Y-84059890D01*
X131049890Y-84210213D01*
X130924951Y-84382179D01*
X130828444Y-84571585D01*
X130828443Y-84571587D01*
X130828443Y-84571588D01*
X130817467Y-84605368D01*
X130762753Y-84773760D01*
X130760899Y-84785466D01*
X130729500Y-84983713D01*
X130729500Y-85196287D01*
X130762754Y-85406243D01*
X130817467Y-85574632D01*
X130828444Y-85608414D01*
X130924951Y-85797820D01*
X131049890Y-85969786D01*
X131200213Y-86120109D01*
X131372182Y-86245050D01*
X131380946Y-86249516D01*
X131431742Y-86297491D01*
X131448536Y-86365312D01*
X131425998Y-86431447D01*
X131380946Y-86470484D01*
X131372182Y-86474949D01*
X131200213Y-86599890D01*
X131049890Y-86750213D01*
X130924951Y-86922179D01*
X130828444Y-87111585D01*
X130828443Y-87111587D01*
X130828443Y-87111588D01*
X130817467Y-87145368D01*
X130762753Y-87313760D01*
X130760899Y-87325466D01*
X130729500Y-87523713D01*
X130729500Y-87736287D01*
X130762754Y-87946243D01*
X130817467Y-88114632D01*
X130828444Y-88148414D01*
X130924951Y-88337820D01*
X131049890Y-88509786D01*
X131200213Y-88660109D01*
X131372182Y-88785050D01*
X131380946Y-88789516D01*
X131431742Y-88837491D01*
X131448536Y-88905312D01*
X131425998Y-88971447D01*
X131380946Y-89010484D01*
X131372182Y-89014949D01*
X131200213Y-89139890D01*
X131049890Y-89290213D01*
X130924951Y-89462179D01*
X130828444Y-89651585D01*
X130828443Y-89651587D01*
X130828443Y-89651588D01*
X130817467Y-89685368D01*
X130762753Y-89853760D01*
X130760899Y-89865466D01*
X130729500Y-90063713D01*
X130729500Y-90276287D01*
X130762754Y-90486243D01*
X130817467Y-90654632D01*
X130828444Y-90688414D01*
X130924951Y-90877820D01*
X131049890Y-91049786D01*
X131200213Y-91200109D01*
X131372182Y-91325050D01*
X131380946Y-91329516D01*
X131431742Y-91377491D01*
X131448536Y-91445312D01*
X131425998Y-91511447D01*
X131380946Y-91550484D01*
X131372182Y-91554949D01*
X131200213Y-91679890D01*
X131049890Y-91830213D01*
X130924951Y-92002179D01*
X130828444Y-92191585D01*
X130828443Y-92191587D01*
X130828443Y-92191588D01*
X130817467Y-92225368D01*
X130762753Y-92393760D01*
X130760899Y-92405466D01*
X130729500Y-92603713D01*
X130729500Y-92816287D01*
X130762754Y-93026243D01*
X130817467Y-93194632D01*
X130828444Y-93228414D01*
X130924951Y-93417820D01*
X131049890Y-93589786D01*
X131200213Y-93740109D01*
X131372182Y-93865050D01*
X131380946Y-93869516D01*
X131431742Y-93917491D01*
X131448536Y-93985312D01*
X131425998Y-94051447D01*
X131380946Y-94090484D01*
X131372182Y-94094949D01*
X131200213Y-94219890D01*
X131049890Y-94370213D01*
X130924951Y-94542179D01*
X130828444Y-94731585D01*
X130828443Y-94731587D01*
X130828443Y-94731588D01*
X130817467Y-94765368D01*
X130762753Y-94933760D01*
X130759490Y-94954362D01*
X130729500Y-95143713D01*
X130729500Y-95356287D01*
X130762754Y-95566243D01*
X130817467Y-95734632D01*
X130828444Y-95768414D01*
X130924951Y-95957820D01*
X131049890Y-96129786D01*
X131200213Y-96280109D01*
X131372182Y-96405050D01*
X131380946Y-96409516D01*
X131431742Y-96457491D01*
X131448536Y-96525312D01*
X131425998Y-96591447D01*
X131380946Y-96630484D01*
X131372182Y-96634949D01*
X131200213Y-96759890D01*
X131049890Y-96910213D01*
X130924951Y-97082179D01*
X130828444Y-97271585D01*
X130828443Y-97271587D01*
X130828443Y-97271588D01*
X130817467Y-97305368D01*
X130762753Y-97473760D01*
X130759490Y-97494362D01*
X130729500Y-97683713D01*
X130729500Y-97896287D01*
X130762754Y-98106243D01*
X130817467Y-98274632D01*
X130828444Y-98308414D01*
X130924951Y-98497820D01*
X131049890Y-98669786D01*
X131200213Y-98820109D01*
X131372182Y-98945050D01*
X131380946Y-98949516D01*
X131431742Y-98997491D01*
X131448536Y-99065312D01*
X131425998Y-99131447D01*
X131380946Y-99170484D01*
X131372182Y-99174949D01*
X131200213Y-99299890D01*
X131049890Y-99450213D01*
X130924951Y-99622179D01*
X130828444Y-99811585D01*
X130828443Y-99811587D01*
X130828443Y-99811588D01*
X130817467Y-99845368D01*
X130762753Y-100013760D01*
X130759490Y-100034362D01*
X130729500Y-100223713D01*
X130729500Y-100436287D01*
X130762754Y-100646243D01*
X130817467Y-100814632D01*
X130828444Y-100848414D01*
X130924951Y-101037820D01*
X131049890Y-101209786D01*
X131200213Y-101360109D01*
X131372182Y-101485050D01*
X131380946Y-101489516D01*
X131431742Y-101537491D01*
X131448536Y-101605312D01*
X131425998Y-101671447D01*
X131380946Y-101710484D01*
X131372182Y-101714949D01*
X131200213Y-101839890D01*
X131049890Y-101990213D01*
X130924951Y-102162179D01*
X130828444Y-102351585D01*
X130828443Y-102351587D01*
X130828443Y-102351588D01*
X130817467Y-102385368D01*
X130762753Y-102553760D01*
X130759490Y-102574362D01*
X130729500Y-102763713D01*
X130729500Y-102976287D01*
X130762754Y-103186243D01*
X130817467Y-103354632D01*
X130828444Y-103388414D01*
X130924951Y-103577820D01*
X131049890Y-103749786D01*
X131200213Y-103900109D01*
X131372182Y-104025050D01*
X131380946Y-104029516D01*
X131431742Y-104077491D01*
X131448536Y-104145312D01*
X131425998Y-104211447D01*
X131380946Y-104250484D01*
X131372182Y-104254949D01*
X131200213Y-104379890D01*
X131049890Y-104530213D01*
X130924951Y-104702179D01*
X130828444Y-104891585D01*
X130828443Y-104891587D01*
X130828443Y-104891588D01*
X130817467Y-104925368D01*
X130762753Y-105093760D01*
X130759490Y-105114362D01*
X130729500Y-105303713D01*
X130729500Y-105516287D01*
X130731688Y-105530099D01*
X130762753Y-105726239D01*
X130762753Y-105726241D01*
X130762754Y-105726243D01*
X130817467Y-105894632D01*
X130828444Y-105928414D01*
X130924951Y-106117820D01*
X131049890Y-106289786D01*
X131200213Y-106440109D01*
X131372182Y-106565050D01*
X131380946Y-106569516D01*
X131431742Y-106617491D01*
X131448536Y-106685312D01*
X131425998Y-106751447D01*
X131380946Y-106790484D01*
X131372182Y-106794949D01*
X131200213Y-106919890D01*
X131049890Y-107070213D01*
X130924951Y-107242179D01*
X130828444Y-107431585D01*
X130828443Y-107431587D01*
X130828443Y-107431588D01*
X130817467Y-107465368D01*
X130762753Y-107633760D01*
X130747622Y-107729296D01*
X130729500Y-107843713D01*
X130729500Y-108056287D01*
X130762754Y-108266243D01*
X130817467Y-108434632D01*
X130828444Y-108468414D01*
X130924951Y-108657820D01*
X131049890Y-108829786D01*
X131200213Y-108980109D01*
X131372182Y-109105050D01*
X131380946Y-109109516D01*
X131431742Y-109157491D01*
X131448536Y-109225312D01*
X131425998Y-109291447D01*
X131380946Y-109330484D01*
X131372182Y-109334949D01*
X131200213Y-109459890D01*
X131049890Y-109610213D01*
X130924951Y-109782179D01*
X130828444Y-109971585D01*
X130828443Y-109971587D01*
X130828443Y-109971588D01*
X130817467Y-110005368D01*
X130762753Y-110173760D01*
X130759490Y-110194362D01*
X130729500Y-110383713D01*
X130729500Y-110596287D01*
X130731688Y-110610099D01*
X130762753Y-110806239D01*
X130762753Y-110806241D01*
X130762754Y-110806243D01*
X130817467Y-110974632D01*
X130828444Y-111008414D01*
X130924951Y-111197820D01*
X131049890Y-111369786D01*
X131200213Y-111520109D01*
X131372182Y-111645050D01*
X131380946Y-111649516D01*
X131431742Y-111697491D01*
X131448536Y-111765312D01*
X131425998Y-111831447D01*
X131380946Y-111870484D01*
X131372182Y-111874949D01*
X131200213Y-111999890D01*
X131049890Y-112150213D01*
X130924951Y-112322179D01*
X130828444Y-112511585D01*
X130828443Y-112511587D01*
X130828443Y-112511588D01*
X130817467Y-112545368D01*
X130762753Y-112713760D01*
X130759490Y-112734362D01*
X130729500Y-112923713D01*
X130729500Y-113136287D01*
X130762754Y-113346243D01*
X130817467Y-113514632D01*
X130828444Y-113548414D01*
X130924951Y-113737820D01*
X131049890Y-113909786D01*
X131200213Y-114060109D01*
X131372182Y-114185050D01*
X131380946Y-114189516D01*
X131431742Y-114237491D01*
X131448536Y-114305312D01*
X131425998Y-114371447D01*
X131380946Y-114410484D01*
X131372182Y-114414949D01*
X131200213Y-114539890D01*
X131049890Y-114690213D01*
X130924951Y-114862179D01*
X130828444Y-115051585D01*
X130828443Y-115051587D01*
X130828443Y-115051588D01*
X130817467Y-115085368D01*
X130762753Y-115253760D01*
X130759490Y-115274362D01*
X130729500Y-115463713D01*
X130729500Y-115676287D01*
X130762754Y-115886243D01*
X130817467Y-116054632D01*
X130828444Y-116088414D01*
X130924951Y-116277820D01*
X131049890Y-116449786D01*
X131200213Y-116600109D01*
X131372182Y-116725050D01*
X131380946Y-116729516D01*
X131431742Y-116777491D01*
X131448536Y-116845312D01*
X131425998Y-116911447D01*
X131380946Y-116950484D01*
X131372182Y-116954949D01*
X131200213Y-117079890D01*
X131049890Y-117230213D01*
X130924951Y-117402179D01*
X130828444Y-117591585D01*
X130828443Y-117591587D01*
X130828443Y-117591588D01*
X130817467Y-117625368D01*
X130762753Y-117793760D01*
X130759490Y-117814362D01*
X130729500Y-118003713D01*
X130729500Y-118216287D01*
X130762754Y-118426243D01*
X130817467Y-118594632D01*
X130828444Y-118628414D01*
X130924951Y-118817820D01*
X131049890Y-118989786D01*
X131200213Y-119140109D01*
X131372182Y-119265050D01*
X131380946Y-119269516D01*
X131431742Y-119317491D01*
X131448536Y-119385312D01*
X131425998Y-119451447D01*
X131380946Y-119490484D01*
X131372182Y-119494949D01*
X131200213Y-119619890D01*
X131049890Y-119770213D01*
X130924951Y-119942179D01*
X130828444Y-120131585D01*
X130828443Y-120131587D01*
X130828443Y-120131588D01*
X130817467Y-120165368D01*
X130762753Y-120333760D01*
X130729500Y-120543713D01*
X130729500Y-120756286D01*
X130762735Y-120966127D01*
X130762754Y-120966243D01*
X130817467Y-121134632D01*
X130828444Y-121168414D01*
X130924951Y-121357820D01*
X131049890Y-121529786D01*
X131200213Y-121680109D01*
X131372179Y-121805048D01*
X131372181Y-121805049D01*
X131372184Y-121805051D01*
X131561588Y-121901557D01*
X131763757Y-121967246D01*
X131973713Y-122000500D01*
X131973714Y-122000500D01*
X132186286Y-122000500D01*
X132186287Y-122000500D01*
X132396243Y-121967246D01*
X132598412Y-121901557D01*
X132787816Y-121805051D01*
X132842572Y-121765269D01*
X132959786Y-121680109D01*
X132959788Y-121680106D01*
X132959792Y-121680104D01*
X133110104Y-121529792D01*
X133110106Y-121529788D01*
X133110109Y-121529786D01*
X133235048Y-121357820D01*
X133235047Y-121357820D01*
X133235051Y-121357816D01*
X133331557Y-121168412D01*
X133397246Y-120966243D01*
X133430500Y-120756287D01*
X133430500Y-120543713D01*
X133397246Y-120333757D01*
X133331557Y-120131588D01*
X133235051Y-119942184D01*
X133235049Y-119942181D01*
X133235048Y-119942179D01*
X133110109Y-119770213D01*
X132959786Y-119619890D01*
X132787820Y-119494951D01*
X132779600Y-119490763D01*
X132779054Y-119490485D01*
X132728259Y-119442512D01*
X132711463Y-119374692D01*
X132733999Y-119308556D01*
X132779054Y-119269515D01*
X132787816Y-119265051D01*
X132809789Y-119249086D01*
X132959786Y-119140109D01*
X132959788Y-119140106D01*
X132959792Y-119140104D01*
X133110104Y-118989792D01*
X133110106Y-118989788D01*
X133110109Y-118989786D01*
X133235048Y-118817820D01*
X133235047Y-118817820D01*
X133235051Y-118817816D01*
X133331557Y-118628412D01*
X133397246Y-118426243D01*
X133430500Y-118216287D01*
X133430500Y-118003713D01*
X133397246Y-117793757D01*
X133331557Y-117591588D01*
X133235051Y-117402184D01*
X133235049Y-117402181D01*
X133235048Y-117402179D01*
X133110109Y-117230213D01*
X132959786Y-117079890D01*
X132787820Y-116954951D01*
X132787115Y-116954591D01*
X132779054Y-116950485D01*
X132728259Y-116902512D01*
X132711463Y-116834692D01*
X132733999Y-116768556D01*
X132779054Y-116729515D01*
X132787816Y-116725051D01*
X132891409Y-116649787D01*
X132959786Y-116600109D01*
X132959788Y-116600106D01*
X132959792Y-116600104D01*
X133110104Y-116449792D01*
X133110106Y-116449788D01*
X133110109Y-116449786D01*
X133235048Y-116277820D01*
X133235047Y-116277820D01*
X133235051Y-116277816D01*
X133331557Y-116088412D01*
X133397246Y-115886243D01*
X133430500Y-115676287D01*
X133430500Y-115463713D01*
X133397246Y-115253757D01*
X133331557Y-115051588D01*
X133235051Y-114862184D01*
X133235049Y-114862181D01*
X133235048Y-114862179D01*
X133110109Y-114690213D01*
X132959786Y-114539890D01*
X132787820Y-114414951D01*
X132787115Y-114414591D01*
X132779054Y-114410485D01*
X132728259Y-114362512D01*
X132711463Y-114294692D01*
X132733999Y-114228556D01*
X132779054Y-114189515D01*
X132787816Y-114185051D01*
X132891409Y-114109787D01*
X132959786Y-114060109D01*
X132959788Y-114060106D01*
X132959792Y-114060104D01*
X133110104Y-113909792D01*
X133110106Y-113909788D01*
X133110109Y-113909786D01*
X133235048Y-113737820D01*
X133235047Y-113737820D01*
X133235051Y-113737816D01*
X133331557Y-113548412D01*
X133397246Y-113346243D01*
X133430500Y-113136287D01*
X133430500Y-112923713D01*
X133397246Y-112713757D01*
X133331557Y-112511588D01*
X133235051Y-112322184D01*
X133235049Y-112322181D01*
X133235048Y-112322179D01*
X133110109Y-112150213D01*
X132959786Y-111999890D01*
X132787820Y-111874951D01*
X132787115Y-111874591D01*
X132779054Y-111870485D01*
X132728259Y-111822512D01*
X132711463Y-111754692D01*
X132733999Y-111688556D01*
X132779054Y-111649515D01*
X132787816Y-111645051D01*
X132891409Y-111569787D01*
X132959786Y-111520109D01*
X132959788Y-111520106D01*
X132959792Y-111520104D01*
X133110104Y-111369792D01*
X133110106Y-111369788D01*
X133110109Y-111369786D01*
X133235048Y-111197820D01*
X133235047Y-111197820D01*
X133235051Y-111197816D01*
X133331557Y-111008412D01*
X133397246Y-110806243D01*
X133430500Y-110596287D01*
X133430500Y-110383713D01*
X133397246Y-110173757D01*
X133331557Y-109971588D01*
X133235051Y-109782184D01*
X133235049Y-109782181D01*
X133235048Y-109782179D01*
X133110109Y-109610213D01*
X132959786Y-109459890D01*
X132787820Y-109334951D01*
X132787115Y-109334591D01*
X132779054Y-109330485D01*
X132728259Y-109282512D01*
X132711463Y-109214692D01*
X132733999Y-109148556D01*
X132779054Y-109109515D01*
X132787816Y-109105051D01*
X132891409Y-109029787D01*
X132959786Y-108980109D01*
X132959788Y-108980106D01*
X132959792Y-108980104D01*
X133110104Y-108829792D01*
X133110106Y-108829788D01*
X133110109Y-108829786D01*
X133235048Y-108657820D01*
X133235047Y-108657820D01*
X133235051Y-108657816D01*
X133331557Y-108468412D01*
X133397246Y-108266243D01*
X133430500Y-108056287D01*
X133430500Y-107843713D01*
X133397246Y-107633757D01*
X133331557Y-107431588D01*
X133235051Y-107242184D01*
X133235049Y-107242181D01*
X133235048Y-107242179D01*
X133110109Y-107070213D01*
X132959786Y-106919890D01*
X132787820Y-106794951D01*
X132787115Y-106794591D01*
X132779054Y-106790485D01*
X132728259Y-106742512D01*
X132711463Y-106674692D01*
X132733999Y-106608556D01*
X132779054Y-106569515D01*
X132787816Y-106565051D01*
X132891409Y-106489787D01*
X132959786Y-106440109D01*
X132959788Y-106440106D01*
X132959792Y-106440104D01*
X133110104Y-106289792D01*
X133110106Y-106289788D01*
X133110109Y-106289786D01*
X133235048Y-106117820D01*
X133235047Y-106117820D01*
X133235051Y-106117816D01*
X133331557Y-105928412D01*
X133397246Y-105726243D01*
X133430500Y-105516287D01*
X133430500Y-105303713D01*
X133397246Y-105093757D01*
X133331557Y-104891588D01*
X133235051Y-104702184D01*
X133235049Y-104702181D01*
X133235048Y-104702179D01*
X133110109Y-104530213D01*
X132959786Y-104379890D01*
X132787820Y-104254951D01*
X132787115Y-104254591D01*
X132779054Y-104250485D01*
X132728259Y-104202512D01*
X132711463Y-104134692D01*
X132733999Y-104068556D01*
X132779054Y-104029515D01*
X132787816Y-104025051D01*
X132891409Y-103949787D01*
X132959786Y-103900109D01*
X132959788Y-103900106D01*
X132959792Y-103900104D01*
X133110104Y-103749792D01*
X133110106Y-103749788D01*
X133110109Y-103749786D01*
X133235048Y-103577820D01*
X133235047Y-103577820D01*
X133235051Y-103577816D01*
X133331557Y-103388412D01*
X133397246Y-103186243D01*
X133430500Y-102976287D01*
X133430500Y-102763713D01*
X133397246Y-102553757D01*
X133331557Y-102351588D01*
X133235051Y-102162184D01*
X133235049Y-102162181D01*
X133235048Y-102162179D01*
X133110109Y-101990213D01*
X132959786Y-101839890D01*
X132787820Y-101714951D01*
X132787115Y-101714591D01*
X132779054Y-101710485D01*
X132728259Y-101662512D01*
X132711463Y-101594692D01*
X132733999Y-101528556D01*
X132779054Y-101489515D01*
X132787816Y-101485051D01*
X132891409Y-101409787D01*
X132959786Y-101360109D01*
X132959788Y-101360106D01*
X132959792Y-101360104D01*
X133110104Y-101209792D01*
X133110106Y-101209788D01*
X133110109Y-101209786D01*
X133235048Y-101037820D01*
X133235047Y-101037820D01*
X133235051Y-101037816D01*
X133331557Y-100848412D01*
X133397246Y-100646243D01*
X133430500Y-100436287D01*
X133430500Y-100223713D01*
X133397246Y-100013757D01*
X133331557Y-99811588D01*
X133235051Y-99622184D01*
X133235049Y-99622181D01*
X133235048Y-99622179D01*
X133110109Y-99450213D01*
X132959786Y-99299890D01*
X132787820Y-99174951D01*
X132787115Y-99174591D01*
X132779054Y-99170485D01*
X132728259Y-99122512D01*
X132711463Y-99054692D01*
X132733999Y-98988556D01*
X132779054Y-98949515D01*
X132787816Y-98945051D01*
X132891409Y-98869787D01*
X132959786Y-98820109D01*
X132959788Y-98820106D01*
X132959792Y-98820104D01*
X133110104Y-98669792D01*
X133110106Y-98669788D01*
X133110109Y-98669786D01*
X133235048Y-98497820D01*
X133235047Y-98497820D01*
X133235051Y-98497816D01*
X133331557Y-98308412D01*
X133397246Y-98106243D01*
X133430500Y-97896287D01*
X133430500Y-97683713D01*
X133397246Y-97473757D01*
X133331557Y-97271588D01*
X133235051Y-97082184D01*
X133235049Y-97082181D01*
X133235048Y-97082179D01*
X133110109Y-96910213D01*
X132959786Y-96759890D01*
X132787820Y-96634951D01*
X132787115Y-96634591D01*
X132779054Y-96630485D01*
X132728259Y-96582512D01*
X132711463Y-96514692D01*
X132733999Y-96448556D01*
X132779054Y-96409515D01*
X132787816Y-96405051D01*
X132891409Y-96329787D01*
X132959786Y-96280109D01*
X132959788Y-96280106D01*
X132959792Y-96280104D01*
X133110104Y-96129792D01*
X133110106Y-96129788D01*
X133110109Y-96129786D01*
X133235048Y-95957820D01*
X133235047Y-95957820D01*
X133235051Y-95957816D01*
X133331557Y-95768412D01*
X133397246Y-95566243D01*
X133430500Y-95356287D01*
X133430500Y-95143713D01*
X133397246Y-94933757D01*
X133331557Y-94731588D01*
X133235051Y-94542184D01*
X133235049Y-94542181D01*
X133235048Y-94542179D01*
X133110109Y-94370213D01*
X132959786Y-94219890D01*
X132787820Y-94094951D01*
X132787115Y-94094591D01*
X132779054Y-94090485D01*
X132728259Y-94042512D01*
X132711463Y-93974692D01*
X132733999Y-93908556D01*
X132779054Y-93869515D01*
X132787816Y-93865051D01*
X132891409Y-93789787D01*
X132959786Y-93740109D01*
X132959788Y-93740106D01*
X132959792Y-93740104D01*
X133110104Y-93589792D01*
X133110106Y-93589788D01*
X133110109Y-93589786D01*
X133235048Y-93417820D01*
X133235047Y-93417820D01*
X133235051Y-93417816D01*
X133331557Y-93228412D01*
X133397246Y-93026243D01*
X133430500Y-92816287D01*
X133430500Y-92603713D01*
X133397246Y-92393757D01*
X133331557Y-92191588D01*
X133235051Y-92002184D01*
X133235049Y-92002181D01*
X133235048Y-92002179D01*
X133110109Y-91830213D01*
X132959786Y-91679890D01*
X132787820Y-91554951D01*
X132787115Y-91554591D01*
X132779054Y-91550485D01*
X132728259Y-91502512D01*
X132711463Y-91434692D01*
X132733999Y-91368556D01*
X132779054Y-91329515D01*
X132787816Y-91325051D01*
X132891409Y-91249787D01*
X132959786Y-91200109D01*
X132959788Y-91200106D01*
X132959792Y-91200104D01*
X133110104Y-91049792D01*
X133110106Y-91049788D01*
X133110109Y-91049786D01*
X133235048Y-90877820D01*
X133235047Y-90877820D01*
X133235051Y-90877816D01*
X133331557Y-90688412D01*
X133397246Y-90486243D01*
X133430500Y-90276287D01*
X133430500Y-90063713D01*
X133397246Y-89853757D01*
X133331557Y-89651588D01*
X133235051Y-89462184D01*
X133235049Y-89462181D01*
X133235048Y-89462179D01*
X133110109Y-89290213D01*
X132959786Y-89139890D01*
X132787820Y-89014951D01*
X132787115Y-89014591D01*
X132779054Y-89010485D01*
X132728259Y-88962512D01*
X132711463Y-88894692D01*
X132733999Y-88828556D01*
X132779054Y-88789515D01*
X132787816Y-88785051D01*
X132891409Y-88709787D01*
X132959786Y-88660109D01*
X132959788Y-88660106D01*
X132959792Y-88660104D01*
X133110104Y-88509792D01*
X133110106Y-88509788D01*
X133110109Y-88509786D01*
X133235048Y-88337820D01*
X133235047Y-88337820D01*
X133235051Y-88337816D01*
X133331557Y-88148412D01*
X133397246Y-87946243D01*
X133430500Y-87736287D01*
X133430500Y-87523713D01*
X133397246Y-87313757D01*
X133331557Y-87111588D01*
X133235051Y-86922184D01*
X133235049Y-86922181D01*
X133235048Y-86922179D01*
X133110109Y-86750213D01*
X132959786Y-86599890D01*
X132787820Y-86474951D01*
X132787115Y-86474591D01*
X132779054Y-86470485D01*
X132728259Y-86422512D01*
X132711463Y-86354692D01*
X132733999Y-86288556D01*
X132779054Y-86249515D01*
X132787816Y-86245051D01*
X132891409Y-86169787D01*
X132959786Y-86120109D01*
X132959788Y-86120106D01*
X132959792Y-86120104D01*
X133110104Y-85969792D01*
X133110106Y-85969788D01*
X133110109Y-85969786D01*
X133235048Y-85797820D01*
X133235047Y-85797820D01*
X133235051Y-85797816D01*
X133331557Y-85608412D01*
X133397246Y-85406243D01*
X133430500Y-85196287D01*
X133430500Y-84983713D01*
X133397246Y-84773757D01*
X133331557Y-84571588D01*
X133235051Y-84382184D01*
X133235049Y-84382181D01*
X133235048Y-84382179D01*
X133110109Y-84210213D01*
X132959786Y-84059890D01*
X132787820Y-83934951D01*
X132787115Y-83934591D01*
X132779054Y-83930485D01*
X132728259Y-83882512D01*
X132711463Y-83814692D01*
X132733999Y-83748556D01*
X132779054Y-83709515D01*
X132787816Y-83705051D01*
X132891409Y-83629787D01*
X132959786Y-83580109D01*
X132959788Y-83580106D01*
X132959792Y-83580104D01*
X133110104Y-83429792D01*
X133110106Y-83429788D01*
X133110109Y-83429786D01*
X133235048Y-83257820D01*
X133235047Y-83257820D01*
X133235051Y-83257816D01*
X133331557Y-83068412D01*
X133397246Y-82866243D01*
X133430500Y-82656287D01*
X133430500Y-82443713D01*
X133397246Y-82233757D01*
X133331557Y-82031588D01*
X133235051Y-81842184D01*
X133235049Y-81842181D01*
X133235048Y-81842179D01*
X133110109Y-81670213D01*
X132959786Y-81519890D01*
X132787820Y-81394951D01*
X132787115Y-81394591D01*
X132779054Y-81390485D01*
X132728259Y-81342512D01*
X132711463Y-81274692D01*
X132733999Y-81208556D01*
X132779054Y-81169515D01*
X132787816Y-81165051D01*
X132891409Y-81089787D01*
X132959786Y-81040109D01*
X132959788Y-81040106D01*
X132959792Y-81040104D01*
X133110104Y-80889792D01*
X133110106Y-80889788D01*
X133110109Y-80889786D01*
X133235048Y-80717820D01*
X133235047Y-80717820D01*
X133235051Y-80717816D01*
X133331557Y-80528412D01*
X133397246Y-80326243D01*
X133430500Y-80116287D01*
X133430500Y-79903713D01*
X133397246Y-79693757D01*
X133331557Y-79491588D01*
X133235051Y-79302184D01*
X133235049Y-79302181D01*
X133235048Y-79302179D01*
X133110109Y-79130213D01*
X132959786Y-78979890D01*
X132787820Y-78854951D01*
X132787115Y-78854591D01*
X132779054Y-78850485D01*
X132728259Y-78802512D01*
X132711463Y-78734692D01*
X132733999Y-78668556D01*
X132779054Y-78629515D01*
X132787816Y-78625051D01*
X132891409Y-78549787D01*
X132959786Y-78500109D01*
X132959788Y-78500106D01*
X132959792Y-78500104D01*
X133110104Y-78349792D01*
X133110106Y-78349788D01*
X133110109Y-78349786D01*
X133235048Y-78177820D01*
X133235047Y-78177820D01*
X133235051Y-78177816D01*
X133331557Y-77988412D01*
X133397246Y-77786243D01*
X133430500Y-77576287D01*
X133430500Y-77363713D01*
X133397246Y-77153757D01*
X133331557Y-76951588D01*
X133235051Y-76762184D01*
X133235049Y-76762181D01*
X133235048Y-76762179D01*
X133110109Y-76590213D01*
X132959786Y-76439890D01*
X132787820Y-76314951D01*
X132787115Y-76314591D01*
X132779054Y-76310485D01*
X132728259Y-76262512D01*
X132711463Y-76194692D01*
X132733999Y-76128556D01*
X132779054Y-76089515D01*
X132787816Y-76085051D01*
X132891409Y-76009787D01*
X132959786Y-75960109D01*
X132959788Y-75960106D01*
X132959792Y-75960104D01*
X133110104Y-75809792D01*
X133110106Y-75809788D01*
X133110109Y-75809786D01*
X133235048Y-75637820D01*
X133235047Y-75637820D01*
X133235051Y-75637816D01*
X133331557Y-75448412D01*
X133397246Y-75246243D01*
X133430500Y-75036287D01*
X133430500Y-74823713D01*
X133397246Y-74613757D01*
X133331557Y-74411588D01*
X133235051Y-74222184D01*
X133235049Y-74222181D01*
X133235048Y-74222179D01*
X133110109Y-74050213D01*
X132959786Y-73899890D01*
X132787820Y-73774951D01*
X132782397Y-73772188D01*
X132779054Y-73770485D01*
X132728259Y-73722512D01*
X132711463Y-73654692D01*
X132733999Y-73588556D01*
X132779054Y-73549515D01*
X132787816Y-73545051D01*
X132809789Y-73529086D01*
X132959786Y-73420109D01*
X132959788Y-73420106D01*
X132959792Y-73420104D01*
X133110104Y-73269792D01*
X133110106Y-73269788D01*
X133110109Y-73269786D01*
X133235048Y-73097820D01*
X133235047Y-73097820D01*
X133235051Y-73097816D01*
X133331557Y-72908412D01*
X133397246Y-72706243D01*
X133430500Y-72496287D01*
X133430500Y-72283713D01*
X133397246Y-72073757D01*
X133331557Y-71871588D01*
X133235051Y-71682184D01*
X133235049Y-71682181D01*
X133235048Y-71682179D01*
X133110109Y-71510213D01*
X132959786Y-71359890D01*
X132787820Y-71234951D01*
X132598414Y-71138444D01*
X132598413Y-71138443D01*
X132598412Y-71138443D01*
X132396243Y-71072754D01*
X132396241Y-71072753D01*
X132396240Y-71072753D01*
X132234957Y-71047208D01*
X132186287Y-71039500D01*
X131973713Y-71039500D01*
X131925042Y-71047208D01*
X131763760Y-71072753D01*
X131561585Y-71138444D01*
X131372179Y-71234951D01*
X131200213Y-71359890D01*
X131049890Y-71510213D01*
X130924951Y-71682179D01*
X130828444Y-71871585D01*
X130828443Y-71871587D01*
X130828443Y-71871588D01*
X130817467Y-71905368D01*
X130762753Y-72073760D01*
X130759490Y-72094362D01*
X130729500Y-72283713D01*
X128300499Y-72283713D01*
X128300499Y-71542128D01*
X128294091Y-71482517D01*
X128273392Y-71427021D01*
X128243797Y-71347671D01*
X128243793Y-71347664D01*
X128157547Y-71232455D01*
X128157544Y-71232452D01*
X128042335Y-71146206D01*
X128042328Y-71146202D01*
X127907482Y-71095908D01*
X127907483Y-71095908D01*
X127847883Y-71089501D01*
X127847881Y-71089500D01*
X127847873Y-71089500D01*
X127847864Y-71089500D01*
X126152129Y-71089500D01*
X126152123Y-71089501D01*
X126092516Y-71095908D01*
X125957671Y-71146202D01*
X125957664Y-71146206D01*
X125842455Y-71232452D01*
X125842452Y-71232455D01*
X125756206Y-71347664D01*
X125756202Y-71347671D01*
X125705908Y-71482517D01*
X125701823Y-71520517D01*
X125699501Y-71542123D01*
X125699500Y-71542135D01*
X120317580Y-71542135D01*
X120202464Y-71427019D01*
X120041694Y-71310213D01*
X119864632Y-71219994D01*
X119864629Y-71219993D01*
X119675637Y-71158587D01*
X119548452Y-71138443D01*
X119479361Y-71127500D01*
X119280639Y-71127500D01*
X119215214Y-71137862D01*
X119084362Y-71158587D01*
X118895370Y-71219993D01*
X118895367Y-71219994D01*
X118718305Y-71310213D01*
X118557533Y-71427021D01*
X118417021Y-71567533D01*
X118300213Y-71728305D01*
X118209994Y-71905367D01*
X118209993Y-71905370D01*
X118148587Y-72094362D01*
X118117500Y-72290639D01*
X105402499Y-72290639D01*
X105402499Y-71580128D01*
X105396091Y-71520517D01*
X105361219Y-71427021D01*
X105345797Y-71385671D01*
X105345793Y-71385664D01*
X105259547Y-71270455D01*
X105259544Y-71270452D01*
X105144335Y-71184206D01*
X105144328Y-71184202D01*
X105009482Y-71133908D01*
X105009483Y-71133908D01*
X104949883Y-71127501D01*
X104949881Y-71127500D01*
X104949873Y-71127500D01*
X104949864Y-71127500D01*
X103330129Y-71127500D01*
X103330123Y-71127501D01*
X103270516Y-71133908D01*
X103135671Y-71184202D01*
X103135664Y-71184206D01*
X103020455Y-71270452D01*
X103020452Y-71270455D01*
X102934206Y-71385664D01*
X102934202Y-71385671D01*
X102883908Y-71520517D01*
X102877501Y-71580116D01*
X102877501Y-71580123D01*
X102877500Y-71580135D01*
X102877500Y-73199870D01*
X102877501Y-73199876D01*
X102883908Y-73259483D01*
X102934202Y-73394328D01*
X102934206Y-73394335D01*
X103020452Y-73509544D01*
X103020455Y-73509547D01*
X103135664Y-73595793D01*
X103135671Y-73595797D01*
X103270517Y-73646091D01*
X103270516Y-73646091D01*
X103277444Y-73646835D01*
X103330127Y-73652500D01*
X103368801Y-73652499D01*
X103435838Y-73672182D01*
X103481594Y-73724985D01*
X103491539Y-73794143D01*
X103462516Y-73857699D01*
X103441687Y-73876816D01*
X103317542Y-73967014D01*
X103317533Y-73967021D01*
X103177021Y-74107533D01*
X103060213Y-74268305D01*
X102969994Y-74445367D01*
X102969993Y-74445370D01*
X102908587Y-74634362D01*
X102877500Y-74830639D01*
X102877500Y-75029360D01*
X102908587Y-75225637D01*
X102969993Y-75414629D01*
X102969994Y-75414632D01*
X103060213Y-75591694D01*
X103177019Y-75752464D01*
X103317536Y-75892981D01*
X103478306Y-76009787D01*
X103542085Y-76042284D01*
X103634780Y-76089515D01*
X103685576Y-76137490D01*
X103702371Y-76205311D01*
X103679833Y-76271446D01*
X103634780Y-76310485D01*
X103478305Y-76390213D01*
X103317533Y-76507021D01*
X103177021Y-76647533D01*
X103060213Y-76808305D01*
X102969994Y-76985367D01*
X102969993Y-76985370D01*
X102908587Y-77174362D01*
X102877500Y-77370639D01*
X102877500Y-77569360D01*
X102908587Y-77765637D01*
X102969993Y-77954629D01*
X102969994Y-77954632D01*
X103060213Y-78131694D01*
X103177019Y-78292464D01*
X103317536Y-78432981D01*
X103478306Y-78549787D01*
X103542085Y-78582284D01*
X103634780Y-78629515D01*
X103685576Y-78677490D01*
X103702371Y-78745311D01*
X103679833Y-78811446D01*
X103634780Y-78850485D01*
X103478305Y-78930213D01*
X103317533Y-79047021D01*
X103177021Y-79187533D01*
X103060213Y-79348305D01*
X102969994Y-79525367D01*
X102969993Y-79525370D01*
X102908587Y-79714362D01*
X102877500Y-79910639D01*
X102877500Y-80109360D01*
X102908587Y-80305637D01*
X102969993Y-80494629D01*
X102969994Y-80494632D01*
X103060213Y-80671694D01*
X103177019Y-80832464D01*
X103317536Y-80972981D01*
X103478306Y-81089787D01*
X103542085Y-81122284D01*
X103634780Y-81169515D01*
X103685576Y-81217490D01*
X103702371Y-81285311D01*
X103679833Y-81351446D01*
X103634780Y-81390485D01*
X103478305Y-81470213D01*
X103317533Y-81587021D01*
X103177021Y-81727533D01*
X103060213Y-81888305D01*
X102969994Y-82065367D01*
X102969993Y-82065370D01*
X102908587Y-82254362D01*
X102877500Y-82450639D01*
X102877500Y-82649360D01*
X102908587Y-82845637D01*
X102969993Y-83034629D01*
X102969994Y-83034632D01*
X103060213Y-83211694D01*
X103177019Y-83372464D01*
X103317536Y-83512981D01*
X103478306Y-83629787D01*
X103542085Y-83662284D01*
X103634780Y-83709515D01*
X103685576Y-83757490D01*
X103702371Y-83825311D01*
X103679833Y-83891446D01*
X103634780Y-83930485D01*
X103478305Y-84010213D01*
X103317533Y-84127021D01*
X103177021Y-84267533D01*
X103060213Y-84428305D01*
X102969994Y-84605367D01*
X102969993Y-84605370D01*
X102908587Y-84794362D01*
X102877500Y-84990639D01*
X102877500Y-85189360D01*
X102908587Y-85385637D01*
X102969993Y-85574629D01*
X102969994Y-85574632D01*
X103060213Y-85751694D01*
X103177019Y-85912464D01*
X103317536Y-86052981D01*
X103478306Y-86169787D01*
X103542085Y-86202284D01*
X103634780Y-86249515D01*
X103685576Y-86297490D01*
X103702371Y-86365311D01*
X103679833Y-86431446D01*
X103634780Y-86470485D01*
X103478305Y-86550213D01*
X103317533Y-86667021D01*
X103177021Y-86807533D01*
X103060213Y-86968305D01*
X102969994Y-87145367D01*
X102969993Y-87145370D01*
X102908587Y-87334362D01*
X102877500Y-87530639D01*
X102877500Y-87729360D01*
X102908587Y-87925637D01*
X102969993Y-88114629D01*
X102969994Y-88114632D01*
X103060213Y-88291694D01*
X103177019Y-88452464D01*
X103317536Y-88592981D01*
X103478306Y-88709787D01*
X103542085Y-88742284D01*
X103634780Y-88789515D01*
X103685576Y-88837490D01*
X103702371Y-88905311D01*
X103679833Y-88971446D01*
X103634780Y-89010485D01*
X103478305Y-89090213D01*
X103317533Y-89207021D01*
X103177021Y-89347533D01*
X103060213Y-89508305D01*
X102969994Y-89685367D01*
X102969993Y-89685370D01*
X102908587Y-89874362D01*
X102877500Y-90070639D01*
X102877500Y-90269360D01*
X102908587Y-90465637D01*
X102969993Y-90654629D01*
X102969994Y-90654632D01*
X103060213Y-90831694D01*
X103177019Y-90992464D01*
X103317536Y-91132981D01*
X103478306Y-91249787D01*
X103542085Y-91282284D01*
X103634780Y-91329515D01*
X103685576Y-91377490D01*
X103702371Y-91445311D01*
X103679833Y-91511446D01*
X103634780Y-91550485D01*
X103478305Y-91630213D01*
X103317533Y-91747021D01*
X103177021Y-91887533D01*
X103060213Y-92048305D01*
X102969994Y-92225367D01*
X102969993Y-92225370D01*
X102908587Y-92414362D01*
X102877500Y-92610639D01*
X102877500Y-92809360D01*
X102908587Y-93005637D01*
X102969993Y-93194629D01*
X102969994Y-93194632D01*
X103060213Y-93371694D01*
X103177019Y-93532464D01*
X103317536Y-93672981D01*
X103478306Y-93789787D01*
X103542085Y-93822284D01*
X103634780Y-93869515D01*
X103685576Y-93917490D01*
X103702371Y-93985311D01*
X103679833Y-94051446D01*
X103634780Y-94090485D01*
X103478305Y-94170213D01*
X103317533Y-94287021D01*
X103177021Y-94427533D01*
X103060213Y-94588305D01*
X102969994Y-94765367D01*
X102969993Y-94765370D01*
X102908587Y-94954362D01*
X102877500Y-95150639D01*
X102877500Y-95349360D01*
X102908587Y-95545637D01*
X102969993Y-95734629D01*
X102969994Y-95734632D01*
X103060213Y-95911694D01*
X103177019Y-96072464D01*
X103317536Y-96212981D01*
X103478306Y-96329787D01*
X103596832Y-96390179D01*
X103634780Y-96409515D01*
X103685576Y-96457490D01*
X103702371Y-96525311D01*
X103679833Y-96591446D01*
X103634780Y-96630485D01*
X103478305Y-96710213D01*
X103317533Y-96827021D01*
X103177021Y-96967533D01*
X103060213Y-97128305D01*
X102969994Y-97305367D01*
X102969993Y-97305370D01*
X102908587Y-97494362D01*
X102877500Y-97690639D01*
X102877500Y-97889360D01*
X102908587Y-98085637D01*
X102969993Y-98274629D01*
X102969994Y-98274632D01*
X103060213Y-98451694D01*
X103177019Y-98612464D01*
X103317536Y-98752981D01*
X103478306Y-98869787D01*
X103596832Y-98930179D01*
X103634780Y-98949515D01*
X103685576Y-98997490D01*
X103702371Y-99065311D01*
X103679833Y-99131446D01*
X103634780Y-99170485D01*
X103478305Y-99250213D01*
X103317533Y-99367021D01*
X103177021Y-99507533D01*
X103177016Y-99507539D01*
X103089217Y-99628385D01*
X103033887Y-99671051D01*
X102988899Y-99679500D01*
X92699618Y-99679500D01*
X92632579Y-99659815D01*
X92598900Y-99625408D01*
X92597915Y-99626125D01*
X92470109Y-99450213D01*
X92319786Y-99299890D01*
X92147820Y-99174951D01*
X92147115Y-99174591D01*
X92139054Y-99170485D01*
X92088259Y-99122512D01*
X92071463Y-99054692D01*
X92093999Y-98988556D01*
X92139054Y-98949515D01*
X92147816Y-98945051D01*
X92251409Y-98869787D01*
X92319786Y-98820109D01*
X92319788Y-98820106D01*
X92319792Y-98820104D01*
X92470104Y-98669792D01*
X92470106Y-98669788D01*
X92470109Y-98669786D01*
X92595048Y-98497820D01*
X92595047Y-98497820D01*
X92595051Y-98497816D01*
X92691557Y-98308412D01*
X92757246Y-98106243D01*
X92790500Y-97896287D01*
X92790500Y-97683713D01*
X92757246Y-97473757D01*
X92691557Y-97271588D01*
X92595051Y-97082184D01*
X92595049Y-97082181D01*
X92595048Y-97082179D01*
X92470109Y-96910213D01*
X92319786Y-96759890D01*
X92147820Y-96634951D01*
X92147115Y-96634591D01*
X92139054Y-96630485D01*
X92088259Y-96582512D01*
X92071463Y-96514692D01*
X92093999Y-96448556D01*
X92139054Y-96409515D01*
X92147816Y-96405051D01*
X92251409Y-96329787D01*
X92319786Y-96280109D01*
X92319788Y-96280106D01*
X92319792Y-96280104D01*
X92470104Y-96129792D01*
X92470106Y-96129788D01*
X92470109Y-96129786D01*
X92595048Y-95957820D01*
X92595047Y-95957820D01*
X92595051Y-95957816D01*
X92691557Y-95768412D01*
X92757246Y-95566243D01*
X92790500Y-95356287D01*
X92790500Y-95143713D01*
X92757246Y-94933757D01*
X92691557Y-94731588D01*
X92595051Y-94542184D01*
X92595049Y-94542181D01*
X92595048Y-94542179D01*
X92470109Y-94370213D01*
X92319786Y-94219890D01*
X92147820Y-94094951D01*
X92147115Y-94094591D01*
X92139054Y-94090485D01*
X92088259Y-94042512D01*
X92071463Y-93974692D01*
X92093999Y-93908556D01*
X92139054Y-93869515D01*
X92147816Y-93865051D01*
X92251409Y-93789787D01*
X92319786Y-93740109D01*
X92319788Y-93740106D01*
X92319792Y-93740104D01*
X92470104Y-93589792D01*
X92470106Y-93589788D01*
X92470109Y-93589786D01*
X92595048Y-93417820D01*
X92595047Y-93417820D01*
X92595051Y-93417816D01*
X92691557Y-93228412D01*
X92757246Y-93026243D01*
X92790500Y-92816287D01*
X92790500Y-92603713D01*
X92757246Y-92393757D01*
X92691557Y-92191588D01*
X92595051Y-92002184D01*
X92595049Y-92002181D01*
X92595048Y-92002179D01*
X92470109Y-91830213D01*
X92319786Y-91679890D01*
X92147820Y-91554951D01*
X92147115Y-91554591D01*
X92139054Y-91550485D01*
X92088259Y-91502512D01*
X92071463Y-91434692D01*
X92093999Y-91368556D01*
X92139054Y-91329515D01*
X92147816Y-91325051D01*
X92251409Y-91249787D01*
X92319786Y-91200109D01*
X92319788Y-91200106D01*
X92319792Y-91200104D01*
X92470104Y-91049792D01*
X92470106Y-91049788D01*
X92470109Y-91049786D01*
X92595048Y-90877820D01*
X92595047Y-90877820D01*
X92595051Y-90877816D01*
X92691557Y-90688412D01*
X92757246Y-90486243D01*
X92790500Y-90276287D01*
X92790500Y-90063713D01*
X92757246Y-89853757D01*
X92691557Y-89651588D01*
X92595051Y-89462184D01*
X92595049Y-89462181D01*
X92595048Y-89462179D01*
X92470109Y-89290213D01*
X92319786Y-89139890D01*
X92147820Y-89014951D01*
X92147115Y-89014591D01*
X92139054Y-89010485D01*
X92088259Y-88962512D01*
X92071463Y-88894692D01*
X92093999Y-88828556D01*
X92139054Y-88789515D01*
X92147816Y-88785051D01*
X92251409Y-88709787D01*
X92319786Y-88660109D01*
X92319788Y-88660106D01*
X92319792Y-88660104D01*
X92470104Y-88509792D01*
X92470106Y-88509788D01*
X92470109Y-88509786D01*
X92595048Y-88337820D01*
X92595047Y-88337820D01*
X92595051Y-88337816D01*
X92691557Y-88148412D01*
X92757246Y-87946243D01*
X92790500Y-87736287D01*
X92790500Y-87523713D01*
X92757246Y-87313757D01*
X92691557Y-87111588D01*
X92595051Y-86922184D01*
X92595049Y-86922181D01*
X92595048Y-86922179D01*
X92470109Y-86750213D01*
X92319786Y-86599890D01*
X92147820Y-86474951D01*
X92147115Y-86474591D01*
X92139054Y-86470485D01*
X92088259Y-86422512D01*
X92071463Y-86354692D01*
X92093999Y-86288556D01*
X92139054Y-86249515D01*
X92147816Y-86245051D01*
X92251409Y-86169787D01*
X92319786Y-86120109D01*
X92319788Y-86120106D01*
X92319792Y-86120104D01*
X92470104Y-85969792D01*
X92470106Y-85969788D01*
X92470109Y-85969786D01*
X92595048Y-85797820D01*
X92595047Y-85797820D01*
X92595051Y-85797816D01*
X92691557Y-85608412D01*
X92757246Y-85406243D01*
X92790500Y-85196287D01*
X92790500Y-84983713D01*
X92757246Y-84773757D01*
X92691557Y-84571588D01*
X92595051Y-84382184D01*
X92595049Y-84382181D01*
X92595048Y-84382179D01*
X92470109Y-84210213D01*
X92319786Y-84059890D01*
X92147820Y-83934951D01*
X92147115Y-83934591D01*
X92139054Y-83930485D01*
X92088259Y-83882512D01*
X92071463Y-83814692D01*
X92093999Y-83748556D01*
X92139054Y-83709515D01*
X92147816Y-83705051D01*
X92251409Y-83629787D01*
X92319786Y-83580109D01*
X92319788Y-83580106D01*
X92319792Y-83580104D01*
X92470104Y-83429792D01*
X92470106Y-83429788D01*
X92470109Y-83429786D01*
X92595048Y-83257820D01*
X92595047Y-83257820D01*
X92595051Y-83257816D01*
X92691557Y-83068412D01*
X92757246Y-82866243D01*
X92790500Y-82656287D01*
X92790500Y-82443713D01*
X92757246Y-82233757D01*
X92691557Y-82031588D01*
X92595051Y-81842184D01*
X92595049Y-81842181D01*
X92595048Y-81842179D01*
X92470109Y-81670213D01*
X92319786Y-81519890D01*
X92147820Y-81394951D01*
X92147115Y-81394591D01*
X92139054Y-81390485D01*
X92088259Y-81342512D01*
X92071463Y-81274692D01*
X92093999Y-81208556D01*
X92139054Y-81169515D01*
X92147816Y-81165051D01*
X92251409Y-81089787D01*
X92319786Y-81040109D01*
X92319788Y-81040106D01*
X92319792Y-81040104D01*
X92470104Y-80889792D01*
X92470106Y-80889788D01*
X92470109Y-80889786D01*
X92595048Y-80717820D01*
X92595047Y-80717820D01*
X92595051Y-80717816D01*
X92691557Y-80528412D01*
X92757246Y-80326243D01*
X92790500Y-80116287D01*
X92790500Y-79903713D01*
X92757246Y-79693757D01*
X92691557Y-79491588D01*
X92595051Y-79302184D01*
X92595049Y-79302181D01*
X92595048Y-79302179D01*
X92470109Y-79130213D01*
X92319786Y-78979890D01*
X92147820Y-78854951D01*
X92147115Y-78854591D01*
X92139054Y-78850485D01*
X92088259Y-78802512D01*
X92071463Y-78734692D01*
X92093999Y-78668556D01*
X92139054Y-78629515D01*
X92147816Y-78625051D01*
X92251409Y-78549787D01*
X92319786Y-78500109D01*
X92319788Y-78500106D01*
X92319792Y-78500104D01*
X92470104Y-78349792D01*
X92470106Y-78349788D01*
X92470109Y-78349786D01*
X92595048Y-78177820D01*
X92595047Y-78177820D01*
X92595051Y-78177816D01*
X92691557Y-77988412D01*
X92757246Y-77786243D01*
X92790500Y-77576287D01*
X92790500Y-77363713D01*
X92757246Y-77153757D01*
X92691557Y-76951588D01*
X92595051Y-76762184D01*
X92595049Y-76762181D01*
X92595048Y-76762179D01*
X92470109Y-76590213D01*
X92319786Y-76439890D01*
X92147820Y-76314951D01*
X92147115Y-76314591D01*
X92139054Y-76310485D01*
X92088259Y-76262512D01*
X92071463Y-76194692D01*
X92093999Y-76128556D01*
X92139054Y-76089515D01*
X92147816Y-76085051D01*
X92251409Y-76009787D01*
X92319786Y-75960109D01*
X92319788Y-75960106D01*
X92319792Y-75960104D01*
X92470104Y-75809792D01*
X92470106Y-75809788D01*
X92470109Y-75809786D01*
X92595048Y-75637820D01*
X92595047Y-75637820D01*
X92595051Y-75637816D01*
X92691557Y-75448412D01*
X92757246Y-75246243D01*
X92790500Y-75036287D01*
X92790500Y-74823713D01*
X92757246Y-74613757D01*
X92691557Y-74411588D01*
X92595051Y-74222184D01*
X92595049Y-74222181D01*
X92595048Y-74222179D01*
X92470109Y-74050213D01*
X92319786Y-73899890D01*
X92147820Y-73774951D01*
X92142397Y-73772188D01*
X92139054Y-73770485D01*
X92088259Y-73722512D01*
X92071463Y-73654692D01*
X92093999Y-73588556D01*
X92139054Y-73549515D01*
X92147816Y-73545051D01*
X92169789Y-73529086D01*
X92319786Y-73420109D01*
X92319788Y-73420106D01*
X92319792Y-73420104D01*
X92470104Y-73269792D01*
X92470106Y-73269788D01*
X92470109Y-73269786D01*
X92595048Y-73097820D01*
X92595047Y-73097820D01*
X92595051Y-73097816D01*
X92691557Y-72908412D01*
X92757246Y-72706243D01*
X92790500Y-72496287D01*
X92790500Y-72283713D01*
X92757246Y-72073757D01*
X92691557Y-71871588D01*
X92595051Y-71682184D01*
X92595049Y-71682181D01*
X92595048Y-71682179D01*
X92470109Y-71510213D01*
X92319786Y-71359890D01*
X92147820Y-71234951D01*
X91958414Y-71138444D01*
X91958413Y-71138443D01*
X91958412Y-71138443D01*
X91756243Y-71072754D01*
X91756241Y-71072753D01*
X91756240Y-71072753D01*
X91594957Y-71047208D01*
X91546287Y-71039500D01*
X91333713Y-71039500D01*
X91285042Y-71047208D01*
X91123760Y-71072753D01*
X90921585Y-71138444D01*
X90732179Y-71234951D01*
X90560213Y-71359890D01*
X90409890Y-71510213D01*
X90284951Y-71682179D01*
X90188444Y-71871585D01*
X90188443Y-71871587D01*
X90188443Y-71871588D01*
X90177467Y-71905368D01*
X90122753Y-72073760D01*
X90119490Y-72094362D01*
X90089500Y-72283713D01*
X84320500Y-72283713D01*
X84320500Y-60551902D01*
X91769500Y-60551902D01*
X91769500Y-60788097D01*
X91806446Y-61021368D01*
X91879433Y-61245996D01*
X91978070Y-61439581D01*
X91986657Y-61456433D01*
X92125483Y-61647510D01*
X92292490Y-61814517D01*
X92483567Y-61953343D01*
X92568273Y-61996503D01*
X92694003Y-62060566D01*
X92694005Y-62060566D01*
X92694008Y-62060568D01*
X92783904Y-62089777D01*
X92918631Y-62133553D01*
X93151903Y-62170500D01*
X93151908Y-62170500D01*
X93388097Y-62170500D01*
X93621368Y-62133553D01*
X93845992Y-62060568D01*
X94056433Y-61953343D01*
X94247510Y-61814517D01*
X94414517Y-61647510D01*
X94553343Y-61456433D01*
X94660568Y-61245992D01*
X94733553Y-61021368D01*
X94749852Y-60918462D01*
X94770500Y-60788097D01*
X94770500Y-60551902D01*
X98269500Y-60551902D01*
X98269500Y-60788097D01*
X98306446Y-61021368D01*
X98379433Y-61245996D01*
X98478070Y-61439581D01*
X98486657Y-61456433D01*
X98625483Y-61647510D01*
X98792490Y-61814517D01*
X98983567Y-61953343D01*
X99068273Y-61996503D01*
X99194003Y-62060566D01*
X99194005Y-62060566D01*
X99194008Y-62060568D01*
X99283904Y-62089777D01*
X99418631Y-62133553D01*
X99651903Y-62170500D01*
X99651908Y-62170500D01*
X99888097Y-62170500D01*
X100121368Y-62133553D01*
X100345992Y-62060568D01*
X100556433Y-61953343D01*
X100747510Y-61814517D01*
X100914517Y-61647510D01*
X101053343Y-61456433D01*
X101160568Y-61245992D01*
X101233553Y-61021368D01*
X101249852Y-60918462D01*
X101270500Y-60788097D01*
X101270500Y-60551902D01*
X101233553Y-60318631D01*
X101160566Y-60094003D01*
X101053342Y-59883566D01*
X100914517Y-59692490D01*
X100805740Y-59583713D01*
X107869500Y-59583713D01*
X107869500Y-59796286D01*
X107902753Y-60006239D01*
X107968444Y-60208414D01*
X108064951Y-60397820D01*
X108189890Y-60569786D01*
X108340213Y-60720109D01*
X108512179Y-60845048D01*
X108512181Y-60845049D01*
X108512184Y-60845051D01*
X108701588Y-60941557D01*
X108903757Y-61007246D01*
X109113713Y-61040500D01*
X109113714Y-61040500D01*
X109190197Y-61040500D01*
X109211444Y-61046739D01*
X109233532Y-61048319D01*
X109244314Y-61056390D01*
X109257236Y-61060185D01*
X109271734Y-61076917D01*
X109289465Y-61090190D01*
X109294172Y-61102811D01*
X109302991Y-61112989D01*
X109306142Y-61134905D01*
X109313881Y-61155655D01*
X109311018Y-61168815D01*
X109312935Y-61182147D01*
X109303736Y-61202289D01*
X109299029Y-61223928D01*
X109285759Y-61241652D01*
X109283910Y-61245703D01*
X109277877Y-61252182D01*
X109117072Y-61412984D01*
X109055749Y-61446468D01*
X109053584Y-61446919D01*
X108986508Y-61460261D01*
X108986498Y-61460264D01*
X108840827Y-61520602D01*
X108840814Y-61520609D01*
X108709711Y-61608210D01*
X108709707Y-61608213D01*
X108598213Y-61719707D01*
X108598210Y-61719711D01*
X108510609Y-61850814D01*
X108510602Y-61850827D01*
X108450264Y-61996498D01*
X108450261Y-61996510D01*
X108419500Y-62151153D01*
X108419500Y-62308846D01*
X108450261Y-62463489D01*
X108450264Y-62463501D01*
X108510602Y-62609172D01*
X108510609Y-62609185D01*
X108598210Y-62740288D01*
X108598213Y-62740292D01*
X108709707Y-62851786D01*
X108709711Y-62851789D01*
X108840814Y-62939390D01*
X108840827Y-62939397D01*
X108986498Y-62999735D01*
X108986503Y-62999737D01*
X109141153Y-63030499D01*
X109141156Y-63030500D01*
X109141158Y-63030500D01*
X109298844Y-63030500D01*
X109298845Y-63030499D01*
X109453497Y-62999737D01*
X109599179Y-62939394D01*
X109730289Y-62851789D01*
X109841789Y-62740289D01*
X109929394Y-62609179D01*
X109989737Y-62463497D01*
X110003078Y-62396422D01*
X110035462Y-62334514D01*
X110036943Y-62333004D01*
X110263149Y-62106802D01*
X110263152Y-62106801D01*
X110280155Y-62089797D01*
X110280192Y-62089777D01*
X110314986Y-62054982D01*
X110314987Y-62054983D01*
X110412897Y-61957072D01*
X110588580Y-61743000D01*
X110742435Y-61512739D01*
X110872978Y-61268506D01*
X110978954Y-61012653D01*
X110989799Y-60976897D01*
X111028093Y-60918462D01*
X111091904Y-60890003D01*
X111160971Y-60900561D01*
X111164745Y-60902403D01*
X111241588Y-60941557D01*
X111443757Y-61007246D01*
X111653713Y-61040500D01*
X111653714Y-61040500D01*
X111866286Y-61040500D01*
X111866287Y-61040500D01*
X112076243Y-61007246D01*
X112278412Y-60941557D01*
X112467816Y-60845051D01*
X112546214Y-60788092D01*
X112639786Y-60720109D01*
X112639788Y-60720106D01*
X112639792Y-60720104D01*
X112790104Y-60569792D01*
X112790106Y-60569788D01*
X112790109Y-60569786D01*
X112915048Y-60397820D01*
X112915047Y-60397820D01*
X112915051Y-60397816D01*
X112919514Y-60389054D01*
X112967488Y-60338259D01*
X113035308Y-60321463D01*
X113101444Y-60343999D01*
X113140486Y-60389056D01*
X113144951Y-60397820D01*
X113269890Y-60569786D01*
X113420213Y-60720109D01*
X113592179Y-60845048D01*
X113592181Y-60845049D01*
X113592184Y-60845051D01*
X113781588Y-60941557D01*
X113983757Y-61007246D01*
X114193713Y-61040500D01*
X114193714Y-61040500D01*
X114406286Y-61040500D01*
X114406287Y-61040500D01*
X114616243Y-61007246D01*
X114818412Y-60941557D01*
X115007816Y-60845051D01*
X115086214Y-60788092D01*
X115179786Y-60720109D01*
X115179788Y-60720106D01*
X115179792Y-60720104D01*
X115330104Y-60569792D01*
X115330106Y-60569788D01*
X115330109Y-60569786D01*
X115455048Y-60397820D01*
X115455047Y-60397820D01*
X115455051Y-60397816D01*
X115551557Y-60208412D01*
X115617246Y-60006243D01*
X115650500Y-59796287D01*
X115650500Y-59583713D01*
X115617246Y-59373757D01*
X115551557Y-59171588D01*
X115455051Y-58982184D01*
X115455049Y-58982181D01*
X115455048Y-58982179D01*
X115330109Y-58810213D01*
X115179786Y-58659890D01*
X115007820Y-58534951D01*
X115007115Y-58534591D01*
X114999054Y-58530485D01*
X114948259Y-58482512D01*
X114931463Y-58414692D01*
X114953999Y-58348556D01*
X114999054Y-58309515D01*
X115007816Y-58305051D01*
X115062572Y-58265269D01*
X115179786Y-58180109D01*
X115179788Y-58180106D01*
X115179792Y-58180104D01*
X115330104Y-58029792D01*
X115330106Y-58029788D01*
X115330109Y-58029786D01*
X115455048Y-57857820D01*
X115455047Y-57857820D01*
X115455051Y-57857816D01*
X115551557Y-57668412D01*
X115617246Y-57466243D01*
X115650500Y-57256287D01*
X115650500Y-57043713D01*
X115617246Y-56833757D01*
X115571452Y-56692818D01*
X115569457Y-56622977D01*
X115605537Y-56563144D01*
X115668238Y-56532316D01*
X115689383Y-56530500D01*
X119281781Y-56530500D01*
X119281785Y-56530501D01*
X119351015Y-56530500D01*
X119359122Y-56530764D01*
X119596859Y-56546345D01*
X119612926Y-56548460D01*
X119842599Y-56594142D01*
X119858264Y-56598340D01*
X119956784Y-56631782D01*
X120080006Y-56673609D01*
X120094989Y-56679816D01*
X120305006Y-56783384D01*
X120319053Y-56791494D01*
X120513751Y-56921586D01*
X120526616Y-56931457D01*
X120705605Y-57088426D01*
X120711527Y-57093973D01*
X121102984Y-57485430D01*
X121136469Y-57546753D01*
X121136920Y-57548920D01*
X121150261Y-57615989D01*
X121150264Y-57616001D01*
X121210602Y-57761672D01*
X121210609Y-57761685D01*
X121298210Y-57892788D01*
X121298213Y-57892792D01*
X121409707Y-58004286D01*
X121409711Y-58004289D01*
X121540814Y-58091890D01*
X121540827Y-58091897D01*
X121686498Y-58152235D01*
X121686503Y-58152237D01*
X121826599Y-58180104D01*
X121841153Y-58182999D01*
X121841156Y-58183000D01*
X121841158Y-58183000D01*
X121998844Y-58183000D01*
X121998845Y-58182999D01*
X122153497Y-58152237D01*
X122299179Y-58091894D01*
X122430289Y-58004289D01*
X122541789Y-57892789D01*
X122629394Y-57761679D01*
X122689737Y-57615997D01*
X122720500Y-57461342D01*
X122720500Y-57303658D01*
X122720500Y-57303655D01*
X122720499Y-57303653D01*
X122711069Y-57256246D01*
X122689737Y-57149003D01*
X122665753Y-57091100D01*
X122629397Y-57003327D01*
X122629390Y-57003314D01*
X122541789Y-56872211D01*
X122541786Y-56872207D01*
X122430292Y-56760713D01*
X122430288Y-56760710D01*
X122299185Y-56673109D01*
X122299172Y-56673102D01*
X122153501Y-56612764D01*
X122153489Y-56612761D01*
X122086420Y-56599420D01*
X122024509Y-56567035D01*
X122022930Y-56565484D01*
X121665050Y-56207604D01*
X121665031Y-56207570D01*
X121628730Y-56171269D01*
X121628731Y-56171269D01*
X121517033Y-56059571D01*
X121486762Y-56034728D01*
X121272820Y-55859151D01*
X121234044Y-55833242D01*
X121023899Y-55692828D01*
X121010142Y-55683636D01*
X121010141Y-55683635D01*
X121010130Y-55683628D01*
X120731505Y-55534701D01*
X120692933Y-55518724D01*
X120439631Y-55413804D01*
X120439628Y-55413803D01*
X120439623Y-55413801D01*
X120241913Y-55353828D01*
X120137298Y-55322094D01*
X120030431Y-55300838D01*
X119827438Y-55260462D01*
X119827434Y-55260461D01*
X119827426Y-55260460D01*
X119596436Y-55237712D01*
X119513030Y-55229498D01*
X119513027Y-55229498D01*
X119355065Y-55229500D01*
X111504517Y-55229500D01*
X111504405Y-55229505D01*
X111460331Y-55229505D01*
X111234917Y-55259178D01*
X111234898Y-55259182D01*
X111015281Y-55318025D01*
X111015278Y-55318026D01*
X110805225Y-55405032D01*
X110805210Y-55405039D01*
X110608303Y-55518723D01*
X110427913Y-55657140D01*
X110383848Y-55701205D01*
X110383834Y-55701212D01*
X110267131Y-55817914D01*
X110131689Y-55994428D01*
X110075261Y-56035631D01*
X110005515Y-56039786D01*
X109960429Y-56019261D01*
X109927556Y-55995378D01*
X109738217Y-55898904D01*
X109536129Y-55833242D01*
X109326246Y-55800000D01*
X109113754Y-55800000D01*
X108903872Y-55833242D01*
X108903869Y-55833242D01*
X108701782Y-55898904D01*
X108512439Y-55995380D01*
X108458282Y-56034727D01*
X108458282Y-56034728D01*
X109090591Y-56667037D01*
X109027007Y-56684075D01*
X108912993Y-56749901D01*
X108819901Y-56842993D01*
X108754075Y-56957007D01*
X108737037Y-57020591D01*
X108104728Y-56388282D01*
X108104727Y-56388282D01*
X108065380Y-56442439D01*
X107968904Y-56631782D01*
X107903242Y-56833869D01*
X107903242Y-56833872D01*
X107870000Y-57043753D01*
X107870000Y-57256246D01*
X107903242Y-57466127D01*
X107903242Y-57466130D01*
X107968904Y-57668217D01*
X108065375Y-57857550D01*
X108104728Y-57911716D01*
X108737037Y-57279408D01*
X108754075Y-57342993D01*
X108819901Y-57457007D01*
X108912993Y-57550099D01*
X109027007Y-57615925D01*
X109090589Y-57632962D01*
X108458282Y-58265269D01*
X108458282Y-58265270D01*
X108512452Y-58304626D01*
X108512451Y-58304626D01*
X108521495Y-58309234D01*
X108572292Y-58357208D01*
X108589087Y-58425029D01*
X108566550Y-58491164D01*
X108521499Y-58530202D01*
X108512182Y-58534949D01*
X108340213Y-58659890D01*
X108189890Y-58810213D01*
X108064951Y-58982179D01*
X107968444Y-59171585D01*
X107902753Y-59373760D01*
X107869500Y-59583713D01*
X100805740Y-59583713D01*
X100747510Y-59525483D01*
X100556433Y-59386657D01*
X100531121Y-59373760D01*
X100345996Y-59279433D01*
X100121368Y-59206446D01*
X99888097Y-59169500D01*
X99888092Y-59169500D01*
X99651908Y-59169500D01*
X99651903Y-59169500D01*
X99418631Y-59206446D01*
X99194003Y-59279433D01*
X98983566Y-59386657D01*
X98874550Y-59465862D01*
X98792490Y-59525483D01*
X98792488Y-59525485D01*
X98792487Y-59525485D01*
X98625485Y-59692487D01*
X98625485Y-59692488D01*
X98625483Y-59692490D01*
X98565862Y-59774550D01*
X98486657Y-59883566D01*
X98379433Y-60094003D01*
X98306446Y-60318631D01*
X98269500Y-60551902D01*
X94770500Y-60551902D01*
X94733553Y-60318631D01*
X94660566Y-60094003D01*
X94553342Y-59883566D01*
X94414517Y-59692490D01*
X94247510Y-59525483D01*
X94056433Y-59386657D01*
X94031121Y-59373760D01*
X93845996Y-59279433D01*
X93621368Y-59206446D01*
X93388097Y-59169500D01*
X93388092Y-59169500D01*
X93151908Y-59169500D01*
X93151903Y-59169500D01*
X92918631Y-59206446D01*
X92694003Y-59279433D01*
X92483566Y-59386657D01*
X92374550Y-59465862D01*
X92292490Y-59525483D01*
X92292488Y-59525485D01*
X92292487Y-59525485D01*
X92125485Y-59692487D01*
X92125485Y-59692488D01*
X92125483Y-59692490D01*
X92065862Y-59774550D01*
X91986657Y-59883566D01*
X91879433Y-60094003D01*
X91806446Y-60318631D01*
X91769500Y-60551902D01*
X84320500Y-60551902D01*
X84320500Y-56051902D01*
X91769500Y-56051902D01*
X91769500Y-56288097D01*
X91806446Y-56521368D01*
X91879433Y-56745996D01*
X91973933Y-56931460D01*
X91986657Y-56956433D01*
X92125483Y-57147510D01*
X92292490Y-57314517D01*
X92483567Y-57453343D01*
X92582991Y-57504002D01*
X92694003Y-57560566D01*
X92694005Y-57560566D01*
X92694008Y-57560568D01*
X92814412Y-57599689D01*
X92918631Y-57633553D01*
X93151903Y-57670500D01*
X93151908Y-57670500D01*
X93388097Y-57670500D01*
X93621368Y-57633553D01*
X93675387Y-57616001D01*
X93845992Y-57560568D01*
X94056433Y-57453343D01*
X94247510Y-57314517D01*
X94414517Y-57147510D01*
X94553343Y-56956433D01*
X94660568Y-56745992D01*
X94733553Y-56521368D01*
X94754632Y-56388282D01*
X94770500Y-56288097D01*
X94770500Y-56051902D01*
X98269500Y-56051902D01*
X98269500Y-56288097D01*
X98306446Y-56521368D01*
X98379433Y-56745996D01*
X98473933Y-56931460D01*
X98486657Y-56956433D01*
X98625483Y-57147510D01*
X98792490Y-57314517D01*
X98983567Y-57453343D01*
X99082991Y-57504002D01*
X99194003Y-57560566D01*
X99194005Y-57560566D01*
X99194008Y-57560568D01*
X99314412Y-57599689D01*
X99418631Y-57633553D01*
X99651903Y-57670500D01*
X99651908Y-57670500D01*
X99888097Y-57670500D01*
X100121368Y-57633553D01*
X100175387Y-57616001D01*
X100345992Y-57560568D01*
X100556433Y-57453343D01*
X100747510Y-57314517D01*
X100914517Y-57147510D01*
X101053343Y-56956433D01*
X101160568Y-56745992D01*
X101233553Y-56521368D01*
X101254632Y-56388282D01*
X101270500Y-56288097D01*
X101270500Y-56051902D01*
X101233553Y-55818631D01*
X101195401Y-55701212D01*
X101160568Y-55594008D01*
X101160566Y-55594005D01*
X101160566Y-55594003D01*
X101084280Y-55444284D01*
X101053343Y-55383567D01*
X100914517Y-55192490D01*
X100747510Y-55025483D01*
X100556433Y-54886657D01*
X100522896Y-54869569D01*
X100345996Y-54779433D01*
X100121368Y-54706446D01*
X99888097Y-54669500D01*
X99888092Y-54669500D01*
X99651908Y-54669500D01*
X99651903Y-54669500D01*
X99418631Y-54706446D01*
X99194003Y-54779433D01*
X98983566Y-54886657D01*
X98907277Y-54942085D01*
X98792490Y-55025483D01*
X98792488Y-55025485D01*
X98792487Y-55025485D01*
X98625485Y-55192487D01*
X98625485Y-55192488D01*
X98625483Y-55192490D01*
X98598595Y-55229498D01*
X98486657Y-55383566D01*
X98379433Y-55594003D01*
X98306446Y-55818631D01*
X98269500Y-56051902D01*
X94770500Y-56051902D01*
X94733553Y-55818631D01*
X94695401Y-55701212D01*
X94660568Y-55594008D01*
X94660566Y-55594005D01*
X94660566Y-55594003D01*
X94584280Y-55444284D01*
X94553343Y-55383567D01*
X94414517Y-55192490D01*
X94247510Y-55025483D01*
X94056433Y-54886657D01*
X94022896Y-54869569D01*
X93845996Y-54779433D01*
X93621368Y-54706446D01*
X93388097Y-54669500D01*
X93388092Y-54669500D01*
X93151908Y-54669500D01*
X93151903Y-54669500D01*
X92918631Y-54706446D01*
X92694003Y-54779433D01*
X92483566Y-54886657D01*
X92407277Y-54942085D01*
X92292490Y-55025483D01*
X92292488Y-55025485D01*
X92292487Y-55025485D01*
X92125485Y-55192487D01*
X92125485Y-55192488D01*
X92125483Y-55192490D01*
X92098595Y-55229498D01*
X91986657Y-55383566D01*
X91879433Y-55594003D01*
X91806446Y-55818631D01*
X91769500Y-56051902D01*
X84320500Y-56051902D01*
X84320500Y-54987022D01*
X84340185Y-54919983D01*
X84392989Y-54874228D01*
X84462147Y-54864284D01*
X84525703Y-54893309D01*
X84541447Y-54909709D01*
X84567266Y-54942085D01*
X84757915Y-55132734D01*
X84968711Y-55300838D01*
X85197003Y-55444284D01*
X85439921Y-55561267D01*
X85533490Y-55594008D01*
X85694397Y-55650312D01*
X85694405Y-55650315D01*
X85694408Y-55650315D01*
X85694409Y-55650316D01*
X85957268Y-55710312D01*
X86225187Y-55740499D01*
X86225188Y-55740500D01*
X86225191Y-55740500D01*
X86494812Y-55740500D01*
X86494812Y-55740499D01*
X86762732Y-55710312D01*
X87025591Y-55650316D01*
X87280079Y-55561267D01*
X87522997Y-55444284D01*
X87751289Y-55300838D01*
X87962085Y-55132734D01*
X88152734Y-54942085D01*
X88320838Y-54731289D01*
X88464284Y-54502997D01*
X88581267Y-54260079D01*
X88670316Y-54005591D01*
X88730312Y-53742732D01*
X88760500Y-53474809D01*
X88760500Y-53205191D01*
X88730312Y-52937268D01*
X88670316Y-52674409D01*
X88581267Y-52419921D01*
X88464284Y-52177003D01*
X88320838Y-51948711D01*
X88152734Y-51737915D01*
X87962085Y-51547266D01*
X87929709Y-51521447D01*
X87889569Y-51464259D01*
X87886719Y-51394447D01*
X87922064Y-51334177D01*
X87984383Y-51302584D01*
X88007022Y-51300500D01*
X135512978Y-51300500D01*
X135580017Y-51320185D01*
G37*
%TD.AperFunction*%
%TD*%
M02*
