%TF.GenerationSoftware,KiCad,Pcbnew,9.0.4*%
%TF.CreationDate,2025-09-28T00:55:06-04:00*%
%TF.ProjectId,8051,38303531-2e6b-4696-9361-645f70636258,rev?*%
%TF.SameCoordinates,Original*%
%TF.FileFunction,Paste,Top*%
%TF.FilePolarity,Positive*%
%FSLAX46Y46*%
G04 Gerber Fmt 4.6, Leading zero omitted, Abs format (unit mm)*
G04 Created by KiCad (PCBNEW 9.0.4) date 2025-09-28 00:55:06*
%MOMM*%
%LPD*%
G01*
G04 APERTURE LIST*
G04 Aperture macros list*
%AMRoundRect*
0 Rectangle with rounded corners*
0 $1 Rounding radius*
0 $2 $3 $4 $5 $6 $7 $8 $9 X,Y pos of 4 corners*
0 Add a 4 corners polygon primitive as box body*
4,1,4,$2,$3,$4,$5,$6,$7,$8,$9,$2,$3,0*
0 Add four circle primitives for the rounded corners*
1,1,$1+$1,$2,$3*
1,1,$1+$1,$4,$5*
1,1,$1+$1,$6,$7*
1,1,$1+$1,$8,$9*
0 Add four rect primitives between the rounded corners*
20,1,$1+$1,$2,$3,$4,$5,0*
20,1,$1+$1,$4,$5,$6,$7,0*
20,1,$1+$1,$6,$7,$8,$9,0*
20,1,$1+$1,$8,$9,$2,$3,0*%
G04 Aperture macros list end*
%ADD10R,1.879600X0.558800*%
%ADD11RoundRect,0.250000X0.650000X-0.412500X0.650000X0.412500X-0.650000X0.412500X-0.650000X-0.412500X0*%
%ADD12RoundRect,0.250000X0.625000X-0.400000X0.625000X0.400000X-0.625000X0.400000X-0.625000X-0.400000X0*%
%ADD13RoundRect,0.250000X0.412500X0.650000X-0.412500X0.650000X-0.412500X-0.650000X0.412500X-0.650000X0*%
%ADD14RoundRect,0.250000X0.400000X0.625000X-0.400000X0.625000X-0.400000X-0.625000X0.400000X-0.625000X0*%
%ADD15RoundRect,0.250000X-0.412500X-0.650000X0.412500X-0.650000X0.412500X0.650000X-0.412500X0.650000X0*%
%ADD16RoundRect,0.250000X-0.650000X0.412500X-0.650000X-0.412500X0.650000X-0.412500X0.650000X0.412500X0*%
G04 APERTURE END LIST*
D10*
%TO.C,U2*%
X204882100Y-37465000D03*
X204882100Y-38735000D03*
X204882100Y-40005000D03*
X204882100Y-41275000D03*
X204882100Y-42545000D03*
X204882100Y-43815000D03*
X204882100Y-45085000D03*
X204882100Y-46355000D03*
X204882100Y-47625000D03*
X204882100Y-48895000D03*
X195407900Y-48895000D03*
X195407900Y-47625000D03*
X195407900Y-46355000D03*
X195407900Y-45085000D03*
X195407900Y-43815000D03*
X195407900Y-42545000D03*
X195407900Y-41275000D03*
X195407900Y-40005000D03*
X195407900Y-38735000D03*
X195407900Y-37465000D03*
%TD*%
%TO.C,U3*%
X204882100Y-59055000D03*
X204882100Y-60325000D03*
X204882100Y-61595000D03*
X204882100Y-62865000D03*
X204882100Y-64135000D03*
X204882100Y-65405000D03*
X204882100Y-66675000D03*
X204882100Y-67945000D03*
X204882100Y-69215000D03*
X204882100Y-70485000D03*
X195407900Y-70485000D03*
X195407900Y-69215000D03*
X195407900Y-67945000D03*
X195407900Y-66675000D03*
X195407900Y-65405000D03*
X195407900Y-64135000D03*
X195407900Y-62865000D03*
X195407900Y-61595000D03*
X195407900Y-60325000D03*
X195407900Y-59055000D03*
%TD*%
%TO.C,U4*%
X195400000Y-80640000D03*
X195400000Y-81910000D03*
X195400000Y-83180000D03*
X195400000Y-84450000D03*
X195400000Y-85720000D03*
X195400000Y-86990000D03*
X195400000Y-88260000D03*
X195400000Y-89530000D03*
X195400000Y-90800000D03*
X195400000Y-92070000D03*
X204874200Y-92070000D03*
X204874200Y-90800000D03*
X204874200Y-89530000D03*
X204874200Y-88260000D03*
X204874200Y-86990000D03*
X204874200Y-85720000D03*
X204874200Y-84450000D03*
X204874200Y-83180000D03*
X204874200Y-81910000D03*
X204874200Y-80640000D03*
%TD*%
%TO.C,U5*%
X195407900Y-102235000D03*
X195407900Y-103505000D03*
X195407900Y-104775000D03*
X195407900Y-106045000D03*
X195407900Y-107315000D03*
X195407900Y-108585000D03*
X195407900Y-109855000D03*
X195407900Y-111125000D03*
X195407900Y-112395000D03*
X195407900Y-113665000D03*
X204882100Y-113665000D03*
X204882100Y-112395000D03*
X204882100Y-111125000D03*
X204882100Y-109855000D03*
X204882100Y-108585000D03*
X204882100Y-107315000D03*
X204882100Y-106045000D03*
X204882100Y-104775000D03*
X204882100Y-103505000D03*
X204882100Y-102235000D03*
%TD*%
D11*
%TO.C,C11*%
X154305000Y-139407500D03*
X154305000Y-142532500D03*
%TD*%
D12*
%TO.C,R2*%
X126230000Y-143536000D03*
X126230000Y-140436000D03*
%TD*%
%TO.C,R4*%
X146404000Y-127228000D03*
X146404000Y-130328000D03*
%TD*%
D13*
%TO.C,C3*%
X148882500Y-118745000D03*
X145757500Y-118745000D03*
%TD*%
D14*
%TO.C,R1*%
X141259000Y-47700000D03*
X144359000Y-47700000D03*
%TD*%
D15*
%TO.C,C7*%
X179108500Y-43815000D03*
X175983500Y-43815000D03*
%TD*%
D13*
%TO.C,C6*%
X166803500Y-43890000D03*
X169928500Y-43890000D03*
%TD*%
D12*
%TO.C,R3*%
X130810000Y-143556000D03*
X130810000Y-140456000D03*
%TD*%
D15*
%TO.C,C4*%
X144401500Y-43890000D03*
X141276500Y-43890000D03*
%TD*%
D16*
%TO.C,C10*%
X135850000Y-148043500D03*
X135850000Y-151168500D03*
%TD*%
D11*
%TO.C,C1*%
X172720000Y-53632500D03*
X172720000Y-50507500D03*
%TD*%
D16*
%TO.C,C8*%
X143510000Y-151168500D03*
X143510000Y-148043500D03*
%TD*%
D15*
%TO.C,C2*%
X165785000Y-118745000D03*
X168910000Y-118745000D03*
%TD*%
D16*
%TO.C,C9*%
X139700000Y-148043500D03*
X139700000Y-151168500D03*
%TD*%
M02*
