M48
; DRILL file {KiCad 9.0.4} date 2025-09-28T00:55:03-0400
; FORMAT={-:-/ absolute / inch / decimal}
; #@! TF.CreationDate,2025-09-28T00:55:03-04:00
; #@! TF.GenerationSoftware,Kicad,Pcbnew,9.0.4
; #@! TF.FileFunction,Plated,1,2,PTH
FMAT,2
INCH
; #@! TA.AperFunction,Plated,PTH,ViaDrill
T1C0.0118
; #@! TA.AperFunction,Plated,PTH,ComponentDrill
T2C0.0315
; #@! TA.AperFunction,Plated,PTH,ComponentDrill
T3C0.0320
; #@! TA.AperFunction,Plated,PTH,ComponentDrill
T4C0.0354
; #@! TA.AperFunction,Plated,PTH,ComponentDrill
T5C0.0390
; #@! TA.AperFunction,Plated,PTH,ComponentDrill
T6C0.0394
; #@! TA.AperFunction,Plated,PTH,ComponentDrill
T7C0.0433
; #@! TA.AperFunction,Plated,PTH,ComponentDrill
T8C0.0450
; #@! TA.AperFunction,Plated,PTH,ComponentDrill
T9C0.0488
; #@! TA.AperFunction,Plated,PTH,ComponentDrill
T10C0.0630
; #@! TA.AperFunction,Plated,PTH,ComponentDrill
T11C0.0728
; #@! TA.AperFunction,Plated,PTH,ComponentDrill
T12C0.1575
%
G90
G05
T1
X5.2765Y-5.9515
X5.3484Y-6.0234
X5.5Y-6.025
X5.65Y-6.025
X5.67Y-4.68
X5.6834Y-1.9506
X5.6851Y-1.8
X5.7235Y-5.9515
X5.74Y-4.6
X5.74Y-4.75
X5.758Y-1.728
X5.758Y-1.878
X6.0015Y-5.4885
X6.075Y-5.425
X6.1485Y-5.4885
X6.2Y-1.75
X6.4841Y-1.728
X6.598Y-1.654
X6.65Y-4.6
X6.65Y-4.75
X6.7165Y-1.9885
X6.72Y-4.675
X6.8Y-1.916
X6.853Y-1.725
X6.8795Y-1.9885
X6.958Y-1.646
X7.2558Y-2.1994
X7.2882Y-2.0518
X7.3324Y-1.96
X7.4048Y-1.785
X7.4789Y-3.4979
X7.4789Y-4.2333
X7.518Y-4.156
X7.5183Y-3.3677
X7.5353Y-3.3247
X7.536Y-3.1563
X7.5574Y-4.064
X7.5672Y-1.825
X7.585Y-3.225
X7.5893Y-4.1757
X7.59Y-3.375
X7.6Y-1.84
X7.6049Y-2.5749
X7.615Y-1.475
X7.62Y-3.73
X7.6242Y-2.625
X7.6256Y-1.9805
X7.6347Y-2.703
X7.6929Y-3.1748
X7.6929Y-3.6248
X7.693Y-2.273
X7.693Y-2.821
X7.693Y-3.123
X7.693Y-3.671
X7.6932Y-1.925
X7.6932Y-2.325
X7.6932Y-2.775
X7.6932Y-4.025
X7.6932Y-4.4756
X7.6932Y-1.4232
X7.6932Y-1.9712
X7.694Y-3.973
X7.694Y-4.521
X7.7291Y-3.09
X7.7544Y-3.574
X7.77Y-4.4002
X7.78Y-1.63
X7.78Y-2.44
X7.78Y-3.274
X7.78Y-3.9625
X7.812Y-3.434
X7.812Y-4.232
X7.825Y-1.9562
X7.825Y-2.77
X8.1477Y-2.325
X8.1477Y-3.175
X8.1477Y-4.025
X8.1497Y-1.475
T2
X6.1039Y-4.675
X6.2961Y-4.675
X6.8Y-2.3
X6.8Y-2.4
X6.8Y-2.5
X6.8Y-2.6
X6.8Y-2.7
X6.8Y-2.8
X6.8Y-2.9
X6.8Y-3.0
X6.8Y-3.1
X8.3297Y-1.35
X8.3297Y-2.05
X8.3297Y-2.2
X8.3297Y-2.9
X8.3297Y-3.05
X8.3297Y-3.75
X8.3297Y-3.9
X8.3297Y-4.6
X8.3797Y-1.5
X8.3797Y-1.6
X8.3797Y-1.7
X8.3797Y-1.8
X8.3797Y-1.9
X8.3797Y-2.35
X8.3797Y-2.45
X8.3797Y-2.55
X8.3797Y-2.65
X8.3797Y-2.75
X8.3797Y-3.2
X8.3797Y-3.3
X8.3797Y-3.4
X8.3797Y-3.5
X8.3797Y-3.6
X8.3797Y-4.05
X8.3797Y-4.15
X8.3797Y-4.25
X8.3797Y-4.35
X8.3797Y-4.45
X8.4297Y-1.35
X8.4297Y-2.05
X8.4297Y-2.2
X8.4297Y-2.9
X8.4297Y-3.05
X8.4297Y-3.75
X8.4297Y-3.9
X8.4297Y-4.6
X8.5297Y-1.35
X8.5297Y-2.05
X8.5297Y-2.2
X8.5297Y-2.9
X8.5297Y-3.05
X8.5297Y-3.75
X8.5297Y-3.9
X8.5297Y-4.6
X8.6297Y-1.35
X8.6297Y-2.05
X8.6297Y-2.2
X8.6297Y-2.9
X8.6297Y-3.05
X8.6297Y-3.75
X8.6297Y-3.9
X8.6297Y-4.6
X8.7297Y-1.35
X8.7297Y-2.05
X8.7297Y-2.2
X8.7297Y-2.9
X8.7297Y-3.05
X8.7297Y-3.75
X8.7297Y-3.9
X8.7297Y-4.6
X8.8297Y-1.35
X8.8297Y-2.05
X8.8297Y-2.2
X8.8297Y-2.9
X8.8297Y-3.05
X8.8297Y-3.75
X8.8297Y-3.9
X8.8297Y-4.6
X8.9297Y-1.35
X8.9297Y-2.05
X8.9297Y-2.2
X8.9297Y-2.9
X8.9297Y-3.05
X8.9297Y-3.75
X8.9297Y-3.9
X8.9297Y-4.6
X8.9797Y-1.5
X8.9797Y-1.6
X8.9797Y-1.7
X8.9797Y-1.8
X8.9797Y-1.9
X8.9797Y-2.35
X8.9797Y-2.45
X8.9797Y-2.55
X8.9797Y-2.65
X8.9797Y-2.75
X8.9797Y-3.2
X8.9797Y-3.3
X8.9797Y-3.4
X8.9797Y-3.5
X8.9797Y-3.6
X8.9797Y-4.05
X8.9797Y-4.15
X8.9797Y-4.25
X8.9797Y-4.35
X8.9797Y-4.45
X9.0297Y-1.35
X9.0297Y-2.05
X9.0297Y-2.2
X9.0297Y-2.9
X9.0297Y-3.05
X9.0297Y-3.75
X9.0297Y-3.9
X9.0297Y-4.6
T3
X5.9Y-2.3
X5.9Y-2.4
X5.9Y-2.5
X5.9Y-2.6
X5.9Y-2.7
X5.9Y-2.8
X5.9Y-2.9
X5.9Y-3.0
X5.9Y-3.1
X5.9Y-3.2
X5.9Y-3.3
X5.9Y-3.4
X5.9Y-3.5
X5.9Y-3.6
X5.9Y-3.7
X5.9Y-3.8
X5.9Y-3.9
X5.9Y-4.0
X5.9Y-4.1
X5.9Y-4.2
X6.5Y-2.3
X6.5Y-2.4
X6.5Y-2.5
X6.5Y-2.6
X6.5Y-2.7
X6.5Y-2.8
X6.5Y-2.9
X6.5Y-3.0
X6.5Y-3.1
X6.5Y-3.2
X6.5Y-3.3
X6.5Y-3.4
X6.5Y-3.5
X6.5Y-3.6
X6.5Y-3.7
X6.5Y-3.8
X6.5Y-3.9
X6.5Y-4.0
X6.5Y-4.1
X6.5Y-4.2
T4
X5.5539Y-5.01
X5.5539Y-5.11
T5
X5.3721Y-4.3
X5.5689Y-4.2016
X5.5689Y-4.3985
T6
X4.3Y-1.9
X4.4Y-1.9
X4.5Y-1.9
X4.6Y-1.9
X4.7Y-1.9
X4.8Y-1.9
X4.9Y-1.9
X5.0Y-1.9
X5.1331Y-3.2
X5.1331Y-3.3
X5.1331Y-3.4
X5.1331Y-3.5
X5.1331Y-3.6
X5.1331Y-3.7
X5.1331Y-3.8
X5.1331Y-3.9
X5.1331Y-4.0
X5.1331Y-4.1
X5.1331Y-4.2
X5.1331Y-4.3
X5.1331Y-4.4
X5.1331Y-4.5
X5.1331Y-4.6
X5.1331Y-4.7
X5.15Y-1.9
X5.25Y-1.9
X5.35Y-1.9
X5.4Y-2.3
X5.4Y-2.4
X5.4Y-2.5
X5.4Y-2.6
X5.4Y-2.7
X5.4Y-2.8
X5.4Y-2.9
X5.4Y-3.0
X5.4Y-3.2
X5.4Y-3.3
X5.4Y-3.4
X5.4Y-3.5
X5.4Y-3.6
X5.4Y-3.7
X5.4Y-3.8
X5.4Y-3.9
X6.075Y-5.275
X6.075Y-5.825
X6.1Y-1.4698
X6.1Y-1.5698
X6.2Y-1.4698
X6.2Y-1.5698
X6.3Y-1.4698
X6.3Y-1.5698
X7.0Y-2.4
X7.0Y-2.5
X7.0Y-2.6
X7.0Y-2.7
X7.0Y-2.8
X7.0Y-2.9
X7.0Y-3.0
X7.0Y-3.1
X7.0Y-3.5
X7.0Y-3.6
X7.0Y-3.7
X7.0Y-3.8
X7.0Y-3.9
X7.0Y-4.0
X7.0Y-4.1
X7.0Y-4.2
X7.2797Y-5.05
X7.2797Y-5.15
X7.2797Y-5.25
X7.2797Y-5.35
X7.2797Y-5.45
X7.2797Y-5.55
X7.2797Y-5.65
X7.2797Y-5.75
X7.3797Y-2.4
X7.3797Y-2.5
X7.3797Y-2.6
X7.3797Y-2.7
X7.3797Y-2.8
X7.3797Y-2.9
X7.3797Y-3.0
X7.3797Y-3.1
X7.3797Y-3.5
X7.3797Y-3.6
X7.3797Y-3.7
X7.3797Y-3.8
T7
X5.5614Y-1.322
X5.5614Y-1.578
X5.7386Y-1.322
X5.7386Y-1.578
X6.5114Y-1.322
X6.5114Y-1.578
X6.6886Y-1.322
X6.6886Y-1.578
X6.8728Y-1.322
X6.8728Y-1.578
X7.05Y-1.322
X7.05Y-1.578
X7.5287Y-4.8134
X7.5287Y-4.9906
X7.5287Y-5.15
X7.5287Y-5.3272
X7.5287Y-5.4866
X7.5287Y-5.6638
X7.5287Y-5.8232
X7.5287Y-6.0004
X7.7846Y-4.8134
X7.7846Y-4.9906
X7.7846Y-5.15
X7.7846Y-5.3272
X7.7846Y-5.4866
X7.7846Y-5.6638
X7.7846Y-5.8232
X7.7846Y-6.0004
X7.9441Y-4.8134
X7.9441Y-4.9906
X7.9441Y-5.15
X7.9441Y-5.3272
X7.9441Y-5.4866
X7.9441Y-5.6638
X7.9441Y-5.8232
X7.9441Y-6.0004
X8.2Y-4.8134
X8.2Y-4.9906
X8.2Y-5.15
X8.2Y-5.3272
X8.2Y-5.4866
X8.2Y-5.6638
X8.2Y-5.8232
X8.2Y-6.0004
X8.3594Y-4.8134
X8.3594Y-4.9906
X8.3594Y-5.15
X8.3594Y-5.3272
X8.3594Y-5.4866
X8.3594Y-5.6638
X8.3594Y-5.8232
X8.3594Y-6.0004
X8.6154Y-4.8134
X8.6154Y-4.9906
X8.6154Y-5.15
X8.6154Y-5.3272
X8.6154Y-5.4866
X8.6154Y-5.6638
X8.6154Y-5.8232
X8.6154Y-6.0004
X8.7748Y-4.8134
X8.7748Y-4.9906
X8.7748Y-5.15
X8.7748Y-5.3272
X8.7748Y-5.4866
X8.7748Y-5.6638
X8.7748Y-5.8232
X8.7748Y-6.0004
X9.0307Y-4.8134
X9.0307Y-4.9906
X9.0307Y-5.15
X9.0307Y-5.3272
X9.0307Y-5.4866
X9.0307Y-5.6638
X9.0307Y-5.8232
X9.0307Y-6.0004
T8
X5.5Y-5.45
X5.5Y-5.55
X5.5Y-5.65
T9
X5.7784Y-5.45
X5.7784Y-5.55
X5.7784Y-5.65
T10
X4.475Y-5.2
X4.5931Y-5.385
X4.7112Y-5.2
T11
X4.2921Y-5.6545
X4.4772Y-5.6545
X4.6622Y-5.6545
T12
X4.6606Y-2.2591
X4.6606Y-4.7787
M30
