%TF.GenerationSoftware,KiCad,Pcbnew,9.0.4*%
%TF.CreationDate,2025-09-28T00:55:06-04:00*%
%TF.ProjectId,8051,38303531-2e6b-4696-9361-645f70636258,rev?*%
%TF.SameCoordinates,Original*%
%TF.FileFunction,Soldermask,Bot*%
%TF.FilePolarity,Negative*%
%FSLAX46Y46*%
G04 Gerber Fmt 4.6, Leading zero omitted, Abs format (unit mm)*
G04 Created by KiCad (PCBNEW 9.0.4) date 2025-09-28 00:55:06*
%MOMM*%
%LPD*%
G01*
G04 APERTURE LIST*
G04 Aperture macros list*
%AMRoundRect*
0 Rectangle with rounded corners*
0 $1 Rounding radius*
0 $2 $3 $4 $5 $6 $7 $8 $9 X,Y pos of 4 corners*
0 Add a 4 corners polygon primitive as box body*
4,1,4,$2,$3,$4,$5,$6,$7,$8,$9,$2,$3,0*
0 Add four circle primitives for the rounded corners*
1,1,$1+$1,$2,$3*
1,1,$1+$1,$4,$5*
1,1,$1+$1,$6,$7*
1,1,$1+$1,$8,$9*
0 Add four rect primitives between the rounded corners*
20,1,$1+$1,$2,$3,$4,$5,0*
20,1,$1+$1,$4,$5,$6,$7,0*
20,1,$1+$1,$6,$7,$8,$9,0*
20,1,$1+$1,$8,$9,$2,$3,0*%
G04 Aperture macros list end*
%ADD10O,3.220000X1.712000*%
%ADD11C,5.220000*%
%ADD12C,1.524000*%
%ADD13R,1.524000X1.524000*%
%ADD14C,2.000000*%
%ADD15R,1.700000X1.700000*%
%ADD16R,1.600000X1.600000*%
%ADD17C,1.600000*%
%ADD18RoundRect,0.102000X-0.930000X0.930000X-0.930000X-0.930000X0.930000X-0.930000X0.930000X0.930000X0*%
%ADD19C,2.064000*%
%ADD20C,1.700000*%
%ADD21C,1.651000*%
%ADD22R,2.524000X1.524000*%
%ADD23O,2.524000X1.524000*%
%ADD24C,1.500000*%
%ADD25C,1.800000*%
%ADD26R,1.800000X1.800000*%
%ADD27C,2.775000*%
%ADD28C,1.498600*%
%ADD29R,2.600000X2.600000*%
%ADD30C,2.600000*%
G04 APERTURE END LIST*
D10*
%TO.C,J10*%
X130380000Y-86360000D03*
X130380000Y-88900000D03*
X130380000Y-91440000D03*
X130380000Y-93980000D03*
X130380000Y-96520000D03*
X130380000Y-99060000D03*
X130380000Y-101600000D03*
X130380000Y-104140000D03*
X130380000Y-106680000D03*
X130380000Y-109220000D03*
X130380000Y-111760000D03*
X130380000Y-114300000D03*
X130380000Y-116840000D03*
X130380000Y-119380000D03*
X130380000Y-81280000D03*
X130380000Y-83820000D03*
D11*
X118380000Y-57380000D03*
X118380000Y-121380000D03*
%TD*%
D12*
%TO.C,U1*%
X165100000Y-58420000D03*
X165100000Y-60960000D03*
X165100000Y-63500000D03*
X165100000Y-66040000D03*
X165100000Y-68580000D03*
X165100000Y-71120000D03*
X165100000Y-73660000D03*
X165100000Y-76200000D03*
X165100000Y-78740000D03*
X165100000Y-81280000D03*
X165100000Y-83820000D03*
X165100000Y-86360000D03*
X165100000Y-88900000D03*
X165100000Y-91440000D03*
X165100000Y-93980000D03*
X165100000Y-96520000D03*
X165100000Y-99060000D03*
X165100000Y-101600000D03*
X165100000Y-104140000D03*
X165100000Y-106680000D03*
X149860000Y-106680000D03*
X149860000Y-104140000D03*
X149860000Y-101600000D03*
X149860000Y-99060000D03*
X149860000Y-96520000D03*
X149860000Y-93980000D03*
X149860000Y-91440000D03*
X149860000Y-88900000D03*
X149860000Y-86360000D03*
X149860000Y-83820000D03*
X149860000Y-81280000D03*
X149860000Y-78740000D03*
X149860000Y-76200000D03*
X149860000Y-73660000D03*
X149860000Y-71120000D03*
X149860000Y-68580000D03*
X149860000Y-66040000D03*
X149860000Y-63500000D03*
X149860000Y-60960000D03*
D13*
X149860000Y-58420000D03*
%TD*%
D14*
%TO.C,SW7*%
X191230000Y-147910000D03*
X197730000Y-147910000D03*
X191230000Y-152410000D03*
X197730000Y-152410000D03*
%TD*%
%TO.C,SW19*%
X222880000Y-147910000D03*
X229380000Y-147910000D03*
X222880000Y-152410000D03*
X229380000Y-152410000D03*
%TD*%
D15*
%TO.C,J15*%
X154305000Y-133985000D03*
%TD*%
D16*
%TO.C,RN1*%
X172720000Y-58420000D03*
D17*
X172720000Y-60960000D03*
X172720000Y-63500000D03*
X172720000Y-66040000D03*
X172720000Y-68580000D03*
X172720000Y-71120000D03*
X172720000Y-73660000D03*
X172720000Y-76200000D03*
X172720000Y-78740000D03*
%TD*%
D14*
%TO.C,SW10*%
X201780000Y-139360000D03*
X208280000Y-139360000D03*
X201780000Y-143860000D03*
X208280000Y-143860000D03*
%TD*%
D18*
%TO.C,Q1*%
X146772000Y-138430000D03*
D19*
X146772000Y-140970000D03*
X146772000Y-143510000D03*
%TD*%
D15*
%TO.C,J16*%
X154305000Y-147955000D03*
%TD*%
D20*
%TO.C,J3*%
X177800000Y-60960000D03*
X177800000Y-63500000D03*
X177800000Y-66040000D03*
X177800000Y-68580000D03*
X177800000Y-71120000D03*
X177800000Y-73660000D03*
X177800000Y-76200000D03*
X177800000Y-78740000D03*
%TD*%
D21*
%TO.C,U10*%
X139700000Y-138430000D03*
X139700000Y-140970000D03*
X139700000Y-143510000D03*
%TD*%
D14*
%TO.C,SW13*%
X212330000Y-130810000D03*
X218830000Y-130810000D03*
X212330000Y-135310000D03*
X218830000Y-135310000D03*
%TD*%
D17*
%TO.C,RN7*%
X229355000Y-95250000D03*
X226815000Y-95250000D03*
X224275000Y-95250000D03*
X221735000Y-95250000D03*
X219195000Y-95250000D03*
X216655000Y-95250000D03*
X214115000Y-95250000D03*
X211575000Y-95250000D03*
%TD*%
D20*
%TO.C,J1*%
X137160000Y-58420000D03*
X137160000Y-60960000D03*
X137160000Y-63500000D03*
X137160000Y-66040000D03*
X137160000Y-68580000D03*
X137160000Y-71120000D03*
X137160000Y-73660000D03*
X137160000Y-76200000D03*
%TD*%
D17*
%TO.C,RN5*%
X229355000Y-73660000D03*
X226815000Y-73660000D03*
X224275000Y-73660000D03*
X221735000Y-73660000D03*
X219195000Y-73660000D03*
X216655000Y-73660000D03*
X214115000Y-73660000D03*
X211575000Y-73660000D03*
%TD*%
D14*
%TO.C,SW4*%
X191230000Y-122260000D03*
X197730000Y-122260000D03*
X191230000Y-126760000D03*
X197730000Y-126760000D03*
%TD*%
%TO.C,SW17*%
X222880000Y-130810000D03*
X229380000Y-130810000D03*
X222880000Y-135310000D03*
X229380000Y-135310000D03*
%TD*%
D22*
%TO.C,U7*%
X212845000Y-59690000D03*
D23*
X212845000Y-62230000D03*
X212845000Y-64770000D03*
X212845000Y-67310000D03*
X212845000Y-69850000D03*
X228085000Y-69850000D03*
X228085000Y-67310000D03*
X228085000Y-64770000D03*
X228085000Y-62230000D03*
X228085000Y-59690000D03*
%TD*%
D14*
%TO.C,SW12*%
X212330000Y-122260000D03*
X218830000Y-122260000D03*
X212330000Y-126760000D03*
X218830000Y-126760000D03*
%TD*%
%TO.C,SW5*%
X191230000Y-130810000D03*
X197730000Y-130810000D03*
X191230000Y-135310000D03*
X197730000Y-135310000D03*
%TD*%
D24*
%TO.C,Y1*%
X159920000Y-118745000D03*
X155040000Y-118745000D03*
%TD*%
D20*
%TO.C,J13*%
X187445000Y-88900000D03*
X187445000Y-91440000D03*
X187445000Y-93980000D03*
X187445000Y-96520000D03*
%TD*%
D14*
%TO.C,SW11*%
X201780000Y-147910000D03*
X208280000Y-147910000D03*
X201780000Y-152410000D03*
X208280000Y-152410000D03*
%TD*%
%TO.C,SW8*%
X201780000Y-122260000D03*
X208280000Y-122260000D03*
X201780000Y-126760000D03*
X208280000Y-126760000D03*
%TD*%
D20*
%TO.C,J4*%
X177800000Y-106680000D03*
X177800000Y-104140000D03*
X177800000Y-101600000D03*
X177800000Y-99060000D03*
X177800000Y-96520000D03*
X177800000Y-93980000D03*
X177800000Y-91440000D03*
X177800000Y-88900000D03*
%TD*%
D22*
%TO.C,U8*%
X212845000Y-81280000D03*
D23*
X212845000Y-83820000D03*
X212845000Y-86360000D03*
X212845000Y-88900000D03*
X212845000Y-91440000D03*
X228085000Y-91440000D03*
X228085000Y-88900000D03*
X228085000Y-86360000D03*
X228085000Y-83820000D03*
X228085000Y-81280000D03*
%TD*%
D14*
%TO.C,SW18*%
X222880000Y-139360000D03*
X229380000Y-139360000D03*
X222880000Y-143860000D03*
X229380000Y-143860000D03*
%TD*%
D22*
%TO.C,U9*%
X212845000Y-102870000D03*
D23*
X212845000Y-105410000D03*
X212845000Y-107950000D03*
X212845000Y-110490000D03*
X212845000Y-113030000D03*
X228085000Y-113030000D03*
X228085000Y-110490000D03*
X228085000Y-107950000D03*
X228085000Y-105410000D03*
X228085000Y-102870000D03*
%TD*%
D20*
%TO.C,J8*%
X184905000Y-128270000D03*
X184905000Y-130810000D03*
X184905000Y-133350000D03*
X184905000Y-135890000D03*
X184905000Y-138430000D03*
X184905000Y-140970000D03*
X184905000Y-143510000D03*
X184905000Y-146050000D03*
%TD*%
D25*
%TO.C,D2*%
X141070000Y-127254000D03*
D26*
X141070000Y-129794000D03*
%TD*%
D17*
%TO.C,RN4*%
X211575000Y-55880000D03*
X214115000Y-55880000D03*
X216655000Y-55880000D03*
X219195000Y-55880000D03*
X221735000Y-55880000D03*
X224275000Y-55880000D03*
X226815000Y-55880000D03*
X229355000Y-55880000D03*
%TD*%
D14*
%TO.C,SW14*%
X212330000Y-139360000D03*
X218830000Y-139360000D03*
X212330000Y-143860000D03*
X218830000Y-143860000D03*
%TD*%
%TO.C,SW16*%
X222880000Y-122260000D03*
X229380000Y-122260000D03*
X222880000Y-126760000D03*
X229380000Y-126760000D03*
%TD*%
%TO.C,SW3*%
X174570000Y-33580000D03*
X174570000Y-40080000D03*
X179070000Y-33580000D03*
X179070000Y-40080000D03*
%TD*%
D20*
%TO.C,J12*%
X187445000Y-60960000D03*
X187445000Y-63500000D03*
X187445000Y-66040000D03*
X187445000Y-68580000D03*
X187445000Y-71120000D03*
X187445000Y-73660000D03*
X187445000Y-76200000D03*
X187445000Y-78740000D03*
%TD*%
D14*
%TO.C,SW1*%
X141260000Y-40080000D03*
X141260000Y-33580000D03*
X145760000Y-40080000D03*
X145760000Y-33580000D03*
%TD*%
%TO.C,SW6*%
X191230000Y-139360000D03*
X197730000Y-139360000D03*
X191230000Y-143860000D03*
X197730000Y-143860000D03*
%TD*%
D27*
%TO.C,SW20*%
X118420000Y-143625000D03*
X113720000Y-143625000D03*
X109020000Y-143625000D03*
%TD*%
D17*
%TO.C,RN3*%
X229355000Y-52070000D03*
X226815000Y-52070000D03*
X224275000Y-52070000D03*
X221735000Y-52070000D03*
X219195000Y-52070000D03*
X216655000Y-52070000D03*
X214115000Y-52070000D03*
X211575000Y-52070000D03*
%TD*%
D20*
%TO.C,J11*%
X135890000Y-48260000D03*
X133350000Y-48260000D03*
X130810000Y-48260000D03*
%TD*%
D14*
%TO.C,SW15*%
X212330000Y-147910000D03*
X218830000Y-147910000D03*
X212330000Y-152410000D03*
X218830000Y-152410000D03*
%TD*%
D17*
%TO.C,RN6*%
X211575000Y-77470000D03*
X214115000Y-77470000D03*
X216655000Y-77470000D03*
X219195000Y-77470000D03*
X221735000Y-77470000D03*
X224275000Y-77470000D03*
X226815000Y-77470000D03*
X229355000Y-77470000D03*
%TD*%
D22*
%TO.C,U6*%
X212845000Y-38100000D03*
D23*
X212845000Y-40640000D03*
X212845000Y-43180000D03*
X212845000Y-45720000D03*
X212845000Y-48260000D03*
X228085000Y-48260000D03*
X228085000Y-45720000D03*
X228085000Y-43180000D03*
X228085000Y-40640000D03*
X228085000Y-38100000D03*
%TD*%
D20*
%TO.C,J6*%
X154940000Y-37333000D03*
X157480000Y-37333000D03*
X160020000Y-37333000D03*
X160020000Y-39873000D03*
X157480000Y-39873000D03*
X154940000Y-39873000D03*
%TD*%
%TO.C,J5*%
X137160000Y-81280000D03*
X137160000Y-83820000D03*
X137160000Y-86360000D03*
X137160000Y-88900000D03*
X137160000Y-91440000D03*
X137160000Y-93980000D03*
X137160000Y-96520000D03*
X137160000Y-99060000D03*
%TD*%
D14*
%TO.C,SW9*%
X201780000Y-130810000D03*
X208280000Y-130810000D03*
X201780000Y-135310000D03*
X208280000Y-135310000D03*
%TD*%
D28*
%TO.C,RV1*%
X141450400Y-111721200D03*
X136450400Y-109221200D03*
X141450400Y-106721210D03*
%TD*%
D29*
%TO.C,J14*%
X119665000Y-132080000D03*
D30*
X113665000Y-132080000D03*
X116665000Y-136780000D03*
%TD*%
D14*
%TO.C,SW2*%
X165390000Y-33580000D03*
X165390000Y-40080000D03*
X169890000Y-33580000D03*
X169890000Y-40080000D03*
%TD*%
D17*
%TO.C,RN2*%
X211575000Y-34290000D03*
X214115000Y-34290000D03*
X216655000Y-34290000D03*
X219195000Y-34290000D03*
X221735000Y-34290000D03*
X224275000Y-34290000D03*
X226815000Y-34290000D03*
X229355000Y-34290000D03*
%TD*%
%TO.C,RN9*%
X229355000Y-116840000D03*
X226815000Y-116840000D03*
X224275000Y-116840000D03*
X221735000Y-116840000D03*
X219195000Y-116840000D03*
X216655000Y-116840000D03*
X214115000Y-116840000D03*
X211575000Y-116840000D03*
%TD*%
D20*
%TO.C,J9*%
X127000000Y-48260000D03*
X124460000Y-48260000D03*
X121920000Y-48260000D03*
X119380000Y-48260000D03*
X116840000Y-48260000D03*
X114300000Y-48260000D03*
X111760000Y-48260000D03*
X109220000Y-48260000D03*
%TD*%
D17*
%TO.C,RN8*%
X211575000Y-99060000D03*
X214115000Y-99060000D03*
X216655000Y-99060000D03*
X219195000Y-99060000D03*
X221735000Y-99060000D03*
X224275000Y-99060000D03*
X226815000Y-99060000D03*
X229355000Y-99060000D03*
%TD*%
M02*
